<svg xmlns="http://www.w3.org/2000/svg" width="571.651" height="311.604" viewBox="0 0 571.651 311.604">
  <g id="Group_14776" data-name="Group 14776" transform="translate(-696.016 -290.198)">
    <g id="_6316" data-name="6316" transform="translate(696.044 274.248)">
      <g id="Group_14603" data-name="Group 14603" transform="translate(-0.028 58.999)">
        <path id="Path_8302" data-name="Path 8302" d="M67.414,1128.065a30.305,30.305,0,0,0-2.072-7.777c-1.448-2.9-10.7-1.05-10.7-1.05s-1.845,1.589-2.242,8.969Z" transform="translate(-37.52 -860.192)" fill="#233862"/>
        <path id="Path_8303" data-name="Path 8303" d="M213.04,1112.531c-2.185-1.334-.937-11.211-.937-11.211s10.133-8.089,11.523-1.9,9.622,8.969,14.3,9.735c3.236.511,4.229,2.327,4.541,3.377Z" transform="translate(-151.641 -844.743)" fill="#233862"/>
        <path id="Path_8304" data-name="Path 8304" d="M104.868,707.7a41.623,41.623,0,0,1,.738,5.478c.937,18.335,15.44,60.312,18.051,61.277,4,1.5,10.331-1.7,13.652-2.753a2.833,2.833,0,0,0,1.987-3.236c-7.181-33.009-9.82-80.578-10.785-108.7a127.193,127.193,0,0,0-2.923-23.983s-35.364-9.423-35.592,2.5C89.825,648.834,101.717,690.273,104.868,707.7Z" transform="translate(-64.443 -511.832)" fill="#d94148"/>
        <path id="Path_8305" data-name="Path 8305" d="M104.868,707.676l23.643-47.966a127.2,127.2,0,0,0-2.923-23.983S90.222,626.332,90,638.252C89.825,648.81,101.717,690.249,104.868,707.676Z" transform="translate(-64.443 -511.808)" fill="#ae343a"/>
        <path id="Path_8306" data-name="Path 8306" d="M69.985,642.8l-18.7,135.526s-8.2,1.987-14.589.4c0,0-5.478-72.091-5.024-89.518s-3.917-46.632.993-49.839C37.6,636.129,69.985,642.8,69.985,642.8Z" transform="translate(-21.699 -516.299)" fill="#d94148"/>
        <path id="Path_8307" data-name="Path 8307" d="M25.784,436.433a2.575,2.575,0,0,0,1.873,2.668c2.611.766,5.62,1.277,11.41,2.5a110.6,110.6,0,0,0,21.8,2.185c14.333.085,19.754-4.853,19.754-4.853.624,0-.312-2.98-1.164-17.228-.284-4.825-.568-10.956-.766-18.676-.17-6.954-.312-15.241-.312-25.033C78.348,366.187,60.1,353.5,59.757,353.5h0c0,1.7-2.668,4.825-6.812,5.109-4.91.312-10.927-2.129-10.927-4.939,0-.028-8.855,14.163-12.006,29.262-.4,1.93-.71,3.945-.965,6.074C28.338,395.421,29.048,390.823,25.784,436.433Z" transform="translate(-18.453 -312.203)" fill="#274a99"/>
        <path id="Path_8308" data-name="Path 8308" d="M145.4,353.4s16.973-.142,21.06,5.591,13.056,36.585,8.373,46.831c-4.683,10.274-13.425-4.257-18.278-10.53S145.4,353.4,145.4,353.4Z" transform="translate(-104.124 -312.131)" fill="#274a99"/>
        <path id="Path_8309" data-name="Path 8309" d="M100.867,318.733v1.76s.483,5.478-6.272,6.3c-6.755.795-11.807-1.022-11.608-5.251a61.017,61.017,0,0,0,1.22-9.395,19.662,19.662,0,0,0-.227-3.292l13.113-.255,3.86.624Z" transform="translate(-59.42 -280.047)" fill="#ffb27d"/>
        <path id="Path_8310" data-name="Path 8310" d="M103.444,309.3l-.057,9.508a10.948,10.948,0,0,1-4.711,1.05c-6.017,0-9.905-4.428-11.949-7.607a19.66,19.66,0,0,0-.227-3.292l13.113-.255Z" transform="translate(-61.941 -280.119)" fill="#e2915a"/>
        <path id="Path_8311" data-name="Path 8311" d="M77.5,250.138c1.533,8.174,12.091,7.919,16.632,7.408,1.277-.142,2.1-.312,2.1-.312,1.448-.4,2.242-2.668,2.64-5.648.738-5.9-.2-14.589-1.192-16.8-1.5-3.349-4.342-6.954-14.958-4.342C72.084,233.052,75.546,239.665,77.5,250.138Z" transform="translate(-53.968 -223.43)" fill="#ffb27d"/>
        <path id="Path_8312" data-name="Path 8312" d="M200.839,434.4s6.556,14.5,6.386,18.846a22.555,22.555,0,0,0-6.386.823C195.7,455.6,200.839,434.4,200.839,434.4Z" transform="translate(-142.193 -370.142)" fill="#172c5c"/>
        <path id="Path_8313" data-name="Path 8313" d="M89.259,211.547a35.5,35.5,0,0,1-10.189-2.753c-4.484-1.958-10.133.2-11.977,1.164a2.849,2.849,0,0,1,.454-1.107,2.48,2.48,0,0,0-.937,1.391.34.34,0,0,0-.114.114,3.274,3.274,0,0,0-1.533.085s.426-.057.568.2c.028.028.028.057.057.085C58.606,214.1,57.954,225.142,60.2,227.7a88.031,88.031,0,0,1,6.727,9.905,10.36,10.36,0,0,0-.085-4.257c-.482-2.7,1.845-2.7,4.8-3.945,2.952-1.22.482-4.683,3.065-6.755,2.583-2.1,12.063-.851,11.921-2.469C90.168,218.955,89.259,211.916,89.259,211.547Z" transform="translate(-42.279 -207.999)" fill="#263238"/>
        <path id="Path_8314" data-name="Path 8314" d="M75.4,528.625c2.781,11.126,32.753,16.887,39.593,18.051-.284-4.825-.568-10.956-.766-18.676Z" transform="translate(-53.992 -437.176)" fill="#172c5c"/>
        <path id="Path_8315" data-name="Path 8315" d="M68.588,513.268c-.284,0-6.67-.965-7.805-1.533s-6.358-8-2.952-9.906c3.434-1.9,12.6,5.7,12.6,5.7Z" transform="translate(-40.595 -418.215)" fill="#ffb27d"/>
        <path id="Path_8316" data-name="Path 8316" d="M131.219,517.073s-24.693,1.334-41.24-2.214a7.076,7.076,0,0,1,4.8-6.9s25.828-5.478,32.015-3.945C132.978,505.522,131.219,517.073,131.219,517.073Z" transform="translate(-64.427 -419.806)" fill="#274a99"/>
        <path id="Path_8317" data-name="Path 8317" d="M10.084,390.543c5.109,6.187,11.807,11.211,19.186,12.4h0a13.681,13.681,0,0,0,1.816-8.231,16.7,16.7,0,0,0-2.7-7.578,17.531,17.531,0,0,1-1.448-2.923c-4-10.3-3.406-30.114-3.406-30.114s-17.115,1.788-22.45,9.423C-2.177,368.178,1.995,380.779,10.084,390.543Z" transform="translate(0.028 -312.633)" fill="#264999"/>
        <path id="Path_8318" data-name="Path 8318" d="M141.483,313.16c1.277-.142,2.1-.312,2.1-.312,1.448-.4,2.242-2.668,2.64-5.648a7.2,7.2,0,0,0-4.484,3.661A5.456,5.456,0,0,0,141.483,313.16Z" transform="translate(-101.314 -279.044)" fill="#e2915a"/>
        <path id="Path_8319" data-name="Path 8319" d="M150.555,318.689s5.9-9.764,1.306-10.189a6.928,6.928,0,0,0-7.1,3.832c-.653,1.135.17,6.3.17,6.3Z" transform="translate(-103.489 -279.947)" fill="#ffb27d"/>
        <path id="Path_8320" data-name="Path 8320" d="M86.422,383.1a11.191,11.191,0,0,0,1.022,3.377,16.3,16.3,0,0,0,3.775,5.194h0c15.355-6.925,18.449-30.738,18.988-43.794.2-5.251,0-8.77,0-8.77-6.925-2.3-8.884,1.7-8.884,1.7s-8.174,19.442-12.431,32.157C87.245,377.816,86.2,381.676,86.422,383.1Z" transform="translate(-61.864 -301.382)" fill="#274a99"/>
        <path id="Path_8321" data-name="Path 8321" d="M35.6,403.291c5.109,6.187,11.807,11.211,19.187,12.4h0c15.355-6.925,18.449-30.738,18.988-43.794,0,0-7.266,26.339-17.143,35.563a10.725,10.725,0,0,1-5.591,3.065s-12.46-3.519-15.071-6.84C35.77,403.4,35.657,403.291,35.6,403.291Z" transform="translate(-25.488 -325.381)" fill="#172c5c"/>
      </g>
      <g id="Group_14605" data-name="Group 14605" transform="translate(466.726 86.982)">
        <path id="Path_8322" data-name="Path 8322" d="M1793.713,307.928a10.346,10.346,0,0,0-8.174-.88c-13.879-1.618-17.938,14.56-17.767,20.152.2,5.563.823,11.552-5.393,18.789-17.909,20.918,19.612,21.854,19.612,21.854.312-16.717,20.35-10.615,19.47-8.912C1827.147,365.09,1804.016,313.292,1793.713,307.928Z" transform="translate(-1725.451 -306.592)" fill="#263238"/>
        <path id="Path_8323" data-name="Path 8323" d="M1659.168,545.6s-2.441-3.718-4.4-3.8-5.62-1.107-5.336-.369,2.554.795,2.781,1.249c.227.426-3.349,1.107-4.371,1.164-1.022.085-3.434,0-3.349.511s4.343,2.611,7.351,2.327a20.573,20.573,0,0,1,6.726.88Z" transform="translate(-1644.492 -474.586)" fill="#ffb27d"/>
        <path id="Path_8324" data-name="Path 8324" d="M1727.744,486.088a36.217,36.217,0,0,1-3.746,5.648c-2.9,3.633-7.38,7.833-13,8.657a13.851,13.851,0,0,1-7.72-1.249h0c-6.812-3.037-11.949-9.991-11.949-9.991a5.63,5.63,0,0,1,.766-5.506s13.794,3.094,15.1,2.441,8.969-22.706,10.785-25.487,8.032-4.2,8.032-4.2Z" transform="translate(-1677.76 -413.881)" fill="#8db0ff"/>
        <path id="Path_8325" data-name="Path 8325" d="M1755.219,562.477c-2.9,3.633-7.379,7.833-13,8.657a13.852,13.852,0,0,1-7.72-1.249c.256.028,7.1.88,9.792-3.974,2.781-4.967,5.762-12.829,9.877-10.218C1755.957,556.829,1755.872,559.667,1755.219,562.477Z" transform="translate(-1708.954 -484.621)" fill="#7a97d9"/>
        <path id="Path_8326" data-name="Path 8326" d="M1963.353,1080.545s4.2,3.832,3.378,6.556-4.626,4.541-5.137,7.891c-.511,3.32-2.554,5.137-4.4,5.137h-8.8s-1.362-2.356,1.93-3.065,4.513-4.626,4.314-8.259a65.011,65.011,0,0,1,.313-8.486l6.982-1.618Z" transform="translate(-1861.94 -859.557)" fill="#233862"/>
        <path id="Path_8327" data-name="Path 8327" d="M1815.955,1090.9s1.5,16.263-.341,17.171l-23.614-.057s0-2.725,3.8-3.321,10.473-2.838,11.58-7.777C1808.519,1091.979,1815.955,1090.9,1815.955,1090.9Z" transform="translate(-1750.134 -868.295)" fill="#233862"/>
        <path id="Path_8328" data-name="Path 8328" d="M1835.452,481.476c-4.853-10.9-7.833-14.021-7.266-17.427.426-2.526-1.277-46.973-1.277-46.973-.567-.17-1.731-.341-2.356-.483a6.02,6.02,0,0,1-4.343-3.775,30.739,30.739,0,0,1-1.476-10.019l-.625.114-10.473,2.072s.227,3.292.255,6.414v.085a6.028,6.028,0,0,1-4.342,5.818c-1.334.369-2.469.71-2.469.71a96.587,96.587,0,0,0-4.57,22.252c-.738,11.268,6.982,16.178-.057,38.714C1789.218,502,1838.149,487.493,1835.452,481.476Z" transform="translate(-1752.801 -375.494)" fill="#ffb27d"/>
        <path id="Path_8329" data-name="Path 8329" d="M1837.7,405.372s.227,3.292.255,6.414c5.847-.17,8.969-5.506,10.218-8.486Z" transform="translate(-1782.863 -375.852)" fill="#e8945b"/>
        <path id="Path_8330" data-name="Path 8330" d="M1819.177,361.9s13.879.227,13.879-8.4,1.816-14.418-7.039-14.929-10.587,2.781-11.268,5.676C1814.011,347.11,1815.572,361.613,1819.177,361.9Z" transform="translate(-1766.298 -329.454)" fill="#ffb27d"/>
        <path id="Path_8331" data-name="Path 8331" d="M1832.6,333.467s3.8,10.133,9.622,11.637,8.344-.057,8.344-.057a16.544,16.544,0,0,1-5.393-9.735C1845.173,335.284,1835.467,328.642,1832.6,333.467Z" transform="translate(-1779.211 -324.581)" fill="#163560"/>
        <path id="Path_8332" data-name="Path 8332" d="M1818.172,336.636a8.639,8.639,0,0,0-3.974,3.094,13.9,13.9,0,0,0-1.873,7.919s-2.866-6.9.341-10.785C1816.1,332.776,1818.172,336.636,1818.172,336.636Z" transform="translate(-1763.846 -326.927)" fill="#163560"/>
        <path id="Path_8333" data-name="Path 8333" d="M1828.8,400.783a3.52,3.52,0,0,1-2.867,1.164,2.573,2.573,0,0,1-2.129-1.419A9.511,9.511,0,0,1,1828.8,400.783Z" transform="translate(-1772.908 -373.703)" fill="#ebf3fa"/>
        <path id="Path_8334" data-name="Path 8334" d="M1832.607,472.769a97.4,97.4,0,0,1,0,10.927c-.227,3.945-4.229,9.224-4.8,10.558-1.419,3.292-3.037,3.8-3.037,3.8l-12.4,3.037L1808,502.173l-13.765-4.115s-6.273-17.483-3.746-27.332a76.4,76.4,0,0,1,6.357-16.689s11.211,10.984,25.828-.937Z" transform="translate(-1748.621 -411.518)" fill="#8db0ff"/>
        <path id="Path_8335" data-name="Path 8335" d="M1872.1,556.4c-.227,3.945-.6,7.635-1.164,8.94-1.419,3.292-3.037,3.8-3.037,3.8l-12.4,3.037-5.393-1.589s17.994-2.725,15.979-18.193Z" transform="translate(-1791.744 -482.634)" fill="#f2ccaa"/>
        <path id="Path_8336" data-name="Path 8336" d="M1790.113,620.728s-6.812,21.2-7.237,28.411,13.028,102.545,13.567,105.866c.511,3.122,4.4,5.137,4.4,5.137a5.933,5.933,0,0,0,4.342.341c3.548-.993,4.655-2.214,4.655-2.214s5.308-68,2.015-92.271a382.119,382.119,0,0,1-3.321-45.3h-18.42Z" transform="translate(-1743.592 -531.548)" fill="#d94148"/>
        <path id="Path_8337" data-name="Path 8337" d="M1842.844,618.6s10.388,13.936,11.353,23.359,1.532,42.517,3.576,51.713c2.072,9.2,9.65,26.878,9.65,55.516a5.765,5.765,0,0,1-3.236,2.526c-.766.284-1.816.539-2.838.795a4.48,4.48,0,0,1-5-2.356c-5.137-10.331-21.457-43.624-22.281-50.521-.6-4.882-5.761-37.266-17-56.254-2.7-4.57,1.646-22.677,1.646-22.677Z" transform="translate(-1767.459 -530.045)" fill="#d94148"/>
        <path id="Path_8338" data-name="Path 8338" d="M1828.051,401.243s-.227,1.022-2.781.851c0,0-2.129-.142-2.072-1.249A6.911,6.911,0,0,1,1828.051,401.243Z" transform="translate(-1772.476 -373.908)" fill="#fff"/>
        <path id="Path_8339" data-name="Path 8339" d="M1803.605,609.3s2.725,2.157,8.174,2.271c6.5.142,22.564-1.646,22.564-1.646a13.338,13.338,0,0,1,.681,4.115s-19.641,4.967-31.022.71A7.157,7.157,0,0,1,1803.605,609.3Z" transform="translate(-1758.163 -523.384)" fill="#233862"/>
        <g id="Group_14604" data-name="Group 14604" transform="translate(49.104 87.08)">
          <path id="Path_8340" data-name="Path 8340" d="M1820.452,620.1a3.376,3.376,0,1,1,2.952-3.349A3.162,3.162,0,0,1,1820.452,620.1Zm0-5.733a2.39,2.39,0,1,0,1.987,2.356A2.205,2.205,0,0,0,1820.452,614.365Z" transform="translate(-1817.5 -613.4)" fill="#fff"/>
        </g>
        <rect id="Rectangle_1313" data-name="Rectangle 1313" width="26.679" height="36.528" transform="translate(53.238 79.715) rotate(-41.047)" fill="#b5453c"/>
        <path id="Path_8341" data-name="Path 8341" d="M1878.351,623s-7.379.852-7.351,2.611,1.845,5.336,2.753,5.506,5.989-4.853,5.989-4.853Z" transform="translate(-1806.712 -533.196)" fill="#ffb27d"/>
        <path id="Path_8342" data-name="Path 8342" d="M1894.339,453.1s9.848.681,13.623,9.849,10.927,24.579,10.927,27.162-4,10.587-25.459,15.156c0,0-2.214-2.327-2.1-4.172,0,0,13.4-11.523,13.368-12.857-.057-2.554-2.185-5.9-13.964-17.682C1887.527,467.376,1894.339,453.1,1894.339,453.1Z" transform="translate(-1820.23 -411.517)" fill="#8db0ff"/>
      </g>
      <g id="Group_14609" data-name="Group 14609" transform="translate(305.97 188.196)">
        <g id="Group_14606" data-name="Group 14606" transform="translate(29.716 67.096)">
          <path id="Path_8343" data-name="Path 8343" d="M1183.992,971.294h-.113a1.078,1.078,0,0,1-1.078-1.078l1.618-70.048,4.768-.568-4.059,70.615A1.148,1.148,0,0,1,1183.992,971.294Z" transform="translate(-1182.8 -899.6)" fill="#b0d4ff"/>
        </g>
        <g id="Group_14607" data-name="Group 14607" transform="translate(1.958 67.096)">
          <path id="Path_8344" data-name="Path 8344" d="M1086.192,971.294h-.113a1.078,1.078,0,0,1-1.079-1.078l1.618-70.048,4.768-.568-4.059,70.615A1.128,1.128,0,0,1,1086.192,971.294Z" transform="translate(-1085 -899.6)" fill="#95c0f4"/>
        </g>
        <g id="Group_14608" data-name="Group 14608" transform="translate(74.532 67.096)">
          <path id="Path_8345" data-name="Path 8345" d="M1345.894,971.294h.114a1.078,1.078,0,0,0,1.078-1.078l-1.618-70.048-4.768-.568,4.059,70.615A1.109,1.109,0,0,0,1345.894,971.294Z" transform="translate(-1340.7 -899.6)" fill="#b0d4ff"/>
        </g>
        <path id="Path_8346" data-name="Path 8346" d="M1078.1,726.493V678.5a15.287,15.287,0,0,1,15.3-15.3H1128a15.287,15.287,0,0,1,15.3,15.3v49.839Z" transform="translate(-1078.1 -663.2)" fill="#b0d4ff"/>
        <path id="Path_8347" data-name="Path 8347" d="M1149.482,893.778H1082.7a4.6,4.6,0,0,1-4.6-4.6V886.2h71.382Z" transform="translate(-1078.1 -822.907)" fill="#95c0f4"/>
        <path id="Path_8348" data-name="Path 8348" d="M1221.727,893.707h-50.521a3.416,3.416,0,0,1-3.406-3.406v-.795a3.416,3.416,0,0,1,3.406-3.406h50.521a3.416,3.416,0,0,1,3.406,3.406v.795A3.416,3.416,0,0,1,1221.727,893.707Z" transform="translate(-1142.341 -822.836)" fill="#b0d4ff"/>
      </g>
      <g id="Group_14613" data-name="Group 14613" transform="translate(301.419 117.872)">
        <path id="Path_8349" data-name="Path 8349" d="M1257.3,840.53c-4.967,8.628-11.183,11.949-11.183,11.949H1220.2C1220.172,852.479,1261.071,833.945,1257.3,840.53Z" transform="translate(-1175.317 -718.862)" fill="#ae343a"/>
        <g id="Group_14610" data-name="Group 14610">
          <path id="Path_8350" data-name="Path 8350" d="M1279.135,1024.842a2.361,2.361,0,0,0-.426,2.554h0c.624,1.7,2.668,3.6,5.024,5.535.312.255.568.454.795.681l.171.17c.057.028.085.085.142.114,2.214,2.043,1.391,2.5,5.364,6.641,4.541,4.711,7.663,4.8,8.543,4.371.738-.369-.766-2.867-2.469-5.677-.085-.142-.17-.284-.255-.4-.227-.369-.454-.766-.681-1.135-1.987-3.377-1.476-4.967-.993-10.019.369-4.087,6.358-22.876,6.358-22.876l-8.685-1.5s-2.611,14.958-5.506,17.256c-1.532,1.22-3.264,1.249-4.74,2.157-.114.057-.2.142-.312.2A12.376,12.376,0,0,0,1279.135,1024.842Z" transform="translate(-1217.08 -836.448)" fill="#ffb27d"/>
          <path id="Path_8351" data-name="Path 8351" d="M1279.135,1073.757a2.361,2.361,0,0,0-.426,2.555h0c.766,1.7,2.753,3.6,5.052,5.506.312.256.568.482.795.681l.17.17c.057.028.085.085.142.113,2.214,2.043,1.391,2.5,5.364,6.642,4.541,4.712,7.663,4.8,8.543,4.371.738-.369-.766-2.866-2.469-5.677a19.157,19.157,0,0,1-8.089-5.96c-2.725-3.491-4.541-7.947-6.414-10.558-.114.057-.2.142-.312.2A12.911,12.911,0,0,0,1279.135,1073.757Z" transform="translate(-1217.08 -885.363)" fill="#233862"/>
          <path id="Path_8352" data-name="Path 8352" d="M1510.025,1012.9c.539,2.668,4.371,2.242,8.628,1.192s3.264.2,9.338-.483,7.919-2.952,8.117-3.832c.17-.795-2.838-1.078-6.045-1.448-.4-.057-.823-.085-1.221-.142-3.633-.454-6.3-2.81-9.593-4.74-3.122-1.817-7.805-9.253-7.805-9.253l-8.344.653s4.371,6.642,6.074,9.537c.994,1.7.937,3.945.823,5.676A9.537,9.537,0,0,0,1510.025,1012.9Z" transform="translate(-1377.923 -829.931)" fill="#ffb27d"/>
          <path id="Path_8353" data-name="Path 8353" d="M1535.913,1049.762c4.257-1.05,3.264.2,9.338-.482s7.918-2.952,8.117-3.832c.171-.795-2.838-1.078-6.045-1.447l-.028.057a17.046,17.046,0,0,1-8.714,2.7c-4.116.114-8.486-1.078-11.324-1.022a11.852,11.852,0,0,0,.057,2.838C1527.825,1051.238,1531.656,1050.783,1535.913,1049.762Z" transform="translate(-1395.183 -865.596)" fill="#233862"/>
          <path id="Path_8354" data-name="Path 8354" d="M1342.881,838.591l-7.805,20.974-10.161,27.389a16.948,16.948,0,0,1-5.393-.483,23.288,23.288,0,0,1-5.222-2.554s2.838-29.4,8.089-46.263c1.362-4.342,2.866-7.833,4.541-9.82C1335.076,818.156,1342.881,838.591,1342.881,838.591Z" transform="translate(-1242.709 -708.92)" fill="#ae343a"/>
          <path id="Path_8355" data-name="Path 8355" d="M1196.943,744.4c-5.109-1.646-19.669.454-34.286,3.321l-3.065-5.052L1128,740.2s-10.416,23.1-4.711,37.834a5.369,5.369,0,0,0,5.336,3.6H1154c15.724,0,33.236-10.785,35.506-11.239,3.718-.738,5.194,6.7,8.912,14.475,3.718,7.805,34.91,34.542,34.91,34.542s4.8.057,6.783-.681a6.48,6.48,0,0,0,2.9-1.845S1208.438,748.09,1196.943,744.4Z" transform="translate(-1104.69 -648.022)" fill="#d94148"/>
          <path id="Path_8356" data-name="Path 8356" d="M1115.973,418.088c-4.059-2.129-10.218-2.413-11.211-2.554-11.977-1.618-19.187,15.781-19.612,21.06-.795,9.707-5.932,11.183-13.141,17.285-14.5,12.2-10.246,26.367-2.327,31.646,4.768,3.15,13.141,0,13.141,0,.114.085,22.933-12.744,34.2-18.959C1133.882,464.181,1126.275,423.509,1115.973,418.088Z" transform="translate(-1062.319 -415.427)" fill="#233862"/>
          <path id="Path_8357" data-name="Path 8357" d="M1182.709,532.382c.057.028-5.535,1.93-9.281.284-3.52-1.561-6.187-7.323-6.131-7.323,1.589-.085,3.349-1.476,4.711-10.643l.681.255,11.438,4.115s-.823,3.661-1.363,7.152C1182.312,529.175,1182.085,531.985,1182.709,532.382Z" transform="translate(-1137.429 -486.524)" fill="#ffb27d"/>
          <path id="Path_8358" data-name="Path 8358" d="M1197.738,519.644s-.823,3.661-1.362,7.152c-6.585-1.192-9.139-7.72-10.076-11.3Z" transform="translate(-1151.039 -487.097)" fill="#ed975d"/>
          <path id="Path_8359" data-name="Path 8359" d="M1196.544,473.429s-15.667-2.1-14.191-11.835c1.448-9.735.426-16.547,10.473-15.61s11.438,4.939,11.75,8.288S1200.659,473.741,1196.544,473.429Z" transform="translate(-1148.141 -437.249)" fill="#ffb27d"/>
          <path id="Path_8360" data-name="Path 8360" d="M1192.725,446.8s-10.019,8.628-16.831,9.338-9.395-1.5-9.395-1.5a26.694,26.694,0,0,0,6.443-8.713,4.83,4.83,0,0,1,3.945-2.838C1181.741,442.655,1190.966,442.484,1192.725,446.8Z" transform="translate(-1136.858 -435.084)" fill="#263238"/>
          <path id="Path_8361" data-name="Path 8361" d="M1236.8,449.18s3.349,3.236,4.4,5.648c1.022,2.327,1.334,7.862.511,10.076,0,0,5.222-10.161,2.271-15.1C1240.859,444.583,1236.8,449.18,1236.8,449.18Z" transform="translate(-1187.206 -438.261)" fill="#233862"/>
          <path id="Path_8362" data-name="Path 8362" d="M1162.021,581.435c-.483,31.675-.142,25.062-3.6,28.07-.823.738-3.179,1.164-6.273,1.362-9.707.653-26.793-.965-27.446-2.753-2.242-6.216-.653-8.146-2.526-17.654-.2-1.022-.426-2.1-.71-3.292-1.561-6.528-3.065-8.742,2.441-19.243,5.024-9.508,10.218-17.228,10.7-16.944,13.226,7.862,14.3,1.249,14.3,1.249S1162.248,565.967,1162.021,581.435Z" transform="translate(-1103.571 -512.502)" fill="#8db0ff"/>
          <path id="Path_8363" data-name="Path 8363" d="M1335.076,890.911,1324.915,918.3a16.952,16.952,0,0,1-5.393-.483,23.292,23.292,0,0,1-5.222-2.554s2.838-29.4,8.089-46.263Z" transform="translate(-1242.709 -740.265)" fill="#d94148"/>
          <path id="Path_8364" data-name="Path 8364" d="M1221.8,555.3s13.624,2.3,15.213,8.174,11.012,40.331,11.012,40.331-6.925,1.249-10.133-1.958-11.126-29.66-11.126-29.66Z" transform="translate(-1176.463 -515.601)" fill="#8db0ff"/>
          <path id="Path_8365" data-name="Path 8365" d="M1157.572,677.2c-9.707.653-26.793-.965-27.446-2.753-2.242-6.216-.653-8.146-2.526-17.654l4.683-13.2s-.766,14.7,3.548,18.562c4.343,3.86,17.739,7.465,19.839,10.7A10.851,10.851,0,0,1,1157.572,677.2Z" transform="translate(-1108.999 -578.839)" fill="#7a97d9"/>
          <path id="Path_8366" data-name="Path 8366" d="M1194,736.47s9.593-2.129,11.126-1.277,5.336,3.945,5.79,5.024c.483,1.078-3.434-.823-4.711-1.164-.823-.227-3.009.539-4.059.88-4.513,1.5-7.294.738-7.294.738Z" transform="translate(-1156.553 -644.292)" fill="#ffb27d"/>
          <path id="Path_8367" data-name="Path 8367" d="M1093.1,550.9s-12.857.795-17.313,7.01c-6.272,8.742-18.7,46.036-11.58,51,8.032,5.591,36.557,1.476,36.557,1.476s.937-4.428-.369-6.585c-1.334-2.157-22.791-5.62-23.756-6.613-.993-.993,12.375-19.3,12.375-22.28C1088.98,571.931,1093.1,550.9,1093.1,550.9Z" transform="translate(-1062.063 -512.45)" fill="#8db0ff"/>
          <path id="Path_8368" data-name="Path 8368" d="M1234.9,745.1a18.982,18.982,0,0,0,2.668,2.9,1.876,1.876,0,0,0,1.078.227l-1.362-2.441Z" transform="translate(-1185.845 -651.531)" fill="#ffb27d"/>
          <path id="Path_8369" data-name="Path 8369" d="M1233.2,735.7l5.847,2.838a1.067,1.067,0,0,1-.965.369,13.423,13.423,0,0,1-2.526-.71Z" transform="translate(-1184.627 -644.799)" fill="#ffb27d"/>
        </g>
        <g id="Group_14612" data-name="Group 14612" transform="translate(37.447 65.868)">
          <g id="Group_14611" data-name="Group 14611">
            <path id="Path_8370" data-name="Path 8370" d="M1244.3,682.07h46.178l13.907-34.57h-46.121Z" transform="translate(-1230.024 -647.5)" fill="#f99746"/>
            <path id="Path_8371" data-name="Path 8371" d="M1254.994,764.5H1194v1.362h60.454Z" transform="translate(-1194 -731.293)" fill="#ed7d2b"/>
          </g>
          <path id="Path_8372" data-name="Path 8372" d="M1354.579,702.885a1.585,1.585,0,0,0-1.561-2.185,3.2,3.2,0,0,0-2.838,2.185,1.585,1.585,0,0,0,1.561,2.185A3.126,3.126,0,0,0,1354.579,702.885Z" transform="translate(-1305.789 -685.601)" fill="#fff"/>
        </g>
      </g>
      <g id="Group_14618" data-name="Group 14618" transform="translate(136.244 102.463)">
        <path id="Path_8373" data-name="Path 8373" d="M483.364,725.836h-.142a3.131,3.131,0,0,1-3.122-3.122V657.122A3.131,3.131,0,0,1,483.222,654h.142a3.131,3.131,0,0,1,3.122,3.122v65.62A3.107,3.107,0,0,1,483.364,725.836Z" transform="translate(-480.1 -570.879)" fill="#b0d4ff"/>
        <g id="Group_14614" data-name="Group 14614" transform="translate(1.958 152.829)">
          <path id="Path_8374" data-name="Path 8374" d="M488.192,971.294h-.114A1.078,1.078,0,0,1,487,970.215l1.618-70.048,4.768-.568-4.059,70.615A1.109,1.109,0,0,1,488.192,971.294Z" transform="translate(-487 -899.6)" fill="#95c0f4"/>
        </g>
        <g id="Group_14615" data-name="Group 14615" transform="translate(74.532 152.829)">
          <path id="Path_8375" data-name="Path 8375" d="M747.894,971.294h.114a1.078,1.078,0,0,0,1.079-1.078l-1.618-70.048L742.7,899.6l4.059,70.615A1.147,1.147,0,0,0,747.894,971.294Z" transform="translate(-742.7 -899.6)" fill="#b0d4ff"/>
        </g>
        <path id="Path_8376" data-name="Path 8376" d="M559.486,886.2H480.1v2.98a4.6,4.6,0,0,0,4.6,4.6h74.788a3.416,3.416,0,0,0,3.406-3.406v-.795A3.41,3.41,0,0,0,559.486,886.2Z" transform="translate(-480.1 -737.175)" fill="#b0d4ff"/>
        <path id="Path_8377" data-name="Path 8377" d="M899.14,1089.406s-1.164,14.532,1.419,14.73c.341.028,13.2.028,13.2.028l16.405-.085s-.114-3.945-4.91-4.8c-4.8-.823-14.276-4.882-17.171-11.211C905.016,1081.373,899.14,1089.406,899.14,1089.406Z" transform="translate(-780.02 -879.84)" fill="#163560"/>
        <path id="Path_8378" data-name="Path 8378" d="M552.2,795.74s.539,14.276,3.065,19.073h58.014s13.936,1.447,15.213,2.384c1.589,1.192-5.591,12.942,21.344,58.922l13.2-.341S649.24,801.218,646.8,799.345c-3.661-2.81-46.575-12.659-53.927-12.857C585.493,786.232,552.2,795.74,552.2,795.74Z" transform="translate(-531.736 -665.759)" fill="#d94148"/>
        <path id="Path_8379" data-name="Path 8379" d="M611.153,461.916c4.484,2.781,4.74,8.288,4.74,8.288-10.927,2.81-26.793-9.309-26.793-9.309s7.039-4.711,9.622-15.1c.142-.511.255-1.05.369-1.618a34.835,34.835,0,0,0,.6-5.676l5.024,4.484,8.344,7.465a75.738,75.738,0,0,1-1.22,8.43C611.607,459.872,611.38,460.865,611.153,461.916Z" transform="translate(-558.163 -416.543)" fill="#ffb27d"/>
        <path id="Path_8380" data-name="Path 8380" d="M575.141,559.12c-.369,2.441.369,4.4.738,6.216a7.117,7.117,0,0,1,.17,2.044c-.6,6.727,1.816,7.607,1.05,9.764a52.225,52.225,0,0,1-7.266,3.292c-2.044.766-4.484,1.589-7.323,2.384-.142.028-.284.085-.454.114a107.258,107.258,0,0,1-25.629,3.491c-6.187-.17-7.436-15.866-5.137-35.62,3.576-30.795,8.4-45.724,21.173-56.509.795-.681.255,1.646,4.541,3.69a20.066,20.066,0,0,0,12.431,1.533l2.923,2.98c5.79,9.139,6.386,20.01,5.9,29.064A259.681,259.681,0,0,1,575.141,559.12Z" transform="translate(-515.992 -456.415)" fill="#274a99"/>
        <path id="Path_8381" data-name="Path 8381" d="M637.723,461.893s.454-.454-.6,4.853c-9.224-2.668-12.233-7.379-13.482-10.5-.341-.88,3.434-1.362,5.733-1.845Z" transform="translate(-582.889 -427.93)" fill="#ed975d"/>
        <path id="Path_8382" data-name="Path 8382" d="M636.038,406.377s-17.824,2.554-19.243-8.571-4.683-18.278,6.641-20.379,14.078,1.873,15.44,5.449C640.267,386.481,640.636,405.412,636.038,406.377Z" transform="translate(-576.889 -372.385)" fill="#ffb27d"/>
        <g id="Group_14616" data-name="Group 14616" transform="translate(88.321 80.747)">
          <rect id="Rectangle_1314" data-name="Rectangle 1314" width="1.419" height="37.408" transform="translate(39.247 36.126) rotate(-162.632)" fill="#1c468a"/>
          <rect id="Rectangle_1315" data-name="Rectangle 1315" width="39.253" height="2.356" transform="matrix(-1, -0.01, 0.01, -1, 39.249, 36.128)" fill="#1c468a"/>
        </g>
        <path id="Path_8383" data-name="Path 8383" d="M597.52,366.406c-.142-.17-.482-.312-1.22-.341a2.9,2.9,0,0,1,1.391-.369c.17-1.022.738-2.838,2.5-3.264a2.194,2.194,0,0,0-1.078,1.589c2.072-2.1,6.471-3.6,18.647-2.526,16.036,1.391,10.672,11.637,8.572,12.829-2.1,1.22-7.294-2.185-11.154-1.9-3.888.284-4.655,5.875-5.96,6.613-1.306.766-.795-.6-2.554-1.419s-1.958,2.129-1.476,4.059c.511,1.93-1.958,4.428-1.958,4.428l-2.441-2.668c-2.441-2.668-4.683-13.964-3.548-16.348C597.322,366.831,597.435,366.6,597.52,366.406Z" transform="translate(-563.32 -361.137)" fill="#263238"/>
        <path id="Path_8384" data-name="Path 8384" d="M625.788,667.157a52.226,52.226,0,0,1-7.266,3.292C598.2,655.605,598.285,620.5,598.2,619.9l25.544,22.479.851,13a7.114,7.114,0,0,1,.17,2.044C624.142,664.12,626.554,664.971,625.788,667.157Z" transform="translate(-564.68 -546.457)" fill="#172c5c"/>
        <g id="Group_14617" data-name="Group 14617" transform="translate(97.919 100.378)">
          <path id="Path_8385" data-name="Path 8385" d="M825.1,719.157a6.4,6.4,0,0,0,3.349-.539c1.731-.823,7.692-3.378,8.8-3.009,1.107.341,4.768,2.413,5.62,2.81a11.368,11.368,0,0,1,2.384,2.412c-.624.625-2.838-.823-3.832-.795s-8.316,4.03-10.473,4.115a41.323,41.323,0,0,1-5.563-.369Z" transform="translate(-825.1 -715.353)" fill="#ffb27d"/>
          <path id="Path_8386" data-name="Path 8386" d="M871.8,729.157c.028.114,2.668,3.065,4.711,2.129L874.3,729.1Z" transform="translate(-858.545 -725.041)" fill="#ffb27d"/>
          <path id="Path_8387" data-name="Path 8387" d="M837,718.064a40.416,40.416,0,0,0,3.179-3.264s.482.227.482.624a5.308,5.308,0,0,1-.624,1.9Z" transform="translate(-833.622 -714.8)" fill="#ffb27d"/>
        </g>
        <path id="Path_8388" data-name="Path 8388" d="M612.41,535.816c-13.084-7.975-28.524,5.96-22.053,19.839,7.521,16.093,20.066,35.734,30.029,36.9,7.1.823,27.389,3.434,35.989,1.816,0,0,4.172.2,1.9-6.5,0,0-27.758-7.748-32.384-13.737-2.469-3.207-6.7-9.735-13.2-38.118C612.694,535.872,612.524,535.872,612.41,535.816Z" transform="translate(-557.973 -484.568)" fill="#274a99"/>
      </g>
      <g id="Group_14622" data-name="Group 14622" transform="translate(208.221 218.792)">
        <g id="Group_14619" data-name="Group 14619" transform="translate(327.192 9.139)">
          <path id="Path_8389" data-name="Path 8389" d="M1893.709,902.255h.142a1.472,1.472,0,0,0,1.476-1.5l-2.242-96.784-6.584-.766,5.62,97.55A1.57,1.57,0,0,0,1893.709,902.255Z" transform="translate(-1886.5 -803.2)" fill="#739af0"/>
        </g>
        <g id="Group_14621" data-name="Group 14621">
          <g id="Group_14620" data-name="Group 14620" transform="translate(9.394 9.139)">
            <path id="Path_8390" data-name="Path 8390" d="M768.416,902.255h-.142a1.472,1.472,0,0,1-1.476-1.5l2.242-96.784,6.585-.766-5.62,97.55A1.609,1.609,0,0,1,768.416,902.255Z" transform="translate(-766.797 -803.2)" fill="#739af0"/>
          </g>
          <path id="Path_8391" data-name="Path 8391" d="M1073.835,782.694H738.128a4.433,4.433,0,0,1-4.428-4.428v-2.838A4.433,4.433,0,0,1,738.128,771h335.679a4.433,4.433,0,0,1,4.428,4.428v2.838A4.409,4.409,0,0,1,1073.835,782.694Z" transform="translate(-733.7 -771)" fill="#739af0"/>
        </g>
      </g>
      <g id="Group_14625" data-name="Group 14625" transform="translate(438.402 184.251)">
        <g id="Group_14624" data-name="Group 14624">
          <path id="Path_8398" data-name="Path 8398" d="M1604.786,683.841h-46.207L1544.7,649.3h46.121Z" transform="translate(-1544.7 -649.3)" fill="#2b478b"/>
          <path id="Path_8399" data-name="Path 8399" d="M1591.7,766.3h60.994v1.334H1592.24Z" transform="translate(-1578.36 -733.093)" fill="#2b478b"/>
        </g>
        <path id="Path_8400" data-name="Path 8400" d="M1634.479,704.686a1.585,1.585,0,0,1,1.561-2.186,3.2,3.2,0,0,1,2.838,2.186,1.585,1.585,0,0,1-1.561,2.185A3.155,3.155,0,0,1,1634.479,704.686Z" transform="translate(-1608.935 -687.401)" fill="#fff"/>
      </g>
    </g>
    <g id="Group_14626" data-name="Group 14626" transform="translate(-254.738 10.81)">
      <g id="Group_10040" data-name="Group 10040" transform="translate(1023.744 279.388)">
        <path id="Path_487" data-name="Path 487" d="M247.029,3418.53H351.371a3.4,3.4,0,0,1,3.389,3.389v58.3a3.4,3.4,0,0,1-3.389,3.388H247.029a3.4,3.4,0,0,1-3.389-3.388v-58.3A3.4,3.4,0,0,1,247.029,3418.53Z" transform="translate(-237.504 -3407.074)" fill="rgba(52,52,99,0.2)" fill-rule="evenodd"/>
        <rect id="Rectangle_644" data-name="Rectangle 644" width="112.431" height="71.15" rx="4" transform="translate(0 0)" fill="#fefefe"/>
        <path id="Path_488" data-name="Path 488" d="M3.706,2963.7h105.02a3.716,3.716,0,0,1,3.706,3.706v4.6H0v-4.6A3.716,3.716,0,0,1,3.706,2963.7Z" transform="translate(0 -2963.7)" fill="#5c59ab" fill-rule="evenodd"/>
        <g id="Group_10039" data-name="Group 10039" transform="translate(9.38 15.254)">
          <g id="Group_10037" data-name="Group 10037" transform="translate(6.942 0)">
            <path id="Path_489" data-name="Path 489" d="M658.106,3586.358,648.05,3576.3a23.711,23.711,0,0,1,16.76-6.942v14.221a9.486,9.486,0,0,0-6.7,2.777h0Zm0,0Z" transform="translate(-648.05 -3569.36)" fill="#be3e45" fill-rule="evenodd"/>
            <path id="_1" data-name="1" d="M658.106,3586.358,648.05,3576.3a23.711,23.711,0,0,1,16.76-6.942v14.221a9.486,9.486,0,0,0-6.7,2.777m0,0Z" transform="translate(-648.05 -3569.36)" fill="none" fill-rule="evenodd"/>
          </g>
          <g id="Group_10038" data-name="Group 10038" transform="translate(0 6.942)">
            <path id="Path_490" data-name="Path 490" d="M391.372,3869.941l-7.111,12.316a23.7,23.7,0,0,1-4.909-37.287l10.056,10.056a9.482,9.482,0,0,0,1.963,14.915Zm0,0Z" transform="translate(-372.41 -3844.971)" fill="#f08491" fill-rule="evenodd"/>
            <path id="_1-2" data-name="1" d="M391.372,3869.941l-7.111,12.316a23.7,23.7,0,0,1-4.909-37.287l10.056,10.056a9.482,9.482,0,0,0,1.963,14.915m0,0Z" transform="translate(-372.41 -3844.971)" fill="none" fill-rule="evenodd"/>
          </g>
          <path id="Path_491" data-name="Path 491" d="M854.742,3583.571V3569.35a23.7,23.7,0,1,1-11.852,44.23L850,3601.263a9.481,9.481,0,1,0,4.74-17.691Z" transform="translate(-831.04 -3569.35)" fill="#ea5563" fill-rule="evenodd"/>
        </g>
        <g id="_1797043227952" transform="translate(73.37 14.754)">
          <rect id="Rectangle_645" data-name="Rectangle 645" width="4.992" height="4.87" fill="#f08491"/>
          <rect id="Rectangle_646" data-name="Rectangle 646" width="4.992" height="4.87" transform="translate(0 7.244)" fill="#ea5563"/>
          <rect id="Rectangle_647" data-name="Rectangle 647" width="4.992" height="4.87" transform="translate(0 14.487)" fill="#be3e45"/>
          <line id="Line_95" data-name="Line 95" x2="23.252" transform="translate(7.313 2.088)" fill="none" stroke="#f08491" stroke-width="1"/>
          <line id="Line_96" data-name="Line 96" x2="23.252" transform="translate(7.313 9.679)" fill="none" stroke="#f08491" stroke-width="1"/>
          <line id="Line_97" data-name="Line 97" x2="23.252" transform="translate(7.313 16.923)" fill="none" stroke="#f08491" stroke-width="1"/>
          <line id="Line_98" data-name="Line 98" x2="29.948" transform="translate(0.252 29.462)" fill="none" stroke="#be3e45" stroke-width="1"/>
          <line id="Line_99" data-name="Line 99" x2="29.948" transform="translate(0.252 33.251)" fill="none" stroke="#be3e45" stroke-width="1"/>
          <line id="Line_100" data-name="Line 100" x2="29.948" transform="translate(0.252 37.039)" fill="none" stroke="#be3e45" stroke-width="1"/>
          <line id="Line_101" data-name="Line 101" x2="29.948" transform="translate(0.252 40.828)" fill="none" stroke="#be3e45" stroke-width="1"/>
          <line id="Line_102" data-name="Line 102" x2="29.948" transform="translate(0.252 44.616)" fill="none" stroke="#be3e45" stroke-width="1"/>
          <line id="Line_103" data-name="Line 103" x2="29.948" transform="translate(0.252 48.405)" fill="none" stroke="#be3e45" stroke-width="1"/>
        </g>
      </g>
    </g>
    <g id="Group_10035" data-name="Group 10035" transform="translate(1060.249 302.86)">
      <line id="Line_88" data-name="Line 88" y1="47.19" transform="translate(12.105 15.025)" fill="none" stroke="#7dbae3" stroke-width="20"/>
      <path id="Path_464" data-name="Path 464" d="M11654.329,8002.61h107.75a3.511,3.511,0,0,1,3.5,3.5v60.2a3.51,3.51,0,0,1-3.5,3.5h-107.75a3.508,3.508,0,0,1-3.5-3.5v-60.2A3.509,3.509,0,0,1,11654.329,8002.61Z" transform="translate(-11644.494 -7990.78)" fill="rgba(52,52,99,0.2)" fill-rule="evenodd"/>
      <rect id="Rectangle_642" data-name="Rectangle 642" width="116.103" height="73.473" rx="8" fill="#fefefe"/>
      <path id="Path_465" data-name="Path 465" d="M11426.266,7576.121h108.449a3.837,3.837,0,0,1,3.826,3.827v4.746h-116.1v-4.746A3.838,3.838,0,0,1,11426.266,7576.121Z" transform="translate(-11422.438 -7576.121)" fill="#5c59ab" fill-rule="evenodd"/>
      <line id="Line_89" data-name="Line 89" x2="93.68" transform="translate(12.102 23.595)" fill="none" stroke="#e1e1e1" stroke-width="1"/>
      <line id="Line_107" data-name="Line 107" x2="93.68" transform="translate(12.102 15.878)" fill="none" stroke="#e1e1e1" stroke-width="1"/>
      <line id="Line_90" data-name="Line 90" x2="93.68" transform="translate(12.102 31.249)" fill="none" stroke="#e1e1e1" stroke-width="1"/>
      <line id="Line_91" data-name="Line 91" x2="93.68" transform="translate(12.102 38.903)" fill="none" stroke="#e1e1e1" stroke-width="1"/>
      <line id="Line_92" data-name="Line 92" x2="93.68" transform="translate(12.102 46.556)" fill="none" stroke="#e1e1e1" stroke-width="1"/>
      <line id="Line_93" data-name="Line 93" x2="93.68" transform="translate(12.102 54.21)" fill="none" stroke="#e1e1e1" stroke-width="1"/>
      <line id="Line_94" data-name="Line 94" x2="93.68" transform="translate(12.102 61.864)" fill="none" stroke="#e1e1e1" stroke-width="1"/>
      <path id="Path_466" data-name="Path 466" d="M11869.1,8231.494l9.49-6.084,9.951,6.084,6.676-6.428,4.641,3.979,3.047-2.6,1.742,3.023,4.426-5.128,3.264,4.019,1.631-4.095,2.832,4.324,3.518-7.347,2.213,6.39,3.736-9.376,2.215,3.444,2.1-2.3,3.555,2.066,9.688-22.309,4.932,11.747,3.338-6.276,4.352,8.42,2.9-3.521,3.043,3.521v25.256h-93.148Z" transform="translate(-11856.709 -8181.878)" fill="#be3e45" fill-rule="evenodd"/>
      <path id="Path_467" data-name="Path 467" d="M11869.1,8448.4l9.512-6.313,9.93,6.313,6.676-6.428,4.641,3.98,3.047-2.6,1.742,3.023,4.426-5.127,3.264,4.018,1.631-4.095,2.832,4.325,3.518-7.348,2.213,6.391,3.736-9.377,2.215,3.445,2.1-2.295,3.555,2.064,9.688-22.309,4.932,11.747,3.338-6.274,4.352,8.418,2.9-3.521,3.043,3.521v25.257h-93.148Z" transform="translate(-11856.709 -8392.772)" fill="#f08491" fill-rule="evenodd"/>
    </g>
  </g>
</svg>
