<svg xmlns="http://www.w3.org/2000/svg" width="45.618" height="52.826" viewBox="0 0 45.618 52.826">
  <g id="noun-ramp-3194802" transform="translate(0 0)">
    <g id="Group_26556" data-name="Group 26556" transform="translate(0 0)">
      <path id="Path_8792" data-name="Path 8792" d="M28.354,58.486a13.572,13.572,0,0,0,7.207-4.346l-1.54-3.686a10.052,10.052,0,0,1-6.437,4.676,10.181,10.181,0,0,1-8.967-17.6l-.11-4.126a13.623,13.623,0,0,0,9.848,25.086Z" transform="translate(-9.969 -15.838)" fill="#e6e6e6"/>
      <path id="Path_8793" data-name="Path 8793" d="M34.232,23.4H32.417a3.371,3.371,0,0,0-2.531,1.1,3.479,3.479,0,0,0-.99,2.586l.22,10.013a3.362,3.362,0,0,0,1.375,2.7,3.574,3.574,0,0,0,2.971.66l8.087-1.87,4.456,10.838a2.5,2.5,0,0,0,2.861,1.485c.11-.055.275-.055.385-.11a2.536,2.536,0,0,0,1.375-3.246L45.785,35.778a3.826,3.826,0,0,0-4.346-2.256l-3.246.66-.165-4.016.88.5a2.3,2.3,0,0,0,1.6.22l4.016-.935A2.291,2.291,0,0,0,46.225,27.2a2.25,2.25,0,0,0-2.751-1.705l-3.191.715s-3.411-1.925-3.906-2.2A5.909,5.909,0,0,0,34.232,23.4Z" transform="translate(-17.717 -11.339)" fill="#e6e6e6"/>
      <circle id="Ellipse_12" data-name="Ellipse 12" cx="5.061" cy="5.061" r="5.061" transform="matrix(0.993, -0.118, 0.118, 0.993, 9.848, 1.196)" fill="#e6e6e6"/>
      <path id="Path_8794" data-name="Path 8794" d="M52.217,73.469,9.8,83.537a1.59,1.59,0,0,0,.385,3.136H52.6a1.6,1.6,0,0,0,1.6-1.6V75.009A1.659,1.659,0,0,0,52.217,73.469Z" transform="translate(-8.58 -33.846)" fill="#e6e6e6"/>
    </g>
  </g>
</svg>
