<svg xmlns="http://www.w3.org/2000/svg" width="35.129" height="35" viewBox="0 0 35.129 35">
  <g id="school" transform="translate(0.009 0.021)">
    <path id="Path_574" data-name="Path 574" d="M135.863,242.16V229.142c-1.029.157-2.04.309-3.042.465-.424.066-.729-.106-.777-.45-.046-.307.209-.56.621-.619l3.218-.46v-.392c0-.827.018-1.651-.007-2.478a.9.9,0,0,1,.594-.932c1.726-.832,3.44-1.69,5.166-2.521a.591.591,0,0,0,.4-.63c-.021-1.446-.011-2.891-.008-4.337,0-.508.1-.626.583-.777a3.734,3.734,0,0,1,2.526.158c.406.159.8.342,1.208.5a2.392,2.392,0,0,0,1.638.072c.519-.16.8.055.805.595.006,1.081,0,2.162,0,3.244a.58.58,0,0,1-.454.616,3.725,3.725,0,0,1-2.495-.121c-.557-.207-1.1-.456-1.672-.61-.963-.261-1.028-.183-1.029.777a.446.446,0,0,0,.314.458c1.767.859,3.524,1.737,5.3,2.588a.841.841,0,0,1,.547.874c-.023.957-.008,1.915-.008,2.9l5.462.769c0-.723,0-1.412,0-2.1,0-.4.178-.605.509-.629a.512.512,0,0,1,.6.563c.011.667.016,1.336,0,2-.007.264.074.366.343.379a7.081,7.081,0,0,1,.9.127,1.1,1.1,0,0,1,.947,1.044c.013.157.012.316.012.473v11.415h1.3c.273,0,.543.009.7.291a.7.7,0,0,1-.13.777,5.97,5.97,0,0,0-1.151,3.023,5.47,5.47,0,0,0,1.024,3.424c.06.091.127.178.186.269.324.5.135.905-.467.911-1.906.017-3.813.012-5.719,0-.425,0-.654-.234-.638-.583s.243-.537.685-.538h4.731a6.311,6.311,0,0,1-.007-6.422H132.049v6.481h18.2a2.287,2.287,0,0,1,.4.014.51.51,0,0,1,.456.565.5.5,0,0,1-.494.528c-.1.009-.194.007-.291.007h-20.8a4.33,4.33,0,0,1-4.372-3.354,4.2,4.2,0,0,1,1.679-4.487.716.716,0,0,0,.343-.68q-.015-5.829-.007-11.658c0-1.021.351-1.419,1.372-1.566.3-.044.6-.1.9-.141.411-.051.609.089.654.437a.557.557,0,0,1-.509.666c-.429.079-.861.145-1.313.221V242.16ZM149.3,229.2c0,.553.014,1.062,0,1.569a.534.534,0,0,1-.842.473.845.845,0,0,1-.255-.583c-.019-1.688-.017-3.377-.006-5.065a.468.468,0,0,0-.306-.5q-2.506-1.211-5-2.452a.6.6,0,0,0-.6.012q-2.461,1.216-4.933,2.412a.546.546,0,0,0-.357.578q.015,8.016.007,16.034v.418h1.8v-.413c0-1.627-.017-3.255.009-4.883a3.79,3.79,0,0,1,7.578.091c.017,1.6,0,3.206,0,4.81v.389h1.8v-7.9a3.25,3.25,0,0,1,.009-.364.494.494,0,0,1,.509-.47.508.508,0,0,1,.57.4,1.6,1.6,0,0,1,.024.4v7.943h7.631v-11.8Zm-4.065,12.9a.486.486,0,0,0,.037-.121c0-1.736.049-3.475-.017-5.209a2.633,2.633,0,0,0-3.124-2.475,2.675,2.675,0,0,0-2.219,2.72c-.008,1.58,0,3.158,0,4.737v.354Zm-14.365,7.631V243.26c-.583,0-1.141-.021-1.7,0a3.265,3.265,0,0,0-3.027,3.046,3.136,3.136,0,0,0,2.456,3.286A15.713,15.713,0,0,0,130.867,249.727ZM147.6,217.985a3.437,3.437,0,0,1-.714-.049c-.695-.2-1.377-.447-2.071-.648a12.949,12.949,0,0,0-1.373-.3c-.083-.014-.274.116-.276.184-.02.7-.013,1.394-.013,2.08a5.069,5.069,0,0,1,.992.1c.707.2,1.4.456,2.1.692a2.571,2.571,0,0,0,1.36.171Z" transform="translate(-125.02 -215.88)" fill="#131523"/>
    <path id="Path_575" data-name="Path 575" d="M251.987,526.885H244.41c-.46-.009-.7-.2-.691-.561s.244-.554.7-.554h15.191c.46,0,.7.2.7.561s-.255.554-.708.555Q255.793,526.887,251.987,526.885Z" transform="translate(-232.196 -495.684)" fill="#131523"/>
    <path id="Path_576" data-name="Path 576" d="M177.415,404.43c0,.607.007,1.213,0,1.82-.007.444-.179.612-.627.614q-1.819.009-3.638,0c-.436,0-.63-.184-.633-.616q-.014-1.819,0-3.639c0-.447.2-.641.654-.643q1.8-.012,3.6,0c.456,0,.638.194.644.645Q177.414,403.522,177.415,404.43Zm-3.783,1.293h2.64v-2.639c-.831,0-1.641,0-2.451.007a.25.25,0,0,0-.181.162C173.626,404.075,173.632,404.9,173.632,405.723Z" transform="translate(-167.904 -383.902)" fill="#131523"/>
    <path id="Path_577" data-name="Path 577" d="M399.128,252.851c-.156.187-.262.427-.425.476a.891.891,0,0,1-.622-.123,12.081,12.081,0,0,0-1.744-1.084,5.026,5.026,0,0,0-5.326.971.909.909,0,0,1-.518.277.8.8,0,0,1-.507-.318c-.167-.23-.036-.461.152-.646a5.788,5.788,0,0,1,2.473-1.476,6.117,6.117,0,0,1,6.144,1.411A3.574,3.574,0,0,1,399.128,252.851Z" transform="translate(-364.185 -247.279)" fill="#131523"/>
    <path id="Path_578" data-name="Path 578" d="M412.388,275.289c-.007.514-.446.777-.807.576a1.748,1.748,0,0,1-.258-.2,2.926,2.926,0,0,0-3.838.02.887.887,0,0,1-.607.218.528.528,0,0,1-.224-.934,3.845,3.845,0,0,1,2.9-1.128,3.782,3.782,0,0,1,2.591,1.08A1.722,1.722,0,0,1,412.388,275.289Z" transform="translate(-379.126 -268.226)" fill="#131523"/>
    <path id="Path_579" data-name="Path 579" d="M422.94,298.477a2.08,2.08,0,0,1,2.273-.019l.021.014a.543.543,0,1,1-.664.861.719.719,0,0,0-.961,0,.527.527,0,0,1-.777-.075.5.5,0,0,1,.1-.768Z" transform="translate(-393.786 -290.158)" fill="#131523"/>
    <path id="Path_580" data-name="Path 580" d="M391.78,406.879h-1.749c-.472,0-.671-.194-.674-.662q-.014-1.787,0-3.571c0-.476.194-.664.67-.667q1.786-.009,3.57,0c.474,0,.663.187.665.668q.013,1.786,0,3.571c0,.506-.175.659-.7.662C392.97,406.882,392.374,406.879,391.78,406.879Zm1.341-1.131v-2.618h-2.61v2.618Z" transform="translate(-363.679 -383.915)" fill="#131523"/>
    <path id="Path_581" data-name="Path 581" d="M284.016,326.541a2.368,2.368,0,1,1,2.348-2.365,2.332,2.332,0,0,1-2.348,2.365Zm1.229-2.32a1.243,1.243,0,1,0-1.278,1.206A1.243,1.243,0,0,0,285.245,324.222Z" transform="translate(-266.433 -311.534)" fill="#131523"/>
  </g>
</svg>
