<svg xmlns="http://www.w3.org/2000/svg" width="388.152" height="328.598" viewBox="0 0 388.152 328.598">
  <g id="OBJECTS" transform="translate(-16.38 -55.828)">
    <circle id="Ellipse_12" data-name="Ellipse 12" cx="9.341" cy="9.341" r="9.341" transform="translate(309.124 90.424) rotate(-72.92)" fill="#e6edff"/>
    <path id="Path_1361" data-name="Path 1361" d="M402.929,303.34a36.036,36.036,0,0,0-2.288-6.548c-7.534-16.27-25.421-20.937-38.541-30.485-5.595-4.078-10.1-10.22-10.51-17.132-.489-8.206,4.625-15.524,8.786-22.619,5.313-9.068,9.407-19.063,10.012-29.573s-2.652-21.509-10.245-28.769c-8.744-8.38-21.757-10.634-33.858-10.12-30.792,1.3-59.188,14.256-83.581-12.433-17.29-18.939-24.575-50.767-42.437-69.573C171.9,46.248,122.87,51.3,92.087,78.664c-27.816,24.733-36.834,64.07-26.921,99.362,6.4,22.785,14.09,45.935-1.774,67.427-13.576,18.392-35.06,30.667-43,53.046-7.692,21.7-4.915,48.546,13.518,64.086,9.507,7.99,21.691,12.126,33.842,14.8l.265.058h246.7C353.613,371.587,415.262,353,402.929,303.34Z" fill="#bfd2ff"/>
    <circle id="Ellipse_13" data-name="Ellipse 13" cx="18.409" cy="18.409" r="18.409" transform="translate(265.294 121.588) rotate(-67.66)" fill="#bfd2ff"/>
    <path id="Path_1362" data-name="Path 1362" d="M64.432,252.165A11.181,11.181,0,1,1,53.259,241,11.181,11.181,0,0,1,64.432,252.165Z" transform="translate(-4.397 -31.693)" fill="#bfd2ff"/>
    <path id="Path_1363" data-name="Path 1363" d="M132.14,441.18c3.73.754,7.46,1.45,11.2,2.122h3.912Z" transform="translate(-19.813 -65.954)" fill="#bfd2ff"/>
    <path id="Path_1364" data-name="Path 1364" d="M462.428,284.638a8.546,8.546,0,0,0-2.2-3.788l-1.741-1.343a8.579,8.579,0,0,0-4.335-1.177h-.431a8.819,8.819,0,0,0-8.587,8.6c.1.754.2,1.517.307,2.279a8.62,8.62,0,0,0,2.2,3.8l1.741,1.343a8.487,8.487,0,0,0,4.335,1.169h.423a8.819,8.819,0,0,0,8.587-8.587Z" transform="translate(-73.382 -38.082)" fill="#e6edff"/>
    <rect id="Rectangle_684" data-name="Rectangle 684" width="211.986" height="126.059" rx="9.79" transform="translate(83.995 247.009) rotate(0.27)" fill="#63738f"/>
    <path id="Path_1365" data-name="Path 1365" d="M226.6,289.961a.97.97,0,1,1-.3-.689.97.97,0,0,1,.3.689Z" transform="translate(-35.648 -39.908)" fill="#333842"/>
    <path id="Path_1366" data-name="Path 1366" d="M321.646,439.84h0L78.28,438.68h0a10.128,10.128,0,0,0,10.07,10.211l223.125,1.061a10.128,10.128,0,0,0,10.17-10.112Z" transform="translate(-10.594 -65.527)" fill="#3e4d66"/>
    <path id="Path_1367" data-name="Path 1367" d="M298.84,410.624,109.7,409.688a6.341,6.341,0,0,1-6.308-6.366l.5-104.435a6.341,6.341,0,0,1,6.366-6.308l189.134.9a6.341,6.341,0,0,1,6.308,6.366l-.5,104.476a6.341,6.341,0,0,1-6.357,6.3Z" transform="translate(-14.892 -40.521)" fill="#fefeff"/>
    <rect id="Rectangle_685" data-name="Rectangle 685" width="6.946" height="27.385" transform="translate(326.94 155.217) rotate(-90)" fill="#ffb861"/>
    <rect id="Rectangle_686" data-name="Rectangle 686" width="6.946" height="40.788" transform="translate(326.94 144.475) rotate(-90)" fill="#96b3ff"/>
    <rect id="Rectangle_687" data-name="Rectangle 687" width="6.946" height="59.279" transform="translate(326.94 133.749) rotate(-90)" fill="#ff6ea1"/>
    <rect id="Rectangle_688" data-name="Rectangle 688" width="6.946" height="33.353" transform="translate(326.94 123.008) rotate(-90)" fill="#3fd4c7"/>
    <path id="Path_1368" data-name="Path 1368" d="M389.98,121.03v50.253h64.542" transform="translate(-63.943 -11.16)" fill="none" stroke="#333842" stroke-linecap="round" stroke-width="0.68"/>
    <rect id="Rectangle_689" data-name="Rectangle 689" width="42.089" height="3.962" transform="translate(347.811 170.169)" fill="#e0e9ff"/>
    <rect id="Rectangle_690" data-name="Rectangle 690" width="42.089" height="3.962" transform="translate(347.811 177.612)" fill="#e0e9ff"/>
    <rect id="Rectangle_691" data-name="Rectangle 691" width="42.089" height="3.978" transform="translate(347.811 185.055)" fill="#e0e9ff"/>
    <rect id="Rectangle_692" data-name="Rectangle 692" width="18.21" height="18.865" transform="translate(326.037 170.169)" fill="#e0e9ff"/>
    <rect id="Rectangle_693" data-name="Rectangle 693" width="63.863" height="3.962" transform="translate(326.037 192.498)" fill="#e0e9ff"/>
    <rect id="Rectangle_694" data-name="Rectangle 694" width="63.863" height="3.962" transform="translate(326.037 199.949)" fill="#e0e9ff"/>
    <path id="Path_1369" data-name="Path 1369" d="M286.661,68.816a20.273,20.273,0,0,0-3.755,1.127c.066.091.149.174.215.282a3.353,3.353,0,1,1-5.686,3.556,2.724,2.724,0,0,1-.174-.348,21.05,21.05,0,0,0-2.7,2.868c.116.05.232.083.348.141a3.357,3.357,0,1,1-3.506,5.686,20.794,20.794,0,0,0-.912,3.862c.133,0,.274-.05.414-.058a3.355,3.355,0,1,1,.24,6.705,3.057,3.057,0,0,1-.481,0,19.99,19.99,0,0,0,1.144,3.846,3.208,3.208,0,0,1,.373-.29,3.355,3.355,0,0,1,3.564,5.686,3.951,3.951,0,0,1-.464.224,20.605,20.605,0,0,0,2.926,2.777,2.991,2.991,0,0,1,.2-.472,3.35,3.35,0,1,1,5.918,3.141,2.885,2.885,0,0,1-.3.456,20.116,20.116,0,0,0,3.945.928,3.713,3.713,0,0,1-.075-.53,3.355,3.355,0,1,1,6.705-.232,3.077,3.077,0,0,1-.041.555,20.473,20.473,0,0,0,3.887-1.177,4.14,4.14,0,0,1-.332-.423,3.353,3.353,0,1,1,5.686-3.556,2.6,2.6,0,0,1,.24.481,20.722,20.722,0,0,0,2.752-2.959,3.176,3.176,0,0,1-.464-.182,3.356,3.356,0,0,1,3.15-5.926,2.321,2.321,0,0,1,.406.274,19.792,19.792,0,0,0,.928-3.945,2.643,2.643,0,0,1-.448.058,3.351,3.351,0,1,1-.24-6.7,2.652,2.652,0,0,1,.448,0,20.165,20.165,0,0,0-1.169-3.8,3.207,3.207,0,0,1-.315.249,3.355,3.355,0,1,1-3.564-5.686,2.1,2.1,0,0,1,.365-.174,21.119,21.119,0,0,0-2.884-2.694c-.05.116-.083.232-.141.34a3.354,3.354,0,1,1-5.926-3.141c.066-.116.141-.207.207-.315a20.182,20.182,0,0,0-3.854-.854.808.808,0,0,0,.05.34,3.355,3.355,0,0,1-6.705.24A1.838,1.838,0,0,0,286.661,68.816Zm3.465,6.274a13.186,13.186,0,1,0,.033,0Z" transform="translate(-43.492 -2.186)" fill="#bfd2ff"/>
    <rect id="Rectangle_695" data-name="Rectangle 695" width="94.057" height="78.077" transform="translate(117.607 74.943) rotate(90)" fill="#e0e9ff"/>
    <rect id="Rectangle_696" data-name="Rectangle 696" width="8.711" height="20.605" transform="translate(55.386 112.059)" fill="#3fd4c7"/>
    <rect id="Rectangle_697" data-name="Rectangle 697" width="8.711" height="30.692" transform="translate(68.854 101.98)" fill="#fefeff"/>
    <rect id="Rectangle_698" data-name="Rectangle 698" width="8.711" height="44.617" transform="translate(82.315 88.055)" fill="#96b3ff"/>
    <rect id="Rectangle_699" data-name="Rectangle 699" width="8.711" height="25.097" transform="translate(95.784 107.566)" fill="#628aec"/>
    <path id="Path_1370" data-name="Path 1370" d="M57.26,95.72v44h57.257" transform="translate(-6.997 -6.828)" fill="none" stroke="#333842" stroke-linecap="round" stroke-width="0.75"/>
    <rect id="Rectangle_700" data-name="Rectangle 700" width="58.624" height="5.611" transform="translate(49.128 141.284)" fill="#fefeff"/>
    <rect id="Rectangle_701" data-name="Rectangle 701" width="58.624" height="5.611" transform="translate(49.128 151.578)" fill="#fefeff"/>
    <path id="Path_1371" data-name="Path 1371" d="M175.843,222.115,165.026,244.2,145.383,219.72l-17.7,22.669-13.038-14.1-1.989,1.84,15.209,16.436,17.547-22.487,20.174,25.139,12.275-25.073Z" transform="translate(-16.479 -28.051)" fill="#fff"/>
    <path id="Path_1372" data-name="Path 1372" d="M179.112,251.561a3.473,3.473,0,1,0-1.014,2.461A3.481,3.481,0,0,0,179.112,251.561Z" transform="translate(-26.661 -32.905)" fill="#ff6ea1"/>
    <path id="Path_1373" data-name="Path 1373" d="M192.972,221.9a3.465,3.465,0,1,0-1.012,2.463,3.481,3.481,0,0,0,1.012-2.463Z" transform="translate(-29.033 -27.828)" fill="#3fd4c7"/>
    <circle id="Ellipse_14" data-name="Ellipse 14" cx="3.481" cy="3.481" r="3.481" transform="translate(125.307 190.592)" fill="#333842"/>
    <circle id="Ellipse_15" data-name="Ellipse 15" cx="3.481" cy="3.481" r="3.481" transform="translate(108.233 212.531)" fill="#ffb861"/>
    <path id="Path_1374" data-name="Path 1374" d="M117.562,231.281a3.481,3.481,0,1,0-3.473,3.481A3.481,3.481,0,0,0,117.562,231.281Z" transform="translate(-16.126 -29.434)" fill="#628aec"/>
    <path id="Path_1375" data-name="Path 1375" d="M102.5,212.39v46.44h78.168" transform="translate(-14.74 -26.796)" fill="none" stroke="#333842" stroke-linecap="round" stroke-width="0.75"/>
    <circle id="Ellipse_16" data-name="Ellipse 16" cx="26.846" cy="26.846" r="26.846" transform="matrix(0.987, -0.159, 0.159, 0.987, 99.548, 308.558)" fill="#bfc5d4"/>
    <path id="Path_1376" data-name="Path 1376" d="M148.522,386.572l-20.937-7.3a22.172,22.172,0,0,0,32.325,26.316Z" transform="translate(-18.822 -55.358)" fill="#628aec"/>
    <path id="Path_1377" data-name="Path 1377" d="M154.48,387.58l11.6,18.923A22.213,22.213,0,0,0,176.7,387.58Z" transform="translate(-23.636 -56.781)" fill="#e0e9ff"/>
    <path id="Path_1378" data-name="Path 1378" d="M154.64,382.92l22.172-.307a22.155,22.155,0,0,0-7.17-16.013Z" transform="translate(-23.664 -53.19)" fill="#fefeff"/>
    <rect id="Rectangle_702" data-name="Rectangle 702" width="62.147" height="3.44" transform="translate(99.265 286.813)" fill="#333842"/>
    <rect id="Rectangle_703" data-name="Rectangle 703" width="62.147" height="3.44" transform="translate(99.265 280.024)" fill="#333842"/>
    <rect id="Rectangle_704" data-name="Rectangle 704" width="62.147" height="3.44" transform="translate(99.265 273.228)" fill="#333842"/>
    <rect id="Rectangle_705" data-name="Rectangle 705" width="62.147" height="3.44" transform="translate(99.265 266.431)" fill="#333842"/>
    <rect id="Rectangle_706" data-name="Rectangle 706" width="62.147" height="3.44" transform="translate(99.265 293.12)" fill="#333842"/>
    <rect id="Rectangle_707" data-name="Rectangle 707" width="107.742" height="3.44" transform="translate(175.146 359.494)" fill="#333842"/>
    <rect id="Rectangle_708" data-name="Rectangle 708" width="107.742" height="3.44" transform="translate(175.146 352.698)" fill="#333842"/>
    <rect id="Rectangle_709" data-name="Rectangle 709" width="107.742" height="3.44" transform="translate(175.146 345.901)" fill="#333842"/>
    <circle id="Ellipse_17" data-name="Ellipse 17" cx="25.959" cy="25.959" r="25.959" transform="matrix(0.982, -0.188, 0.188, 0.982, 134.429, 78.591)" fill="#e0e9ff"/>
    <path id="Path_1379" data-name="Path 1379" d="M190.282,107.2l-20.24-7.062A21.433,21.433,0,0,0,201.3,125.577Z" transform="translate(-26.094 -7.584)" fill="#ff6ea1"/>
    <path id="Path_1380" data-name="Path 1380" d="M196.05,108.17l11.173,18.3a21.442,21.442,0,0,0,10.269-18.3Z" transform="translate(-30.751 -8.959)" fill="#3fd4c7"/>
    <path id="Path_1381" data-name="Path 1381" d="M196.2,103.67l21.434-.3A21.409,21.409,0,0,0,210.7,87.88Z" transform="translate(-30.777 -5.486)" fill="#fefeff"/>
    <rect id="Rectangle_710" data-name="Rectangle 710" width="137.58" height="207.634" transform="translate(174.963 129.904)" fill="#e0e9ff"/>
    <rect id="Rectangle_711" data-name="Rectangle 711" width="9.789" height="41.202" transform="translate(218.179 229.929)" fill="#ffb861"/>
    <rect id="Rectangle_712" data-name="Rectangle 712" width="9.789" height="61.368" transform="translate(260.227 209.763)" fill="#ff6ea1"/>
    <rect id="Rectangle_713" data-name="Rectangle 713" width="9.78" height="89.192" transform="translate(281.246 181.93)" fill="#3fd4c7"/>
    <path id="Path_1382" data-name="Path 1382" d="M232.69,252.56c21.061-5.5,59.544-25.8,76.975-45.23" transform="translate(-37.022 -25.93)" fill="none" stroke="#333842" stroke-linecap="round" stroke-width="0.75"/>
    <path id="Path_1383" data-name="Path 1383" d="M326.651,205.37l-1.119,3.083-.431-1.368-1.4-.3Z" transform="translate(-52.599 -25.595)" fill="#333842"/>
    <rect id="Rectangle_714" data-name="Rectangle 714" width="9.78" height="50.187" transform="translate(239.207 220.944)" fill="#fefeff"/>
    <rect id="Rectangle_715" data-name="Rectangle 715" width="9.789" height="36.436" transform="translate(197.16 234.695)" fill="#628aec"/>
    <path id="Path_1384" data-name="Path 1384" d="M335.474,296.261H224.69V202.61" transform="translate(-35.653 -25.122)" fill="none" stroke="#333842" stroke-linecap="round" stroke-width="0.75"/>
    <rect id="Rectangle_716" data-name="Rectangle 716" width="112.126" height="6.755" transform="translate(189.054 144.5)" fill="#fefeff"/>
    <rect id="Rectangle_717" data-name="Rectangle 717" width="64.716" height="6.755" transform="translate(212.759 155.416)" fill="#fefeff"/>
    <rect id="Rectangle_718" data-name="Rectangle 718" width="112.159" height="6.208" transform="translate(189.037 279.792)" fill="#fefeff"/>
    <rect id="Rectangle_719" data-name="Rectangle 719" width="112.159" height="6.208" transform="translate(189.037 291.181)" fill="#fefeff"/>
    <rect id="Rectangle_720" data-name="Rectangle 720" width="112.159" height="6.208" transform="translate(189.037 302.561)" fill="#fefeff"/>
    <rect id="Rectangle_721" data-name="Rectangle 721" width="49.805" height="6.208" transform="translate(189.037 314.861)" fill="#fefeff"/>
  </g>
</svg>
