<svg xmlns="http://www.w3.org/2000/svg" width="398.922" height="278.393" viewBox="0 0 398.922 278.393">
  <g id="Group_10601" data-name="Group 10601" transform="translate(-1133.758 -55.988)">
    <rect id="Rectangle_9" data-name="Rectangle 9" width="224.715" height="113.39" transform="translate(1218.413 116.615)" fill="#d7dbec" opacity="0.81"/>
    <rect id="Rectangle_10" data-name="Rectangle 10" width="49.906" height="15.095" transform="translate(1306.108 246.79)" fill="#c2c5dc"/>
    <path id="Line_1" data-name="Line 1" d="M-4.753,114.143H-5V0h.247Z" transform="translate(1225.705 117.149)" fill="#ede8e7"/>
    <path id="Line_2" data-name="Line 2" d="M-4.753,114.143H-5V0h.247Z" transform="translate(1233.309 117.149)" fill="#ede8e7"/>
    <path id="Line_3" data-name="Line 3" d="M-4.753,114.143H-5V0h.247Z" transform="translate(1240.913 117.149)" fill="#ede8e7"/>
    <path id="Line_4" data-name="Line 4" d="M-4.753,114.143H-5V0h.247Z" transform="translate(1248.517 117.149)" fill="#ede8e7"/>
    <path id="Line_5" data-name="Line 5" d="M-4.753,114.143H-5V0h.247Z" transform="translate(1256.121 117.149)" fill="#ede8e7"/>
    <path id="Line_6" data-name="Line 6" d="M-4.753,114.143H-5V0h.247Z" transform="translate(1263.726 117.149)" fill="#ede8e7"/>
    <path id="Line_7" data-name="Line 7" d="M-4.753,114.143H-5V0h.247Z" transform="translate(1271.33 117.149)" fill="#ede8e7"/>
    <path id="Line_8" data-name="Line 8" d="M-4.753,114.143H-5V0h.247Z" transform="translate(1278.934 117.149)" fill="#ede8e7"/>
    <path id="Line_9" data-name="Line 9" d="M-4.753,114.143H-5V0h.247Z" transform="translate(1286.538 117.149)" fill="#ede8e7"/>
    <path id="Line_10" data-name="Line 10" d="M-4.753,114.143H-5V0h.247Z" transform="translate(1294.143 117.149)" fill="#ede8e7"/>
    <path id="Line_11" data-name="Line 11" d="M-4.753,114.143H-5V0h.247Z" transform="translate(1301.747 117.149)" fill="#ede8e7"/>
    <path id="Line_12" data-name="Line 12" d="M-4.753,114.143H-5V0h.247Z" transform="translate(1309.351 117.149)" fill="#ede8e7"/>
    <path id="Line_13" data-name="Line 13" d="M-4.753,114.143H-5V0h.247Z" transform="translate(1316.955 117.149)" fill="#ede8e7"/>
    <path id="Line_14" data-name="Line 14" d="M-4.753,114.143H-5V0h.247Z" transform="translate(1324.559 117.149)" fill="#ede8e7"/>
    <path id="Line_15" data-name="Line 15" d="M-4.753,114.143H-5V0h.247Z" transform="translate(1332.163 117.149)" fill="#ede8e7"/>
    <path id="Line_16" data-name="Line 16" d="M-4.753,114.143H-5V0h.247Z" transform="translate(1339.767 117.149)" fill="#ede8e7"/>
    <path id="Line_17" data-name="Line 17" d="M-4.753,114.143H-5V0h.247Z" transform="translate(1347.371 117.149)" fill="#ede8e7"/>
    <path id="Line_18" data-name="Line 18" d="M-4.753,114.143H-5V0h.247Z" transform="translate(1354.976 117.149)" fill="#ede8e7"/>
    <path id="Line_19" data-name="Line 19" d="M-4.753,114.143H-5V0h.247Z" transform="translate(1362.58 117.149)" fill="#ede8e7"/>
    <path id="Line_20" data-name="Line 20" d="M-4.753,114.143H-5V0h.247Z" transform="translate(1370.184 117.149)" fill="#ede8e7"/>
    <path id="Line_21" data-name="Line 21" d="M-4.753,114.143H-5V0h.247Z" transform="translate(1377.788 117.149)" fill="#ede8e7"/>
    <path id="Line_22" data-name="Line 22" d="M-4.753,114.143H-5V0h.247Z" transform="translate(1385.393 117.149)" fill="#ede8e7"/>
    <path id="Line_23" data-name="Line 23" d="M-4.753,114.143H-5V0h.247Z" transform="translate(1392.997 117.149)" fill="#ede8e7"/>
    <path id="Line_24" data-name="Line 24" d="M-4.753,114.143H-5V0h.247Z" transform="translate(1400.602 117.149)" fill="#ede8e7"/>
    <path id="Line_25" data-name="Line 25" d="M-4.753,114.143H-5V0h.247Z" transform="translate(1408.206 117.149)" fill="#ede8e7"/>
    <path id="Line_26" data-name="Line 26" d="M-4.753,114.143H-5V0h.247Z" transform="translate(1415.81 117.149)" fill="#ede8e7"/>
    <path id="Line_27" data-name="Line 27" d="M-4.753,114.143H-5V0h.247Z" transform="translate(1423.415 117.149)" fill="#ede8e7"/>
    <path id="Line_28" data-name="Line 28" d="M-4.753,114.143H-5V0h.247Z" transform="translate(1431.019 117.149)" fill="#ede8e7"/>
    <path id="Line_29" data-name="Line 29" d="M-4.753,114.143H-5V0h.247Z" transform="translate(1438.621 117.149)" fill="#ede8e7"/>
    <path id="Line_30" data-name="Line 30" d="M-4.753,114.143H-5V0h.247Z" transform="translate(1446.225 117.149)" fill="#ede8e7"/>
    <path id="Line_31" data-name="Line 31" d="M223.455-4.753H0V-5H223.455Z" transform="translate(1219.673 122.026)" fill="#ede8e7"/>
    <path id="Line_32" data-name="Line 32" d="M223.455-4.753H0V-5H223.455Z" transform="translate(1219.673 130.702)" fill="#ede8e7"/>
    <path id="Line_33" data-name="Line 33" d="M223.455-4.753H0V-5H223.455Z" transform="translate(1219.673 139.377)" fill="#ede8e7"/>
    <path id="Line_34" data-name="Line 34" d="M223.455-4.753H0V-5H223.455Z" transform="translate(1219.673 148.053)" fill="#ede8e7"/>
    <path id="Line_35" data-name="Line 35" d="M223.455-4.753H0V-5H223.455Z" transform="translate(1219.673 156.729)" fill="#ede8e7"/>
    <path id="Line_36" data-name="Line 36" d="M223.455-4.753H0V-5H223.455Z" transform="translate(1219.673 165.405)" fill="#ede8e7"/>
    <path id="Line_37" data-name="Line 37" d="M223.455-4.753H0V-5H223.455Z" transform="translate(1219.673 174.081)" fill="#ede8e7"/>
    <path id="Line_38" data-name="Line 38" d="M223.455-4.753H0V-5H223.455Z" transform="translate(1219.673 182.756)" fill="#ede8e7"/>
    <path id="Line_39" data-name="Line 39" d="M223.455-4.753H0V-5H223.455Z" transform="translate(1219.673 191.432)" fill="#ede8e7"/>
    <path id="Line_40" data-name="Line 40" d="M223.455-4.753H0V-5H223.455Z" transform="translate(1219.673 200.108)" fill="#ede8e7"/>
    <path id="Line_41" data-name="Line 41" d="M223.455-4.753H0V-5H223.455Z" transform="translate(1219.673 208.783)" fill="#ede8e7"/>
    <path id="Line_42" data-name="Line 42" d="M223.455-4.753H0V-5H223.455Z" transform="translate(1219.673 217.459)" fill="#ede8e7"/>
    <path id="Line_43" data-name="Line 43" d="M223.455-4.753H0V-5H223.455Z" transform="translate(1219.673 226.135)" fill="#ede8e7"/>
    <path id="Line_44" data-name="Line 44" d="M223.455-4.753H0V-5H223.455Z" transform="translate(1219.673 234.811)" fill="#ede8e7"/>
    <path id="Path_52" data-name="Path 52" d="M3271.488,4943.02h212.179a11.029,11.029,0,0,1,11,11v118.532a11.03,11.03,0,0,1-11,11H3271.488a11.029,11.029,0,0,1-11-11V4954.017A11.029,11.029,0,0,1,3271.488,4943.02Zm-3.572,11.322h219.322v110.747H3267.916Z" transform="translate(-2046.807 -4836.406)" fill="#c2c5dc" fill-rule="evenodd"/>
    <path id="Path_53" data-name="Path 53" d="M6360.84,11218.684h79.919c-.943-3.975-4.049-7.949-14.309-11.924h-49.906C6367.233,11209.885,6362.706,11214.006,6360.84,11218.684Z" transform="translate(-5070.437 -10945.146)" fill="#c2c5dc" fill-rule="evenodd"/>
    <path id="Path_54" data-name="Path 54" d="M4391.215,6421.64l-.017-.085a33.78,33.78,0,0,1-.585-3.566,31.525,31.525,0,0,1-.194-3.5,28.645,28.645,0,0,1,10.166-21.915,32.432,32.432,0,0,1,20.695-7.894l.163,24.539v5.767l-30.224,6.654Z" transform="translate(-3148.775 -6242.392)" fill="#383876" opacity="0.18"/>
    <path id="Path_55" data-name="Path 55" d="M5804.2,6425.28l-.038-.007-30.233-6.452-.038-5.767-.164-24.54v0l.076,0h0l.083,0c.613,0,1.222.02,1.82.052.206.011.406.031.61.046.32.021.64.05.956.081a29.731,29.731,0,0,1,24.4,16.707,31.287,31.287,0,0,1,3.2,13.519v.151A28.394,28.394,0,0,1,5804.2,6425.28Z" transform="translate(-4497.855 -6246.126)" fill="#383876" opacity="0.4"/>
    <path id="Path_56" data-name="Path 56" d="M4518.426,7733.2l-30.226,6.652a31.136,31.136,0,0,0,60.5-.2l-30.233-6.452Z" transform="translate(-3244.137 -7557.542)" fill="#383876" opacity="0.28"/>
    <path id="Path_57" data-name="Path 57" d="M8586.51,7134.094h11.043v-41.4H8586.51Z" transform="translate(-7241.031 -6932.881)" fill="#383876" opacity="0.28"/>
    <path id="Path_58" data-name="Path 58" d="M7930.149,7394.946h11.043V7360.16h-11.043Z" transform="translate(-6600.912 -7193.733)" fill="#383876" opacity="0.18"/>
    <path id="Path_59" data-name="Path 59" d="M9242.85,6748.04h11.042v-51.2H9242.85Z" transform="translate(-7881.129 -6546.827)" fill="#383876" opacity="0.4"/>
    <path id="Path_60" data-name="Path 60" d="M7951.948,6140.359l-20.49,13.035.262-5.845-15.067,9.415-1.683-2.154,19.925-12.454-.258,5.787,15.7-9.991-2.327-3.193,8.5.751-.073.372-1.618,8.22Z" transform="translate(-6586.108 -5998.851)" fill="#383876" fill-rule="evenodd" opacity="0.5"/>
    <rect id="Rectangle_11" data-name="Rectangle 11" width="6.359" height="6.204" transform="translate(1390.749 139.572)" fill="#c2c5dc"/>
    <rect id="Rectangle_12" data-name="Rectangle 12" width="6.359" height="6.204" transform="translate(1390.749 148.801)" fill="#babdd6"/>
    <rect id="Rectangle_13" data-name="Rectangle 13" width="6.359" height="6.204" transform="translate(1390.749 158.03)" fill="#9a9bbc"/>
    <path id="Line_45" data-name="Line 45" d="M29.623-23.763H0V-25H29.623Z" transform="translate(1400.068 166.613)" fill="#babdd6"/>
    <path id="Line_46" data-name="Line 46" d="M29.623-23.763H0V-25H29.623Z" transform="translate(1400.068 176.285)" fill="#babdd6"/>
    <path id="Line_47" data-name="Line 47" d="M29.623-23.763H0V-25H29.623Z" transform="translate(1400.068 185.513)" fill="#babdd6"/>
    <path id="Line_48" data-name="Line 48" d="M38.155-23.763H0V-25H38.155Z" transform="translate(1391.07 201.489)" fill="#9799bc"/>
    <path id="Line_49" data-name="Line 49" d="M38.155-23.763H0V-25H38.155Z" transform="translate(1391.07 206.316)" fill="#9799bc"/>
    <path id="Line_50" data-name="Line 50" d="M38.155-23.763H0V-25H38.155Z" transform="translate(1391.07 211.143)" fill="#9799bc"/>
    <path id="Line_51" data-name="Line 51" d="M38.155-23.763H0V-25H38.155Z" transform="translate(1391.07 215.97)" fill="#9799bc"/>
    <path id="Line_52" data-name="Line 52" d="M38.155-23.763H0V-25H38.155Z" transform="translate(1391.07 220.797)" fill="#9799bc"/>
    <path id="Line_53" data-name="Line 53" d="M38.155-23.763H0V-25H38.155Z" transform="translate(1391.07 225.624)" fill="#9799bc"/>
    <path id="Path_89" data-name="Path 89" d="M738.006,8990.71H822.08a3.8,3.8,0,0,1,3.785,3.785v65.112a3.8,3.8,0,0,1-3.785,3.785H738.006a3.8,3.8,0,0,1-3.786-3.785V8994.5A3.8,3.8,0,0,1,738.006,8990.71Z" transform="translate(416.949 -8744.012)" fill="rgba(52,52,99,0.2)" fill-rule="evenodd"/>
    <rect id="Rectangle_20" data-name="Rectangle 20" width="92.727" height="82.001" rx="3" transform="translate(1145.846 232.665)" fill="#d5d9ea"/>
    <path id="Path_90" data-name="Path 90" d="M522.186,8423.609H608.8c1.681,0,3.056,1.729,3.056,3.841v4.764H519.13v-4.764C519.13,8425.338,520.505,8423.609,522.186,8423.609Z" transform="translate(626.716 -8190.945)" fill="#383876" fill-rule="evenodd" opacity="0.38"/>
    <path id="Path_91" data-name="Path 91" d="M1428.527,10210.426l.154.069.154.382.572-.013.053.235.183-.018.021-.131.287-.151-.017-.092.206-.017.04.076.256-.564.038-.223-.325-.16v-.347l-.266-.153.694-.374.007.007.008,0,.135.153.172-.052.024-.248.48-.105.044-.384.427,0,0,0h.01l.214.186.091-.18.484-.077,0,0,.011,0,.049.092.243-.018-.072-.418.054-.166-.163-.266.19-.312.011.007,0,0,.389.26.205-.084,0,.007.011,0,.074.188.331-.068.407.008-.03-.03.008-.458.208-.015.144-.226.322-.109.006.006.008,0,.1.1.039-.127.417-.27.1-.629.013,0h0l.247.058.089.02.165-.216.087-.3.03-.008.041-.139.226-.027v0l.006,0-.027.092.155-.045v.006l.014-.006-.044.347.139.079.057-.018-.022-.057.175-.518.319-.084.192-.465.154-.049-.1-.127-.229-.084,0,0-.01,0,.243-.795.258-.121.224.178.174.041.011-.282.248-.126-.041-.48.16-.191-.209-.566.409.394.954.183v.008l.008,0,.022.208.2.015,0,.01h0l.1.245.315.129.187-.283.371.226.559-.226.392.275,0,0,.005,0,.157.24-.232.631.111.106,0,0v0l0,.029.026.445,0,0v.01l-.031.021.309.234.194-.049-.017-.027h.1l.105-.137-.139-.339-.013-.03.014-.033.255-.57.478-.423,0,.008,0,0,.089.253.214.039.1-.081-.1-.144.157-.176-.252-.153-.119-.188-.654-.574.347-.06.028-.26-.29-.076-.028-.33h0v0l.207-.074.243-.086-.041-.092.069-.4-.426-.042.341-.229-.062-.419-.148,0-.1-.245.088-.42.229-.077.126-.179-.165-.074-.285.037-.076-.355-.3-.2-.226.151-.469.055-.242-.153-.438.134-.106-.307-.395-.075-.03.119h0v0l-.59.108.038.235,0,0h0l-.522.053-.44-.137-.225.071-.012-.229-.357.069-.006.1,0,0h0l-.632.282-.213-.085-.677.072-.181-.545h0v0l.32.042-.008-.183-.12-.171-.338.01-.155.148-.286-.069-.355.248h-.149l-.01.192-.35.339-.014.347-.31-.022-.245.258-.494-.055v0h0l-.049-.421-.092-.2-.211-.045-1.373-.034-.436-.208v0h0l-.09-.21-.321-.134-.08.04-.519-.153,0,0h0l-.2-.173.05-.413-.115-.176-.254.158-.306-.05-.6.221.138.41-.2.027.062.131.385-.1.276.071.311-.1v0l.007,0-.035.384-.518.027-.207.111-.026.215-.242.055-.024.205-.181.042.221.24.188.376-.074.31-.422.356-.286-.047,0,0h0l-.273-.28-.044.035.1.1.027.025h0l.006.007-.17.471.008.457h0v0h-.328l-.122.108,0,.032-.029-.066-.049,0-.013.052.02.06-.015-.037-.044,0-.046-.023-.079.006-.077-.082-.1-.05-.1.018-.034-.071-.055.024-.043-.057-.065-.015-.183.21-.085-.02-.03.274-.157.218.12.381-.024.292.164.5-.047.381h0l.1.008-.114.453.142.307-.012.4.139.2-.1.181.234,1.123.2.492v.375l.192.672-.068-.017.144.438-.038.355.105.572-.007.341Z" transform="translate(-258.785 -9920.842)" fill="#383876" fill-rule="evenodd" opacity="0.21"/>
    <path id="Path_92" data-name="Path 92" d="M1113.418,9953l.109.07-.229.541.026.344.2-.1v.314l.289.987-.1.292.008.024-.022.468.56-.21.449.289,0-.262v-.064h0l0-.013.136-.4-.185-.186.3-.233,0,0h0l.336.345.162.026.328-.276.047-.2-.157-.314-.194-.206-.54-.116.009,0-.014,0,.69-.165.024-.205.243-.058.022-.186.312-.166.179-.01-.164-.042-.473.126,0-.007h0l-.214-.446.224-.034-.127-.376.674-.245-.052-.079v0h0l.06-.389-.081-.022h0l.009-.435v-.037l.209.081-.012-.029-.153-.037h0l.1-.284.351-.312.191.027.154-.307,0-.111h-.14l-.113-.363-.133-.256-.281.008v0h-.008l.038-.228-.213-.129h-.062v-.021l-.116-.02h-.041l-.005-.011h-.007l-.125-.207-.428-.04v0h-.008l.07-.356-.242.013-.044-.263-.247-.321-.043-.052.046-.047.11-.122,0-.212-.068-.07-.152.172-.1.108-.051-.324-.312-.233.206-.344-.158-.092.02-.142-.054.019-.028.227-.007,0v0l-.621-.047-.064-.232-.2-.079-.247.291v-.008l-.006.008-.043-.335-.139-.119-.543-.262-.029-.059-.227.146-.132-.122-.412.053-.333-.113-.4.115h0l-.356-.187-.157.111v.264l.31.191-.541.206.082.1-.536.1-.366-.133.021-.324-.827.184-.22.265-.646-.055-.266-.283-.518-.022-.258.077-.177-.087-.231.105-.084-.149-.158.2-.1-.269-.013.01-.1.706-.455-.039-.071.089.042.072.044-.058.268.2-.41.339-.014.292.075.263.2.063-.144.292.29.308.829.589.486.171.447.1.116-.137.432-.143.328-.008.293-.152.2.109.081-.15.46-.213-.31.542-.591.81-.46.017-.347.284-.134-.146-.151.226-.248-.161-.063.139-.642.153-.185-.213.068-.163-.252-.013-.063.282.483.655.7.729.776,1.036.465.508.359.294.724.381.089-.026-.2-.2.357.153.084-.01.033-.032.037.024.137-.012-.028.034.021,0,.069-.017.094-.1.024.047.534-.158.15-.144,1.2-.468-.04-.089.362-.46.147-.335-.066-.239-.007-.679.061-.007v-.013l0,.013.063-.008.061-.206.331-.484.12.284.277-.147.327.17-.028.285-.334-.127-.091.09-.073.445.3-.069-.3.5.424.169Z" transform="translate(55.071 -9675.769)" fill="#383876" fill-rule="evenodd" opacity="0.21"/>
    <path id="Path_93" data-name="Path 93" d="M2308,9724.221l-.3.021.026.072.257.36v0l0,0,.135.579.393.063v.006h0v.3l.11.063.187.03.033.129.126.081-.469.115-.071-.015-.257-.008-.015.021-.032.122-.245.052h.132l.377.188v.007l.007,0-.007.062v.216l-.028.035-.01.087-.246.017.048.172.451.294.474.143.258.251,0,0,.006,0-.35.348,0,0h0l0,0-.256-.11h0l-.015.115-.26.023-.026.013-.011-.01h0l-.1-.1-.1.146-.3.169-.258.362-.008,0-.008.012h-.018l-.474.222-.325.2-.051.3.139.5.014.016.07.056h.082l.121.243.044.011-.039.209.295.025.378-.094.167-.269,0,0h0l.248.351.126-.123.3-.037v0h0l.008.3.277.235.028-.115h0v0l.271-.043.032-.12h0v-.006l.409-.17.141.3.243-.081.458-.26.684-.155-.04-.143,0-.008v0l.205-.371.358.045.128.122.218-.13.181.4.444.047,0,.01h0l-.084.284.227.106.085-.286.211-.177.005,0h0l.154.079.355-.026.146-.178h0l.159.025.116-.487.063-.01.029-.441.229-.069.053-.317h0l.284.04,0-.17.271-.178h0l.4.249.026-.033-.109-.072-.009-.328.4-.26.009,0,.009,0,.046.022-.015-.033.021-.209-.282-.145.01-.159-.174-.036.024-.494.264-.1.049-.113.5-.457-.189-.238-.021-.024-.008.163-.289.209-.209-.234-.208.16-.177-.048-.182.136-.217-.127-.267.217-.187-.15-.378-.086-.04-.206-.24.206-.354.111-.687-.344-.344.023-.359-.144-.357.226-.284-.2-.041-.369-.136-.074-.538.3-.332-.047-.033-.213-.3.033-.142-.246-.665-.175.088-.426-.1-.184-.683-.117-.053-.125-.214-.091Z" transform="translate(-1116.697 -9459.225)" fill="#383876" fill-rule="evenodd" opacity="0.21"/>
    <path id="Path_94" data-name="Path 94" d="M1723.088,9220.843l-.151-.112-.242.033-.284.314-.273.05-.338.278-.133-.115-.014.008.171.237v.01h0l.008.3-.106.145-.027.121.142.232-.443.342-.159.053.021.24.425.286,0,0,0,0,.183.435h-.1l.1.271.265.556.014.128.122-.018.166-.257h0l.216.341.237.188v0h0l.093.276-.033.22.226.174.28.034.2.358.153.074.033-.1.07.146.033.017-.006.042.083.174-.1-.049-.023.16.113.078v.028l.226.04h0l0,0,.1.1.064-.028-.047-.067.092.049.076-.033,0,0h0l.075.091.368-.178.007-.04-.206-.42h0l0-.008.191-.246-.088-.221h0l0-.009.346-.474h.264l.555-.283.326.2.228-.064.413.09.086.123v-.131l-.234-.32-.112-.35.169-.16-.12-.1-.079-.315.142-.382-.355-.353.03-.092-.292-.068.172-.405-.155-.155-.19.15-.031-.275-.017-.137.178-.1-.01-.121-.26.147h-.162l-.275.179h0l-.184-.321.027-.142-.259-.206-.063-.19-.154.04-.46.253h0l-.426-.251-.031-.123-.223-.027-.4-.43.019-.066Z" transform="translate(-545.646 -8968.34)" fill="#383876" fill-rule="evenodd" opacity="0.21"/>
    <path id="Path_95" data-name="Path 95" d="M1830.558,9477.129l-.182-.039-.389-.256-.246-.069-.221-.245-.176-.034.035.282-.443-.248-.193-.24-.292-.147-.127.244-.214-.062-.258-.318-.192.074-.536-.027-.1-.26-.37-.11v-.018h0l-.048-.222-.111-.061-.068.123-.279-.152-.1-.217-.341-.17.012-.009-.017-.009.333-.254-.25-.093-.369-.345v-.018h0l-.035-.16-.208-.092-.6.476-.222-.31-.2.1-.257-.531h0v-.012l.064-.3.348-.479-.462-.245v.087h0l-.332.457-.246.105-.191.295-.189.616.058.238-.023.818.17.222-.067.324.052.1h-.042v.033l.228.174.012.443.3.353v.01h0l-.041.14.13.036v.013h0l-.133.478.111.124-.005.009h0l-.177.282-.333.154.1.3-.011.27.136.222.269.162.011.017h0l.024.037.2.295h0l.01.014-.245.24.443.2-.019.008.038.017-.1.037.2.084.324-.016.116-.133.379.1h0l-.071.138.16-.035h0l.394.254.341-.072h0l.258.2.281.061-.022.234.281.323.015.277-.349.4.1.084-.183.382-.333.4.127.3-.411.157h0l-.315-.035-.111.072-.2.3.306.561-.268.1v.173l-.31.235.177.421-.012.462.181.146.016.095.174-.192h0l.575.481.121-.057.19-.379-.15-.346-.247.11-.014-.664-.273-.232-.186-.951h0v-.01l.177-.154.311-.014.354.216.5.476.185-.043s.187-.021.189-.019a1.554,1.554,0,0,0,.155.1l.073.031.117-.181.512.142.03-.244h0v-.012l.311-.068.053-.178.227.008.111-.132.031-.04h0l.049.012.3.069h0l-.021.243.291.317h0l-.213.1-.028.11.088-.032h0l.158-.11.023.047.2-.078.038.027.222-.11.269-.146v.006h0l.046.595.389-.033h0l.063.076.2-.277.015-.283.472.111.3-.194h0l.018.317.332.11.275.008.007.291.7.275v.014h0l-.034.176.172.073-.016-.153h0v-.014l.34.089.278-.111.252.148.133.338h-.006l.006.014-.212-.008-.007.222.111.026v.014h0l-.079.546.155.333.248.165.29-.034.354-.433.214-.554-.125-.325.222-.063-.01-.026.053-.015.037-.11-.237-.252-.046-.035-.162-.587v-.012l.068-.4.156-.138.244-.105.346-.213.036-.164.092.139h.008l.247-.343.3-.17.183-.275.167.167.122-.061v-.021l.009-.111.132.057.03-.014.073.028.135.075.152-.15-.111-.111-.468-.143-.511-.332-.119-.426h0v-.009l.312-.021.017-.149-.25-.125h-.268v-.007h0l-.012-.279h.01l.307-.111.047-.182.389.079h.041l.071-.017-.24-.154.032-.045v-.193l-.364-.057v-.007h0l-.156-.658-.233-.325-.475-.244h-.3l.018.121-.273.223-.275-.287-.236.011-.25-.111h-.415l-.071-.45-.424.086-.755-.534-.129-.009-.111.193-.5-.332-.443-.209-.078-.154-.25.093v-.222Z" transform="translate(-644.781 -9214.043)" fill="#383876" fill-rule="evenodd" opacity="0.42"/>
    <path id="Path_96" data-name="Path 96" d="M1996.409,11075.668l.309.09.152-.527.025-.055-.4-.076-.126.258Z" transform="translate(-813.968 -10776.821)" fill="#d4d4e1" fill-rule="evenodd"/>
    <path id="Path_97" data-name="Path 97" d="M1500.477,10749.621l.066.158.153-.029.169-.215.04-.26-.156-.172.18-.1-.134-.405.005-.287h-.193l-.381.037-.057-.247-.379.01.128.365.522.314-.271.047.008.006.105.41-.052.158Z" transform="translate(-329.677 -10457.913)" fill="#d4d4e1" fill-rule="evenodd"/>
    <path id="Path_98" data-name="Path 98" d="M1718.009,10952.181l.014-.374.171-.7-.075-.311,0,.012-.378-.205-.166.139-.087.271-.317.064.072.2-.615-.064-.113-.087-.04-.027-.05.211h0v0l-.2.169-.2-.045-.218.312-.406-.17-.548.034-.132.119.019.1-.213.644h0v0l-.114-.1-.056.178h0l0,.006-.284.01-.31-.3-.211-.047-.184-.106-.218-.121-.14.022-.208.428h0v0l-.276,0-.029.326.071.29-.306.208v.017l.516.072.142.2-.277.426-.371.039-.156.408-.007,0v0l-.338-.126-.383.071-.372-.041-.1.381h-.008v0l-.74-.037-.09-.158-.082.039-.323.229h-.076l.008.059.151.006.527.292,0,.007,0,0-.193.3.453.071.141.321,0,.006v0l-.143.216.271.1.213.25v.006l0,0-.157.438-.026.57.23.136.438-.3.354.405-.008.008v0l-.214.239.152.287-.144.228.011.3-.075.171.328.015.166.3-.3.468-.037.323-.235.256.224.309-.185.285.234.431h0l-.267.542-.075.031.347.275.439.084.063-.119.324-.057.185-.17.471-.229.174-.262-.012-.285.2-.747.5-.354.328-.031.217-.139.69-.186-.268-.277.228-.624.553-.655-.07-.129.126-.346.287-.216.844.111.146-.018-.05-1.071-.351-.391h0l-.006-.008.356-.053-.021-.709-.159-.4.032-.374-.426-.124-.058-.463.2-.408h0l.565.106.546-.807Z" transform="translate(-534.265 -10655.402)" fill="#383876" fill-rule="evenodd" opacity="0.21"/>
    <path id="Path_99" data-name="Path 99" d="M1595.775,11013.543l.146.408.248.266.2.555.137.683.281.584.429,1.231.186,1.184.381.918.19.3.755,1,.228.2.1-.042.2-.415-.182-.337-.058-.106h0l.022-.032.151-.237-.237-.324.287-.314.035-.31.27-.418-.076-.139-.472-.02.155-.353-.012-.313.121-.193-.161-.3.006-.008h0l.2-.22-.163-.193-.4.277-.4-.238v0h0l.035-.705.13-.359-.124-.146-.426-.153,0,0-.005,0,.211-.314-.07-.161-.608-.1,0-.01h0l.233-.361-.344-.19-.248-.011-.05-.377h0v-.008h.211l.22-.156-.009-.064-.113.035-.322-.3-.218.032.005-.228-.145.06-.319-.052-.168-.277-.146.018-.646-.545h0l0,0-.132-.35-.3-.258-.114-.2-.408-.164.01-.071-.066.017.422.943.207.542.042-.027.313.431.225.219.016-.03h.205l-.051.094.04.02-.049.136Z" transform="translate(-421.955 -10714.504)" fill="#383876" fill-rule="evenodd" opacity="0.42"/>
    <path id="Path_100" data-name="Path 100" d="M2068.539,10028.379l.3-.118.2-.471-.36.03v0l-.026,0-.054-.307-.216-.153.071-.369-.214-.094.1-.4-.465-.057-.106-.373-.136-.162-.207-.047-.1-.346-.265-.111-.358.438-.412.047-.266-.176-.094.072h-.093l-.286.265-.025.027-1.046-.052-.233-.1-.211.146-.3-.251-.019.013.1.2.014.013.042.041-.015.027.031.063-.145.183-.028.062.054.075.11-.085.155.092.277-.015.035.084.091.156v.017l.209.04.2.163.038.02,0,.011,0,0-.161.581-.34.058v.242h0v0l-.337.176.034.208-.043.052v.148l-.011.04-.1.122-.052-.058-.179.243-.28.1-.149.1-.046.062-.167-.193-.157.124-.165.02.006.282-.2.146-.093.436h-.01l-.038.174-.081-.188-.072-.01-.129.636-.012.011-.008.039-.035-.007-.144.113.047.408-.126.252.012.006-.049.068-.033.067-.01,0-.173.24-.193.066-.058.284.043.106.178.006.1.648-.059.039.156.015-.09.522.092.2-.418.148-.089.032.008.1.246.066.062.015v0h0l-.006.067-.035.447-.14.025.429.381.1.168.384.232-.211.226.111.158-.273.223-.379-.072v0h0l-.041-.116-.278.245-.227.5.167.384-.007.008v0l-.085.111h.467l-.511.129.076.136.277-.081h.005l.35.281.175.3.025.064.24.419.271-.095,0,.077.015.06-.008.037.063.623.03.04.192-.121h.008l.449.092.064-.092.169-.584.013-.255.512-.352.365-.354v-.213l.009,0h0l.418-.24.025-.237.009,0v0l.109-.027-.24-1.018-.157-.257.012-.522-.4-.229v-.35l.213-.229,0,0,.005-.008.543.28.2.015.139.258.155-.117h0l.008-.007.424.116-.02.106.051-.024.015-.223-.634-.137-.048-.277.1-.3v-.274l-.234-.292.105-.2-.038-.522-.019-.21.152.148.074.062.346-.376.03-.293h.01v0l.38.022.355-.089.318.15.083-.049.132-.248v-.318l.01,0v-.008l.176.06-.044-.19.082-.307.315-.408.115-.216-.134-.31.248-.442h0v0l.213-.037v0l.225-.226h0l0,0,.248-.058.058-.126-.034-.052-.1-.04.036-.062-.092-.141.143.054Z" transform="translate(-876.989 -9753.098)" fill="#d4d4e1" fill-rule="evenodd"/>
    <path id="Path_101" data-name="Path 101" d="M1565.362,9792.863v0l.633.118.088.25.362-.108.255.16.376-.045.281-.187.441.289.059.277.185-.024.222.1.1-.208-.049-.424.01-.026v0h0l.084-.24.135.022.13-.626.012-.013.008-.036.028,0,.185-.178.013.03.04-.184.178-.134-.007-.347.057-.007.12-.1.111-.022,0,.008.178-.057.047-.037.014.018.011,0,.118.136.045-.062.089.008.3-.232.23-.274v-.235l-.008-.052.351-.183-.005-.283.375-.062.1-.374-.29-.141-.03.032-.06-.062h-.007l0-.01-.019-.017,0-.037-.065-.151-.152.042-.069-.047-.2.01-.13.114-.206-.332.143-.178.062-.139-.031-.013-.1-.294-.027-.055.007,0,0,0,.229-.141.3.244.193-.131.287.128.94.045.2-.228.065-.026v-.027l.081,0,.1-.043-.149-.321v-.015l.063-.445-.1-.022v-.015h0l.018-.521.123,0-.019-.049-.137-.081-.254.1-.169-.045.02.194h0v.014l-.54-.229,0-.012h0l.033-.174-.675-.267-.005-.243-.161-.01-.439-.154-.006,0-.008-.151-.129.083-.352-.083-.008.139-.339.485,0,0h0l-.144-.173-.467.039v0h0l-.026-.346-.276.092-.144-.1-.105.042,0,0-.041.016v.006l.063.014,0,0,.01,0-.215.13-.133.047v-.008l-.006,0,.021-.1-.263.1v0h0l.118-.478.088-.042-.193-.212h0l.016-.176-.114-.027-.129.168-.185-.006-.044.15-.294.063-.04.314h0v.013l-.576-.16-.126.194-.087-.036-.146.164,0-.007,0,0-.1-.181-.009-.123-.423.1-.253-.325-.519-.4-.281.094.151.771.285.241.011.5.175-.081.246.568,0,0,0,.008-.246.488-.265.123v0l0,0-.536-.447-.295.324v0l0,0-.057-.363-.2-.158.013-.506-.211-.5.343-.261-.007-.2.205-.077-.265-.484.272-.41.183-.121h0l.333.037.222-.086-.1-.241.394-.466.115-.244-.13-.11.412-.472-.008-.158-.289-.333.015-.163-.18-.037-.227-.182-.331.07h0l-.393-.252-.237.052-.2.085-.051.291h0v0l-.216-.081-.913.6-.188.013-.439.342-.005.006h0l-.607.283-.2.325-.312.075-.194.191-.032.527.131.268.286.157.238-.018.066.036.015.016.267-.077.224.058.25-.338.006.014,0,0,.248.616-.062.285-.232.109-.256-.072-.174.106-.343.032-.011.08.2.247-.322.095.017.029.228,0,0,0h0l.229.329-.17.464-.323-.117.028.232.214.385-.137.223-.292.008h-.008l-.3-.275-.181.2,0-.006,0,.006-.359-.216-.314.069v0l-.007,0-.022-.1-.019.036.013.278-.347.138.026.208-.552.146-.193.153,0,0,0,0-.481-.344.2-.436,0,0,0,0,.15.15.19-.061h.006l.144.066.064-.1-.191-.076.212-.262-.161-.333.161-.26,0,0v0l.188.061.019-.136-.13-.13-.006-.188-.105-.041-.252.141-.009,0,0,0-.858-.149.011-.493.012.009v-.009l.161.117.063-.268-.158,0-.113.084-.014.224-.452.008h-.012l-.07-.07.007.085-.022.334-.256.313.275.14-.164.333.1,0,.025.046.037,0,.054.085v.1l-.011,0,.109.272.067.139-.18.263.037.381-.223.433-.059.008-.467.218-.042.024-.056.134.353.243-.451.346-.292-.034-.069.052.071.23h.187l-.01.309-.22.443-.232-.032-.267.235-.028.076.035.008.072-.015,0,.034.272.063,0,0h0l-.307.307-.179-.069v.019l0,.1.1.026h0l-.072.471.057.087.231.037.337-.213,0,0h0l.235.361-.048.387.11.094.424.124.089-.042.451.188v0h.006l.091.213.348.166,1.361.037.3.064h0l0,0,.139.308.034.3.289.033.241-.256.222.018.01-.248.351-.338.016-.282h.251l.373-.258.272.064.125-.118.012-.01h0l0,0,.484-.015.195.277.018.42h0v0l-.256-.032.06.18.59-.061.187.071.48-.213.007-.134h0v0l.659-.124.01.206.079-.025.457.141.32-.029-.035-.223h0v0l.642-.119Z" transform="translate(-383.579 -9515.564)" fill="#383876" fill-rule="evenodd" opacity="0.42"/>
    <path id="Path_102" data-name="Path 102" d="M2318.117,9904.346l.019-.259-.337-.207-.116.075-.008.267h0l-.306-.045-.044.263-.218.065-.031.455-.082.015-.126.529h0l-.214-.034-.132.161-.469.035-.1-.052-.1.089-.125.418-.52-.244,0-.008h0l.069-.231-.34-.037-.146-.325-.168.1-.181-.163-.2-.026-.118.215.067.246h0l0,.009-.839.188-.446.255-.383.128-.136-.292-.2.082-.039.146h0v.006l-.27.043-.028.11.053.052-.088.086,0,.014v0l0,.01-.008-.007-.026.029-.015-.018-.014.016-.082-.09-.016-.068-.319-.281-.048-.039,0-.193-.071.009-.222.216,0,0h0l-.218-.308-.074.119-.465.116-.44-.037-.106.03.085.221-.214.553.338.141.1.33.167.039.192.229.087.3.539.064-.111.445.207.089-.074.394.185.134.04.225.48-.039v0l.029,0-.33.771-.308.126-.089.148.236.09v.113l.248.139.2-.027.152-.144.54-.079.011,0,.018,0,.283.04.345-.171,0,.013.027-.013.105.468-.093.391.269.084.025.03.028-.06.318-.2.018,0,.012-.008.543.205.4-.227-.009.02.038-.02-.141.346.109.02.2-.346-.125-.132.11-.163-.018-.188-.155-.081.271-.4.017.018.013-.02.188.221.385.133.268.221.566.178.211-.062-.061-.192-.175-.051-.028-.314-.2.008-.043-.2-.479-.26.132-.426-.5.013-.344-.312-.228.039,0,0-.017,0-.224-.183.07-.721.331-.057-.042-.221.02,0v0l.4.067-.008.205.093.047.154-.042.006-.144.2-.247h.019v0h.174l.359-.163.013,0,.006,0,.094.012.039-.221.187-.21.014,0,0,0,.418.131-.03-.126.02,0v0l.241.027.053-.127-.234-.281.025,0-.006,0,.577.116.166-.218.24-.126-.088-.207.246-.155.074-.187-.049-.389.222-.055-.017-.2-.131-.1.213-.4Z" transform="translate(-1119.389 -9634.585)" fill="#383876" fill-rule="evenodd" opacity="0.21"/>
    <path id="Path_103" data-name="Path 103" d="M2672.839,9657.172l-.442.061,0,.067.143.045-.092.488-.171.371.052.333-.067.234.107.107.415,0,.209.069.295-.265.288.077.064-.173.161-.133-.167-.114-.124-.405.148-.249.033-.459-.093-.206-.352-.138Z" transform="translate(-1473.133 -9393.705)" fill="#383876" fill-rule="evenodd" opacity="0.21"/>
    <path id="Path_104" data-name="Path 104" d="M1813.435,10402.6l-.083-.473.007-.16-.173.059v0l-.008,0-.5-.881-.25-.2-.32.1h-.006l-.155-.277-.315.08-.558-.426.009-.006-.007,0,.153-.1-.018-.32-.146-.142h0l-.009-.007.241-.654-.094-.144-.293-.205-.553.223-.309-.188-.175.266-.5-.208,0,0-.006,0-.087-.215-.237-.018v-.01h-.008l-.024-.223-.839-.161.019.05-.177.21.043.525-.259.131-.014.381-.4-.094-.175-.139-.1.052-.177.579.124.045.005.007h0l.261.352-.3.1-.194.467-.313.085-.128.378,0,.008.022-.01.026.141.005.01h0l.065.35.016.082-.05.057.175.092v0h0l-.46.7-.013.143.258.041.316.316h0l0,0-.408.084-.026.142-.294.3-.005.088.161.07v0h0l.1.275-.111.223.023.281-.1.229.106.188h0l-.274.274-.164.021,0,0,.4.063.322.16v0h0l-.276.224.032.605.527.116.162-.057.028-.011.031.011.41.139.236-.186.019-.211.01,0v0l.395-.139.292.057.094-.094h0l.006-.008.358.174.235-.156-.032-.153.315-.153.32.06.046-.03.019-.6.466-.152.757-.328.323.193.105-.154.072-.105-.155-.1v0h0l.16-.31.337-.2.238.105.057.146.131-.386.137.166.221-.246.3.176.279.027.1-.332h0l0-.006.219.063.334-.132.017-.154h0v0l.171-.074-.276-.2-.243.008-.346-.555h0l.342-.148Z" transform="translate(-628.075 -10116.769)" fill="#383876" fill-rule="evenodd" opacity="0.46"/>
    <path id="Path_105" data-name="Path 105" d="M2820.458,9618.134l.071.153h0l.006.013-.347.319-.439.124-.237-.03-.659.168-.315-.182-.366-.021-.124.176-.3.026-.5.2-.135.006-.1.121-.337-.126-.3.24-.533.1-.119-.069-.116.116-.48-.047-.054.082-.854.078-.481-.238-.283.1-.061.2-.614.172.035.127v.007h0l-.008.593-.066.008.07.121h-.124l.01.007h0l-.1.028-.029.234.191.334.184.133-.134.3.04.111.419-.542.755-.19.31.183.209-.095.491.021.1.229.412-.074.039.162.038-.053.077-.106.252-.063.123-.279.082-.214.007.013.006-.016.146.274.088-.021v-.193l.009-.007v0l.242-.214.268.229.944-.266-.011.012h0l-.373.4.1.091-.131.262.036.184.361-.2.442.334v.019l.275-.075-.19.338.068.059,0,0,.075.073.3.278-.011.032.047.19-.416.308-.175-.034-.119.187.2.385-.363.049-.139-.091-.043.038.09.14-.1.268.039.356.12.268-.042.139.058.082.267-.026v0l.011,0,.063.153.213-.349.1-.031.167-.526.008.012,0-.011.221.362.226-.028.107-.491.029-.428.18-.007.323-1.01.114-.1-.044-.214-.315-.238,0,0-.006-.006.733-.8.193-.475,0,.011v0l.106.436.193-.155-.038-.063h0l0-.007.078-.528.17-.355.088-.034.011-.244.263-.387,0,.009h0l.072.17.092-.206.215-.233.321-.1.186-.165.148-.317.4-.093.144-.169-.031-.08.088.017.061-.072.034.088.029,0,.34-.245.14-.383.169.1.47-.191.2-.144-.032-.03-.269.075,0-.018-.007,0,.035-.333-.154-.09-.13-.328h0l-.005-.016.281-.447-.5.074-.148.184-.295.137-.139-.048-.781.37-.262.2-.55.309-.345-.033.052.074,0,0,.009.012-.252.164Z" transform="translate(-1609.971 -9353.779)" fill="#383876" fill-rule="evenodd" opacity="0.42"/>
    <path id="Path_106" data-name="Path 106" d="M1517.047,8875.034l.112.112-.129.225.172.136.255-.1.141.093.508.075-.061.3.4.328.4.014.321.149v.219l-.187.211,0,.188.309.053.335.223.012-.01.054.056h0l.266.266.339-.107.055-.018.029.055.233.413.488.3.445-.29v0l.007,0,.412,1.388.717.633h.384l.315.9.7.387.265.363.1-.04-.039.131.035.048-.055.022-.03.1.295.321.274.032.041.167.291.171.408-.222.307-.079v0l.1.284.3.239-.033.177.071.124.172-.111h.167l.441-.25h0l.038.465.136-.094.156.031.349-.271.105.665.219.17.166-.06.033-.174.41-.3.221.119.261-.336-.257-.346-.266-.251.209-.481-.781-.159-.13-.274-.015-.547.285.04-.31-.707.268-.219h.378l.335.071.156-.389.111-.052-.029-.3-.158-.243.535-.007.01-.267.2-.178.335-.049.008-.2.177-.348.029-.4.262-.639-.047-.224-.3-.156-.184-.308-.19.1-.258-.051-.611-.24-.052-.18-.15.007-.2.337-.36-.137-.487.066-.262.2-.18-.051-.226.1-.277.431-.286-.117-.128.258-.267-.12-.008.067-.639.016-.005-.44-.1-.123-.328-.045-.087-.137-.307.011-.266-.176-.17-.29.138-.191-.218-.247-.373-.163-.114-.22-.16.016-.32-.307-.26-.073-.312-.222-.207-.384-.229-.114-.22-.432,0-.088-.129.01-.255.209-.122-.076-.219.149-.157-.321-.164-.1-.138.033-.022.256-.315-.131-.306.206-.146-.047-.245.207-.32-.239-.185-.037.007.024.228.114.093.311-.464.028-.451-.163-.473.067-.033.136-.272.339-.605.4-.118-.014Z" transform="translate(-346.49 -8629.449)" fill="#383876" fill-rule="evenodd" opacity="0.46"/>
    <path id="Path_107" data-name="Path 107" d="M3111.6,9708.368l-.16-.177,0,0,0,0,.1-.148-.034-.086-.131.133-.374.086-.13.277-.236.209-.312.095-.176.193-.218.517,0-.009h0l-.1-.247-.074.108-.013.3-.124.051-.138.287-.062.439.076.133h0l0,.007-.494.4,0-.01,0,0-.048-.2-.027.053-.624.679.219.166v0l0,0,.06.284.188.137.28-.529-.126-.159.007,0,0,0,.594-.22.29.144.3.025.177-.1.088-.18,0,0,0,0,.387-.274-.047.5.175.064.2-.082.2-.391.178-.2-.1-.22.256-.448-.072-.016-.057-.665-.171-.185.268-.49-.407-.168.431.037Z" transform="translate(-1898.373 -9443.502)" fill="#383876" fill-rule="evenodd" opacity="0.21"/>
    <path id="Path_108" data-name="Path 108" d="M2960.559,9483.1l-.434-.184-.248.124-.22-.133-.245.063-.237-.173-.312.123-.062.209-.519-.209.2-.174-.1-.1.327-.3-.07-.114.255-.135.011-.1-.316-.408.024-.071-.156.069-.456.47.023-.369-.205-.229.47-.288.007-.081-.191.092-.347-.428-.163.162-.348.106-.376.343-.139.46-.535-.026-.011-.1-.668-.065-.194.084-.1-.238-.193-.118-.089.232-.264.04-.347.331-.085.3-.284.283-.124.461-.212-.09-.427.156-.472.082-.083.28-.149.16.057.284-.388.084-.347.314-.207.108.132.242-.378.483-.155-.029-.388.176-.116-.163-.613.376-.223-.217-.265-.065.009.006-.094.5.148.152h.511l.215-.088.122.384.164.083-.171.318.172.336.021.175.082,0,.494-.2.237-.021.131-.188.493.028.291.169.626-.159.235.03.371-.106.234-.214-.062-.134v0l-.006-.014.66-.843.122-.08-.157-.225h.006l-.011-.016.644.063.5-.282.269-.2.848-.4.139.049.2-.094.165-.205.921-.133-.011.016.017,0-.434.688.076.188.2.118v.011l.007,0-.021.2.122-.033.256.229-.015.01.019.018-.391.275-.552.226-.072-.043-.091.249-.431.31.056.143v0l0,.006-.073.113.115.129h0l.006,0,.01.207.042.018.178-.09.227-.372.127.023.1-.2.155-.011.078-.247.275-.141.12-.3.406-.266.553-.089.184-.2h.428l.038.033h.013l.187.169v.011l.006,0-.017.136.333.114.073-.03-.543-.593-.092-.4.227-.335.444-.466.226,0,.007-.157-.229-.076Z" transform="translate(-1743.532 -9221.926)" fill="#383876" fill-rule="evenodd" opacity="0.46"/>
    <path id="Path_109" data-name="Path 109" d="M2521.324,9738.357l.006-.447-.039-.139-.562-.016.081-.118-.286-.041-.171-.09-.48.155-.111-.216-.443-.11-.024-.33-.114-.035v0l-.345-.093-.294.269-.287-.095h-.441l-.079-.077-.007.041.284.249.144.615-.094.29.313-.053-.005.008h0l-.172.232.261.307-.59.535-.061.144-.231.089-.012.258.176.035-.013.193.287.147-.028.273.191.417-.022-.012.005.013-.382-.193-.244.156,0,.157.181.123-.157.2-.014.2.413.349-.209.391.08.06.032.405-.215.053.036.29-.108.272-.175.111.092.217-.339.176-.206.274-.017,0,0,0-.226-.044,0,0-.138.329h-.018l0,0-.133-.016.042.179-.02-.008v.011l-.589-.186-.086.1-.058.324-.018,0v0l-.2-.021-.348.158h-.151l-.122.15-.008.208-.339.089-.006,0-.013,0-.242-.121v-.02l-.36.064-.051.515.1.082.234-.04,0,0,.017,0,.357.322.659-.016-.158.51.429.235.031.142.219-.008.031.354.153.045.133.425-.34.1,0,.032.458.1.209.257-.058.148.057.03.123-.241.018,0,0,0,.242.062.1.329.328.07.1.324.333-.08.468-.4.171-.422.227-.184-.054-.071-.306-.043-.177-.371.693.268.108.3-.126.27.12.327.017.386.033.016.022-.166.483-.357.147-.318.155-.045.179-.349-.063.316.077-.02-.015.1.4.655.172-.015-.1-.18-.089-.35.163-.181-.1-.2.064-.214-.189-.273.026-.246-.2-.67.078-.218-.219-.226.008-.378.1-.09-.019-.077-.148.033-.333-.2.14-.359-.214-.27-.158.03-.066-.349.136-.369.169-.129-.005-.437-.05-.283-.746-.135-.321-.189-.431-.468.2-.3.14-.441.257.128.178-.1.075-.146-.045-.481.332.081.226-.089.438.066.08-.158-.162-.033-.184-.207-.026-.154-.12.076-.382-.073-.2-.335-.345-.269-.277.1-.139-.429.153-.547.3-.151.22-.348.018-.1-.3-.044.169-.543.171.272.527.282.035.238.182-.04.28.1.028-.019-.346-.173.593-.177.187.6.335.211.086-.065.3.095-.009-.311.124-.219.134.085.013-.114-.044-.084,0,0h0l.078-.079-.053-.043.144-.023Z" transform="translate(-1318.643 -9471.717)" fill="#383876" fill-rule="evenodd" opacity="0.21"/>
    <path id="Path_110" data-name="Path 110" d="M2169.615,10158.223l.123-.111-.08-.268-.326-.066-.106-.334-.021-.008-.144.262-.007,0,0,0-.334-.163.076-.2-.117-.146-.536-.124.011-.148-.59-.187-.281-.229-.388-.132-.064-.073-.042.062.074.04.031.331-.071.1.117.124-.31.553-.027-.007,0,.007-.436-.081.033-.081-.038.021-.017-.007-.013.007-.538-.2-.2.129-.131.27-.019-.022-.011.024-.168-.216-.364-.111.119-.5-.051-.226-.189.095-.021-.006-.009.006-.318-.045-.449.066-.152.146-.323.043,0,0-.025,0-.38-.212v-.1l-.012-.006-.106.24h0v0l-.283.064-.229.228,0,0-.187.035-.172.307.133.307-.153.3-.3.386-.063.24.1.436-.012,0v.008l-.236-.079v.133l-.172.322-.2.119,0,0-.008,0-.345-.166-.324.082-.243-.013-.019.188-.492.537,0,0-.01.01-.034-.034.032.358-.078.144.2.255,0,.369-.091.27.023.134.663.136-.031.456-.009,0h0l-.426.2.052-.27-.207-.057-.241.188v0l-.008.007-.187-.346-.143-.013-.461-.24-.083.092v.2l.4.229-.013.567.15.252.278,1.183-.01,0v0l-.153.04-.022.207-.009,0h0l-.409.235v.188l-.428.413-.452.31-.013.206-.187.628-.014.02.278-.012.865-.535h0l.03.01.463.134.069-.062-.038-.253v0l.1-.549.335-.386.161.4.164.047v.007h0l-.024.151.219-.082.138-.3.233.229.158-.038-.056-.063,0,0,0,0,.123-.161-.13-.066,0,0,0,0,.484-.536.306-.159-.31-.405.008,0-.008-.01.442.141.009-.346.207.2.2-.327v0l.25.4.127-.069v0h0l.226.459.275.007v0h0l.105.111.407-.072.192-.25-.021-.25.4-.079-.073-.066h0l0,0,.372-.187v0h0l.087.116.2-.286.946-.777.718-.387.714-.22.624-.235.3-.482.451-.314-.084-.074.128-.405.431-.335-.071-.32-.279-.513.015-.319.178-.33.417-.368Z" transform="translate(-971.248 -9880.758)" fill="#383876" fill-rule="evenodd" opacity="0.46"/>
    <path id="Path_111" data-name="Path 111" d="M3033.914,9958.428l.481.242.038.1.057-.106.077.063.047-.429.246.032.045-.106-.052-.307-.134-.1.007-.265-.128-.271.08-.5-.072-.418.338.15.091-.047.078-.363-.084-.283.091-.519-.127-.731-.105-.181-.126.061h0l-.252-.133-.421-.036.1-.565-.047-.062-.335.043v0h-.011l-.086-.143-.082.262-.127.039-.35.574-.006-.013-.007.012-.142-.343-.061.006h0l.058.8h0v0l-.117.12.031.166.178.621.22.5-.111.022.086.324-.014.222.128.068.2.449.3,1.347Z" transform="translate(-1824.82 -9683.015)" fill="#383876" fill-rule="evenodd" opacity="0.21"/>
    <path id="Path_112" data-name="Path 112" d="M2945.948,9953.832l-.022-.032-.244.025.115-.379-.042-.14-.031-.074-.01,0-.06.292-.3.024-.086.6-.3-.178.051.271-.256-.206-.02.12-.229.138-.28-.029.03.272-.246.008-.064.146.016.372-.125,0,.017.212.186.236.176.408.024.186.215-.229.255.651.089.057.3-.3-.1-.445.357-.41-.1-.381.133-.285.22.193.213-.248.077.151.011-.015-.038-.2v0h0l.125-.131Z" transform="translate(-1737.993 -9682.714)" fill="#383876" fill-rule="evenodd" opacity="0.21"/>
    <path id="Path_113" data-name="Path 113" d="M2826.706,9816.35l.782-.042.689-.135.44.1.283-.118.087.1.156-.09.688-.089.342.177.337.089.181-.25.208.039.276-.2-.019-.078-.247-.242v0l-.127.065-.055-.226v-.007l-.052-.049.034-.051v0l-.015.016-.026-.08-.012-.014-.331-.3-.459.249-.085-.448.1-.2-.136-.118.01-.012h0l.1-.108-.481.134-.228-.193-.078.068v.255h-.008v.01l-.17.038.163-.011-.457.205-.006.025h-.038l-.012.014-.041,0-.218.048-.283.388-.083-.349-.388.07-.111-.254-.353-.017-.251.115-.323-.192-.64.162-.341.441.3.27-.014.007.005,0-.322.162-.046.141-.043.173.545.247Z" transform="translate(-1622.464 -9547.182)" fill="#383876" fill-rule="evenodd" opacity="0.21"/>
    <path id="Path_114" data-name="Path 114" d="M3090.406,9838.061l.351-.021.125.155.4-.04.245.123.1-.337.017-.292.465-1.276.116-.043.028-.255.137-.221,0-.355-.294-.094-.032-.279.109-.337-.246-.093.025-.275-.07.05-.091.188,0,0,0,0-.266.15-.374-.033-.256-.125-.319.118.053.066-.419.787h0l0,.006-.306-.222-.062.055-.344,1.074-.147.007-.022.3-.114.524.088.116-.082.464.281.024.206.109.188-.093,0,0,.15-.071.211.259Z" transform="translate(-1879.765 -9566.844)" fill="#383876" fill-rule="evenodd" opacity="0.46"/>
    <path id="Path_115" data-name="Path 115" d="M1802.081,9603.167l-.174-.017-.148.074-.028.377,0,0v.01l-.137.12.436.078.083.149.222-.137-.009-.355-.221-.166Z" transform="translate(-624.008 -9341.297)" fill="#383876" fill-rule="evenodd" opacity="0.21"/>
    <path id="Path_116" data-name="Path 116" d="M1870.77,9382.3l-.406-.352-.2-.021-.544-.214-.083-.261.092-.137-.057-.061-.1.063-.41-.289-.106-.181-.152-.038-.31.147-.178-.23h-.161l-.246-.283-.093-.332-.194-.283-.052-.031-.223.354.192.364,0,0,0,.008-.378.052-.167-.238-.315-.068-.257.07-.308-.188-.51.261h-.217l-.247.338.088.225h0l0,.008-.184.237.185.378v0l0,.006-.03.172-.338.164.617.326-.008.013.012.007-.443.611-.044.211.16.329.176-.085.2.282.549-.431.37.161,0,.018h0l.041.192.31.289.505.189-.014.012.019.006-.357.274.15.073.1.221.089.053.066-.119.313.17,0,.018h0l.042.2.357.1.086.236.4.021.268-.105.3.369.041.013.094-.18-.005-.192.269-.521.144-.021.068-.3-.144-.307.238-.174.111-.208-.12-.227.269-.174.162-.286.222-.089.49-.471.125-.031-.009-.021Z" transform="translate(-685.722 -9123.472)" fill="#383876" fill-rule="evenodd" opacity="0.21"/>
    <path id="Path_117" data-name="Path 117" d="M1581,9284.651l.186.081.311-.174h0l.008,0,.268.135.108.177.239-.081.049.212.109-.1v0l.009-.008.09.333-.124.254.043.1.015,0,.053-.2.319-.357.008,0,0,0,.254.176.2-.01.289-.147,0,0,.009-.007.094.175.263.014.255-.148.014-.022-.007-.405.033-.017.114-.156.315-.044h0l.009,0,.226.091.121-.149-.187-.146.012-.009,0,0,.682-.428.051.025-.033-.116.061-.009-.078-.173-.139-.606-.318-.243v0h0l.041-.276-.066-.194-.228-.186v0h0l-.088-.137-.068.11-.36.054v-.008h0l-.032-.285-.255-.526-.173-.489h.083l-.07-.166-.451-.3v0l-.005,0-.039-.445.265-.088.3-.233-.072-.12-.166.176h0l0,0-.389.165-.274-.018.041.157-.226.3-.493.157-.28-.022-.117.162-.271.081-.319.344.206.321.03.212-.241.456.03.285.3-.094-.1.34-.5.244-.6.672-.251.192-.185.264.1.247.123-.091-.224.62.95.109-.016-.048.146.063Z" transform="translate(-407.804 -9025.509)" fill="#383876" fill-rule="evenodd" opacity="0.21"/>
    <path id="Path_118" data-name="Path 118" d="M1629.318,9431.342l.121-.3.012,0,.008-.018.044.028.206.038.085-.086.086.1.032-.016.363-.167.083-.132-.09-.1,0-.011,0,0,.113-.408-.131-.036,0-.013h0l.062-.214-.218-.252-.347.214-.127-.227-.427-.078-.145-.157.009-.007-.005-.006.223-.193.03-.4h0v-.012l.271-.136.177.017-.049-.342-.039-.048.025-.854-.062-.26.215-.693v0l0-.007.225-.347.25-.106.28-.382.008-.112-.029-.035-.048-.025-.153.064h0l-.147-.14-.295-.053,0-.028-.086-.1-.01,0-.032-.044-.063-.071,0-.011-.063-.087h.093l.049-.141-.217-.105-.186-.328-.032,0,.023.035v.045h0l0,0,0,.06.011,0-.013.06v0l.01.091.017.033-.029.028,0,0,.148.176.007.247-.01.02.028.244.033.115-.3-.142-.411.258.136.111-.3.366-.007,0,0,0-.3-.118-.2.027-.077.1.012.383-.012.047v.049h-.013l-.009.034-.052-.026-.041.027-.266.153-.009,0,0,0-.407-.023-.061-.112-.173.089h-.011l-.3.015-.177-.123-.2.217-.068.258-.01,0h0l-.244.056-.126-.28.13-.268,0-.014-.117.111v0l-.008.008-.073-.318-.012,0-.173.058h0l-.01,0-.149-.244-.151-.076-.307.17h0l-.007,0-.094-.04.016.049-.1.153.179,0,0,.013h.012l-.11.777.256.08.022,0,.169-.1.01.007.013-.007.026.037.03.024.008.015.119.054.014.068.019.012.005.034.234.176.409-.127.225.129-.007.018-.04.366.019.05.247.143-.116.2.116.625.062.014.064.045v.034l.208.215.29.241.032.014.019.029,0,0,.421.654.176.045-.016-.1-.072-.018.079-.146.213.014-.066-.155.161.162.123.009v0l.071-.006-.032.091.08.173h-.051l.047.113.1-.043-.011-.161.516-.319.259.264v0l.009.01-.108.35.007.36-.077.2Z" transform="translate(-451.71 -9167.067)" fill="#383876" fill-rule="evenodd" opacity="0.21"/>
    <path id="Path_119" data-name="Path 119" d="M1573.458,9047.908l-.029-.016h0l-.007-.018-.294-.836h-.331l-.772-.686-.02-.018h0l-.006-.02-.365-1.206-.349.228,0,0,0,0-.612-.371-.215-.391-.361.116h0l-.278-.282-.052.05v.239l-.346.3-.32.064-.205.451-.317-.054-.09.32.117.377.006.448.119.249-.089.591.112.11-.152.466.157.369-.053.179.043,0,.2.267.29-.019.059.137.327.139.345.282.391.035.377-.506-.269.9.043.2.327.033.1.068.185-.106.2.248.351.142.334.022.323-.138.276-.293,0-.009.1-.137,0-.187-.258-.359,0,0-.006-.009.284-.135.111.1.272-.217.258-.048.286-.318.364-.051.131.1.234-.1-.219-.3Z" transform="translate(-396.667 -8796.383)" fill="#383876" fill-rule="evenodd" opacity="0.21"/>
    <path id="Path_120" data-name="Path 120" d="M1776.3,10461.268l.014.171-.267.344-.55.1,0,0h0l-.12-.126-.306,0v0h0l-.195-.4-.113.065v0h0l-.193-.31-.166.274,0,0v0l-.065-.062-.024-.025,0,.2-.156-.049.115.148,0,0,0,.006-.464.242-.312.352.117.062,0,0,0,0-.161.208.146.168h-.005l.005,0-.5.119-.132-.127-.073.156-.54.2v-.008l0,0,.047-.281-.1-.027-.092-.232-.137.155-.091.478.046.31v.01l-.2.179-.512-.154-.84.52h-.016l-.426.022,0,0-.022,0-.178.01.028-.037-.321-.067-.132.085.007.007-.063.027-.072.045-.009-.008-.218.092.2.32.2-.006.549.386,0,0h0l-.344.15-.019.158,0,0h0l-.475.193-.12-.034-.091.307h0l0,.008-.446-.045-.219-.129-.206.227-.378.3-.114-.3-.1-.042-.23.139-.072.139.171.109v0h0l-.169.248-.184.27-.38-.229-.69.3-.366.118-.017.566-.165.114-.334-.062-.157.077.029.138-.4.266-.062-.029-.283-.129-.075.074h0l-.006,0-.336-.064-.25.09-.015.176-.364.285,0,0-.007,0-.461-.16-.17.066-.013-.006h0l-.627-.135-.516-.08-.3.08-.052.309.229.211-.288.081.01.479.14.067.123.4-.152.381-.482-.012-.091.473-.142.366.166.21.385-.035-.006.008.021,0-.316.307.081.23.237.031.09-.25.357.025,0,0h.011l.115.095.071-.126.273.162v0h0l.1.372-.3.012-.088.2.214.117,0,0,0,0-.188.211.135.049h0v0l.041.29.071.01.576-.324-.059-.145.522-.1v.2l.1-.088.236.361-.044.074-.049.084.144.064v0h0l.046.168.452-.051v0l0,0-.059.539.327.2v0h0l.128.28-.263.291.014.164-.48.254-.026.126.248.243.1,0,.1-.311h0v0l.117.107.122-.369-.029-.154,0,0h0l.242-.218.639-.04.323.134.2-.294.232.052.1-.085.093-.389h0l0-.007.229.174.075.054.32.032-.049-.132.408-.081.072-.226.284-.236.3.16.031-.109-.039-.447-.252-.8.133-.9-.16-.354-.143-.705.128-.646.2-.279.1-.338.234-.32.411-.215.534-.079.177.21-.015.127.266-.067.074-.27.231-.171.219-.777.687-.1.346.111,1.166-.517.043-.216-.09.063h0l0,0-.285-.265h.227l.021.015,0,0,.013.007.152-.012.023-.112-.269-.117.139-.364.563-.527.9-.479.483-.293.361-.42.13-.238.49-.433.822-.429.027-.092.451-.449.4-.5.054-.181.244-.307Z" transform="translate(-583.74 -10178.016)" fill="#383876" fill-rule="evenodd" opacity="0.46"/>
    <path id="Path_121" data-name="Path 121" d="M1775.788,10900.133l-.262-.133-.046.054.1.181.013.035-.017,0-.058.242.018.1.232-.013-.008-.25.246-.113.145.049.153-.109-.165-.094Z" transform="translate(-598.544 -10606.056)" fill="#d4d4e1" fill-rule="evenodd"/>
    <path id="Path_122" data-name="Path 122" d="M1540.863,10530.758l-.064-.139-.372-.229v0l0,0,.048-.438-.388.046v0h0l-.062-.225-.237-.106v0h0l.134-.225-.082-.127-.226.2v-.356l-.141.029.039.1-.745.418-.243-.037v0l0,0-.044-.311-.109-.037-.018-.007-.183-.062-.093.041.007.251-.507.024v0h0l-.065-.2-.011-.035.016-.03.114-.194-.235-.228v0l0,0,.1-.074-.2-.277h0l0,0,.273-.025-.085-.01v0l-.013,0-.147-.421.063-.062h-.018l0,0h-.011l-.279-.354.172-.443.054-.287-.2-.012v0l-.016,0,.13-.469.013.012v-.008l.238.188.4.01.091-.228-.088-.285-.164-.076-.014-.7.134-.041-.084-.076.081-.492.429-.116.472.071-.034-.65.145-.119-.088-.041-.432-.064-.2-.283h0v0l.38-.042.149-.148-.085-.148h0v0l.113-.267-.023-.287.1-.2-.05-.145-.2-.086v0h0l.016-.264.3-.3.036-.2.225-.045-.071-.071-.356-.058h0v0l.032-.33.383-.588-.2-.1v0h0l.132-.154v0l-.066-.32-.119.041-.009-.006-.005,0-.3-.173.027-.2-.1.029-.071.25-.246.319-.1-.022-.185-.042-.084.532-.427.275-.1.328-.011-.01,0,.008-.221-.223-.168.057-.157.247-.143.01,0,.245.274.262-.794-.017-.456.1,0,0-.011,0-.064-.163-.13.055-.009,0,0,0-.318-.214-.051.085.151.244-.065.2.1.55-.532.041,0,0h-.012l-.043-.079-.282.042-.148.3-.011-.01,0,0-.328-.283-.217,0-.041.356-.478.106-.023.238-.379.113-.006,0-.008,0-.12-.136-.331.174.1.057v.341l.342.169-.064.369-.342.752-.007,0v0l-.259-.047-.169.089,0,.022.257,0v0h0l-.008.426.167.5-.122.07.074.081-.058.374-.23.294-.212.04,0,.089.281.128.151.394.077-.113.328,1.4.146.146.171.745.035.52.208,1,.088.23.33-.088-.026.184.343.139.134.235.284.245.017.012h0v0l.006.015.129.337.563.472.18-.021.019.032.173.26.2.034.327-.136-.006.282.108-.016.31.293.2-.064.028.192.138-.063h0l.007,0,.121.213.518.026.106-.391h.009l.491.055.4-.076.225.084.133-.354.394-.045.178-.262-.039-.058-.6-.084.022-.237.276-.191-.051-.207.044-.5h.005l.32-.008.2-.412h0v0l.279-.047.262.153.166.092.126.024.034-.171.455-.24-.011-.129Z" transform="translate(-360.689 -10234.874)" fill="#383876" fill-rule="evenodd" opacity="0.21"/>
    <path id="Path_123" data-name="Path 123" d="M1775.736,10877.328l-.072-.032-.11,0-.079-.1h-.2l-.115.253-.2-.01-.1.173.337.174.346-.05.141-.263.2-.052-.031-.114-.067-.068Z" transform="translate(-597.94 -10583.818)" fill="#d4d4e1" fill-rule="evenodd"/>
    <path id="Path_124" data-name="Path 124" d="M1228.64,9488.485l-.1.11-.427.02-.252-.105-.375.236-.112-.048-.235.276v-.013l-.006.007-.014-.47.478-.192-.312-.139.01-.01-.016-.006.326-.319-.122-.187,0-.008-.275-.164-.009-.016h0l-.192-.315.012-.289-.081-.238-.031.006-.011,0-.01,0,0,0-.2.037-.115-.071-.146.37-.289-.267v0l-.009-.01.105-.271-.007-.355.086-.279-.1-.095-.328.2.012.178-.337.146-.009-.016-.011,0-.026-.062-.187-.289.02-.055-.036,0-.789-.3-.162-.25-.344-.143.04-.1-.038-.037-.009-.006-.316-.268-.028-.007-.142-.757-.09-.229-.069-.042.017-.092-.061-.132.033-.033,0-.033.04-.127-.045-.025-.41.126-.017-.008h0l-.319-.153-.152-.229-.112.065-.09-.028-.105-.016-.022.2-.227-.3-.04-.012,0-.035-.01-.012.1-.678-.3.007.009-.013h-.019l.232-.354-.023-.073-1.23-.138.006-.016h-.006l.113-.312-.141.1-.368.08-.4.165-.257.753-.728,1.149-.431.161-.661.308-.178.173-.248.634-.572.524-.1.37-.533.176-.492-.03-.385.053-.624.229-.322-.067-.175-.295v-.206l-.11-.152-.355-.035-.47.384-.269.529-.334.309-.586.438-.166.323-.1.418.032.1.638.393.338-.019.3.17-.068.773-.2.295v.292l.285.485.183.075.6-.028-.039.739.389.562.068.474.267.546.316.165.387-.118.346.117.449-.058.1.09.271-.173.053.105.041.068.522.256.193.165,0,.034.084-.1.005,0,0,0,.386.149.055.2.352.027.021-.175.4-.135v0l.008,0-.041.292.2.119-.216.36.221.169.022.018h0l.009.055.137-.155v0l.235.234-.008.344-.1.109.33.386.055,0,.042.01.067.058.065,0-.01.052.007,0-.064.326.331.032v0h.006l.124.205.2-.008.008.045h.012v.01l.1.021-.012.054.216.132-.023.144.187,0v0h.007l.121.235.086-.067.291.038.227-.176-.279-.193.127-.3.1-.047.364-.208.118-.017.167-.327-.036-.394.162-.237-.02-.05-.184-.379.017-.015-.135-.018-.135,0,.212-.431-.295-.151.264-.389-.061-.694.014.032,0-.032.129.275-.033-.41.012.013v-.013l.339.338.227,0,.01-.151.213-.158.424-.009h.012l-.164.7.536.093.273-.149h0l.271.105v.051l.125.3.026.025-.054.4h0l-.251-.08-.049.078.166.346-.141.173.174.069-.25.373,0,0v0l-.213-.1-.224.072v0l0,0-.055-.058-.05.109.275.2.121-.1.452-.121-.025-.19.356-.141-.01-.208.243-.485,0,.01,0-.01.086.389.218-.05h.007l.3.181.2-.219,0,0,0,0,.372.34.138,0,.043-.069-.185-.33-.038-.392-.016-.126.13.046.282.1.086-.239-.131-.188-.24.006,0,0h0l-.107-.2-.048-.085h0l0,0,.094-.027.186-.062-.1-.119.038-.271.431-.039.2-.125.266.075.107-.05.034-.162-.122-.307-.152.2-.275-.072-.248.126-.381-.093h0l0,0-.02,0-.349-.192-.172-.351.04-.633h0v0l.268-.268.293-.071.188-.307.418-.209.044-.09.2-.014.448-.352.193-.017.043-.038.905-.573.109.041.032-.187h0v0l.238-.1.047-.091Z" transform="translate(-48.745 -9222.403)" fill="#383876" fill-rule="evenodd" opacity="0.42"/>
    <path id="Path_125" data-name="Path 125" d="M1197.483,9739.068l-.024.017.081-.325-.075.062-.1.08-.076.118v.058l.022.079.015.01.112-.064.01.019-.1.146-.085-.016.139.1.08-.055.055-.095.034-.082.018-.068-.038,0Z" transform="translate(-34.633 -9473.55)" fill="#d4d4e1" fill-rule="evenodd"/>
    <path id="Path_134" data-name="Path 134" d="M2930.426,10983.2l-.026.049.031.037Z" transform="translate(-1724.885 -10687.195)" fill="#be3e45" fill-rule="evenodd"/>
    <g id="Group_13" data-name="Group 13">
      <path id="Path_126" data-name="Path 126" d="M2921.182,11039.943l-.127-.144-.121.155-.049.582-.109-.066-.1.217.121.34.169.168-.224.111.254.1-.091.387.236-.3.079-.416-.175.1.188-.292.024-.406-.115-.089Z" transform="translate(-1715.406 -10742.396)" fill="#ababc5" fill-rule="evenodd"/>
      <path id="Path_127" data-name="Path 127" d="M3035.8,11469.5l-.1.1.015.122.125-.159Z" transform="translate(-1827.579 -11161.462)" fill="#ababc5" fill-rule="evenodd"/>
      <path id="Path_128" data-name="Path 128" d="M3006.94,11419.092l.07.059.094-.015L3007,11419Z" transform="translate(-1799.531 -11112.212)" fill="#ababc5" fill-rule="evenodd"/>
      <path id="Path_129" data-name="Path 129" d="M3018.81,11406.5l.058.22.071.06-.013-.211Z" transform="translate(-1811.108 -11100.021)" fill="#ababc5" fill-rule="evenodd"/>
      <path id="Path_130" data-name="Path 130" d="M2915.66,11164.8l.071.347-.056.125.153.028.109-.108.022-.432-.107-.16Z" transform="translate(-1710.51 -10864.107)" fill="#ababc5" fill-rule="evenodd"/>
      <path id="Path_131" data-name="Path 131" d="M2960.72,11044.5l.046.205.108-.139-.036-.17Z" transform="translate(-1754.455 -10746.882)" fill="#ababc5" fill-rule="evenodd"/>
      <path id="Path_132" data-name="Path 132" d="M3040.025,11486.8l-.292.119,0,.037-.005.258.179.15.117.344.081-.037.1-.45Z" transform="translate(-1831.51 -11178.333)" fill="#ababc5" fill-rule="evenodd"/>
      <path id="Path_133" data-name="Path 133" d="M2934.441,10982.8l-.16.025v.059l-.213.09.113.141-.059.334.035.616.182.334.191-.324.065-.54-.018-.368Z" transform="translate(-1728.464 -10686.805)" fill="#ababc5" fill-rule="evenodd"/>
      <path id="Path_135" data-name="Path 135" d="M2942.171,10925.274l-.041.708.01.412.387-.444.045-.4-.091-.551Z" transform="translate(-1736.325 -10630.437)" fill="#ababc5" fill-rule="evenodd"/>
    </g>
    <path id="Path_136" data-name="Path 136" d="M1376.36,11142.26l.18.293.227-.229.063-.225-.227.1Z" transform="translate(-209.301 -10842.164)" fill="#d4d4e1" fill-rule="evenodd"/>
    <path id="Path_137" data-name="Path 137" d="M1404.85,11151.2l-.36.316v.137l.3-.039.148-.227Z" transform="translate(-236.735 -10851.038)" fill="#d4d4e1" fill-rule="evenodd"/>
    <path id="Path_138" data-name="Path 138" d="M1370.088,11108.9h-.268l.049.183h.275Z" transform="translate(-202.923 -10809.786)" fill="#d4d4e1" fill-rule="evenodd"/>
    <path id="Path_139" data-name="Path 139" d="M1386.074,11071.076l-.028-.176h-.186l.071.455Z" transform="translate(-218.566 -10772.727)" fill="#d4d4e1" fill-rule="evenodd"/>
    <path id="Path_140" data-name="Path 140" d="M1450.92,10340.65l.4-.15.268.15v.106l-.183.038-.117-.033-.1-.032-.1-.032-.119-.015Z" transform="translate(-282.016 -10060.4)" fill="#d4d4e1" fill-rule="evenodd"/>
    <rect id="Rectangle_21" data-name="Rectangle 21" width="2.278" height="2.222" transform="translate(1214.353 284.994)" fill="#383876" opacity="0.21"/>
    <rect id="Rectangle_22" data-name="Rectangle 22" width="2.278" height="2.222" transform="translate(1214.353 288.298)" fill="#383876" opacity="0.27"/>
    <rect id="Rectangle_23" data-name="Rectangle 23" width="2.278" height="2.222" transform="translate(1214.353 291.604)" fill="#a3a3c0"/>
    <path id="Line_70" data-name="Line 70" d="M10.61-19.01H0V-20H10.61Z" transform="translate(1217.689 305.452)" fill="#383876" opacity="0.21"/>
    <path id="Line_71" data-name="Line 71" d="M10.61-19.01H0V-20H10.61Z" transform="translate(1217.689 308.916)" fill="#383876" opacity="0.21"/>
    <path id="Line_72" data-name="Line 72" d="M10.61-19.01H0V-20H10.61Z" transform="translate(1217.689 312.22)" fill="#383876" opacity="0.21"/>
    <g id="Group_12" data-name="Group 12" transform="translate(1136.729 56.931)">
      <path id="Path_84" data-name="Path 84" d="M246.97,3418.53H349.484a3.339,3.339,0,0,1,3.33,3.33v57.279a3.339,3.339,0,0,1-3.33,3.33H246.97a3.339,3.339,0,0,1-3.33-3.33v-57.279A3.339,3.339,0,0,1,246.97,3418.53Z" transform="translate(-237.611 -3407.275)" fill="rgba(52,52,99,0.2)" fill-rule="evenodd"/>
      <rect id="Rectangle_16" data-name="Rectangle 16" width="110.462" height="69.904" rx="6" transform="translate(0 0)" fill="#d5d9ea"/>
      <path id="Path_85" data-name="Path 85" d="M3.641,2963.7H106.821a3.651,3.651,0,0,1,3.641,3.641v4.515H0v-4.515A3.651,3.651,0,0,1,3.641,2963.7Z" transform="translate(0 -2963.7)" fill="#383876" fill-rule="evenodd" opacity="0.31"/>
      <g id="Group_11" data-name="Group 11" transform="translate(8.888 14.66)">
        <g id="Group_9" data-name="Group 9" transform="translate(6.685 0)">
          <path id="Path_86" data-name="Path 86" d="M657.93,3586.061l-9.88-9.88a23.3,23.3,0,0,1,16.466-6.82v13.972a9.319,9.319,0,0,0-6.587,2.728h0Zm0,0Z" transform="translate(-647.587 -3569.033)" fill="#9a9bbc" fill-rule="evenodd"/>
          <path id="_1" data-name="1" d="M639.683,3573.621l-10.343-10.343.231-.231a23.776,23.776,0,0,1,16.7-6.917h.327v14.627h-.327a9.049,9.049,0,0,0-6.355,2.632Zm-9.415-10.341,9.419,9.419a9.72,9.72,0,0,1,6.255-2.591v-13.321A23.13,23.13,0,0,0,630.268,3563.28Z" transform="translate(-629.34 -3556.13)" fill="#d5d9ea"/>
        </g>
        <g id="Group_10" data-name="Group 10" transform="translate(0 6.685)">
          <path id="Path_87" data-name="Path 87" d="M391.04,3869.5l-6.986,12.1a23.288,23.288,0,0,1-4.823-36.634l9.88,9.88a9.316,9.316,0,0,0,1.929,14.654h0Zm0,0Z" transform="translate(-372.083 -3844.507)" fill="#babdd6" fill-rule="evenodd"/>
          <path id="_1-2" data-name="1" d="M371.271,3863.8l-.284-.164a23.615,23.615,0,0,1-4.891-37.149l.232-.231,10.343,10.343-.232.231a8.989,8.989,0,0,0,1.861,14.139l.284.164Zm-4.941-36.617a22.96,22.96,0,0,0,4.7,35.72l6.66-11.536a9.643,9.643,0,0,1-1.943-14.765Z" transform="translate(-359.18 -3826.26)" fill="#d5d9ea"/>
        </g>
        <path id="Path_88" data-name="Path 88" d="M854.535,3583.322V3569.35a23.287,23.287,0,1,1-11.645,43.456l6.987-12.1a9.315,9.315,0,1,0,4.657-17.382Z" transform="translate(-830.92 -3569.023)" fill="#c2c5dc" fill-rule="evenodd"/>
        <path id="Path_88_-_Outline" data-name="Path 88 - Outline" d="M836.581,3556.12h.327a23.615,23.615,0,1,1-11.808,44.066l-.284-.164,7.315-12.668.284.164a8.987,8.987,0,1,0,4.494-16.771h-.327Zm.327,46.574a22.96,22.96,0,0,0,.327-45.917V3570.1a9.642,9.642,0,1,1-4.862,18.146l-6.662,11.537A23,23,0,0,0,836.908,3602.694Z" transform="translate(-813.294 -3556.12)" fill="#d5d9ea"/>
      </g>
      <g id="_1797043227952" transform="translate(72.086 14.495)">
        <rect id="Rectangle_17" data-name="Rectangle 17" width="4.904" height="4.785" fill="#c2c5dc"/>
        <rect id="Rectangle_18" data-name="Rectangle 18" width="4.904" height="4.785" transform="translate(0 7.117)" fill="#babdd6"/>
        <rect id="Rectangle_19" data-name="Rectangle 19" width="4.904" height="4.785" transform="translate(0 14.234)" fill="#9a9bbc"/>
        <path id="Line_61" data-name="Line 61" d="M22.845-23.763H0V-25H22.845Z" transform="translate(7.185 26.433)" fill="#babdd6"/>
        <path id="Line_62" data-name="Line 62" d="M22.845-23.763H0V-25H22.845Z" transform="translate(7.185 33.891)" fill="#babdd6"/>
        <path id="Line_63" data-name="Line 63" d="M22.845-23.763H0V-25H22.845Z" transform="translate(7.185 41.008)" fill="#babdd6"/>
        <path id="Line_64" data-name="Line 64" d="M29.424-23.763H0V-25H29.424Z" transform="translate(0.247 53.327)" fill="#a5a9c9"/>
        <path id="Line_65" data-name="Line 65" d="M29.424-23.763H0V-25H29.424Z" transform="translate(0.247 57.05)" fill="#a5a9c9"/>
        <path id="Line_66" data-name="Line 66" d="M29.424-23.763H0V-25H29.424Z" transform="translate(0.247 60.772)" fill="#a5a9c9"/>
        <path id="Line_67" data-name="Line 67" d="M29.424-23.763H0V-25H29.424Z" transform="translate(0.247 64.494)" fill="#a5a9c9"/>
        <path id="Line_68" data-name="Line 68" d="M29.424-23.763H0V-25H29.424Z" transform="translate(0.247 68.216)" fill="#a5a9c9"/>
        <path id="Line_69" data-name="Line 69" d="M29.424-23.763H0V-25H29.424Z" transform="translate(0.247 71.939)" fill="#a5a9c9"/>
      </g>
    </g>
    <g id="Group_7" data-name="Group 7" transform="translate(1415.655 201.972)">
      <path id="Line_54" data-name="Line 54" d="M-9.505,42.1H-10V0h.495Z" transform="translate(20.552 13.404)" fill="#7dbae3"/>
      <path id="Path_61" data-name="Path 61" d="M11653.952,8002.609h96.128a3.132,3.132,0,0,1,3.122,3.123v53.71a3.132,3.132,0,0,1-3.122,3.122h-96.128a3.131,3.131,0,0,1-3.122-3.122v-53.71A3.131,3.131,0,0,1,11653.952,8002.609Z" transform="translate(-11645.178 -7992.056)" fill="rgba(52,52,99,0.2)" fill-rule="evenodd"/>
      <rect id="Rectangle_14" data-name="Rectangle 14" width="103.581" height="65.549" rx="5" transform="translate(0)" fill="#d5d9ea"/>
      <path id="Path_62" data-name="Path 62" d="M11425.854,7576.12h96.752a3.423,3.423,0,0,1,3.414,3.414v4.233h-103.58v-4.233A3.424,3.424,0,0,1,11425.854,7576.12Z" transform="translate(-11422.438 -7576.12)" fill="#383876" fill-rule="evenodd" opacity="0.46"/>
      <path id="Line_55" data-name="Line 55" d="M83.576-9.505H0V-10H83.576Z" transform="translate(10.797 30.803)" fill="#d9def3"/>
      <path id="Line_56" data-name="Line 56" d="M83.576-9.505H0V-10H83.576Z" transform="translate(10.797 37.631)" fill="#d9def3"/>
      <path id="Line_57" data-name="Line 57" d="M83.576-9.505H0V-10H83.576Z" transform="translate(10.797 44.459)" fill="#d9def3"/>
      <path id="Line_58" data-name="Line 58" d="M83.576-9.505H0V-10H83.576Z" transform="translate(10.797 51.288)" fill="#d9def3"/>
      <path id="Line_59" data-name="Line 59" d="M83.576-9.505H0V-10H83.576Z" transform="translate(10.797 58.116)" fill="#e1e1e1"/>
      <path id="Line_60" data-name="Line 60" d="M83.576-9.505H0V-10H83.576Z" transform="translate(10.797 64.944)" fill="#e1e1e1"/>
      <path id="Path_63" data-name="Path 63" d="M11869.1,8228.007l8.468-5.429,8.876,5.429,5.957-5.735,4.141,3.551,2.719-2.322,1.554,2.7,3.947-4.575,2.912,3.585,1.456-3.653,2.525,3.857,3.138-6.554,1.976,5.7,3.333-8.364,1.975,3.073,1.876-2.049,3.172,1.844,8.642-19.9,4.4,10.479,2.98-5.6,3.882,7.511,2.589-3.142,2.717,3.142v22.532h-83.1Z" transform="translate(-11858.046 -8183.743)" fill="#9799bc" fill-rule="evenodd"/>
      <path id="Path_64" data-name="Path 64" d="M11869.1,8444.917l8.485-5.633,8.858,5.633,5.957-5.735,4.141,3.551,2.719-2.322,1.554,2.7,3.947-4.574,2.912,3.585,1.456-3.653,2.525,3.857,3.138-6.555,1.976,5.7,3.333-8.365,1.975,3.073,1.876-2.049,3.172,1.844,8.642-19.9,4.4,10.479,2.98-5.6,3.882,7.511,2.589-3.142,2.717,3.142v22.532h-83.1Z" transform="translate(-11858.046 -8395.285)" fill="#babdd6" fill-rule="evenodd"/>
    </g>
    <g id="Group_8" data-name="Group 8" transform="translate(1376.602 56.931)">
      <path id="Path_65" data-name="Path 65" d="M10020.964,2671.42h73.384a2.39,2.39,0,0,1,2.383,2.383v41a2.39,2.39,0,0,1-2.383,2.384h-73.384a2.39,2.39,0,0,1-2.384-2.384v-41A2.39,2.39,0,0,1,10020.964,2671.42Z" transform="translate(-10014.265 -2663.363)" fill="rgba(52,52,99,0.2)" fill-rule="evenodd"/>
      <rect id="Rectangle_15" data-name="Rectangle 15" width="79.073" height="50.04" rx="3" transform="translate(0 0)" fill="#d5d9ea"/>
      <path id="Path_66" data-name="Path 66" d="M9846.8,2345.83h73.86a2.614,2.614,0,0,1,2.606,2.606v3.232h-79.073v-3.232a2.613,2.613,0,0,1,2.605-2.606Z" transform="translate(-9844.189 -2345.83)" fill="#383876" fill-rule="evenodd" opacity="0.48"/>
      <path id="Path_67" data-name="Path 67" d="M10138.3,2894.071h3.188V2862.42h-3.187Z" transform="translate(-10131.021 -2849.025)" fill="#9799bc"/>
      <path id="Path_68" data-name="Path 68" d="M10387,3317.751h3.188v-20.9H10387Z" transform="translate(-10373.568 -3273.316)" fill="#babdd6"/>
      <path id="Path_69" data-name="Path 69" d="M10635.7,3042.8h3.187V3014.92h-3.187Z" transform="translate(-10616.113 -2997.752)" fill="#9799bc"/>
      <path id="Path_70" data-name="Path 70" d="M10884.4,2942.249h3.188V2911.82h-3.187Z" transform="translate(-10858.659 -2897.814)" fill="#babdd6"/>
      <path id="Path_71" data-name="Path 71" d="M11133,3343.107h3.188V3322.85H11133Z" transform="translate(-11101.107 -3298.062)" fill="#9799bc"/>
      <path id="Path_72" data-name="Path 72" d="M11381.7,3499.685h3.188V3483.4h-3.187Z" transform="translate(-11343.652 -3455.25)" fill="#babdd6"/>
      <path id="Path_73" data-name="Path 73" d="M11630.4,3022.093h3.187v-28.4h-3.187Z" transform="translate(-11586.199 -2977.047)" fill="#9799bc"/>
      <path id="Path_74" data-name="Path 74" d="M11879,3223.941h3.189V3200.66H11879Z" transform="translate(-11828.647 -3179.506)" fill="#babdd6"/>
      <path id="Path_75" data-name="Path 75" d="M12127.8,3062.654h3.188V3035.28h-3.187Z" transform="translate(-12071.289 -3017.608)" fill="#9799bc"/>
      <path id="Path_76" data-name="Path 76" d="M12376.4,3406.489h3.188V3387.84h-3.187Z" transform="translate(-12313.739 -3362.055)" fill="#babdd6"/>
      <path id="Path_77" data-name="Path 77" d="M12625.1,3266.648h3.188v-22.2h-3.187Z" transform="translate(-12556.284 -3222.213)" fill="#9799bc"/>
    </g>
  </g>
</svg>
