<svg xmlns="http://www.w3.org/2000/svg" width="622.908" height="335.863" viewBox="0 0 622.908 335.863">
  <g id="Group_10788" data-name="Group 10788" transform="translate(-20313 -603)">
    <path id="Path_7516" data-name="Path 7516" d="M641.509,123S629.3,58.5,560.758,22.44,408.646-4.132,373.9,35.774C339.163,75.586,341.98,145.82,305.36,143.942s-50.7-52.206-101.408-19.906S179.539,199.9,175.783,227.51c-3.756,27.512-46.948-15.211-81.69-3.756-34.742,11.361-50.7,43.662-46.948,62.629S34,329.105,34,329.105H647.143C647.143,328.918,656.532,205.632,641.509,123Z" transform="translate(20279 603.015)" fill="#ccd5e2"/>
    <path id="Path_7600" data-name="Path 7600" d="M697.4,0" transform="translate(20238.508 932.308)" fill="none" stroke="#263238" stroke-linecap="round" stroke-width="1"/>
    <g id="Group_10757" data-name="Group 10757" transform="translate(20516.416 652.699)">
      <g id="Group_10745" data-name="Group 10745" transform="translate(2.689 220.831)">
        <g id="Group_10743" data-name="Group 10743" transform="translate(35.392 7.304)">
          <path id="Path_7517" data-name="Path 7517" d="M424.6,298.726a283.542,283.542,0,0,1,32.582-2.629c16.807-.282,22.347.845,26.479,2.254s7.887,12.958,2.441,24.037-24.507,20.188-50.422,17.934-44.507-7.418-54.366-14.93c-9.953-7.418-1.127-11.643,9.953-17.652C402.257,301.637,417.187,298.351,424.6,298.726Z" transform="translate(-296.432 -295.89)" fill="#d94148" stroke="#263238" stroke-linecap="round" stroke-linejoin="round" stroke-width="1"/>
          <path id="Path_7518" data-name="Path 7518" d="M397.777,324.255s38.685-21.314,52.206-25.164,29.014-4.695,36.15,0,5.54,19.906,2.254,25.728-30.141,17.934-44.976,22.347c-14.93,4.413-73.239,4.131-89.2,5.54-16.056,1.408-54.648.563-60.188-2.441s-2.254-6.385,5.822-8.263c7.981-1.972,34.554-1.972,46.948-5.54C359.185,332.8,388.669,328.95,397.777,324.255Z" transform="translate(-291.2 -295.879)" fill="#ffbe9d" stroke="#263238" stroke-linecap="round" stroke-linejoin="round" stroke-width="1"/>
          <path id="Path_7519" data-name="Path 7519" d="M491.672,325.864c1.6-2.817,2.817-7.887,2.817-12.864-10.047,7.887-25.634,17.371-47.136,25.07-20.469,7.324-78.309,13.8-102.253,16.338,4.789-.094,9.014-.282,12.394-.563,16.056-1.408,74.272-1.127,89.2-5.54C461.625,343.8,488.386,331.685,491.672,325.864Z" transform="translate(-294.486 -296.924)" fill="#d94148" stroke="#263238" stroke-linecap="round" stroke-linejoin="round" stroke-width="1"/>
          <path id="Path_7520" data-name="Path 7520" d="M471.38,340.607c4.131-1.784,8.169-3.662,11.925-5.54.845-4.038,1.784-15.962-6.948-38.967a87.792,87.792,0,0,0-16.056,3S476.732,317.884,471.38,340.607Z" transform="translate(-301.517 -295.893)" fill="#d94148" stroke="#263238" stroke-linecap="round" stroke-linejoin="round" stroke-width="1"/>
          <path id="Path_7521" data-name="Path 7521" d="M360.026,335.8c-5.164,1.033-9.859,2.066-13.333,3-12.394,3.568-38.967,3.568-46.948,5.54s-11.361,5.258-5.822,8.263,44.225,3.85,60.188,2.441c1.878-.188,4.413-.282,7.324-.469C355.049,347.725,357.96,339.65,360.026,335.8Z" transform="translate(-291.196 -298.316)" fill="#ffbe9d" stroke="#263238" stroke-linecap="round" stroke-linejoin="round" stroke-width="1"/>
        </g>
        <g id="Group_10744" data-name="Group 10744">
          <path id="Path_7522" data-name="Path 7522" d="M332.561,289s-25.164,3-37.84,4.131-35.587,11.361-40.281,21.314,9.39,21.784,17.371,24.319c7.981,2.441,32.019,7.981,45.258,7.136s52.488-12.394,59.342-14.648c6.948-2.254,19.061-7.418,19.061-7.418s-11.643,0-31.174-9.953C344.673,303.93,341.669,293.695,332.561,289Z" transform="translate(-253.503 -288.155)" fill="#ffbe9d" stroke="#263238" stroke-linecap="round" stroke-linejoin="round" stroke-width="1"/>
          <path id="Path_7523" data-name="Path 7523" d="M280.2,296.832s19.812-2.066,28.92,4.507,14.836,26.854,14.836,26.854l41.972-14.46s-3.1-3.38-10.986-12.864-30.986-14.836-44.6-12.019C296.726,291.95,280.2,296.832,280.2,296.832Z" transform="translate(-255.133 -288.101)" fill="#263238" stroke="#263238" stroke-linecap="round" stroke-linejoin="round" stroke-width="1"/>
          <path id="Path_7524" data-name="Path 7524" d="M382.086,333.742c.845-.282,1.5-.469,1.972-.657,6.948-2.254,19.061-7.418,19.061-7.418s-8.92,0-24.319-6.667C381.054,322.662,383.213,328.014,382.086,333.742Z" transform="translate(-261.151 -289.987)" fill="#ffbe9d" stroke="#263238" stroke-linecap="round" stroke-linejoin="round" stroke-width="1"/>
          <path id="Path_7525" data-name="Path 7525" d="M390.619,328.8a344.077,344.077,0,0,0-49.953,10.141c-23.85,6.761-52.676,4.319-66.666,2.535,8.92,2.629,31.549,7.7,44.225,6.854,13.239-.845,52.488-12.394,59.342-14.648C381.417,332.556,386.582,330.49,390.619,328.8Z" transform="translate(-254.754 -290.585)" fill="#d94148" stroke="#263238" stroke-linecap="round" stroke-linejoin="round" stroke-width="1"/>
        </g>
      </g>
      <g id="Group_10746" data-name="Group 10746" transform="translate(47.345 70.596)">
        <path id="Path_7526" data-name="Path 7526" d="M418.468,198.9l-5.634,55.868s2.723,13.427,4.507,18.779,3.568,13.991,2.723,14.93c-.939.939-1.5.282-7.793,2.066s-13.709,12.582-23.286,16.714c-9.577,4.225-17.277,2.066-26.291-1.5-8.92-3.568-25.634-25.352-29.3-26.009-3.568-.563-14.366-2.347-18.779-3.85-4.507-1.5-9.859-7.793-9.859-7.793s-.939,0-.939-3.286.282-3.568.282-3.568a10.692,10.692,0,0,1-3-4.789c-.563-2.723,5.634-17,5.634-26.009,0-8.92,4.507-42.723,4.507-46.854,0-4.225,6.291-5.07,12.864-7.793s41.22-15.493,41.784-19.061,3-28.638,3-28.638,18.591,19.906,20.939,21.5a18.92,18.92,0,0,1,4.507,4.225l-2.066,9.859s8.92,6.573,14.93,10.141,13.991,6.854,14.366,9.3" transform="translate(-301.061 -128.1)" fill="#274a99" stroke="#263238" stroke-linecap="round" stroke-linejoin="round" stroke-width="1"/>
      </g>
      <path id="Path_7527" data-name="Path 7527" d="M326.2,273.5a17.208,17.208,0,0,1,3.944,4.225" transform="translate(-255.251 -66.379)" fill="none" stroke="#263238" stroke-linecap="round" stroke-linejoin="round" stroke-width="1"/>
      <path id="Path_7528" data-name="Path 7528" d="M304,273.57s8.545-5.915,17.183-2.441" transform="translate(-253.896 -66.167)" fill="none" stroke="#263238" stroke-linecap="round" stroke-linejoin="round" stroke-width="1"/>
      <g id="Group_10747" data-name="Group 10747" transform="translate(102.874 70.596)">
        <path id="Path_7529" data-name="Path 7529" d="M401.139,167.536c-3.1-2.16-5.352-3.85-5.352-3.85l2.066-9.859a21.4,21.4,0,0,0-4.507-4.225c-2.347-1.6-20.939-21.5-20.939-21.5s-2.347,25.07-3,28.638c-.188,1.127-3.944,3.286-9.2,5.728.939,5.728,4.225,15.4,15.775,19.061C387.712,185.283,396.632,174.673,401.139,167.536Z" transform="translate(-360.2 -128.1)" fill="#ffbe9d" stroke="#263238" stroke-linecap="round" stroke-linejoin="round" stroke-width="1"/>
        <path id="Path_7530" data-name="Path 7530" d="M397.077,164.306c0-.094-.094-.094,0,0l1.972-9.953a21.4,21.4,0,0,0-4.507-4.225c-1.315-.939-7.887-7.7-13.333-13.427l-1.408,6.573C379.988,143.273,379.988,162.052,397.077,164.306Z" transform="translate(-361.396 -128.625)" fill="#263238"/>
      </g>
      <g id="Group_10752" data-name="Group 10752" transform="translate(87.532 0)">
        <path id="Path_7531" data-name="Path 7531" d="M376.1,62.009s-.845-7.136-6.573-8.545-18.779-.563-23.38,7.981-1.127,15.117.563,16.244a18.87,18.87,0,0,0,3.1,1.69l1.408-7.136s.563,6.291,4.6,7.7,12.3,0,12.3,0S375.259,74.873,376.1,62.009Z" transform="translate(-343.861 -52.915)" fill="#263238" stroke="#263238" stroke-linecap="round" stroke-linejoin="round" stroke-width="1"/>
        <path id="Path_7532" data-name="Path 7532" d="M434.241,89.7s10.141,6.573,10.141,13.145-12.582,8.92-12.582,8.92Z" transform="translate(-349.229 -55.16)" fill="#263238" stroke="#263238" stroke-linecap="round" stroke-linejoin="round" stroke-width="1"/>
        <g id="Group_10749" data-name="Group 10749" transform="translate(26.046 31.817)">
          <path id="Path_7533" data-name="Path 7533" d="M432.837,90.838s-1.127,13.709-2.254,21.408-6.009,13.991-6.291,19.061c-.282,5.164-11.643,17.652-17.371,21.972s-14.272,2.817-18.5-.563c-4.319-3.38-11.361-11.643-14.836-20.563-3.38-8.826-.845-21.69,0-25.634.845-4.038,22.253-19.718,38.5-19.718S432.837,90.838,432.837,90.838Z" transform="translate(-371.617 -86.8)" fill="#ffbe9d" stroke="#263238" stroke-linecap="round" stroke-linejoin="round" stroke-width="1"/>
          <path id="Path_7534" data-name="Path 7534" d="M417.328,125.1s1.127,10.235,1.127,11.08-2.535,3.38-6.854.845" transform="translate(-374.042 -89.138)" fill="none" stroke="#263238" stroke-linecap="round" stroke-linejoin="round" stroke-width="1"/>
          <path id="Path_7535" data-name="Path 7535" d="M399.5,137.9s4.6,5.728,12.019,5.446" transform="translate(-373.303 -89.919)" fill="none" stroke="#263238" stroke-linecap="round" stroke-linejoin="round" stroke-width="1"/>
          <g id="Group_10748" data-name="Group 10748" transform="translate(0 22.066)">
            <path id="Path_7536" data-name="Path 7536" d="M414.377,115.117a35.307,35.307,0,0,0-21.408-4.038s-3.38,0-1.408,2.535c0,0-.845,8.545,1.127,11.08s6.573,4.6,11.08,4.6C408.367,129.389,412.968,123.944,414.377,115.117Z" transform="translate(-372.781 -110.329)" fill="none" stroke="#263238" stroke-linecap="round" stroke-linejoin="round" stroke-width="2"/>
            <line id="Line_197" data-name="Line 197" x1="18.498" y1="1.127" fill="#fff" stroke="#263238" stroke-linecap="round" stroke-linejoin="round" stroke-width="2"/>
            <path id="Path_7537" data-name="Path 7537" d="M415.9,115.4l4.883,1.408s-1.972,10.516-.845,13.427h0a6.479,6.479,0,0,0,4.225,3.756,25.5,25.5,0,0,0,4.6.845c2.254,0,7.136-4.6,8.263-12.582,0,0,1.408-.563.845-1.408s-7.418-4.883-16.9-3.944" transform="translate(-374.304 -110.611)" fill="none" stroke="#263238" stroke-linecap="round" stroke-linejoin="round" stroke-width="2"/>
            <path id="Path_7538" data-name="Path 7538" d="M415.6,118.2s3.662.282,4.695,1.6" transform="translate(-374.286 -110.782)" fill="none" stroke="#263238" stroke-linecap="round" stroke-linejoin="round" stroke-width="2"/>
          </g>
          <path id="Path_7539" data-name="Path 7539" d="M404.9,121.361c-.376,1.878-1.221,3.286-2.066,3.1s-1.221-1.784-.845-3.662,1.221-3.286,2.066-3.1C404.807,117.887,405.183,119.483,404.9,121.361Z" transform="translate(-373.446 -88.685)" fill="#263238"/>
          <ellipse id="Ellipse_22" data-name="Ellipse 22" cx="3.099" cy="1.315" rx="3.099" ry="1.315" transform="translate(48.887 39.961) rotate(-74.478)" fill="#263238"/>
          <path id="Path_7540" data-name="Path 7540" d="M398.8,114.454s7.136-2.347,10.422,1.5" transform="translate(-373.26 -88.445)" fill="none" stroke="#263238" stroke-linecap="round" stroke-linejoin="round" stroke-width="2"/>
          <path id="Path_7541" data-name="Path 7541" d="M423.9,120.133s3.286-3,6.009,1.221" transform="translate(-374.792 -88.771)" fill="none" stroke="#263238" stroke-linecap="round" stroke-linejoin="round" stroke-width="2"/>
        </g>
        <g id="Group_10751" data-name="Group 10751" transform="translate(14.86 5.403)">
          <path id="Path_7542" data-name="Path 7542" d="M382.8,105.365s15.4-8.263,28.544-10.8,23.1-1.408,25.352-9.108S423.549,64.9,407.586,60.388c-15.962-4.6-35.023.282-42.723,11.643s-5.164,25.07-2.817,30.235c2.253,5.164,4.038,9.108,8.263,9.671S382.8,105.365,382.8,105.365Z" transform="translate(-359.687 -58.669)" fill="#263238" stroke="#263238" stroke-linecap="round" stroke-linejoin="round" stroke-width="1"/>
          <g id="Group_10750" data-name="Group 10750" transform="translate(4.385 11.579)">
            <path id="Path_7543" data-name="Path 7543" d="M372.131,98.8A15.3,15.3,0,0,0,368,102.274" transform="translate(-364.579 -72.697)" fill="none" stroke="#fff" stroke-linecap="round" stroke-linejoin="round" stroke-width="1"/>
            <path id="Path_7544" data-name="Path 7544" d="M426.46,78.1s4.131,2.535-7.887,7.512c-8.732,3.662-26.479,4.6-38.873,8.826" transform="translate(-365.293 -71.433)" fill="none" stroke="#fff" stroke-linecap="round" stroke-linejoin="round" stroke-width="1"/>
            <path id="Path_7545" data-name="Path 7545" d="M412.5,74.756A10.3,10.3,0,0,0,414.754,71" transform="translate(-367.295 -71)" fill="none" stroke="#fff" stroke-linecap="round" stroke-linejoin="round" stroke-width="1"/>
            <path id="Path_7546" data-name="Path 7546" d="M364.867,96.077s-3.756-5.446,9.108-9.108c9.3-2.723,22.723-3.662,30.986-8.169" transform="translate(-364.356 -71.476)" fill="none" stroke="#fff" stroke-linecap="round" stroke-linejoin="round" stroke-width="1"/>
          </g>
        </g>
        <path id="Path_7547" data-name="Path 7547" d="M375.037,119.28s-2.254-11.08-7.136-11.08-5.54,5.164-3.568,11.361c1.972,6.291,5.164,8.263,8.075,6.291" transform="translate(-345.047 -56.289)" fill="#ffbe9d" stroke="#263238" stroke-linecap="round" stroke-linejoin="round" stroke-width="1"/>
      </g>
      <path id="Path_7548" data-name="Path 7548" d="M335.073,284.555s1.221-1.5,1.221-6.291S333.007,257.7,331.5,246.62s-3-32.206-3-41.22" transform="translate(-255.392 -62.222)" fill="none" stroke="#263238" stroke-linecap="round" stroke-linejoin="round" stroke-width="1"/>
      <path id="Path_7549" data-name="Path 7549" d="M367.5,252.9a25.19,25.19,0,0,0,2.441,3.474" transform="translate(-257.772 -65.121)" fill="none" stroke="#263238" stroke-linecap="round" stroke-linejoin="round" stroke-width="1"/>
      <path id="Path_7550" data-name="Path 7550" d="M349.8,194.3s5.352,32.958,14.554,51.173" transform="translate(-256.692 -61.545)" fill="none" stroke="#263238" stroke-linecap="round" stroke-linejoin="round" stroke-width="1"/>
      <path id="Path_7551" data-name="Path 7551" d="M369.8,224.2c1.221,2.254,2.441,4.413,3.662,6.291" transform="translate(-257.912 -63.37)" fill="none" stroke="#263238" stroke-linecap="round" stroke-linejoin="round" stroke-width="1"/>
      <path id="Path_7552" data-name="Path 7552" d="M353.6,184.5a321.834,321.834,0,0,0,13.052,33.239" transform="translate(-256.924 -60.946)" fill="none" stroke="#263238" stroke-linecap="round" stroke-linejoin="round" stroke-width="1"/>
      <g id="Group_10754" data-name="Group 10754" transform="translate(7.099 187.779)">
        <path id="Path_7553" data-name="Path 7553" d="M285.215,276s3.286,2.723,9.859,2.723,12.207-3.286,20.563-1.221,8.357,10.423,7.418,12.864-8.92,3.85-16.432,3c-7.418-.939-22.723-2.347-22.723-2.347S286.341,282.291,285.215,276Z" transform="translate(-259.769 -254.31)" fill="#ffbe9d" stroke="#263238" stroke-linecap="round" stroke-linejoin="round" stroke-width="1"/>
        <g id="Group_10753" data-name="Group 10753">
          <path id="Path_7554" data-name="Path 7554" d="M277.811,267.9a8.551,8.551,0,0,0,4.507,5.164c3.756,2.066,5.164,7.606,5.164,10.7a14.415,14.415,0,0,1-.657,4.789s-1.033,4.131-4.507,4.789-5.54,2.723-9.671-1.408S262.6,274.661,262.6,274.661l.657-2.066a15.525,15.525,0,0,0,6.2-1.408A80.068,80.068,0,0,1,277.811,267.9Z" transform="translate(-258.469 -253.816)" fill="#ffbe9d" stroke="#263238" stroke-linecap="round" stroke-linejoin="round" stroke-width="1"/>
          <line id="Line_198" data-name="Line 198" x2="23.756" y2="39.718" fill="none" stroke="#263238" stroke-linecap="round" stroke-linejoin="round" stroke-width="3"/>
          <path id="Path_7555" data-name="Path 7555" d="M265.9,294.6a11.252,11.252,0,0,0,7.606,2.723c4.883,0,9.671-3.1,7.23-4.131s-4.131-2.066-5.915-1.408C273.13,292.538,265.9,294.6,265.9,294.6Z" transform="translate(-258.67 -255.261)" fill="#ffbe9d" stroke="#263238" stroke-linecap="round" stroke-linejoin="round" stroke-width="1"/>
          <path id="Path_7556" data-name="Path 7556" d="M262.2,289.3s2.066,5.915,3.756,6.573,9.014-1.033,11.08-2.441-1.408-3.756-4.507-3.756S262.2,289.3,262.2,289.3Z" transform="translate(-258.444 -255.122)" fill="#ffbe9d" stroke="#263238" stroke-linecap="round" stroke-linejoin="round" stroke-width="1"/>
          <path id="Path_7557" data-name="Path 7557" d="M260.677,279.7s-1.408,7.23,1.408,9.014c2.723,1.69,13.427,2.441,14.554.376,1.033-2.066-2.723-3.1-6.573-4.789C266.217,282.517,260.677,279.7,260.677,279.7Z" transform="translate(-258.33 -254.536)" fill="#ffbe9d" stroke="#263238" stroke-linecap="round" stroke-linejoin="round" stroke-width="1"/>
          <path id="Path_7558" data-name="Path 7558" d="M272.1,268.934s.376,13.427,1.69,14.836c1.408,1.408,4.507,1.69,5.164.657s1.408-12.77-.657-16.62C276.325,264.052,272.1,268.934,272.1,268.934Z" transform="translate(-259.048 -253.723)" fill="#ffbe9d" stroke="#263238" stroke-linecap="round" stroke-linejoin="round" stroke-width="1"/>
          <path id="Path_7559" data-name="Path 7559" d="M263.007,273.093s-4.507-1.033-4.507,3.474,6.2,7.23,9.014,7.606c2.723.376,5.915-.657,3.474-2.723C268.547,279.291,265.073,274.784,263.007,273.093Z" transform="translate(-258.218 -254.126)" fill="#ffbe9d" stroke="#263238" stroke-linecap="round" stroke-linejoin="round" stroke-width="1"/>
        </g>
      </g>
      <g id="Group_10756" data-name="Group 10756" transform="translate(0 215.696)">
        <path id="Path_7560" data-name="Path 7560" d="M299.348,295.991l19.343-2.723s-2.441-3.568-8.826-3.568-10.235,3-11.08,4.131C298.034,294.864,299.348,295.991,299.348,295.991Z" transform="translate(-253.564 -283.064)" fill="#263238" stroke="#263238" stroke-linecap="round" stroke-linejoin="round" stroke-width="1"/>
        <path id="Path_7561" data-name="Path 7561" d="M338.66,318.47l30.892-10.8s-7.418-15.775-21.5-21.314-35.023-4.131-43.85-.751l3.192,3.568s6.385.282,13.239,8.263c6.948,7.981,13.8,20.751,13.8,20.751Z" transform="translate(-253.908 -282.633)" fill="#fff" stroke="#263238" stroke-linecap="round" stroke-linejoin="round" stroke-width="1"/>
        <g id="Group_10755" data-name="Group 10755" transform="translate(65.409 2.293)">
          <path id="Path_7562" data-name="Path 7562" d="M320.3,287.4s12.3-1.784,25.164,25.728" transform="translate(-320.3 -285.215)" fill="none" stroke="#f0ae00" stroke-linecap="round" stroke-linejoin="round" stroke-width="1"/>
          <path id="Path_7563" data-name="Path 7563" d="M326.8,286.1s12.3-1.784,25.164,25.728" transform="translate(-320.697 -285.136)" fill="none" stroke="#f0ae00" stroke-linecap="round" stroke-linejoin="round" stroke-width="1"/>
          <path id="Path_7564" data-name="Path 7564" d="M332.2,285.1s12.3-1.784,25.164,25.728" transform="translate(-321.026 -285.075)" fill="none" stroke="#f0ae00" stroke-linecap="round" stroke-linejoin="round" stroke-width="1"/>
        </g>
        <path id="Path_7565" data-name="Path 7565" d="M253.044,315.043s13.8-20.469,39.53-18.779l3.85-.563s2.441-5.822,9.671-4.413c7.136,1.408,25.728,29.859,25.728,29.859l3.568-2.441s-9.765-16.526-17.183-25.915-17.183-9.108-20.282-5.634a48.473,48.473,0,0,0-4.507,6.854s-2.911-4.319-11.361-2.347c-10.422,2.347-16.15,7.042-19.155,10.235-4.319,4.695-13.052,10.986-12.206,10.516Z" transform="translate(-250.639 -282.773)" fill="#fff" stroke="#263238" stroke-linecap="round" stroke-linejoin="round" stroke-width="1"/>
        <path id="Path_7566" data-name="Path 7566" d="M337.1,322.539l32.864-11.268,1.6-1.972-30.892,10.8Z" transform="translate(-255.916 -284.26)" fill="#fff" stroke="#263238" stroke-linecap="round" stroke-linejoin="round" stroke-width="1"/>
      </g>
    </g>
    <g id="Group_10759" data-name="Group 10759" transform="translate(20675.814 773.999)">
      <path id="Path_7567" data-name="Path 7567" d="M423.217,182.1s11.831,4.131,13.615,10.329c1.784,6.291,10.7,40.563,13.052,45.634s7.793,8.075,7.793,11.925.282,6.854.282,6.854,6.291.282,6.854,5.352,1.784,11.643,1.784,11.643l23.85,37s14.272,1.127,17.559.845,13.052.282,16.62,2.16c1.408.751,4.131,3.1,6.291,10.7,1.033,3.756,3.474,11.08,1.972,10.8s-3.286-4.413-3.944-5.352c-.563-.939-2.347-6.009-2.347-6.009s1.221,8.638,1.5,10.422a6.956,6.956,0,0,1-.563,3.568l-.094.094a7.733,7.733,0,0,1-4.6.282l-1.221-.376h0a4.774,4.774,0,0,1-3.756.376l-1.315-.376s-1.972-6.1-3.756-8.545c-1.784-2.347-7.418-4.976-7.418-4.976s6.1,6.948,5.822,11.455c-.094,1.784.282,3.286-1.221,2.347s-3.286-5.352-6.573-6.854-11.08-3.568-13.991-5.352c-3-1.784-7.793-8.357-7.793-8.357l-39.155-35.211s-3.85-3.85-4.507-6.009L437.4,274.4s-5.352-3.286-6.854-5.07-2.066-5.634-2.066-5.634l-8.075-9.3,5.352-51.08" transform="translate(-420.4 -182.1)" fill="#ffbe9d" stroke="#263238" stroke-linecap="round" stroke-linejoin="round" stroke-width="1"/>
      <path id="Path_7568" data-name="Path 7568" d="M422.747,215.245,420.4,254.494l8.075,9.3s.563,3.85,2.066,5.634,6.854,5.07,6.854,5.07l.563,2.066c.563,2.066,4.507,6.009,4.507,6.009l5.822,5.258c2.347-4.6,8.075-12.958,18.216-14.366-.282-1.5-1.221-6.854-1.69-11.268-.563-5.07-6.854-5.352-6.854-5.352s-.282-3-.282-6.854-5.352-6.854-7.793-11.925c-2.347-5.07-11.268-39.343-13.052-45.634S423.217,182.1,423.217,182.1" transform="translate(-420.4 -182.1)" fill="#274a99" stroke="#263238" stroke-linecap="round" stroke-linejoin="round" stroke-width="1"/>
      <path id="Path_7569" data-name="Path 7569" d="M422.278,230l3.944,33.615-5.822-6.2Z" transform="translate(-420.4 -185.024)" fill="#263238"/>
      <g id="Group_10758" data-name="Group 10758" transform="translate(11.925 74.46)">
        <path id="Path_7570" data-name="Path 7570" d="M451.9,267.19c.845-.563,1.69-1.127,2.629-1.69" transform="translate(-434.247 -261.65)" fill="none" stroke="#263238" stroke-linecap="round" stroke-linejoin="round" stroke-width="1"/>
        <path id="Path_7571" data-name="Path 7571" d="M441.7,278.351a28.15,28.15,0,0,1,6.573-8.451" transform="translate(-433.625 -261.919)" fill="none" stroke="#263238" stroke-linecap="round" stroke-linejoin="round" stroke-width="1"/>
        <path id="Path_7572" data-name="Path 7572" d="M448.6,261.682a25.971,25.971,0,0,1,3.944-.282" transform="translate(-434.046 -261.4)" fill="none" stroke="#263238" stroke-linecap="round" stroke-linejoin="round" stroke-width="1"/>
        <path id="Path_7573" data-name="Path 7573" d="M433.1,269.009A30.319,30.319,0,0,1,443.053,263" transform="translate(-433.1 -261.498)" fill="none" stroke="#263238" stroke-linecap="round" stroke-linejoin="round" stroke-width="1"/>
      </g>
      <path id="Path_7574" data-name="Path 7574" d="M512.093,335.789s-3.286-4.507-7.793-4.789" transform="translate(-425.521 -191.188)" fill="none" stroke="#263238" stroke-linecap="round" stroke-linejoin="round" stroke-width="1"/>
      <path id="Path_7575" data-name="Path 7575" d="M514.2,325.6s3.568.939,8.075,6.573,5.634,13.991,5.634,13.991" transform="translate(-426.125 -190.859)" fill="none" stroke="#263238" stroke-linecap="round" stroke-linejoin="round" stroke-width="1"/>
      <path id="Path_7576" data-name="Path 7576" d="M523.3,324.4s6.667,5.352,7.887,10.422,2.723,11.925,2.723,11.925" transform="translate(-426.681 -190.786)" fill="none" stroke="#263238" stroke-linecap="round" stroke-linejoin="round" stroke-width="1"/>
      <path id="Path_7577" data-name="Path 7577" d="M533.325,332.677A30.624,30.624,0,0,0,529.1,323.1" transform="translate(-427.035 -190.706)" fill="none" stroke="#263238" stroke-linecap="round" stroke-linejoin="round" stroke-width="1"/>
    </g>
    <g id="Group_10760" data-name="Group 10760" transform="translate(20719.383 852.59)">
      <path id="Path_7578" data-name="Path 7578" d="M624.547,341.1H542.2l22.629-75.3H647.27Z" transform="translate(-471.402 -265.8)" fill="#fff" stroke="#263238" stroke-linecap="round" stroke-linejoin="round" stroke-width="1"/>
      <path id="Path_7579" data-name="Path 7579" d="M625.243,341.856,644.492,278.1c-24.319,3-38.685,23-61.126,45.07-14.178,13.8-24.037,17.84-29.765,18.685Z" transform="translate(-472.098 -266.551)" fill="#687074" stroke="#263238" stroke-linecap="round" stroke-linejoin="round" stroke-width="1"/>
      <ellipse id="Ellipse_23" data-name="Ellipse 23" cx="6.479" cy="6.291" rx="6.479" ry="6.291" transform="translate(120.093 27.793)" fill="#fff" stroke="#263238" stroke-linecap="round" stroke-linejoin="round" stroke-width="1"/>
      <rect id="Rectangle_1198" data-name="Rectangle 1198" width="154.084" height="4.789" transform="translate(0 74.929)" fill="#fff" stroke="#263238" stroke-linecap="round" stroke-linejoin="round" stroke-width="1"/>
      <rect id="Rectangle_1199" data-name="Rectangle 1199" width="78.779" height="4.789" transform="translate(75.211 74.929)" fill="#263238" stroke="#263238" stroke-linecap="round" stroke-linejoin="round" stroke-width="1"/>
    </g>
    <g id="Group_10771" data-name="Group 10771" transform="translate(20484.074 604.912)">
      <g id="Group_10761" data-name="Group 10761" transform="translate(246.106 224.487)">
        <path id="Path_7580" data-name="Path 7580" d="M501.023,250.4H479.9a1.583,1.583,0,0,1-1.6-1.6v-6.1a1.583,1.583,0,0,1,1.6-1.6h28.263a1.583,1.583,0,0,1,1.6,1.6v2.441" transform="translate(-478.3 -241.1)" fill="none" stroke="#263238" stroke-linecap="round" stroke-linejoin="round" stroke-width="1"/>
        <path id="Path_7581" data-name="Path 7581" d="M502.3,260.611V247.466a2.084,2.084,0,0,1,2.066-2.066h27.981a2.084,2.084,0,0,1,2.066,2.066v15.681" transform="translate(-479.765 -241.362)" fill="none" stroke="#263238" stroke-linecap="round" stroke-linejoin="round" stroke-width="1"/>
        <path id="Path_7582" data-name="Path 7582" d="M534.513,277.394v16.338a2.084,2.084,0,0,1-2.066,2.066H504.466a2.084,2.084,0,0,1-2.066-2.066V265" transform="translate(-479.771 -242.559)" fill="none" stroke="#263238" stroke-linecap="round" stroke-linejoin="round" stroke-width="1"/>
        <line id="Line_199" data-name="Line 199" x2="28.169" transform="translate(24.507 11.737)" fill="none" stroke="#263238" stroke-linecap="round" stroke-linejoin="round" stroke-width="1"/>
        <line id="Line_200" data-name="Line 200" x2="14.742" transform="translate(37.934 20.282)" fill="none" stroke="#263238" stroke-linecap="round" stroke-linejoin="round" stroke-width="1"/>
        <line id="Line_201" data-name="Line 201" x2="11.174" transform="translate(24.507 20.282)" fill="none" stroke="#263238" stroke-linecap="round" stroke-linejoin="round" stroke-width="1"/>
        <line id="Line_202" data-name="Line 202" x2="28.169" transform="translate(24.507 28.732)" fill="none" stroke="#263238" stroke-linecap="round" stroke-linejoin="round" stroke-width="1"/>
        <line id="Line_203" data-name="Line 203" x2="4.977" transform="translate(47.699 37.277)" fill="none" stroke="#263238" stroke-linecap="round" stroke-linejoin="round" stroke-width="1"/>
        <line id="Line_204" data-name="Line 204" x2="20.657" transform="translate(24.507 37.277)" fill="none" stroke="#263238" stroke-linecap="round" stroke-linejoin="round" stroke-width="1"/>
        <line id="Line_205" data-name="Line 205" x2="28.169" transform="translate(24.507 45.821)" fill="none" stroke="#263238" stroke-linecap="round" stroke-linejoin="round" stroke-width="1"/>
        <line id="Line_206" data-name="Line 206" x2="15.399" transform="translate(5.634 4.413)" fill="none" stroke="#263238" stroke-linecap="round" stroke-linejoin="round" stroke-width="1"/>
      </g>
      <g id="Group_10769" data-name="Group 10769" transform="translate(21.788 48.731)">
        <g id="Group_10768" data-name="Group 10768" transform="translate(0 6.742)">
          <g id="Group_10762" data-name="Group 10762">
            <path id="Path_7583" data-name="Path 7583" d="M267.475,72.649h-26.1a1.983,1.983,0,0,1-1.972-1.972V63.072a1.983,1.983,0,0,1,1.972-1.972H276.3a1.983,1.983,0,0,1,1.972,1.972v3" transform="translate(-239.4 -61.1)" fill="none" stroke="#263238" stroke-linecap="round" stroke-linejoin="round" stroke-width="1"/>
            <path id="Path_7584" data-name="Path 7584" d="M269,85.373V69.129a2.625,2.625,0,0,1,2.629-2.629h34.554a2.624,2.624,0,0,1,2.629,2.629V88.566" transform="translate(-241.207 -61.43)" fill="none" stroke="#263238" stroke-linecap="round" stroke-linejoin="round" stroke-width="1"/>
            <path id="Path_7585" data-name="Path 7585" d="M308.812,106.005v20.188a2.624,2.624,0,0,1-2.629,2.629H271.629A2.624,2.624,0,0,1,269,126.193V90.7" transform="translate(-241.207 -62.907)" fill="none" stroke="#263238" stroke-linecap="round" stroke-linejoin="round" stroke-width="1"/>
            <line id="Line_207" data-name="Line 207" x2="34.836" transform="translate(30.235 14.554)" fill="none" stroke="#263238" stroke-linecap="round" stroke-linejoin="round" stroke-width="1"/>
            <line id="Line_208" data-name="Line 208" x2="18.122" transform="translate(46.948 25.07)" fill="none" stroke="#263238" stroke-linecap="round" stroke-linejoin="round" stroke-width="1"/>
            <line id="Line_209" data-name="Line 209" x2="13.803" transform="translate(30.235 25.07)" fill="none" stroke="#263238" stroke-linecap="round" stroke-linejoin="round" stroke-width="1"/>
            <line id="Line_210" data-name="Line 210" x2="34.836" transform="translate(30.235 35.587)" fill="none" stroke="#263238" stroke-linecap="round" stroke-linejoin="round" stroke-width="1"/>
            <line id="Line_211" data-name="Line 211" x2="6.197" transform="translate(58.873 46.103)" fill="none" stroke="#263238" stroke-linecap="round" stroke-linejoin="round" stroke-width="1"/>
            <line id="Line_212" data-name="Line 212" x2="25.446" transform="translate(30.235 46.103)" fill="none" stroke="#263238" stroke-linecap="round" stroke-linejoin="round" stroke-width="1"/>
            <line id="Line_213" data-name="Line 213" x2="34.836" transform="translate(30.235 56.619)" fill="none" stroke="#263238" stroke-linecap="round" stroke-linejoin="round" stroke-width="1"/>
            <line id="Line_214" data-name="Line 214" x2="18.967" transform="translate(7.042 5.54)" fill="none" stroke="#263238" stroke-linecap="round" stroke-linejoin="round" stroke-width="1"/>
          </g>
          <g id="Group_10767" data-name="Group 10767" transform="translate(63.694 27.552)">
            <g id="Group_10763" data-name="Group 10763">
              <path id="Path_7586" data-name="Path 7586" d="M316.31,107.022a6.1,6.1,0,0,1-4.038-1.6l-3.756-3.662a1.293,1.293,0,0,1-.188-1.69,1.357,1.357,0,0,1,.939-.657,1.38,1.38,0,0,1,1.127.376l.751.657-3.756-7.7a1.831,1.831,0,0,1-.094-1.221,2.055,2.055,0,0,1,.845-.939,1.579,1.579,0,0,1,2.066.751l1.408,2.723a1.632,1.632,0,0,1,1.033-.563,2.068,2.068,0,0,1,1.5.469,1.785,1.785,0,0,1,1.033-.657,1.7,1.7,0,0,1,1.221.282,1.063,1.063,0,0,1,1.127-.657,1.715,1.715,0,0,1,1.221.751l2.629,4.883a5.6,5.6,0,0,1-1.784,7.23A4.935,4.935,0,0,1,316.31,107.022Zm-6.761-7.042h-.094c-.188,0-.376.188-.563.376a.722.722,0,0,0,.094.939l3.662,3.662a5.015,5.015,0,0,0,6.573.469,5.14,5.14,0,0,0,1.6-6.479l-2.629-4.883a.958.958,0,0,0-.751-.469c-.282,0-.469,0-.563.563l-.094.563-.376-.376a1.642,1.642,0,0,0-1.127-.376c-.282,0-.563.282-.845.657l-.188.282-.282-.282a1.874,1.874,0,0,0-1.221-.469,1.122,1.122,0,0,0-.845.751l-.282.469-1.878-3.662a1.008,1.008,0,0,0-1.315-.469.847.847,0,0,0-.563.563,1.029,1.029,0,0,0,0,.751l5.07,10.516-3-2.817C309.925,100.074,309.737,99.98,309.549,99.98Z" transform="translate(-307.234 -90.443)" fill="#263238"/>
            </g>
            <g id="Group_10764" data-name="Group 10764" transform="translate(4.062 3.96)">
              <path id="Path_7587" data-name="Path 7587" d="M313.288,98.547c-.094,0-.188-.094-.282-.188L311.6,95.073c-.094-.188,0-.282.188-.376s.282,0,.376.188l1.408,3.286c.094.188,0,.282-.188.376Z" transform="translate(-311.561 -94.661)" fill="#263238"/>
            </g>
            <g id="Group_10765" data-name="Group 10765" transform="translate(6.692 3.679)">
              <path id="Path_7588" data-name="Path 7588" d="M315.9,97.778c-.094,0-.188-.094-.282-.188L314.4,94.773c-.094-.188,0-.282.188-.376s.282,0,.376.188l1.221,2.817c.094.188,0,.282-.188.376Z" transform="translate(-314.361 -94.361)" fill="#263238"/>
            </g>
            <g id="Group_10766" data-name="Group 10766" transform="translate(9.133 3.397)">
              <path id="Path_7589" data-name="Path 7589" d="M318.406,97.2c-.094,0-.188-.094-.282-.188L317,94.473c-.094-.188,0-.282.188-.376s.282,0,.376.188l1.127,2.535c.094.188,0,.282-.188.376Z" transform="translate(-316.961 -94.061)" fill="#263238"/>
            </g>
          </g>
        </g>
        <rect id="Rectangle_1200" data-name="Rectangle 1200" width="4.601" height="4.601" transform="translate(46.656 3.253) rotate(-45)" fill="none" stroke="#263238" stroke-linecap="round" stroke-linejoin="round" stroke-width="1"/>
        <path id="Path_7590" data-name="Path 7590" d="M262.483,85.341a2.424,2.424,0,0,0-2.441-2.441,2.368,2.368,0,0,0-2.441,2.441,2.441,2.441,0,0,0,4.883,0Z" transform="translate(-240.511 -55.689)" fill="none" stroke="#263238" stroke-linecap="round" stroke-linejoin="round" stroke-width="1"/>
      </g>
      <g id="Group_10770" data-name="Group 10770" transform="translate(0 0)">
        <rect id="Rectangle_1201" data-name="Rectangle 1201" width="13.145" height="13.145" transform="translate(361.062 9.295) rotate(-45)" fill="none" stroke="#263238" stroke-linecap="round" stroke-linejoin="round" stroke-width="1"/>
        <rect id="Rectangle_1202" data-name="Rectangle 1202" width="13.145" height="13.145" transform="translate(40.557 264.55) rotate(-45)" fill="none" stroke="#263238" stroke-linecap="round" stroke-linejoin="round" stroke-width="1"/>
        <rect id="Rectangle_1203" data-name="Rectangle 1203" width="13.145" height="13.145" transform="translate(0 246.481) rotate(-45)" fill="none" stroke="#263238" stroke-linecap="round" stroke-linejoin="round" stroke-width="1"/>
        <rect id="Rectangle_1204" data-name="Rectangle 1204" width="7.136" height="7.136" transform="translate(348.001 22.079) rotate(-45)" fill="none" stroke="#263238" stroke-linecap="round" stroke-linejoin="round" stroke-width="1"/>
        <circle id="Ellipse_24" data-name="Ellipse 24" cx="3.756" cy="3.756" r="3.756" transform="translate(350.988 223.548)" fill="none" stroke="#263238" stroke-linecap="round" stroke-linejoin="round" stroke-width="1"/>
        <circle id="Ellipse_25" data-name="Ellipse 25" cx="3.756" cy="3.756" r="3.756" transform="translate(39.441 190.966)" fill="none" stroke="#263238" stroke-linecap="round" stroke-linejoin="round" stroke-width="1"/>
        <circle id="Ellipse_26" data-name="Ellipse 26" cx="3.756" cy="3.756" r="3.756" transform="translate(205.074 13.032)" fill="none" stroke="#263238" stroke-linecap="round" stroke-linejoin="round" stroke-width="1"/>
      </g>
    </g>
    <rect id="Rectangle_1205" data-name="Rectangle 1205" width="182.159" height="164.318" transform="translate(20712.059 655.69)" fill="#ea5563"/>
    <rect id="Rectangle_1206" data-name="Rectangle 1206" width="183.567" height="165.07" transform="translate(20722.389 647.239)" fill="#fff" stroke="#263238" stroke-linecap="round" stroke-linejoin="round" stroke-width="1"/>
    <rect id="Rectangle_1207" data-name="Rectangle 1207" width="135.211" height="22.347" transform="translate(20770.744 647.239)" fill="#263238" stroke="#263238" stroke-linecap="round" stroke-linejoin="round" stroke-width="1"/>
    <rect id="Rectangle_1208" data-name="Rectangle 1208" width="183.567" height="11.643" transform="translate(20722.389 647.239)" fill="#fff" stroke="#263238" stroke-linecap="round" stroke-linejoin="round" stroke-width="1"/>
    <g id="Group_10773" data-name="Group 10773" transform="translate(20730.463 685.737)">
      <rect id="Rectangle_1209" data-name="Rectangle 1209" width="111.924" height="71.643" transform="translate(0 0)" fill="#8db0ff"/>
      <g id="Group_10772" data-name="Group 10772" transform="translate(31.257 12.775)">
        <circle id="Ellipse_27" data-name="Ellipse 27" cx="16.526" cy="16.526" r="16.526" transform="translate(0 28.176) rotate(-58.486)" fill="#d94148"/>
        <path id="Path_7591" data-name="Path 7591" d="M545.366,125.763,531,117.5v16.526Z" transform="translate(-513.055 -102.67)" fill="#fff"/>
      </g>
    </g>
    <rect id="Rectangle_1212" data-name="Rectangle 1212" width="44.225" height="28.263" transform="translate(20852.434 685.737)" fill="#8db0ff"/>
    <g id="Group_10774" data-name="Group 10774" transform="translate(20867.27 693.249)">
      <circle id="Ellipse_28" data-name="Ellipse 28" cx="6.479" cy="6.479" r="6.479" transform="translate(0 0)" fill="#d94148"/>
      <path id="Path_7592" data-name="Path 7592" d="M634.834,102.986,629.2,99.7v6.573Z" transform="translate(-624.599 -96.32)" fill="#fff"/>
    </g>
    <rect id="Rectangle_1215" data-name="Rectangle 1215" width="44.225" height="28.263" transform="translate(20852.434 716.817)" fill="#8db0ff"/>
    <g id="Group_10776" data-name="Group 10776" transform="translate(20867.363 724.422)">
      <path id="Path_7593" data-name="Path 7593" d="M637.358,135.779a6.479,6.479,0,1,0-6.479,6.479A6.492,6.492,0,0,0,637.358,135.779Z" transform="translate(-624.4 -129.3)" fill="#d94148"/>
      <path id="Path_7594" data-name="Path 7594" d="M634.834,136.086,629.2,132.8v6.573Z" transform="translate(-624.693 -129.514)" fill="#fff"/>
    </g>
    <rect id="Rectangle_1218" data-name="Rectangle 1218" width="44.225" height="28.263" transform="translate(20852.434 747.896)" fill="#8db0ff"/>
    <g id="Group_10778" data-name="Group 10778" transform="translate(20867.363 755.502)">
      <path id="Path_7595" data-name="Path 7595" d="M637.358,168.879a6.479,6.479,0,1,0-6.479,6.479A6.492,6.492,0,0,0,637.358,168.879Z" transform="translate(-624.4 -162.4)" fill="#d94148"/>
      <path id="Path_7596" data-name="Path 7596" d="M634.834,169.186,629.2,165.9v6.573Z" transform="translate(-624.693 -162.614)" fill="#fff"/>
    </g>
    <rect id="Rectangle_1221" data-name="Rectangle 1221" width="44.225" height="28.263" transform="translate(20852.434 779.07)" fill="#8db0ff"/>
    <g id="Group_10780" data-name="Group 10780" transform="translate(20867.363 786.581)">
      <path id="Path_7597" data-name="Path 7597" d="M637.358,201.979a6.479,6.479,0,1,0-6.479,6.479A6.492,6.492,0,0,0,637.358,201.979Z" transform="translate(-624.4 -195.5)" fill="#d94148"/>
      <path id="Path_7598" data-name="Path 7598" d="M634.834,202.286,629.2,199v6.573Z" transform="translate(-624.693 -195.714)" fill="#fff"/>
    </g>
    <line id="Line_215" data-name="Line 215" x2="85.727" transform="translate(20731.309 764.985)" fill="none" stroke="#263238" stroke-linecap="round" stroke-linejoin="round" stroke-width="1"/>
    <g id="Group_10782" data-name="Group 10782" transform="translate(20731.309 785.267)">
      <line id="Line_216" data-name="Line 216" x2="50.892" transform="translate(0 0)" fill="none" stroke="#263238" stroke-linecap="round" stroke-linejoin="round" stroke-width="1"/>
      <line id="Line_217" data-name="Line 217" x2="50.892" transform="translate(0 7.981)" fill="none" stroke="#263238" stroke-linecap="round" stroke-linejoin="round" stroke-width="1"/>
      <line id="Line_218" data-name="Line 218" x2="50.892" transform="translate(0 15.962)" fill="none" stroke="#263238" stroke-linecap="round" stroke-linejoin="round" stroke-width="1"/>
    </g>
    <g id="Group_10783" data-name="Group 10783" transform="translate(20791.965 785.267)">
      <line id="Line_219" data-name="Line 219" x2="50.986" transform="translate(0 0)" fill="none" stroke="#263238" stroke-linecap="round" stroke-linejoin="round" stroke-width="1"/>
      <line id="Line_220" data-name="Line 220" x2="50.986" transform="translate(0 7.981)" fill="none" stroke="#263238" stroke-linecap="round" stroke-linejoin="round" stroke-width="1"/>
      <line id="Line_221" data-name="Line 221" x2="50.986" transform="translate(0 15.962)" fill="none" stroke="#263238" stroke-linecap="round" stroke-linejoin="round" stroke-width="1"/>
    </g>
    <line id="Line_222" data-name="Line 222" x2="108.356" transform="translate(20731.309 771.558)" fill="none" stroke="#263238" stroke-linecap="round" stroke-linejoin="round" stroke-width="1"/>
    <g id="Group_10784" data-name="Group 10784" transform="translate(20899.289 685.831)">
      <rect id="Rectangle_1224" data-name="Rectangle 1224" width="4.413" height="122.535" transform="translate(0 0)" fill="#a2a7a9"/>
      <rect id="Rectangle_1225" data-name="Rectangle 1225" width="4.413" height="15.681" transform="translate(0 29.671)" fill="#263238"/>
    </g>
    <line id="Line_223" data-name="Line 223" y2="40.375" transform="translate(20858.537 812.497)" fill="none" stroke="#263238" stroke-linecap="round" stroke-linejoin="round" stroke-width="1"/>
    <g id="Group_10787" data-name="Group 10787" transform="translate(20794.594 927.52)">
      <path id="Path_7599" data-name="Path 7599" d="M546.9,345.6l.282.282h.657A3.636,3.636,0,0,1,546.9,345.6Z" transform="translate(-546.9 -345.6)" fill="#263238" stroke="#263238" stroke-linecap="round" stroke-linejoin="round" stroke-width="1"/>
    </g>
  </g>
</svg>
