<svg xmlns="http://www.w3.org/2000/svg" width="493.434" height="299.088" viewBox="0 0 493.434 299.088">
  <g id="_3858816" data-name="3858816" transform="translate(-30.5 -136.4)">
    <g id="Board" transform="translate(174.683 136.9)">
      <g id="Group_10691" data-name="Group 10691" transform="translate(0)">
        <g id="Group_10684" data-name="Group 10684">
          <rect id="Rectangle_1181" data-name="Rectangle 1181" width="296.697" height="127.268" transform="translate(8.095 3.598)" fill="#fff" stroke="#263238" stroke-linecap="round" stroke-linejoin="round" stroke-width="1"/>
          <rect id="Rectangle_1182" data-name="Rectangle 1182" width="312.775" height="5.397" fill="#fff" stroke="#263238" stroke-linecap="round" stroke-linejoin="round" stroke-width="1"/>
          <rect id="Rectangle_1183" data-name="Rectangle 1183" width="296.697" height="4.497" transform="translate(8.095 126.369)" fill="#263238" stroke="#263238" stroke-linecap="round" stroke-linejoin="round" stroke-width="1"/>
        </g>
        <g id="Group_10690" data-name="Group 10690" transform="translate(25.858 19.338)">
          <g id="Group_10685" data-name="Group 10685" transform="translate(0 1.237)">
            <circle id="Ellipse_21" data-name="Ellipse 21" cx="20.349" cy="20.349" r="20.349" transform="translate(3.521 42.805) rotate(-80.299)" fill="none" stroke="#50549f" stroke-width="1"/>
            <line id="Line_128" data-name="Line 128" y2="57.676" transform="translate(26.645)" fill="none" stroke="#50549f" stroke-width="1"/>
            <line id="Line_129" data-name="Line 129" x2="52.616" transform="translate(0 26.645)" fill="none" stroke="#50549f" stroke-width="1"/>
          </g>
          <g id="Group_10686" data-name="Group 10686" transform="translate(109.842 5.397)">
            <line id="Line_130" data-name="Line 130" x2="52.616" transform="translate(0 27.432)" fill="none" stroke="#50549f" stroke-width="1"/>
            <line id="Line_131" data-name="Line 131" y2="57.788" transform="translate(25.971)" fill="none" stroke="#50549f" stroke-width="1"/>
            <path id="Path_7423" data-name="Path 7423" d="M285.5,165.5l7.982,6.184a20.237,20.237,0,0,0,24.284.337l7.758-5.734" transform="translate(-278.754 -158.08)" fill="none" stroke="#50549f" stroke-width="1"/>
            <path id="Path_7424" data-name="Path 7424" d="M325.424,199.75l-7.982-6.184a20.237,20.237,0,0,0-24.284-.337l-7.758,5.734" transform="translate(-278.767 -155.116)" fill="none" stroke="#50549f" stroke-width="1"/>
          </g>
          <g id="Group_10689" data-name="Group 10689" transform="translate(204.057 4.834)">
            <line id="Line_132" data-name="Line 132" y2="48.456" transform="translate(26.083)" fill="none" stroke="#50549f" stroke-width="1"/>
            <line id="Line_133" data-name="Line 133" x2="49.243" transform="translate(0 24.622)" fill="none" stroke="#50549f" stroke-width="1"/>
            <g id="Group_10687" data-name="Group 10687" transform="translate(3.148 22.71)">
              <line id="Line_134" data-name="Line 134" y2="3.935" fill="none" stroke="#50549f" stroke-width="1"/>
              <line id="Line_135" data-name="Line 135" y2="3.935" transform="translate(2.923)" fill="none" stroke="#50549f" stroke-width="1"/>
              <line id="Line_136" data-name="Line 136" y2="3.935" transform="translate(5.734)" fill="none" stroke="#50549f" stroke-width="1"/>
              <line id="Line_137" data-name="Line 137" y2="3.935" transform="translate(8.545)" fill="none" stroke="#50549f" stroke-width="1"/>
              <line id="Line_138" data-name="Line 138" y2="3.935" transform="translate(11.468)" fill="none" stroke="#50549f" stroke-width="1"/>
              <line id="Line_139" data-name="Line 139" y2="3.935" transform="translate(14.278)" fill="none" stroke="#50549f" stroke-width="1"/>
              <line id="Line_140" data-name="Line 140" y2="3.935" transform="translate(17.201)" fill="none" stroke="#50549f" stroke-width="1"/>
              <line id="Line_141" data-name="Line 141" y2="3.935" transform="translate(20.012)" fill="none" stroke="#50549f" stroke-width="1"/>
              <line id="Line_142" data-name="Line 142" y2="3.935" transform="translate(25.746)" fill="none" stroke="#50549f" stroke-width="1"/>
              <line id="Line_143" data-name="Line 143" y2="3.935" transform="translate(28.557)" fill="none" stroke="#50549f" stroke-width="1"/>
              <line id="Line_144" data-name="Line 144" y2="3.935" transform="translate(31.48)" fill="none" stroke="#50549f" stroke-width="1"/>
              <line id="Line_145" data-name="Line 145" y2="3.935" transform="translate(34.291)" fill="none" stroke="#50549f" stroke-width="1"/>
              <line id="Line_146" data-name="Line 146" y2="3.935" transform="translate(37.214)" fill="none" stroke="#50549f" stroke-width="1"/>
              <line id="Line_147" data-name="Line 147" y2="3.935" transform="translate(40.024)" fill="none" stroke="#50549f" stroke-width="1"/>
              <line id="Line_148" data-name="Line 148" y2="3.935" transform="translate(42.947)" fill="none" stroke="#50549f" stroke-width="1"/>
            </g>
            <g id="Group_10688" data-name="Group 10688" transform="translate(24.06 3.148)">
              <line id="Line_149" data-name="Line 149" x2="3.935" transform="translate(0 42.947)" fill="none" stroke="#50549f" stroke-width="1"/>
              <line id="Line_150" data-name="Line 150" x2="3.935" transform="translate(0 40.137)" fill="none" stroke="#50549f" stroke-width="1"/>
              <line id="Line_151" data-name="Line 151" x2="3.935" transform="translate(0 37.214)" fill="none" stroke="#50549f" stroke-width="1"/>
              <line id="Line_152" data-name="Line 152" x2="3.935" transform="translate(0 34.403)" fill="none" stroke="#50549f" stroke-width="1"/>
              <line id="Line_153" data-name="Line 153" x2="3.935" transform="translate(0 31.48)" fill="none" stroke="#50549f" stroke-width="1"/>
              <line id="Line_154" data-name="Line 154" x2="3.935" transform="translate(0 28.669)" fill="none" stroke="#50549f" stroke-width="1"/>
              <line id="Line_155" data-name="Line 155" x2="3.935" transform="translate(0 25.746)" fill="none" stroke="#50549f" stroke-width="1"/>
              <line id="Line_156" data-name="Line 156" x2="3.935" transform="translate(0 17.201)" fill="none" stroke="#50549f" stroke-width="1"/>
              <line id="Line_157" data-name="Line 157" x2="3.935" transform="translate(0 14.391)" fill="none" stroke="#50549f" stroke-width="1"/>
              <line id="Line_158" data-name="Line 158" x2="3.935" transform="translate(0 11.468)" fill="none" stroke="#50549f" stroke-width="1"/>
              <line id="Line_159" data-name="Line 159" x2="3.935" transform="translate(0 8.657)" fill="none" stroke="#50549f" stroke-width="1"/>
              <line id="Line_160" data-name="Line 160" x2="3.935" transform="translate(0 5.734)" fill="none" stroke="#50549f" stroke-width="1"/>
              <line id="Line_161" data-name="Line 161" x2="3.935" transform="translate(0 2.923)" fill="none" stroke="#50549f" stroke-width="1"/>
              <line id="Line_162" data-name="Line 162" x2="3.935" fill="none" stroke="#50549f" stroke-width="1"/>
            </g>
          </g>
          <line id="Line_163" data-name="Line 163" x2="44.859" transform="translate(3.598 70.717)" fill="none" stroke="#50549f" stroke-width="1"/>
          <line id="Line_164" data-name="Line 164" x2="44.859" transform="translate(3.598 76.226)" fill="none" stroke="#50549f" stroke-width="1"/>
          <line id="Line_165" data-name="Line 165" x2="44.859" transform="translate(3.598 81.735)" fill="none" stroke="#50549f" stroke-width="1"/>
          <line id="Line_166" data-name="Line 166" x2="44.859" transform="translate(3.598 87.356)" fill="none" stroke="#50549f" stroke-width="1"/>
          <line id="Line_167" data-name="Line 167" x2="44.859" transform="translate(117.375 70.717)" fill="none" stroke="#50549f" stroke-width="1"/>
          <line id="Line_168" data-name="Line 168" x2="44.859" transform="translate(117.375 76.226)" fill="none" stroke="#50549f" stroke-width="1"/>
          <line id="Line_169" data-name="Line 169" x2="44.859" transform="translate(117.375 81.735)" fill="none" stroke="#50549f" stroke-width="1"/>
          <line id="Line_170" data-name="Line 170" x2="44.859" transform="translate(117.375 87.356)" fill="none" stroke="#50549f" stroke-width="1"/>
          <line id="Line_171" data-name="Line 171" x2="44.859" transform="translate(210.24 70.717)" fill="none" stroke="#50549f" stroke-width="1"/>
          <line id="Line_172" data-name="Line 172" x2="44.859" transform="translate(210.24 76.226)" fill="none" stroke="#50549f" stroke-width="1"/>
          <line id="Line_173" data-name="Line 173" x2="44.859" transform="translate(210.24 81.735)" fill="none" stroke="#50549f" stroke-width="1"/>
          <line id="Line_174" data-name="Line 174" x2="44.859" transform="translate(210.24 87.356)" fill="none" stroke="#50549f" stroke-width="1"/>
          <line id="Line_175" data-name="Line 175" x2="44.859" transform="translate(59.587 41.149)" fill="none" stroke="#50549f" stroke-width="1"/>
          <line id="Line_176" data-name="Line 176" x2="44.859" transform="translate(59.587 46.77)" fill="none" stroke="#50549f" stroke-width="1"/>
          <line id="Line_177" data-name="Line 177" x2="44.859" transform="translate(59.587 52.279)" fill="none" stroke="#50549f" stroke-width="1"/>
          <line id="Line_178" data-name="Line 178" x2="44.859" transform="translate(59.587 57.788)" fill="none" stroke="#50549f" stroke-width="1"/>
          <line id="Line_179" data-name="Line 179" x2="44.859" transform="translate(160.435)" fill="none" stroke="#50549f" stroke-width="1"/>
          <line id="Line_180" data-name="Line 180" x2="44.859" transform="translate(160.435 5.509)" fill="none" stroke="#50549f" stroke-width="1"/>
          <line id="Line_181" data-name="Line 181" x2="44.859" transform="translate(160.435 11.018)" fill="none" stroke="#50549f" stroke-width="1"/>
          <line id="Line_182" data-name="Line 182" x2="44.859" transform="translate(160.435 16.639)" fill="none" stroke="#50549f" stroke-width="1"/>
        </g>
      </g>
    </g>
    <g id="Table_3" transform="translate(31 267.429)">
      <g id="Group_10693" data-name="Group 10693">
        <path id="Path_8628" data-name="Path 8628" d="M0,0H57.9V48.681H0Z" transform="translate(13.604)" fill="#263238" stroke="#263238" stroke-linecap="round" stroke-width="1"/>
        <rect id="Rectangle_1185" data-name="Rectangle 1185" width="57.9" height="3.036" transform="translate(48.681 54.865)" fill="#263238" stroke="#263238" stroke-linecap="round" stroke-linejoin="round" stroke-width="1"/>
        <rect id="Rectangle_1186" data-name="Rectangle 1186" width="11.243" height="22.373" transform="translate(35.19 35.19)" fill="#707070" stroke="#263238" stroke-linecap="round" stroke-linejoin="round" stroke-width="1"/>
        <rect id="Rectangle_1187" data-name="Rectangle 1187" width="154.476" height="102.759" transform="translate(6.971 62.285)" fill="#687074" stroke="#263238" stroke-linecap="round" stroke-linejoin="round" stroke-width="1"/>
        <g id="Group_10692" data-name="Group 10692" transform="translate(0 56.889)">
          <rect id="Rectangle_1188" data-name="Rectangle 1188" width="5.172" height="104.446" transform="translate(4.272 6.184)" fill="#707070" stroke="#263238" stroke-linecap="round" stroke-linejoin="round" stroke-width="1"/>
          <rect id="Rectangle_1189" data-name="Rectangle 1189" width="5.172" height="104.446" transform="translate(158.299 6.184)" fill="#707070" stroke="#263238" stroke-linecap="round" stroke-linejoin="round" stroke-width="1"/>
          <rect id="Rectangle_1190" data-name="Rectangle 1190" width="170.89" height="9.781" fill="#707070" stroke="#263238" stroke-linecap="round" stroke-linejoin="round" stroke-width="1"/>
        </g>
      </g>
    </g>
    <g id="Character_3" transform="translate(255.968 184.119)">
      <g id="Group_10701" data-name="Group 10701">
        <path id="Path_7425" data-name="Path 7425" d="M254.072,219.672s-6.184,3.823-8.207,8.882-10.456,31.03-12.592,34.4-2.136,8.545.337,11.355,6.746,4.722,10.231,1.349,4.5-10.119,7.87-17.988,6.184-30.243,7.87-34.74A35.4,35.4,0,0,0,261.6,214.5Z" transform="translate(-231.024 -174.475)" fill="#ea5563" stroke="#263238" stroke-linecap="round" stroke-linejoin="round" stroke-width="1"/>
        <g id="Group_10695" data-name="Group 10695" transform="translate(9.07 108.156)">
          <g id="Group_10694" data-name="Group 10694">
            <path id="Path_7426" data-name="Path 7426" d="M303.274,277.573s1.012,13.379.45,20.125c-.45,6.746-5.059,49.581-5.059,49.581l-6.521,57.788H282.026l-7.308-85.22-9.781,85H254.593s-6.071-53.516-7.758-66.332a119.461,119.461,0,0,1-.787-24.172c0-.787-2.249-17.876-2.249-22.6a83.305,83.305,0,0,1,.675-9.781l-.45-1.8s18.663,5.059,31.48,2.024,25.409-7.083,25.409-7.083Z" transform="translate(-238.592 -275.1)" fill="#263238" stroke="#263238" stroke-linecap="round" stroke-linejoin="round" stroke-width="1"/>
            <path id="Path_7427" data-name="Path 7427" d="M288.432,390.7l3.036,10.343a1.436,1.436,0,0,1-.45,2.024c-1.237.787-15.4,0-15.4,0a1.938,1.938,0,0,1-1.012-2.249c.225-1.8,3.823-10.118,3.823-10.118Z" transform="translate(-234.767 -260.733)" fill="none" stroke="#263238" stroke-linecap="round" stroke-linejoin="round" stroke-width="1"/>
            <path id="Path_7428" data-name="Path 7428" d="M265.625,390.5l.9,9.444a2.413,2.413,0,0,1-.45,1.686h0a2.4,2.4,0,0,1-2.024,1.012H244.6c-2.024,0-5.846-.112-5.4-2.024h0c.225-1.237,16.077-10.006,16.077-10.006h10.343Z" transform="translate(-239.168 -260.758)" fill="none" stroke="#263238" stroke-linecap="round" stroke-linejoin="round" stroke-width="1"/>
          </g>
        </g>
        <path id="Path_7430" data-name="Path 7430" d="M249.238,232.824V252.5c0,1.124-6.071,26.983-6.521,29.569-.45,2.473,0,4.834,2.024,7.758,2.024,2.811,9.556,5.734,25.971,7.083s28.669-4.722,32.042-8.545-.45-11.243-1.686-21.586c-1.124-10.456-1.462-43.285-6.184-45.533-4.722-2.136-19.787-9.444-19.787-9.444s-8.545,0-14.278,2.473a28.929,28.929,0,0,0-9.781,7.533" transform="translate(-229.676 -174.81)" fill="#ea5563" stroke="#263238" stroke-linecap="round" stroke-linejoin="round" stroke-width="1"/>
        <path id="Path_7431" data-name="Path 7431" d="M272.75,208.827s3.373-.337,4.5,2.7-2.473,21.361-2.473,21.361-8.207-5.846-10.231-5.846-11.243,5.846-11.243,5.846,3.036-12.592,5.734-17.426,10.118-7.533,13.042-6.746Z" transform="translate(-228.341 -175.211)" fill="#fff" stroke="#263238" stroke-linecap="round" stroke-linejoin="round" stroke-width="1"/>
        <path id="Path_7432" data-name="Path 7432" d="M272.617,207.3s.675,1.686-2.361,9.781-4.5,14.953-6.408,13.042c-1.8-1.8-4.047-11.58-4.047-11.58S269.581,211.46,272.617,207.3Z" transform="translate(-227.533 -175.37)" fill="#fff" stroke="#263238" stroke-linecap="round" stroke-linejoin="round" stroke-width="1"/>
        <g id="Group_10697" data-name="Group 10697" transform="translate(15.635)">
          <g id="Group_10696" data-name="Group 10696">
            <path id="Path_7433" data-name="Path 7433" d="M247.2,196.417s1.686,8.882,3.26,13.829c1.686,4.947,3.71,12.142,9.332,13.829s7.2-2.586,9.556-4.5,6.071-8.207,6.071-11.243-.225-9.781-1.349-12.142-3.26-4.722-9.332-5.846S253.046,190.121,247.2,196.417Z" transform="translate(-244.734 -177.528)" fill="#fff" stroke="#263238" stroke-linecap="round" stroke-linejoin="round" stroke-width="1"/>
            <path id="Path_7434" data-name="Path 7434" d="M273.893,204.084s-3.485,1.349-4.5-.675c-.9-2.136-2.586-5.172-2.586-5.172s-7.2,3.036-11.693,3.26-9.332-2.586-10.006-5.621,1.911-9.781,7.758-13.6c5.846-3.71,17.988-5.4,21.7.45a25.826,25.826,0,0,1,3.935,14.953c0,3.935-.225,6.746-.225,6.746A5.58,5.58,0,0,0,273.893,204.084Z" transform="translate(-245.007 -178.899)" fill="#263238" stroke="#263238" stroke-linecap="round" stroke-linejoin="round" stroke-width="1"/>
          </g>
          <path id="Path_7435" data-name="Path 7435" d="M269.4,203.328s2.136-5.4,4.16-4.722c2.136.675,2.361,4.947,1.124,7.533-1.124,2.586-4.16,3.485-4.947,3.036" transform="translate(-241.975 -176.457)" fill="#fff" stroke="#263238" stroke-linecap="round" stroke-linejoin="round" stroke-width="1"/>
          <path id="Path_7436" data-name="Path 7436" d="M256.668,205.343s8.432-.562,10.231-.337,1.574,2.249,1.124,4.5-3.26,3.6-6.408,2.923c-3.26-.562-3.935-3.373-4.5-3.823s-.787-.9-1.574-.562c-.675.337-.562,2.811-1.462,3.935-.787,1.124-3.148,1.911-5.621.562s-2.361-5.172-2.361-6.408,1.349-1.237,1.911-1.124C248.573,205.231,256.668,205.343,256.668,205.343Z" transform="translate(-244.871 -175.661)" fill="none" stroke="#263238" stroke-linecap="round" stroke-linejoin="round" stroke-width="1"/>
          <line id="Line_183" data-name="Line 183" y1="5.397" x2="5.284" transform="translate(23.152 24.398)" fill="none" stroke="#263238" stroke-linecap="round" stroke-linejoin="round" stroke-width="1"/>
          <line id="Line_184" data-name="Line 184" y1="2.473" x2="2.024" transform="translate(1.791 26.871)" fill="none" stroke="#263238" stroke-linecap="round" stroke-linejoin="round" stroke-width="1"/>
          <path id="Path_7437" data-name="Path 7437" d="M254.378,208.9s-.45,1.462-.675,2.586c-.225,1.237.675,3.6,2.136,3.373s1.8-.9,1.8-.9" transform="translate(-243.93 -175.171)" fill="none" stroke="#263238" stroke-linecap="round" stroke-linejoin="round" stroke-width="1"/>
          <path id="Path_7438" data-name="Path 7438" d="M263.534,203.832a7.463,7.463,0,0,0-4.834.225" transform="translate(-243.305 -175.837)" fill="none" stroke="#263238" stroke-linecap="round" stroke-linejoin="round" stroke-width="1"/>
          <path id="Path_7439" data-name="Path 7439" d="M253.623,204.281a3.1,3.1,0,0,0-3.823-.112" transform="translate(-244.411 -175.836)" fill="none" stroke="#263238" stroke-linecap="round" stroke-linejoin="round" stroke-width="1"/>
        </g>
        <path id="Path_7440" data-name="Path 7440" d="M286.179,218.3s7.2,2.136,10.456,4.834c3.148,2.7,8.32,23.835,9.781,33.841,1.462,10.119,3.823,18.775,1.8,19.9s-33.5-2.923-33.5-2.923l-1.012-4.834,20.462-4.272s-11.468-22.486-11.8-28.669,1.349-9.781,1.349-9.781" transform="translate(-225.806 -174.003)" fill="#ea5563" stroke="#263238" stroke-linecap="round" stroke-linejoin="round" stroke-width="1"/>
        <g id="Group_10698" data-name="Group 10698" transform="translate(0.45 81.961)">
          <path id="Path_7441" data-name="Path 7441" d="M256.627,253.3l8.882,21.811-15.065,5.509L241,259.484Z" transform="translate(-230.319 -251.614)" fill="#ccd5e2" stroke="#263238" stroke-linecap="round" stroke-linejoin="round" stroke-width="1"/>
          <path id="Path_7442" data-name="Path 7442" d="M242.181,259.67,231.5,251.8l9.556,22.148,10.568,6.858Z" transform="translate(-231.5 -251.8)" fill="#ccd5e2" stroke="#263238" stroke-linecap="round" stroke-linejoin="round" stroke-width="1"/>
        </g>
        <g id="Group_10699" data-name="Group 10699" transform="translate(20.833 90.694)">
          <path id="Path_7443" data-name="Path 7443" d="M276.691,264.1s-12.03-3.373-13.379-4.385-12.592,3.485-13.267,3.485-.45.787.112,1.124c.675.337,8.095-1.686,8.095-1.686s-7.083,3.71-7.083,4.5a1.975,1.975,0,0,0,.675,1.349s.112,1.462,1.012,1.8c.787.337,9.444-1.349,9.444-1.349s-6.746,2.473-5.846,3.036a2.858,2.858,0,0,0,2.7,0c1.012-.45,7.083-2.361,7.083-2.361s4.5,1.349,7.083.675c2.473-.675,4.5-1.462,4.5-1.462Z" transform="translate(-249.63 -259.568)" fill="#fff" stroke="#263238" stroke-linecap="round" stroke-linejoin="round" stroke-width="1"/>
          <line id="Line_185" data-name="Line 185" y1="2.361" x2="8.432" transform="translate(2.215 6.669)" fill="none" stroke="#263238" stroke-linecap="round" stroke-linejoin="round" stroke-width="1"/>
        </g>
        <g id="Group_10700" data-name="Group 10700" transform="translate(0 87.732)">
          <path id="Path_7444" data-name="Path 7444" d="M233.349,257.683s5.734,4.16,6.746,5.509a3.421,3.421,0,0,1,.675,2.7l-3.71-1.462s4.722,4.16,4.834,4.834,1.8,3.485-.112,3.148c-2.024-.337-8.095-3.485-9.219-5.172s-1.462-9.556-1.462-9.556S231.55,256,233.349,257.683Z" transform="translate(-231.1 -256.933)" fill="#fff" stroke="#263238" stroke-linecap="round" stroke-linejoin="round" stroke-width="1"/>
          <line id="Line_186" data-name="Line 186" x1="6.746" y1="4.047" transform="translate(4.16 9.294)" fill="none" stroke="#263238" stroke-linecap="round" stroke-linejoin="round" stroke-width="1"/>
          <path id="Path_7445" data-name="Path 7445" d="M242.1,270.51s-6.071-2.7-7.2-3.71" transform="translate(-230.628 -255.707)" fill="none" stroke="#263238" stroke-linecap="round" stroke-linejoin="round" stroke-width="1"/>
          <line id="Line_187" data-name="Line 187" x1="2.024" y1="1.349" transform="translate(3.935 6.146)" fill="none" stroke="#263238" stroke-linecap="round" stroke-linejoin="round" stroke-width="1"/>
        </g>
      </g>
    </g>
    <g id="Table_2" transform="translate(294.756 334.323)">
      <g id="Group_10702" data-name="Group 10702">
        <rect id="Rectangle_1191" data-name="Rectangle 1191" width="4.722" height="95.002" transform="translate(3.935 5.621)" fill="#fff" stroke="#263238" stroke-linecap="round" stroke-linejoin="round" stroke-width="1"/>
        <rect id="Rectangle_1192" data-name="Rectangle 1192" width="4.722" height="95.002" transform="translate(217.436 5.621)" fill="#fff" stroke="#263238" stroke-linecap="round" stroke-linejoin="round" stroke-width="1"/>
        <rect id="Rectangle_1193" data-name="Rectangle 1193" width="228.678" height="8.882" fill="#fff" stroke="#263238" stroke-linecap="round" stroke-linejoin="round" stroke-width="1"/>
      </g>
    </g>
    <g id="Table_1" transform="translate(55.06 334.323)">
      <g id="Group_10703" data-name="Group 10703">
        <rect id="Rectangle_1194" data-name="Rectangle 1194" width="4.722" height="95.002" transform="translate(3.935 5.621)" fill="#fff" stroke="#263238" stroke-linecap="round" stroke-linejoin="round" stroke-width="1"/>
        <rect id="Rectangle_1195" data-name="Rectangle 1195" width="4.722" height="95.002" transform="translate(217.436 5.621)" fill="#fff" stroke="#263238" stroke-linecap="round" stroke-linejoin="round" stroke-width="1"/>
        <rect id="Rectangle_1196" data-name="Rectangle 1196" width="228.678" height="8.882" fill="#fff" stroke="#263238" stroke-linecap="round" stroke-linejoin="round" stroke-width="1"/>
      </g>
    </g>
    <g id="Character_5" transform="translate(426.026 242.635)">
      <g id="Group_10712" data-name="Group 10712">
        <g id="Group_10710" data-name="Group 10710">
          <g id="Group_10704" data-name="Group 10704" transform="translate(21.856 113.949)">
            <path id="Path_7446" data-name="Path 7446" d="M401.8,332.3l10.793,68.806,5.734.337,1.349-67.457Z" transform="translate(-401.8 -332.3)" fill="#d94148" stroke="#263238" stroke-linecap="round" stroke-linejoin="round" stroke-width="1"/>
            <path id="Path_7447" data-name="Path 7447" d="M411.4,393.5v7.645a1.156,1.156,0,0,0,1.124,1.237l4.272.225a1.158,1.158,0,0,0,1.237-1.349l-.9-7.42Z" transform="translate(-400.607 -324.694)" fill="#fff" stroke="#263238" stroke-linecap="round" stroke-linejoin="round" stroke-width="1"/>
          </g>
          <g id="Group_10705" data-name="Group 10705" transform="translate(45.115 114.062)">
            <path id="Path_7448" data-name="Path 7448" d="M441.188,332.4l-12.03,68.693-5.734.225-.225-67.569Z" transform="translate(-422.399 -332.4)" fill="#d94148" stroke="#263238" stroke-linecap="round" stroke-linejoin="round" stroke-width="1"/>
            <path id="Path_7449" data-name="Path 7449" d="M429.247,393.5l-.112,7.645a1.321,1.321,0,0,1-1.124,1.237l-4.272.112a1.206,1.206,0,0,1-1.237-1.349l1.012-7.42Z" transform="translate(-422.487 -324.807)" fill="#fff" stroke="#263238" stroke-linecap="round" stroke-linejoin="round" stroke-width="1"/>
          </g>
          <g id="Group_10706" data-name="Group 10706" transform="translate(0 47.392)">
            <path id="Path_7450" data-name="Path 7450" d="M400.843,273.1s-17.988,34.853-18.438,37.776,2.473,7.308,7.645,6.858,18.551-.787,18.551-.787l.225-4.61-15.4-1.911,9.332-7.308Z" transform="translate(-382.36 -273.1)" fill="#8db0ff" stroke="#263238" stroke-linecap="round" stroke-linejoin="round" stroke-width="1"/>
            <line id="Line_188" data-name="Line 188" x1="1.911" y2="3.71" transform="translate(9.04 37.326)" fill="none" stroke="#263238" stroke-linecap="round" stroke-linejoin="round" stroke-width="1"/>
          </g>
          <g id="Group_10707" data-name="Group 10707" transform="translate(60.307 48.179)">
            <path id="Path_7451" data-name="Path 7451" d="M442.3,273.8s18.326,34.178,18.775,37.1-2.473,7.308-7.645,6.858-17.2-.787-17.2-.787l-.225-4.61,8.32-1.911-5.846-7.42Z" transform="translate(-436 -273.8)" fill="#8db0ff" stroke="#263238" stroke-linecap="round" stroke-linejoin="round" stroke-width="1"/>
            <line id="Line_189" data-name="Line 189" x2="7.645" y2="3.71" transform="translate(8.432 36.539)" fill="none" stroke="#263238" stroke-linecap="round" stroke-linejoin="round" stroke-width="1"/>
          </g>
          <path id="Path_7452" data-name="Path 7452" d="M415.893,264.995s-5.846,3.148-11.8,6.3c-5.846,3.148-4.947,1.349-5.284,2.923s2.024,55.764,2.024,55.764,4.5,4.385,16.3,5.509c17.651,1.686,25.3-3.823,25.3-3.823s4.5-54.752,4.5-56.664-7.308-5.621-12.03-7.87C430.283,264.882,425.112,262.971,415.893,264.995Z" transform="translate(-380.32 -226.822)" fill="#8db0ff" stroke="#263238" stroke-linecap="round" stroke-linejoin="round" stroke-width="1"/>
          <path id="Path_7453" data-name="Path 7453" d="M421.228,232.131s-7.645,3.373-10.119,8.882,1.574,18.326.562,21.7c-.9,3.373-5.172,3.036-5.172,3.036s1.8,10.456,12.255,11.58c10.456,1.237,14.953-.337,19.225-4.947s3.373-4.61,3.373-4.61-1.8,0-2.7-5.172.337-19.9-4.272-26.308C429.773,229.995,422.8,230.22,421.228,232.131Z" transform="translate(-379.36 -230.947)" fill="#263238" stroke="#263238" stroke-linecap="round" stroke-linejoin="round" stroke-width="1"/>
          <path id="Path_7454" data-name="Path 7454" d="M400.725,322.7s-1.574,17.314-1.012,19.562,5.846,5.846,16.864,6.3c10.906.337,24.622.9,27.995-3.148,3.26-4.047-2.136-21.024-2.136-21.024S413.2,326.86,400.725,322.7Z" transform="translate(-380.218 -219.544)" fill="#d94148" stroke="#263238" stroke-linecap="round" stroke-linejoin="round" stroke-width="1"/>
          <g id="Group_10709" data-name="Group 10709" transform="translate(42.431 36.965)">
            <g id="Group_10708" data-name="Group 10708">
              <path id="Path_7455" data-name="Path 7455" d="M420.1,264.7s.225-1.8,5.621-.225" transform="translate(-420.1 -263.826)" fill="none" stroke="#263238" stroke-linecap="round" stroke-linejoin="round" stroke-width="1"/>
            </g>
          </g>
        </g>
        <g id="Group_10711" data-name="Group 10711" transform="translate(12.609 72.662)">
          <path id="Path_7456" data-name="Path 7456" d="M400.424,408.507h0a1.259,1.259,0,0,1-1.124-1.349l3.6-65.658,4.047.337-5.284,65.545A1.156,1.156,0,0,1,400.424,408.507Z" transform="translate(-392.863 -289.869)" fill="#263238" stroke="#263238" stroke-linecap="round" stroke-linejoin="round" stroke-width="1"/>
          <path id="Path_7457" data-name="Path 7457" d="M440.321,408.507h0a1.259,1.259,0,0,0,1.124-1.349l-3.6-65.658-4.047.337,5.284,65.545A1.156,1.156,0,0,0,440.321,408.507Z" transform="translate(-388.575 -289.869)" fill="#263238" stroke="#263238" stroke-linecap="round" stroke-linejoin="round" stroke-width="1"/>
          <path id="Path_7458" data-name="Path 7458" d="M449.48,295.6a197.651,197.651,0,0,1-27.657,2.024,189.837,189.837,0,0,1-25.858-2.024,2.044,2.044,0,0,0-2.361,2.361c1.349,8.32,5.059,32.154,5.059,36.764,0,5.509-1.911,10.793-1.911,13.154,0,2.473,1.012,4.385,2.811,5.059.787.337,9.894.337,22.148.225,14.278.112,23.385,0,24.172-.225,1.686-.675,2.811-2.586,2.811-5.059s-1.911-7.645-1.911-13.154c0-4.609,3.71-28.444,5.059-36.764A2.044,2.044,0,0,0,449.48,295.6ZM440.6,346.42c-.562.225-7.645.225-18.663.225-9.444,0-16.527,0-17.089-.225a3.907,3.907,0,0,1-2.136-3.823c0-1.8,1.462-5.846,1.462-10.119,0-1.012-.225-3.148-.562-5.959l3.485,3.71a5.29,5.29,0,0,0,3.71,1.574h23.835a5.415,5.415,0,0,0,3.6-1.462l3.6-3.485c-.337,2.586-.562,4.609-.562,5.621,0,4.272,1.462,8.207,1.462,10.119A3.907,3.907,0,0,1,440.6,346.42Zm4.61-41.936c-.562,3.6-1.8,11.018-2.7,17.426l-3.485,2.136a11.761,11.761,0,0,1-6.408,1.8h-19.45a12.29,12.29,0,0,1-6.3-1.686l-3.935-2.361c-.9-6.408-2.136-13.716-2.7-17.314a1.522,1.522,0,0,1,1.8-1.8,142.661,142.661,0,0,0,19.9,1.574,148.252,148.252,0,0,0,21.361-1.574A1.641,1.641,0,0,1,445.208,304.485Z" transform="translate(-393.574 -295.576)" fill="#263238" stroke="#263238" stroke-linecap="round" stroke-linejoin="round" stroke-width="1"/>
        </g>
      </g>
    </g>
    <g id="Character_4" transform="translate(316.184 251.416)">
      <g id="Group_10723" data-name="Group 10723">
        <g id="Group_10720" data-name="Group 10720">
          <g id="Group_10716" data-name="Group 10716">
            <path id="Path_7459" data-name="Path 7459" d="M322.3,278.531V269.2h13.379v10.006Z" transform="translate(-279.982 -234.974)" fill="#fff" stroke="#263238" stroke-linecap="round" stroke-linejoin="round" stroke-width="1"/>
            <path id="Path_7460" data-name="Path 7460" d="M316.636,258.52s-2.136-.562-2.136,2.811c0,3.26,2.811,5.509,3.823,5.4,1.012-.225-.562-6.408-.675-7.645S316.636,258.52,316.636,258.52Z" transform="translate(-280.951 -236.324)" fill="#fff" stroke="#263238" stroke-linecap="round" stroke-linejoin="round" stroke-width="1"/>
            <path id="Path_7461" data-name="Path 7461" d="M339.824,258.52s2.136-.562,2.136,2.811c0,3.26-2.811,5.509-3.823,5.4-1.012-.225.562-6.408.675-7.645S339.824,258.52,339.824,258.52Z" transform="translate(-278.056 -236.324)" fill="#fff" stroke="#263238" stroke-linecap="round" stroke-linejoin="round" stroke-width="1"/>
            <path id="Path_7462" data-name="Path 7462" d="M342.748,247.912s1.349-.675-.112-3.71a6.214,6.214,0,0,0-4.272-3.6s1.124-.675,1.124-1.349-1.462-.787-5.846.45c-4.385,1.349-4.5,5.059-4.5,5.059a.393.393,0,0,0-.225-.112c-1.124-.562-5.172-2.361-7.2-1.349-2.249,1.124.337.787.337.787a10.073,10.073,0,0,0-6.521,3.935c-2.473,3.373-.675,3.71-.112,3.71.45,0,1.012-1.462,1.012-1.462v3.148a1.632,1.632,0,0,1,.112.675c-.675,4.61.562,9.781,1.237,13.042.9,4.16,4.385,8.207,6.971,8.994,2.586.9,10.568,0,10.568,0a32.994,32.994,0,0,0,5.059-6.746,23.231,23.231,0,0,0,2.249-9.781,17.238,17.238,0,0,0,1.574-5.959C344.435,249.6,342.748,247.912,342.748,247.912Z" transform="translate(-280.98 -238.757)" fill="#263238" stroke="#263238" stroke-linecap="round" stroke-linejoin="round" stroke-width="1"/>
            <path id="Path_7463" data-name="Path 7463" d="M338.323,262.827s-7.308-3.935-14.616-.9c-4.16,1.8-7.308,6.3-7.308,6.3a42.668,42.668,0,0,1,11.243-1.686c5.846,0,14.053,1.012,14.053,1.012A16.638,16.638,0,0,0,338.323,262.827Z" transform="translate(-280.715 -236.021)" fill="#274a99" stroke="#263238" stroke-linecap="round" stroke-linejoin="round" stroke-width="1"/>
            <g id="Group_10715" data-name="Group 10715" transform="translate(0 28.535)">
              <g id="Group_10713" data-name="Group 10713" transform="translate(0 14.797)">
                <path id="Path_7464" data-name="Path 7464" d="M304.267,277.3s-19.113,30.131-19.562,33.166c-.45,2.923,2.473,7.308,7.645,6.858s24.284-.787,24.284-.787l.225-4.61-15.4-1.911,9.332-7.308Z" transform="translate(-284.66 -277.3)" fill="#274a99" stroke="#263238" stroke-linecap="round" stroke-linejoin="round" stroke-width="1"/>
                <line id="Line_190" data-name="Line 190" x1="7.645" y2="3.71" transform="translate(9.04 32.604)" fill="none" stroke="#263238" stroke-linecap="round" stroke-linejoin="round" stroke-width="1"/>
              </g>
              <g id="Group_10714" data-name="Group 10714" transform="translate(66.153 13.56)">
                <path id="Path_7465" data-name="Path 7465" d="M355.755,276.2s19.338,31.367,19.9,34.291c.45,2.923-2.473,7.308-7.645,6.858s-24.284-.787-24.284-.787l-.225-4.61,15.4-1.911-9.332-7.308Z" transform="translate(-343.5 -276.2)" fill="#274a99" stroke="#263238" stroke-linecap="round" stroke-linejoin="round" stroke-width="1"/>
                <line id="Line_191" data-name="Line 191" x2="7.645" y2="3.71" transform="translate(15.403 33.841)" fill="none" stroke="#263238" stroke-linecap="round" stroke-linejoin="round" stroke-width="1"/>
              </g>
              <path id="Path_7466" data-name="Path 7466" d="M323.8,264.995s-5.846,3.148-11.8,6.3c-5.846,3.148-9.556,6.071-9.894,7.645s6.633,51.042,6.633,51.042,4.5,4.385,16.3,5.509c17.651,1.686,25.3-3.823,25.3-3.823S360.9,279.61,360.9,277.7s-13.379-8.32-18.1-10.568C338.191,264.882,332.907,262.971,323.8,264.995Z" transform="translate(-282.494 -264.139)" fill="#274a99" stroke="#263238" stroke-linecap="round" stroke-linejoin="round" stroke-width="1"/>
            </g>
          </g>
          <g id="Group_10719" data-name="Group 10719" transform="translate(15.531 94.375)">
            <g id="Group_10717" data-name="Group 10717" transform="translate(0.592 12.817)">
              <path id="Path_7467" data-name="Path 7467" d="M299,335.674l20.574,66,5.734-.675L316.876,334.1Z" transform="translate(-299 -334.1)" fill="#d94148" stroke="#263238" stroke-linecap="round" stroke-linejoin="round" stroke-width="1"/>
              <path id="Path_7468" data-name="Path 7468" d="M317.3,394.275l1.349,7.533A1.162,1.162,0,0,0,320,402.819l4.16-.562a1.188,1.188,0,0,0,1.012-1.574l-2.136-7.083Z" transform="translate(-296.726 -326.705)" fill="#fff" stroke="#263238" stroke-linecap="round" stroke-linejoin="round" stroke-width="1"/>
            </g>
            <g id="Group_10718" data-name="Group 10718" transform="translate(35.612 12.817)">
              <path id="Path_7469" data-name="Path 7469" d="M358.521,335.674l-20.687,66-5.734-.675,8.545-66.895Z" transform="translate(-329.906 -334.1)" fill="#d94148" stroke="#263238" stroke-linecap="round" stroke-linejoin="round" stroke-width="1"/>
              <path id="Path_7470" data-name="Path 7470" d="M338.076,394.275l-1.349,7.533a1.162,1.162,0,0,1-1.349,1.012l-4.16-.562a1.188,1.188,0,0,1-1.012-1.574l2.136-7.083Z" transform="translate(-330.148 -326.705)" fill="#fff" stroke="#263238" stroke-linecap="round" stroke-linejoin="round" stroke-width="1"/>
            </g>
            <path id="Path_7471" data-name="Path 7471" d="M326.835,328.994s-18.888-5.846-22.373-4.16-6.971,6.3-5.734,11.243c1.237,5.059,11.58,11.13,13.829,11.243,2.249.225,14.391,0,14.391,0Z" transform="translate(-298.473 -322.473)" fill="#d94148" stroke="#263238" stroke-linecap="round" stroke-linejoin="round" stroke-width="1"/>
            <path id="Path_7472" data-name="Path 7472" d="M331.912,328.994s18.888-5.846,22.373-4.16,6.971,6.3,5.734,11.243c-1.237,5.059-11.58,11.13-13.829,11.243-2.249.225-14.391,0-14.391,0Z" transform="translate(-294.332 -322.473)" fill="#d94148" stroke="#263238" stroke-linecap="round" stroke-linejoin="round" stroke-width="1"/>
            <path id="Path_7473" data-name="Path 7473" d="M308.025,322.7s-1.574,17.314-1.012,19.562,5.846,5.846,16.864,6.3c10.906.337,24.622.9,27.995-3.148,3.26-4.047-2.136-21.024-2.136-21.024S320.5,326.86,308.025,322.7Z" transform="translate(-297.427 -322.7)" fill="#fff" stroke="#263238" stroke-linecap="round" stroke-linejoin="round" stroke-width="1"/>
          </g>
        </g>
        <g id="Group_10721" data-name="Group 10721" transform="translate(18.23 63.88)">
          <path id="Path_7474" data-name="Path 7474" d="M307.824,408.507h0a1.259,1.259,0,0,1-1.124-1.349l3.6-65.658,4.047.337-5.284,65.545A1.156,1.156,0,0,1,307.824,408.507Z" transform="translate(-300.15 -289.869)" fill="#263238" stroke="#263238" stroke-linecap="round" stroke-linejoin="round" stroke-width="1"/>
          <path id="Path_7475" data-name="Path 7475" d="M347.621,408.507h0a1.259,1.259,0,0,0,1.124-1.349l-3.6-65.658-4.047.337,5.284,65.545A1.226,1.226,0,0,0,347.621,408.507Z" transform="translate(-295.875 -289.869)" fill="#263238" stroke="#263238" stroke-linecap="round" stroke-linejoin="round" stroke-width="1"/>
          <path id="Path_7476" data-name="Path 7476" d="M356.78,295.6a197.651,197.651,0,0,1-27.657,2.024,189.837,189.837,0,0,1-25.858-2.024,2.044,2.044,0,0,0-2.361,2.361c1.349,8.32,5.059,32.154,5.059,36.764,0,5.509-1.911,10.793-1.911,13.154,0,2.473,1.012,4.385,2.811,5.059.787.337,9.894.337,22.148.225,14.278.112,23.385,0,24.172-.225,1.686-.675,2.811-2.586,2.811-5.059s-1.911-7.645-1.911-13.154c0-4.609,3.71-28.444,5.059-36.764A2.044,2.044,0,0,0,356.78,295.6ZM347.9,346.42c-.562.225-7.645.225-18.663.225-9.444,0-16.527,0-17.089-.225a3.907,3.907,0,0,1-2.136-3.823c0-1.8,1.462-5.846,1.462-10.119,0-1.012-.225-3.148-.562-5.959l3.485,3.71a5.29,5.29,0,0,0,3.71,1.574h23.835a5.415,5.415,0,0,0,3.6-1.462l3.6-3.485c-.337,2.586-.562,4.609-.562,5.621,0,4.272,1.462,8.207,1.462,10.119A3.907,3.907,0,0,1,347.9,346.42Zm4.609-41.936c-.562,3.6-1.8,11.018-2.7,17.426l-3.485,2.136a11.761,11.761,0,0,1-6.408,1.8H320.578a12.29,12.29,0,0,1-6.3-1.686l-3.935-2.361c-.9-6.408-2.136-13.716-2.7-17.314a1.522,1.522,0,0,1,1.8-1.8,142.661,142.661,0,0,0,19.9,1.574,148.252,148.252,0,0,0,21.361-1.574A1.561,1.561,0,0,1,352.508,304.485Z" transform="translate(-300.874 -295.576)" fill="#263238" stroke="#263238" stroke-linecap="round" stroke-linejoin="round" stroke-width="1"/>
        </g>
        <g id="Group_10722" data-name="Group 10722" transform="translate(21.856 64.244)">
          <path id="Path_7477" data-name="Path 7477" d="M310.4,295.9l6.633,24.847,5.172-.787L316.7,297.024Z" transform="translate(-303.317 -295.9)" fill="#757575" stroke="#263238" stroke-linecap="round" stroke-linejoin="round" stroke-width="1"/>
          <path id="Path_7478" data-name="Path 7478" d="M333.8,319.135l4.834-22.148,6.633-.787-6.3,24.509Z" transform="translate(-300.409 -295.863)" fill="#757575" stroke="#263238" stroke-linecap="round" stroke-linejoin="round" stroke-width="1"/>
          <path id="Path_7479" data-name="Path 7479" d="M304.887,331.9l8.882,18.438v8.207L304.1,338.533Z" transform="translate(-304.1 -291.426)" fill="#757575" stroke="#263238" stroke-linecap="round" stroke-linejoin="round" stroke-width="1"/>
          <path id="Path_7480" data-name="Path 7480" d="M349.982,331.9,341.1,350.338v8.207l9.669-20.012Z" transform="translate(-299.502 -291.426)" fill="#757575" stroke="#263238" stroke-linecap="round" stroke-linejoin="round" stroke-width="1"/>
          <path id="Path_7481" data-name="Path 7481" d="M338.671,312.446s-15.965-1.124-20.8.337-7.42,5.172-7.083,11.13-2.923,28.894-2.586,34.853,2.586,9.669,12.255,11.468,19.675,1.124,25.184-1.124,8.207-10.681,4.834-19.675c-3.373-8.882-2.586-22.6-4.047-29.344C344.967,313.457,341.257,312.783,338.671,312.446Z" transform="translate(-303.593 -293.895)" fill="#ff835a" stroke="#263238" stroke-linecap="round" stroke-linejoin="round" stroke-width="1"/>
          <path id="Path_7482" data-name="Path 7482" d="M347.322,354.858c0,.112-.225,3.71-.337,3.823-2.586,9.894-16.527,8.32-24.284,7.083-3.823-.675-9.669-2.586-11.13-6.746-1.686-4.5.45-10.119,1.237-14.616.45-2.811.787-11.468,3.935-12.929,3.26-1.462,22.6-3.485,25.521,2.361C345.523,340.354,346.085,347.212,347.322,354.858Z" transform="translate(-303.25 -291.673)" fill="#ff835a" stroke="#263238" stroke-linecap="round" stroke-linejoin="round" stroke-width="1"/>
          <rect id="Rectangle_1197" data-name="Rectangle 1197" width="7.308" height="4.16" transform="translate(22.036 25.409)" fill="#263238" stroke="#263238" stroke-linecap="round" stroke-linejoin="round" stroke-width="1"/>
          <path id="Path_7483" data-name="Path 7483" d="M313.5,343h31.7a4.648,4.648,0,0,1-3.823,4.947c-4.722,1.012-9.894.787-14.728.787C322.271,348.846,313.052,349.408,313.5,343Z" transform="translate(-302.934 -290.046)" fill="#263238" stroke="#263238" stroke-linecap="round" stroke-linejoin="round" stroke-width="1"/>
        </g>
      </g>
    </g>
    <g id="Character_2" transform="translate(186.33 244.196)">
      <g id="Group_10732" data-name="Group 10732" transform="translate(0)">
        <g id="Group_10730" data-name="Group 10730">
          <g id="Group_10724" data-name="Group 10724" transform="translate(21.856 112.725)">
            <path id="Path_7484" data-name="Path 7484" d="M188.6,332.6l10.681,68.918,5.846.337,1.349-67.569Z" transform="translate(-188.6 -332.6)" fill="#d94148" stroke="#263238" stroke-linecap="round" stroke-linejoin="round" stroke-width="1"/>
            <path id="Path_7485" data-name="Path 7485" d="M198.1,393.9v7.645a1.156,1.156,0,0,0,1.124,1.237l4.272.225a1.158,1.158,0,0,0,1.237-1.349l-.9-7.42Z" transform="translate(-187.419 -324.982)" fill="#fff" stroke="#263238" stroke-linecap="round" stroke-linejoin="round" stroke-width="1"/>
          </g>
          <g id="Group_10725" data-name="Group 10725" transform="translate(45.115 112.95)">
            <path id="Path_7486" data-name="Path 7486" d="M227.876,332.8l-11.917,68.581-5.734.225L210,334.149Z" transform="translate(-209.199 -332.8)" fill="#d94148" stroke="#263238" stroke-linecap="round" stroke-linejoin="round" stroke-width="1"/>
            <path id="Path_7487" data-name="Path 7487" d="M216.047,393.8l-.112,7.645a1.321,1.321,0,0,1-1.124,1.237l-4.272.112a1.206,1.206,0,0,1-1.237-1.349l1.012-7.42Z" transform="translate(-209.287 -325.219)" fill="#fff" stroke="#263238" stroke-linecap="round" stroke-linejoin="round" stroke-width="1"/>
          </g>
          <g id="Group_10726" data-name="Group 10726" transform="translate(0 46.281)">
            <path id="Path_7488" data-name="Path 7488" d="M187.643,273.5s-17.988,34.853-18.438,37.776,2.473,7.308,7.645,6.858,18.551-.787,18.551-.787l.225-4.61-15.4-1.911,9.332-7.308Z" transform="translate(-169.16 -273.5)" fill="#8db0ff" stroke="#263238" stroke-linecap="round" stroke-linejoin="round" stroke-width="1"/>
            <line id="Line_192" data-name="Line 192" x1="1.911" y2="3.598" transform="translate(9.04 37.326)" fill="none" stroke="#263238" stroke-linecap="round" stroke-linejoin="round" stroke-width="1"/>
          </g>
          <g id="Group_10727" data-name="Group 10727" transform="translate(60.419 45.494)">
            <path id="Path_7489" data-name="Path 7489" d="M229.308,272.8s18.1,35.64,18.663,38.563c.45,2.923-2.473,7.308-7.645,6.858s-17.2-.787-17.2-.787l-.225-4.61,8.32-1.911-5.284-7.308Z" transform="translate(-222.9 -272.8)" fill="#8db0ff" stroke="#263238" stroke-linecap="round" stroke-linejoin="round" stroke-width="1"/>
            <line id="Line_193" data-name="Line 193" x2="7.645" y2="3.598" transform="translate(8.32 38.113)" fill="none" stroke="#263238" stroke-linecap="round" stroke-linejoin="round" stroke-width="1"/>
          </g>
          <path id="Path_7490" data-name="Path 7490" d="M202.693,265.4s-5.846,3.148-11.8,6.3c-5.846,3.148-4.947,1.349-5.284,2.923s2.024,55.764,2.024,55.764,4.5,4.385,16.3,5.509c17.651,1.686,25.3-3.823,25.3-3.823s4.5-54.752,4.5-56.664-7.308-5.621-12.03-7.87C217.083,265.178,211.8,263.266,202.693,265.4Z" transform="translate(-167.12 -228.341)" fill="#8db0ff" stroke="#263238" stroke-linecap="round" stroke-linejoin="round" stroke-width="1"/>
          <path id="Path_7491" data-name="Path 7491" d="M187.425,323s-1.574,17.314-1.012,19.562,5.846,5.846,16.864,6.3c10.906.337,24.622.9,27.995-3.148,3.26-4.047-2.136-21.024-2.136-21.024S199.9,327.16,187.425,323Z" transform="translate(-167.031 -221.068)" fill="#d94148" stroke="#263238" stroke-linecap="round" stroke-linejoin="round" stroke-width="1"/>
          <g id="Group_10729" data-name="Group 10729" transform="translate(22.868)">
            <path id="Path_7492" data-name="Path 7492" d="M210.3,235.444s-5.621-3.373-11.58,3.036.225,19.225,1.012,22.373c.787,3.036-10.231,20.574-10.231,28.557s9.556,15.627,24.622,14.166c15.178-1.574,16.977-9.556,14.953-19-2.024-9.556-4.385-19.562-4.385-23.61,0-4.16,3.6-13.379.225-22.373C221.654,229.485,213.447,232.071,210.3,235.444Z" transform="translate(-189.5 -232.335)" fill="#263238" stroke="#263238" stroke-linecap="round" stroke-linejoin="round" stroke-width="1"/>
          </g>
        </g>
        <g id="Group_10731" data-name="Group 10731" transform="translate(12.608 71.438)">
          <path id="Path_7495" data-name="Path 7495" d="M187.224,408.807h0a1.259,1.259,0,0,1-1.124-1.349l3.6-65.658,4.047.337-5.284,65.545A1.093,1.093,0,0,1,187.224,408.807Z" transform="translate(-179.663 -290.169)" fill="#263238" stroke="#263238" stroke-linecap="round" stroke-linejoin="round" stroke-width="1"/>
          <path id="Path_7496" data-name="Path 7496" d="M227.121,408.807h0a1.259,1.259,0,0,0,1.124-1.349l-3.6-65.658-4.047.337,5.284,65.545A1.046,1.046,0,0,0,227.121,408.807Z" transform="translate(-175.375 -290.169)" fill="#263238" stroke="#263238" stroke-linecap="round" stroke-linejoin="round" stroke-width="1"/>
          <path id="Path_7497" data-name="Path 7497" d="M236.28,295.9a197.652,197.652,0,0,1-27.657,2.024,189.828,189.828,0,0,1-25.858-2.024,2.044,2.044,0,0,0-2.361,2.361c1.349,8.32,5.059,32.154,5.059,36.764,0,5.509-1.911,10.793-1.911,13.154,0,2.473,1.012,4.385,2.811,5.059.787.337,9.894.337,22.148.225,14.278.112,23.385,0,24.172-.225,1.686-.675,2.811-2.586,2.811-5.059s-1.911-7.645-1.911-13.154c0-4.61,3.71-28.444,5.059-36.764A2.133,2.133,0,0,0,236.28,295.9Zm-8.882,50.93c-.562.225-7.645.225-18.663.225-9.444,0-16.527,0-17.089-.225a3.907,3.907,0,0,1-2.136-3.823c0-1.8,1.462-5.846,1.462-10.118,0-1.012-.225-3.148-.562-5.959l3.485,3.71a5.29,5.29,0,0,0,3.71,1.574h23.835a5.415,5.415,0,0,0,3.6-1.462l3.6-3.485c-.337,2.586-.562,4.61-.562,5.621,0,4.272,1.462,8.207,1.462,10.118A3.907,3.907,0,0,1,227.4,346.833Zm4.61-41.936c-.562,3.6-1.8,11.018-2.7,17.426l-3.485,2.136a11.761,11.761,0,0,1-6.408,1.8H200.078a12.29,12.29,0,0,1-6.3-1.686l-3.935-2.361c-.9-6.408-2.136-13.716-2.7-17.314a1.522,1.522,0,0,1,1.8-1.8,142.656,142.656,0,0,0,19.9,1.574,148.248,148.248,0,0,0,21.361-1.574A1.56,1.56,0,0,1,232.008,304.9Z" transform="translate(-180.374 -295.876)" fill="#263238" stroke="#263238" stroke-linecap="round" stroke-linejoin="round" stroke-width="1"/>
        </g>
      </g>
    </g>
    <g id="Character_1" transform="translate(76.376 240.416)">
      <g id="Group_10742" data-name="Group 10742">
        <g id="Group_10740" data-name="Group 10740">
          <g id="Group_10736" data-name="Group 10736">
            <path id="Path_7498" data-name="Path 7498" d="M109.1,265.444V256h13.267v10.119Z" transform="translate(-66.669 -225.614)" fill="#fff" stroke="#263238" stroke-linecap="round" stroke-linejoin="round" stroke-width="1"/>
            <path id="Path_7499" data-name="Path 7499" d="M103.436,245.42s-2.136-.562-2.136,2.811,2.811,5.509,3.823,5.4c1.012-.225-.562-6.408-.675-7.645S103.436,245.42,103.436,245.42Z" transform="translate(-67.639 -226.952)" fill="#fff" stroke="#263238" stroke-linecap="round" stroke-linejoin="round" stroke-width="1"/>
            <path id="Path_7500" data-name="Path 7500" d="M126.624,245.42s2.136-.562,2.136,2.811-2.811,5.509-3.823,5.4c-1.012-.225.562-6.408.675-7.645S126.624,245.42,126.624,245.42Z" transform="translate(-64.743 -226.952)" fill="#fff" stroke="#263238" stroke-linecap="round" stroke-linejoin="round" stroke-width="1"/>
            <path id="Path_7501" data-name="Path 7501" d="M112.458,230.915s-5.846.9-8.32,6.071-.675,12.48.225,16.639,4.385,8.207,6.971,8.994c2.586.9,10.568,0,10.568,0a32.994,32.994,0,0,0,5.059-6.746c2.473-4.385,2.811-12.48,1.686-17.2-1.012-4.722-4.722-9.332-7.42-9.669-2.811-.337-5.4,2.249-5.4,2.249A5.388,5.388,0,0,0,112.458,230.915Z" transform="translate(-67.442 -228.973)" fill="#263238" stroke="#263238" stroke-linecap="round" stroke-linejoin="round" stroke-width="1"/>
            <path id="Path_7502" data-name="Path 7502" d="M125.023,262.918s-10.119-1.574-14.616-.9-7.308,6.3-7.308,6.3a42.667,42.667,0,0,1,11.243-1.686c5.846,0,14.053,1.012,14.053,1.012A14.389,14.389,0,0,0,125.023,262.918Z" transform="translate(-67.415 -224.887)" fill="#274a99" stroke="#263238" stroke-linecap="round" stroke-linejoin="round" stroke-width="1"/>
            <g id="Group_10735" data-name="Group 10735" transform="translate(0 39.761)">
              <g id="Group_10733" data-name="Group 10733" transform="translate(0 14.797)">
                <path id="Path_7503" data-name="Path 7503" d="M90.967,277.5s-19.113,30.131-19.562,33.166c-.45,2.923,2.473,7.308,7.645,6.858s24.284-.787,24.284-.787l.225-4.61-15.4-1.911,9.332-7.308Z" transform="translate(-71.36 -277.5)" fill="#274a99" stroke="#263238" stroke-linecap="round" stroke-linejoin="round" stroke-width="1"/>
                <line id="Line_194" data-name="Line 194" x1="7.533" y2="3.71" transform="translate(9.152 32.604)" fill="none" stroke="#263238" stroke-linecap="round" stroke-linejoin="round" stroke-width="1"/>
              </g>
              <g id="Group_10734" data-name="Group 10734" transform="translate(66.265 13.56)">
                <path id="Path_7504" data-name="Path 7504" d="M142.555,276.4s19.338,31.367,19.9,34.29c.45,2.923-2.473,7.308-7.645,6.858s-24.284-.787-24.284-.787l-.225-4.61,15.4-1.911-9.332-7.308Z" transform="translate(-130.3 -276.4)" fill="#274a99" stroke="#263238" stroke-linecap="round" stroke-linejoin="round" stroke-width="1"/>
                <line id="Line_195" data-name="Line 195" x2="7.645" y2="3.71" transform="translate(15.403 33.841)" fill="none" stroke="#263238" stroke-linecap="round" stroke-linejoin="round" stroke-width="1"/>
              </g>
              <path id="Path_7505" data-name="Path 7505" d="M110.5,265.195s-5.846,3.148-11.8,6.3c-5.846,3.148-9.556,6.071-9.894,7.645s6.633,51.042,6.633,51.042,4.5,4.385,16.3,5.509c17.651,1.686,25.3-3.823,25.3-3.823S147.6,279.81,147.6,277.9s-13.379-8.32-18.1-10.568C124.891,265.082,119.719,263.171,110.5,265.195Z" transform="translate(-69.194 -264.339)" fill="#274a99" stroke="#263238" stroke-linecap="round" stroke-linejoin="round" stroke-width="1"/>
            </g>
          </g>
          <g id="Group_10739" data-name="Group 10739" transform="translate(15.53 105.6)">
            <g id="Group_10737" data-name="Group 10737" transform="translate(0.592 12.817)">
              <path id="Path_7506" data-name="Path 7506" d="M85.7,335.874l20.687,66,5.734-.675L103.576,334.3Z" transform="translate(-85.7 -334.3)" fill="#d94148" stroke="#263238" stroke-linecap="round" stroke-linejoin="round" stroke-width="1"/>
              <path id="Path_7507" data-name="Path 7507" d="M104.1,394.475l1.349,7.533a1.162,1.162,0,0,0,1.349,1.012l4.16-.562a1.188,1.188,0,0,0,1.012-1.574l-2.136-7.083Z" transform="translate(-83.413 -326.905)" fill="#fff" stroke="#263238" stroke-linecap="round" stroke-linejoin="round" stroke-width="1"/>
            </g>
            <g id="Group_10738" data-name="Group 10738" transform="translate(35.724 12.817)">
              <path id="Path_7508" data-name="Path 7508" d="M145.321,335.874l-20.687,66-5.734-.675,8.545-66.895Z" transform="translate(-116.706 -334.3)" fill="#d94148" stroke="#263238" stroke-linecap="round" stroke-linejoin="round" stroke-width="1"/>
              <path id="Path_7509" data-name="Path 7509" d="M124.876,394.475l-1.349,7.533a1.162,1.162,0,0,1-1.349,1.012l-4.16-.562a1.188,1.188,0,0,1-1.012-1.574l2.136-7.083Z" transform="translate(-116.949 -326.905)" fill="#fff" stroke="#263238" stroke-linecap="round" stroke-linejoin="round" stroke-width="1"/>
            </g>
            <path id="Path_7510" data-name="Path 7510" d="M113.535,329.194s-18.888-5.846-22.373-4.16-6.971,6.3-5.734,11.243c1.237,5.059,11.58,11.13,13.829,11.243,2.249.225,14.391,0,14.391,0Z" transform="translate(-85.173 -322.673)" fill="#d94148" stroke="#263238" stroke-linecap="round" stroke-linejoin="round" stroke-width="1"/>
            <path id="Path_7511" data-name="Path 7511" d="M118.712,329.194s18.888-5.846,22.373-4.16,6.971,6.3,5.734,11.243c-1.237,5.059-11.58,11.13-13.829,11.243-2.249.225-14.391,0-14.391,0Z" transform="translate(-81.019 -322.673)" fill="#d94148" stroke="#263238" stroke-linecap="round" stroke-linejoin="round" stroke-width="1"/>
            <path id="Path_7512" data-name="Path 7512" d="M94.825,322.9s-1.574,17.314-1.012,19.562,5.846,5.846,16.864,6.3c10.906.337,24.622.9,27.995-3.148s-2.136-21.024-2.136-21.024S107.3,327.06,94.825,322.9Z" transform="translate(-84.115 -322.9)" fill="#d94148" stroke="#263238" stroke-linecap="round" stroke-linejoin="round" stroke-width="1"/>
          </g>
        </g>
        <g id="Group_10741" data-name="Group 10741" transform="translate(18.342 75.106)">
          <path id="Path_7513" data-name="Path 7513" d="M94.624,408.707h0a1.259,1.259,0,0,1-1.124-1.349L97.1,341.7l4.047.337-5.284,65.545A1.156,1.156,0,0,1,94.624,408.707Z" transform="translate(-86.95 -290.069)" fill="#263238" stroke="#263238" stroke-linecap="round" stroke-linejoin="round" stroke-width="1"/>
          <path id="Path_7514" data-name="Path 7514" d="M134.421,408.707h0a1.259,1.259,0,0,0,1.124-1.349l-3.6-65.658-4.047.337,5.284,65.545A1.156,1.156,0,0,0,134.421,408.707Z" transform="translate(-82.675 -290.069)" fill="#263238" stroke="#263238" stroke-linecap="round" stroke-linejoin="round" stroke-width="1"/>
          <path id="Path_7515" data-name="Path 7515" d="M143.58,295.8a197.657,197.657,0,0,1-27.657,2.024A189.832,189.832,0,0,1,90.064,295.8a2.044,2.044,0,0,0-2.361,2.361c1.349,8.32,5.059,32.154,5.059,36.764,0,5.509-1.911,10.793-1.911,13.154,0,2.473,1.012,4.385,2.811,5.059.787.337,9.894.337,22.148.225,14.278.112,23.385,0,24.172-.225,1.686-.675,2.811-2.586,2.811-5.059s-1.911-7.645-1.911-13.154c0-4.61,3.71-28.444,5.059-36.764A2.044,2.044,0,0,0,143.58,295.8ZM134.7,346.62c-.562.225-7.645.225-18.663.225-9.444,0-16.527,0-17.089-.225A3.907,3.907,0,0,1,96.81,342.8c0-1.8,1.462-5.846,1.462-10.118,0-1.012-.225-3.148-.562-5.959l3.485,3.71A5.29,5.29,0,0,0,104.9,332h23.835a5.415,5.415,0,0,0,3.6-1.462l3.6-3.485c-.337,2.586-.562,4.61-.562,5.621,0,4.272,1.462,8.207,1.462,10.118S136.047,346.171,134.7,346.62Zm4.61-41.936c-.562,3.6-1.8,11.018-2.7,17.426l-3.485,2.136a11.761,11.761,0,0,1-6.408,1.8H107.378a12.289,12.289,0,0,1-6.3-1.686L97.147,322c-.9-6.408-2.136-13.716-2.7-17.314a1.522,1.522,0,0,1,1.8-1.8,142.652,142.652,0,0,0,19.9,1.574,148.244,148.244,0,0,0,21.361-1.574A1.655,1.655,0,0,1,139.308,304.685Z" transform="translate(-87.674 -295.776)" fill="#263238" stroke="#263238" stroke-linecap="round" stroke-linejoin="round" stroke-width="1"/>
        </g>
      </g>
    </g>
  </g>
</svg>
