<svg xmlns="http://www.w3.org/2000/svg" width="28.5" height="28.5" viewBox="0 0 28.5 28.5">
  <path id="Path_1732" data-name="Path 1732" d="M28.353,14.083v14.25H6.155V6.167h14.25V3H6.187A3.176,3.176,0,0,0,3.02,6.167V28.333A3.176,3.176,0,0,0,6.187,31.5H28.353a3.176,3.176,0,0,0,3.167-3.167V14.083Zm-3.2,0,1.488-3.262,3.262-1.488L26.643,7.845,25.155,4.583,23.667,7.845,20.405,9.333l3.262,1.488Zm-5.937,1.188-1.979-4.354-1.979,4.354L10.905,17.25l4.354,1.979,1.979,4.354,1.979-4.354,4.354-1.979Z" transform="translate(-3.02 -3)" fill="#7e84a3"/>
</svg>
