<svg id="handwash_·_coronavirus_·_covid19_·_wash_·_clean" data-name="handwash · coronavirus · covid19 · wash · clean" xmlns="http://www.w3.org/2000/svg" width="49.341" height="50.192" viewBox="0 0 49.341 50.192">
  <path id="Path_8782" data-name="Path 8782" d="M39.7,40.1l1.114-1.676a5.932,5.932,0,0,0,1-3.3V15.91a1.7,1.7,0,0,0-3.4,0v5.955a.851.851,0,0,1-1.7,0V9.1a1.7,1.7,0,1,0-3.4,0V21.865a.851.851,0,1,1-1.7,0V5.7a1.7,1.7,0,0,0-3.4,0V21.865a.851.851,0,1,1-1.7,0V9.1a1.7,1.7,0,1,0-3.4,0V27.871a6.824,6.824,0,0,1,5.955,6.755v.851a.851.851,0,1,1-1.7,0v-.851a5.1,5.1,0,0,0-5.1-5.1.851.851,0,0,1-.851-.851v-5.1a2.56,2.56,0,0,0-2.552-2.552H18v13.7a5.972,5.972,0,0,0,1.378,3.811l1.1,1.319a7.682,7.682,0,0,1,1.778,4.909V52.49H38.417v-8.15A7.616,7.616,0,0,1,39.7,40.1Z" transform="translate(-6.09 -2.299)" fill="#e6e6e6"/>
  <path id="Path_8783" data-name="Path 8783" d="M59.656,24.4H58.649a2.337,2.337,0,0,0-.1-.242l.711-.712a.851.851,0,1,0-1.2-1.2l-.711.712a2.336,2.336,0,0,0-.242-.1V21.851a.851.851,0,1,0-1.7,0v1.007a2.336,2.336,0,0,0-.242.1l-.711-.712a.851.851,0,1,0-1.2,1.2l.711.712a2.336,2.336,0,0,0-.1.242H52.851a.851.851,0,1,0,0,1.7h1.007a2.336,2.336,0,0,0,.1.242l-.711.712a.851.851,0,1,0,1.2,1.2l.711-.712a2.334,2.334,0,0,0,.242.1v1.007a.851.851,0,1,0,1.7,0V27.649a2.335,2.335,0,0,0,.242-.1l.711.712a.851.851,0,1,0,1.2-1.2l-.711-.712a2.336,2.336,0,0,0,.1-.242h1.007a.851.851,0,0,0,0-1.7Z" transform="translate(-11.166 -4.837)" fill="#e6e6e6"/>
  <path id="Path_8784" data-name="Path 8784" d="M52.656,5.4H51.649a2.337,2.337,0,0,0-.1-.242l.711-.712a.851.851,0,1,0-1.2-1.2l-.711.712a2.336,2.336,0,0,0-.242-.1V2.851a.851.851,0,1,0-1.7,0V3.858a2.336,2.336,0,0,0-.242.1l-.711-.712a.851.851,0,1,0-1.2,1.2l.711.712a2.337,2.337,0,0,0-.1.242H45.851a.851.851,0,0,0,0,1.7h1.007a2.338,2.338,0,0,0,.1.242l-.711.712a.851.851,0,1,0,1.2,1.2l.711-.712a2.337,2.337,0,0,0,.242.1V9.656a.851.851,0,1,0,1.7,0V8.649a2.336,2.336,0,0,0,.242-.1l.711.712a.851.851,0,1,0,1.2-1.2l-.71-.712a2.338,2.338,0,0,0,.1-.242h1.007a.851.851,0,1,0,0-1.7Z" transform="translate(-10.121 -2)" fill="#e6e6e6"/>
  <path id="Path_8785" data-name="Path 8785" d="M18.656,5.4H17.649a2.335,2.335,0,0,0-.1-.242l.712-.712a.851.851,0,1,0-1.2-1.2l-.712.712a2.336,2.336,0,0,0-.242-.1V2.851a.851.851,0,1,0-1.7,0V3.858a2.336,2.336,0,0,0-.242.1l-.712-.712a.851.851,0,1,0-1.2,1.2l.712.712a2.336,2.336,0,0,0-.1.242H11.851a.851.851,0,0,0,0,1.7h1.007a2.336,2.336,0,0,0,.1.242l-.712.712a.851.851,0,1,0,1.2,1.2l.712-.712a2.336,2.336,0,0,0,.242.1V9.656a.851.851,0,1,0,1.7,0V8.649a2.336,2.336,0,0,0,.242-.1l.712.712a.851.851,0,1,0,1.2-1.2l-.711-.712a2.335,2.335,0,0,0,.1-.242h1.007a.851.851,0,0,0,0-1.7Z" transform="translate(-5.045 -2)" fill="#e6e6e6"/>
  <path id="Path_8786" data-name="Path 8786" d="M11.656,30.4H10.649a2.336,2.336,0,0,0-.1-.242l.712-.712a.851.851,0,1,0-1.2-1.2l-.712.712a2.336,2.336,0,0,0-.242-.1V27.851a.851.851,0,1,0-1.7,0v1.007a2.337,2.337,0,0,0-.242.1l-.712-.712a.851.851,0,1,0-1.2,1.2l.712.712a2.336,2.336,0,0,0-.1.242H4.851a.851.851,0,1,0,0,1.7H5.858a2.336,2.336,0,0,0,.1.242l-.712.712a.851.851,0,1,0,1.2,1.2l.712-.712a2.336,2.336,0,0,0,.242.1v1.007a.851.851,0,0,0,1.7,0V33.649a2.336,2.336,0,0,0,.242-.1l.712.712a.851.851,0,1,0,1.2-1.2l-.712-.712a2.336,2.336,0,0,0,.1-.242h1.007a.851.851,0,1,0,0-1.7Z" transform="translate(-4 -5.732)" fill="#e6e6e6"/>
  <path id="Path_8787" data-name="Path 8787" d="M58.656,46.4H57.649a2.338,2.338,0,0,0-.1-.242l.711-.712a.851.851,0,1,0-1.2-1.2l-.711.712a2.335,2.335,0,0,0-.242-.1V43.851a.851.851,0,0,0-1.7,0v1.007a2.335,2.335,0,0,0-.242.1l-.711-.712a.851.851,0,1,0-1.2,1.2l.711.712a2.335,2.335,0,0,0-.1.242H51.851a.851.851,0,1,0,0,1.7h1.007a2.337,2.337,0,0,0,.1.242l-.711.712a.851.851,0,1,0,1.2,1.2l.711-.712a2.337,2.337,0,0,0,.242.1v1.007a.851.851,0,1,0,1.7,0V49.649a2.336,2.336,0,0,0,.242-.1l.711.712a.851.851,0,1,0,1.2-1.2l-.711-.712a2.336,2.336,0,0,0,.1-.242h1.007a.851.851,0,1,0,0-1.7Z" transform="translate(-11.017 -8.121)" fill="#e6e6e6"/>
  <path id="Path_8788" data-name="Path 8788" d="M12.656,52.4H11.649a2.335,2.335,0,0,0-.1-.242l.712-.712a.851.851,0,1,0-1.2-1.2l-.712.712a2.337,2.337,0,0,0-.242-.1V49.851a.851.851,0,1,0-1.7,0v1.007a2.339,2.339,0,0,0-.242.1l-.712-.712a.851.851,0,1,0-1.2,1.2l.712.712a2.336,2.336,0,0,0-.1.242H5.851a.851.851,0,1,0,0,1.7H6.858a2.336,2.336,0,0,0,.1.242l-.712.712a.851.851,0,1,0,1.2,1.2l.712-.712a2.337,2.337,0,0,0,.242.1v1.007a.851.851,0,0,0,1.7,0V55.649a2.338,2.338,0,0,0,.242-.1l.712.712a.851.851,0,1,0,1.2-1.2l-.712-.712a2.336,2.336,0,0,0,.1-.242h1.007a.851.851,0,1,0,0-1.7Z" transform="translate(-4.149 -9.017)" fill="#e6e6e6"/>
</svg>
