<svg xmlns="http://www.w3.org/2000/svg" width="54.296" height="45" viewBox="0 0 54.296 45">
  <g id="Layer_x0020_1" transform="translate(-0.01 0.011)">
    <path id="Path_8629" data-name="Path 8629" d="M15.058,42.28c0-.1.005-.189.005-.329a2,2,0,0,1,.4-1.111,3.169,3.169,0,0,1,.98-.911,4.068,4.068,0,0,1,2.194-.322c.208.006.424.012.64.012.3,0,.543,0,.751.006a3.367,3.367,0,0,0,.828-.027c.018-.009-.009-.079.009-.255.012-.119.027-.261.05-.413.04-.268.1-.566.157-.869.046-.238.093-.48.132-.711H2.342a2.4,2.4,0,0,1-1.559-.774A2.4,2.4,0,0,1,.01,35.017V2.322A2.4,2.4,0,0,1,.784.763,2.4,2.4,0,0,1,2.342-.011H51.973a2.4,2.4,0,0,1,1.559.774,2.4,2.4,0,0,1,.774,1.559v32.7a2.729,2.729,0,0,1-2.333,2.333H33.109c.039.235.087.48.135.723.064.33.128.657.171.961.025.173.034.31.041.422h0c.009.137.011.164.287.177.412.019.86,0,1.307-.019a5.48,5.48,0,0,1,2.9.359,3.12,3.12,0,0,1,.919.9,2,2,0,0,1,.378,1.075c0,.14,0,.232.005.329,0,.161.009.334.009.449,0,1.049-.177,2.26-1.642,2.26H16.691c-1.464,0-1.642-1.211-1.642-2.26,0-.115,0-.288.009-.449Zm16.39-4.93H22.867c-.048.459-.136.892-.222,1.319-.064.316-.127.629-.171.949h9.369c-.044-.32-.107-.633-.171-.949-.086-.427-.174-.86-.222-1.319ZM52.336,1.908a1.739,1.739,0,0,0-.957-.312H4.217V1.59l-.179,0c-.166,0-.335-.009-.563-.009-.949,0-1.858.149-1.858,1.334V34.429a1.334,1.334,0,0,0,.34.973,1.334,1.334,0,0,0,.973.34H51.385A1.186,1.186,0,0,0,52.7,34.429V2.91a1.22,1.22,0,0,0-.362-1Zm-35.45,39.81a2.773,2.773,0,0,0-.214,1.291.714.714,0,0,0,.041.282l.012.036.036.012a.716.716,0,0,0,.282.041c.352,0,1.513.008,3.013.018,5.444.036,15.706.1,17.525-.1a3.756,3.756,0,0,0,.066-.674h0a1.76,1.76,0,0,0-.2-.893,1,1,0,0,0-.671-.466,1.966,1.966,0,0,0-.444-.046H17.984a1.127,1.127,0,0,0-1.1.493Z" fill-rule="evenodd"/>
    <path id="Path_8630" data-name="Path 8630" d="M1285.15,1149.329h8.564v-1.07h-8.564Zm0-4.282h8.564v-1.07h-8.564Zm0-4.282h8.564V1139.7h-8.564Zm0-4.282h8.564v-1.071h-8.564Zm0-4.282h8.564v-1.07h-8.564Zm0-4.282h8.564v-1.07h-8.564Zm37.465,11.775c1.8,0,3.107-.272,3.746.4-.236,1.013-1.195.669-3.746.669v1.07c2.739,0,4.817.515,4.817-1.739,0-1.96-2.729-1.472-4.817-1.472Zm0-8.563c1.8,0,3.107-.272,3.746.4-.236,1.014-1.195.669-3.746.669v1.07c2.739,0,4.817.515,4.817-1.74,0-1.96-2.729-1.472-4.817-1.472Zm0,4.282h4.014a.879.879,0,0,1,.8.4c-.113.484-.208.669-.8.669h-4.014v1.07h4.415c1.961,0,1.961-3.211,0-3.211h-4.415Zm0-8.563h4.014a.879.879,0,0,1,.8.4c-.113.484-.208.669-.8.669h-4.014v1.07h4.415c1.961,0,1.961-3.211,0-3.211h-4.415Zm-12.31,20.74c0,4.069-.189,3.88,3.88,3.88,1.863,0,1.472-2.371,1.472-3.88,0-1.862-2.371-1.472-3.88-1.472A1.514,1.514,0,0,0,1310.305,1147.589Zm1.07,2.007a7.379,7.379,0,0,1,.134-2.275,2.081,2.081,0,1,1,0,2.944A1.938,1.938,0,0,1,1311.376,1149.6Zm-7.493-2.007c0,4.069-.189,3.88,3.88,3.88,1.862,0,1.472-2.371,1.472-3.88,0-1.862-2.371-1.472-3.88-1.472A1.514,1.514,0,0,0,1303.883,1147.589Zm1.07,2.007a7.379,7.379,0,0,1,.134-2.275,2.081,2.081,0,1,1,0,2.944A1.938,1.938,0,0,1,1304.953,1149.6Zm-7.493-2.007c0,4.069-.189,3.88,3.88,3.88,1.862,0,1.472-2.371,1.472-3.88,0-1.862-2.371-1.472-3.88-1.472A1.514,1.514,0,0,0,1297.46,1147.589Zm1.071,2.007a7.379,7.379,0,0,1,.134-2.275,2.081,2.081,0,1,1,0,2.944A1.938,1.938,0,0,1,1298.531,1149.6Zm24.62-2.007c0,4.069-.189,3.88,3.88,3.88,1.862,0,1.472-2.371,1.472-3.88,0-1.862-2.371-1.472-3.88-1.472A1.514,1.514,0,0,0,1323.15,1147.589Zm1.071,2.007a7.375,7.375,0,0,1,.134-2.275,2.081,2.081,0,1,1,0,2.944A1.935,1.935,0,0,1,1324.221,1149.6Zm-7.493-2.007c0,4.069-.189,3.88,3.88,3.88,1.862,0,1.472-2.371,1.472-3.88,0-1.862-2.371-1.472-3.88-1.472A1.514,1.514,0,0,0,1316.728,1147.589Zm1.071,2.007a7.383,7.383,0,0,1,.134-2.275,2.082,2.082,0,1,1,0,2.944A1.938,1.938,0,0,1,1317.8,1149.6Zm-11.775-15.789c0,1.1,1.915.17,3.077-.135l5.2-1.486c2.917-.906,1.617-2.879,0-4.918-.481-.606-2-2.158-2.927-2.158-1.326,0-1.651,1.084-2.479,2.74-.207.414-.4.748-.6,1.14C1307.947,1129.7,1306.023,1133.248,1306.023,1133.808Zm1.74-.937c.139-.6,1.941-4.016,2.453-5.04.9-1.81.768-1.948,2.289-.772a8.863,8.863,0,0,1,1.725,2.022c1.119,2.036,1.06,1.664-2.72,2.72C1310.294,1132.14,1308.975,1132.589,1307.763,1132.871Zm10.035-6.69v15.254c0,1.961,3.211,1.961,3.211,0v-15.254C1321.01,1124.22,1317.8,1124.22,1317.8,1126.181Zm1.07,14.852v-14.451a.88.88,0,0,1,.4-.8c.484.113.669.208.669.8v14.451a.879.879,0,0,1-.4.8C1319.053,1141.723,1318.869,1141.628,1318.869,1141.033Zm-21.409-7.627a8.883,8.883,0,0,0,2.574,6.792c6.091,6.075,15.623,1.111,15.623-5.855v-.8c-1.9,0-.561.431-1.66,3.157a8.911,8.911,0,0,1-1.583,2.565,7.986,7.986,0,1,1-9.2-12.682c2.37-1.172,3.5-.667,5.087-.667l.134-1.07-2.275-.134a9.068,9.068,0,0,0-8.7,8.7Z" transform="translate(-1279.506 -1119.789)" fill-rule="evenodd"/>
  </g>
</svg>
