<svg version="1.2" xmlns="http://www.w3.org/2000/svg" viewBox="0 0 582 672" width="435" height="502">
	<title>india-map-svg</title>
	<style>
		.s0 { fill: #cbcee3 } 
	</style>
	<g id="India_Map_fill_-_35">
		<path id="Path_1" class="s0" d="m93.1 457.2l0.1-3.6-1.1-5.8 0.4-3.7-1.5-4.4 0.7 0.1-2-6.8v-3.9l-2.1-5-2.4-11.5 1.1-1.9-1.5-2.1 0.2-4-1.5-3.1 1.2-4.7h-1l0.5-4-1.7-5.1 0.2-2.9-1.2-4 1.6-2.2 0.3-2.8 0.9 0.2 1.9-2.1 0.7 0.1 0.4 0.6 0.6-0.3 0.3 0.8 1-0.2 1 0.5 0.8 0.9 0.8-0.1 0.5 0.2h0.4l0.2 0.4-0.2-0.6 0.1-0.5 0.5-0.1 0.3 0.7v-0.3l1.2-1.1h3.4v-0.1l-0.1-4.7 1.7-4.8-0.3-0.3-1-1 0.5-0.3 2.8 2.8v0.1l2.9 0.4 4.4-3.6 0.7-3.2-1.9-3.8-2.3-2.5 1.9-0.4 0.2-2.1 2.5-0.6 0.3-2.2 2.1-1.1 5.3-0.3 0.4-3.9h-0.1v-0.1l-3.2 1.1-2.8-0.7-4 1-0.6-1.3 2-0.3-1.4-4.2 6.2-2.3 3.2 0.6 2.6-1.7 1.1 1.8-0.5 4.3 2.1 1.7v0.1l5.3 1.5 0.9-0.4 3.2 1.4 1 2.1v0.1-0.1l4.5 2.2 14 0.3 2.2 0.5 0.9 2 0.5 4.3h0.1l5 0.6 2.5-2.6 3.2 0.2 0.2-3.6 3.5-3.4 0.1-2h1.6l3.6-2.5 2.9 0.7 1.6-1.6 3.5-0.1 1.2 1.8 0.1 1.9-3.3-0.4 1.8 5.5 7-0.7 2.2 0.9 6.4-2.9 0.1-1.1 3.7-0.7 0.1 2.3 2.3-0.7 4.5 1.4 5.3-0.5v-0.1l-0.3-2.4 6-1.1 0.3-1.2 4.1 0.7 1 3.2 4.5-1.4 2.5 1.6 4.8-0.6 2.3-1.5 3.1 2 0.8 3.6 2.9-0.4 1.7 0.8-1.3 1.8-2.4 0.8-0.9 4.3 1.1 2.5 1.5 0.1 0.6 4.3-3.5 2.3 4.4 0.5-0.7 4.1 0.4 0.9-2.5 0.9-2.1 0.8 0.2 3.3 3 0.8-0.3 2.7-3.5 0.6 6.7 5.9 1.2 1.9 2.6 1.6-1.7 1.8 1.1 1.4-1.1 0.9-2.2-0.4-0.9-2.6v-0.1l-4.9 4.4-2.6 5.8-0.2 0.3 0.2 0.4 1.4 3.4-1.1 1.4h-1l0.1 0.3-2 0.5-3.1-2.4 0.3-0.2v-0.1l-0.3-4.6v-0.3-0.1l-1.2-1 2.4-6.5-1.6-2.4-0.1-0.1-4-2.9-5.7 2.4-3.8-2.3-2 2.8-3.2-1.3-1-2.5h-0.1v-0.1l-2-0.1-0.3-2.2-0.1-0.1-9.7-1.8-4.2-4.1 2.1 5.8-1.6 2 0.4 4.9-2.5 1.3-0.1 2.9-1.8-0.5-2.3-1.8-2.6 1.3-2.5 8.1 0.1 0.1h-0.1l2.4 0.9 1 1.3-1.6 0.5-2 4.7-3.2 0.9-1.8 5.3 0.2 0.6-0.6 0.1-1.4-0.8 0.4-3.5h-0.1l-1.6 0.4 0.3-0.9h-0.1l-2.3 0.3-0.4 1.4h-0.3l-0.9 3.2-1.7 2.2-0.9-0.2-2.5-0.6h-0.2l-1 6.4-4.3 2.8-0.4 1.2-1-1h-0.1l-3.3 1.1-1.5 2.3-2.1 0.2-0.1 4.7 0.3 0.2h-4.2l-3.4 0.7-0.7-1.9h-0.1l-0.1-0.1-2.1 0.9-3.9-2.7-0.1 0.1-0.1-0.1-1.9 3.2 1.6 2.7-0.5 1.7 0.7 4.3-2.5 0.2-0.5-1-0.1 0.1v-0.1l-5 0.8-0.9 1.8-2.2-1.9h-0.1l-4.4 0.1-0.4 3.9-4.9 1.1-0.3 2.5-1.7 0.5-1.4-1.5h-0.1l-0.1-0.1-7.1 3.8 2.7 1.6v3.6l3.4 1.6-0.4 2.3-2.6 5.8-0.4-0.8-2.2 0.2 0.2 0.9-2.9 1.5-0.2 1.4-1.9 0.2-0.6-2.5-5.8 0.2-1.6-3.9-1.6-0.7z"/>
		<path id="Path_2" class="s0" d="m85.6 340.7l-4.3-1.8 3.1-5.1-3.1 0.7 0.7-4.6 1-0.9 3.4 1.3 0.3-2.9-3.4-1.8-2.8 1.6-1.2-2.9-3.4 4.9-0.7 2.1-0.6 0.1v-0.1 0.1l-0.7 0.1 0.1 6.9 0.7 2.5-1.5 3.4-3.7 4.7 0.4 0.9-12.3 4.8-1.5 1.5-5.5 1.6-0.3-0.5-0.9 1-0.7 0.2h-0.3l0.3-0.4-1.4 0.2-0.3-0.3-0.4 0.3-0.8 0.1-3.7-1.5 2 2-0.9 0.3-7.4-3.9-3.7-3-4.7-5.2-8-10.6-7.2-7.5-4.9-6.7 0.6-2.9 2.6 0.1-0.7 1.7 1.9 2.2 6.6-1.6 0.6-1.4 2.6 1.7 1.5-2.3 1.4 1.4 3.5-2.9 4.7-0.2 6.1-8.2 3.1-5.6-4.7 2.2-0.8 1.6-2-1.2-3 1.6h-3.3l-4.5 1.5-1.2 1.4-4.5-1-5-1.8-8.5-6-3-3.1 1.5-3-2-0.7-0.8-2.7 0.1-3 4.2-3.4-2.7-2-0.5 0.6-0.4-0.8 0.7-0.9 4.7 0.4 1-7.2 0.1-0.1 1 2.7 1.7-2 0.8 1.5 2.4-1.1 1.8 0.9 2.6-0.8 5.3 0.3 2.8 2.9 6.6 0.5 2.2-2.7 8.5-1.9-0.2 3.3 3.7 1.4 5.5-1-0.8-1 5.5-2.1-3.2-2v-2.7l1.7-1.1 3.6 1.9 4.1-1.2 3.4 1.2 4.2-0.6 1.4 1.3 2.3-1.5 0.3 0.6 5.6 2.7 1.4 1.2 0.4 3.4 0.1-0.1v0.1l2.5-3 2.1 0.9 0.7 2.3 6.3 0.5h0.1l0.3-2.3 0.5-0.2-0.2 1.5 1.7 0.9-2.1 3.5 3.1 2.4 0.6 3.3 1-1.1 1.5-1.7 0.7 0.7v2.2l-1.2 1.2-0.4 0.5 0.4 0.5 2.5 3.3 0.5 2.7 2.5-0.1-0.7 3.6 4.4 0.4 1.3 2.1 0.1 0.1v0.1l0.4-0.1 1.2 0.3v0.2h0.7l2.2 1.3-0.4 2.3h0.1v0.1l2.8-0.1 1.4 2.6 1.2 3.7h1.4l-0.1 1.2-1.5 3.1-2-0.3-3.6 3.2-1 2.9 1.5 0.4 0.1 0.3-2.1-0.8v0.3l-0.1 4.5 0.8 0.2-0.6 4 0.5 0.9-6.9 2.5 1.3 3.8-2.2 0.4 2.1 4.5h0.1v0.1l4.8-1.3 1.7 0.4-1.8 0.1-3.2 1.7-0.2 1.9-2.5 0.6-0.3 2.1-7 1.7h0.1l-0.1 0.1 5.6 1.2 1.9 2.1 1.6 3.2-0.4 2-3.4 2.9-1.7-0.3-3.4-3.5v-0.1l-3.1 2.4 1.9 1.9-1.4 4.1v0.1 0.6 2.7l-4.6-2.9-5.7 2.1 0.2-4.8v-0.2l1-3-3-10.1v-3.3l-2.1 1.1-0.2-3.6 2.3-5.5-1.1-0.7z"/>
		<path id="Path_3" class="s0" d="m318.2 215.5l2.2 1 0.5 1.2 7 1.2 1 1.9-0.9 4.4 6.9 1.8 1.4 2.5 3.1-0.4 0.4 2.2 3.4 0.5 5.5-3.1 1.4 0.8 0.4 3.8 2.9 2.1 3.6-2.3 3.7 1.4 3.5-0.2 7.1 3.5 3.6-1.1 2.4-2.1 0.5 2.1 3.8 0.8 1.9 1.6 2.8-2.2 2.2 1.3 1.9-1.4 1.8 0.5 2.1-1.7 2.1 2.4 3-2.1 0.1-1.7 0.2 0.3 1.9 2.4-5.1 4.7-0.5 1.1-2.7 1.1-0.3 5.1 1.8 0.3-0.1 1.7 2.9 1.4-0.2 2.2 0.2 0.3-0.5-0.2h-0.1-0.1l-4.1 2.7 0.1 3.3 1.1 0.7-0.3 0.4-4.1-2.6-2.8 1.9-0.1 1.7-2.9-0.4-0.5 3.2-2.4 0.7-0.3 4.6-0.6 0.1-1.2 4.9-1.6-0.2h-0.1l-1.5 1.8-3.6 0.3-1.6-0.8-2.2 1.8-0.9 3-2.3-1.1 0.9-2.9h-0.1l0.1-0.1-4.6-0.5-1.8-4.1-2.3 1.3-1.3-1.3-3.6-0.4-2.1 3.8-0.1 0.1 0.4 1.4-7 1.6-4.6 2.7-2.5 0.8-1.5-3.1-4.2 1.8-0.3 1.3-2.8 0.4v0.1l-0.3 1.1-2.8-2.4-0.1-3h-0.1v-0.1l-3 0.4-1.3 1.3-2.6-3.6v-0.1l-1.7 2.8-3.9 0.9-3-0.2 0.4-2.2-0.5-0.1-1.2-2.5h-0.9l-0.7-0.5-0.1-0.2-1.4-5.1 0.5-3.1 3.3-2 4.9-2.3h0.1l0.1-0.1h0.1l2.6-3.7 3.1-1.8 1-1.5 1 1h0.1l0.1 0.1 0.3-0.1 2.6-0.3 0.2-1.1v-0.1l2.6 1.2h0.1l3.6-3.5-0.1-0.1-2.6-2.6-4.9-1.4-4.6-3.1-0.5-1.7 2.6-0.2 0.1-0.9 0.2-0.3v-2.3l0.1-0.6h-0.1v-0.1l-3.8-1.9h-1.4l2.5-0.5 0.4-1.3 0.1-0.2 2.6 0.1 0.8 0.1 4.8-1.1-1.3-0.9-0.4-1.3-1.9-0.3-1.1-0.6v-3.1l-4.1-0.7-1.3-5.9h-0.1v-0.1l-2.6-3.7-0.3-0.7 3.1-0.2z"/>
		<path id="Path_4" class="s0" d="m177.7 88l-0.2 0.7 4 4.4 2.3 0.3 0.3 1.2 4.4 2.6 4.7-2.6 1.6-0.4 0.6 2 2.7 2.1-0.3 1.4 1.9 3.3 2.8-1.8h1.6l2.7-1.5 0.1 1.2-1.8 1 0.2 1.4 0.3 2.8 1.9-1.5 1.6 1.6-1.8 4.1 3 0.7-0.3 1 3.7 3.6-1.5 3.9 0.8 3.2 1.2 1-1.7 1.7 1.1 3.6 2.4 3.2v1.4l-0.9-1.3-4.2-0.9-2.3 0.7-3.3-2.1-5.7 2.9h-2.7l-3.6 4.9h0.1l0.9 2.3-2 2.5 0.1 0.1 2.1 4.3-0.1 0.4-3.8 1.8-0.7-0.9h-0.1l-0.8 0.3-0.9-0.5 0.5 0.7-0.7 0.3-1.1-1-2.3-0.4v-0.3l-1.2-0.8 0.3-1.7 1 0.5-0.9-1.7 0.1-0.5-0.3-0.1-0.8-1.5-0.3 1-1.6-0.8-2-3.7-2.9-0.3-2.3-1.8 0.3-2.3-0.9-2.8-2.5-1.9-2.2-3.5-1.7 2.6-1.2 0.2-0.2-1.3-2.7-5.7-1-2.8h1l-1.8-4.4-0.1-0.1-4.3-2.9-0.3-2.5 1.7-0.5 4.5-3.5-1.5-2.4 0.3-1.3 1.1-1.4-0.1-3.1v-0.1l-1.7-2.5h0.1l1.4 1.1 3.4-2.8 2.8-0.5 2.9-3.2 2.5-0.4 1.5 1.2z"/>
		<path id="Path_5" class="s0" d="m262.1 200.5v2.2l2.5-0.9 0.8 1.5 4.5 2.2 5.1 3.4 1.2-2 1.3 0.1 7.7 5.5 4.3-0.9 0.8 4.6h4.2l2.6 1.1 2.4-0.1 2.8 3 2.8-2.3-0.2-1.3h3.1l4.9 2.5 2.3 3.4 1.6 6.7v0.1l3.8 0.6v1.9l-0.4 0.5 2.5 1.6-0.7 0.1h-0.5l-3.9-0.8-0.5 1.9-3.2 1.1h-0.1l0.2 2.9v0.1h2.7l2.6 1.2-0.2 1.6-3.2 0.2v0.1l1.2 4.3 5.3 3.4 4.8 1.5 1.1 1.1-1.6 1.6-1.4-0.8-0.7-0.3-0.3 0.1-1.4-0.5v1.1 0.2l-1.3 0.6-1.7-1.7-1.9 2.9-3.1 1.7-2.5 3.5h-0.1l-0.9-1.4-0.4 1.7-3.5 2.2-2.5 1-1.6 1.4-0.7 4.1v0.1l1.7 6 0.4 0.4 2.4 2.5-0.3 1.2-0.6 0.1 0.1 0.3-2.2 0.6 1.2 3.4-2.2 5.6-3.6 4.5-2.9 0.3-2.6-1.7-1.6-3.4 0.8-5.6v-0.1l-1.1-0.3 0.1-2.3 2.1 0.1v-0.1l-1.3-3.5-2.6-1.5-2.9 1.1-3.4-0.9v0.2l0.1 1.6-1.7-0.8 0.3-1.8v-0.1l-7.2-2.9v-2.9l-2.9-0.1-3.4-1.1-0.1-3.3-3.1 2-4.9-1.1-0.1 2.9-2 2.8-0.7-0.8-4 0.4-0.4-6.1v-0.1l-2.8 1.5-2.2 1.1-0.4-0.2-2.1 0.8-0.2-0.5-1.6 1.1-0.9 0.3 0.2-1.1 2.2-1-3-3.3 0.3-2.5-3.1-0.7-0.5-0.1-0.3 0.4-1.1 1.3h-2.3l-0.6 1.8-3.2 0.7v0.1l-0.3 2.5-5.2-1.4-1.2 1.8-0.8-0.3q-0.2-0.1-0.4-0.3-0.2-0.1-0.4-0.2-0.2-0.2-0.4-0.3-0.2-0.1-0.4-0.3c0 0-1.9 0.2-1.9 0.2l-1.9 0.4-5.1-4.8-3.6-2.2-3.2 0.1-1.8 1.6v0.1l1.9 9.7 2.8 2.4 0.1 6.8 2.6-1.1 1.5 3.5-1.9 3.9-1.3 0.6-5.9-5-1.7 2-0.2-1-1.9-1.5 0.2-4.7-1.8-4.3 3.1-2.4v-1.8l2.8-1-3.2-5.7 2.1-3.2 1.1-0.7 3.3 0.4 4.2-1.6-1.3-3.1 3.4-4.1 1.8-3.9-1-0.9 3.6-4.1-0.1-2.8-2.9-3.3 0.2-2.4-2.9-0.7-2.6-2.1-3.5 0.8-4-2.6-1.7 0.4 0.8-1.5-3.9-1-1.2 1.4-3.3 0.2-2.1-0.9 1-0.4-0.3-0.1 0.2-0.1-4.6-2.1 2.5-2.4-0.1-0.2-2-3-0.2-0.3-0.1-0.2-2.8-1.7-1.4-2.2 0.1-2.8-1-3.1 3.4-1.6 1.8-2.9v-0.1l-1.1-1.2 1.4-4.9v-0.2l-1.4-0.3 0.4-1.5v-0.1l-3-3.6-0.2-4.5-2.3-1.8v-0.3h0.4l-0.5-1.1 0.7-3.3-1.8-2.3 0.3-8.3-0.6-2.5 1.9-6.3 2-3 2.5-1.1 3.4-4.7v-0.9l4.7 2.5-3.5 5-0.7 3.1v0.1l2.6 5.4 2.1-0.9 2.3 3.1 6.1-4.8 2.2 0.9 0.3 1.6v0.2l3.8 3.5 2.6 1-3.4 2.6 0.1 0.1-0.1 0.1 3.5 1.7 1 2.2 2.8 1.6 0.7-1.3 1.2 0.6 0.5 2.3v0.2l3.8 1.1 0.9 2.7 5.5 0.3 2-0.8 2.6 3.3 2.2 0.6 1.3-2.5 3 1.5 2 2.5 4.5 2.5-0.4-2.9 1.8 0.4 2.3 2.5 2.5 0.7 4 2.6 1.9 0.4z"/>
		<path id="Path_6" class="s0" d="m225.7 560.4l1.3-2.7 4.1 0.8-0.3 0.6-1.5 5.4-3.2-0.9z"/>
		<path id="Path_7" class="s0" d="m104.4 488.4l0.6-1.7-1.1-4.2h-0.1l2.8-0.5-5.3-3.2-1.4-3.8 3.9-0.1 0.6 2.6 3.9-0.4h2l-0.1 2.9 1.4 4.2-1.9 1 1.6 1.8-0.4 2.6-1.7 2.2-1.5 0.3-0.7-1.6z"/>
		<path id="Path_8" class="s0" d="m237.5 548.8l-5.6 8.2-5.8-1.1-2 4.2 0.5 4.8 4.4 1.2-0.3 3.9 1.6 4 0.2 7.3-3.6 0.5v0.1l3.6 4 0.5 11-1.5 0.1-8.6-1.1-3 2.2-1.3 3.6 0.7 1.3-5.6 6.7-2.4 6.4 2.8 2.8-7.1 1.9-2.2 1.4-3.3 0.4-5.2 3.6-2 7.6 0.1 2.9-1.8 2.7-4.8 2.4-1.9 1.7-3.3 0.6-0.6 1.2-4.5-0.9-3.6-2.8 0.8-0.3 2.7-5.5-2.4-4.4 1.9-3-2.3-3.1 2.4-2.6 0.4-3.4 3.1-4.7-1.7-3.1-3.4-0.1 0.8-1.8-0.1-3.1 1.4-2.3-1.5-3 2.2-2.4v-0.1h0.1l-3.7-4.2-4.5 3.1-2.3-1.4 0.3-5.8 1.6-4.5h-0.1v-0.1l-2.1-2.5-2.8-1 1.4-2.3h0.1l-1.5-3.3-4.6-0.8 2-3.1-5.4-3-1.5-0.1-0.1-0.6h0.8l3.3-2.3 0.8-0.4 0.9 1.6 7.6 0.4v-0.1h0.1l1.1-3.9 3.8 0.5 3.9-0.8 3.4 1.3h0.1l1.6-4.2 3.8-0.4 2.9-4.3-1.5-2.1-5.3-0.7v-0.2l3.2-2.1-0.8-3 0.3-3.3 2.9-0.1 2.1-4.4 1.5-0.2 2.2 1.3 1.9 1 2.2 0.5 3.1 3.1 2.9-0.1h0.1l0.5-1.8 1.2 1 2.2-6.6-0.2-1.1 1.4-1.2 5.6-0.3 4.1 1.7 2.3-3.2 2 0.5 2.1-1.7v-0.1l0.5-2.1 0.4 0.3 1.2 0.8 6.3 0.7-0.7-2 3.2-0.7 0.9-2.7 1.7-1.5 3.9 2.1v-0.1l0.8 3.2-1.8 7.2-0.1 3.8z"/>
		<path id="Path_9" class="s0" d="m137.9 565.5l0.5-1.3-0.4-0.2 0.5-1h-2.1l-0.1 0.3-2.3-2.2-3.2-4.4-0.5 0.3-2.1-5.6-4.3-9.7 0.7-0.1-0.1 0.7 4.1 1.7 1.2 2 3.1 2.7 1.4 3.5v0.1l6.6 5.5 1.5-0.1 1.7 2.8 3.3 0.5 1.5-0.6-0.1 2.3 2.3-0.3 3.3 3.1 1.1-0.3 0.1 0.6-2.2 1.6h-2.2v0.1l0.5 3.9 2.5 0.1 3.6 1.9-2.4 3.7v0.1l6.2 1 0.7 1.6-2.2 3.3h0.1l4.3 1.6 1.3 1.5-1.3 3.7-0.4 7.2v0.1l4.1 2.4 4.2-2.9 1.6 2-2 2.3v0.1l1.6 3-1.2 2 0.1 3.2-1.6 3.6 4.9 0.2 0.7 1.4-2.7 4.3-0.4 3.2-2.9 3.2 2.4 3.3-1.5 2.4-0.3 0.4 0.6 1.1 1.9 3.4-2.1 4.3-1 0.4-2.4-2-7.7-10.2-1.9-3.1-3.9-9.4-1.9-12.1-4.4-12.6-2.9-6-1.4-7-2.1-5.6-2.5-2.8-1.5-4.1z"/>
		<path id="Path_10" class="s0" d="m318.1 324.5l-1.5-0.6 1 1.5-0.4 0.6 1 0.4 0.3 0.5-0.5 1.3-2.6 0.6-2.3 2.3v0.1l-2.2 0.4-2.6 4.5 1.4 3.2-1.2 2.2-3.2 4.2-0.8 3.1 0.4 1.9-1.8-0.6v0.1h-0.1v3.3l-1.3 2.5-0.9 0.5-3.2-1.6-3.7 1-3.9-0.3v0.1h-0.1l-0.3 2.9-3.5 3.9-0.8-0.6-1.5-1.6 0.2 2.2 0.4 5.3-1.1 2 2.4 3v2.8l-1 3.1 0.5 2.8 6.5 1.4-0.2 2.3-0.5 0.3 0.2-1.1-4.4-1.2-0.1 0.1-1.6 1.2-1.4-2.7-2-0.1-5.5-2.9-0.1 0.1-2.2 2.3v3.6l4.1 2.3-0.1 5.4 1.6 2.6 2.4 10.4-1.1 0.3v0.1h-0.1l-0.2 2.4-4.3 2.5h-0.1v2.2l-3.7 3.6-5.3 3.6-0.1 2.6-1.8 6-0.6 1-4.6-1h-0.1l-2 1.2-0.3-0.3-0.6-6.4 0.1-0.4-0.2-0.6v-0.8l-2.7 1-2.5-4.3-0.2-0.7-1.8-3-3.6-2.9h-0.1l-2.8 0.8-0.8-1.4 5.2-1.3h-4.7l0.8-1.1 0.1-0.1-1.7-3.9 2.3-5.2 2.9-2.5 0.4 1.2 3.9 0.7 2.8-2.2-1.1-1.7 2.1-2.2-3.9-2.4-1.1-1.7-4.4-3.9 1.4-0.3 0.4-4.6 0.1-0.7h-0.1l-0.6-0.2-2.5-0.6-0.1-1 0.9-0.4 4.3-1.5-0.9-2 0.9-5.4-1.6-0.1 0.6-0.4-1-6.7h-1.8l-0.5-1.1 0.6-2.9 2-0.7 1.8-2.5 0.1 0.1 0.3-0.7 0.5-0.7h-0.1l1.3-2.6-0.5-4.2 1.5-1.2 0.3 0.1 0.1-0.4 0.1-0.1 1.4-6.5 0.7 0.1 0.8 1.9 0.4-1.8h0.1l1-4.4 2-1.5-0.1-2.9 1.7-0.2 1.6-1.3 1.7 2 0.5-0.6 1.5-1.1 2.9-1 1.8-2.5 0.6 0.5 1-1.2 0.1-0.4v-1.5l0.4-0.5-0.3-2.2 3.4-1.8v-0.5-2l3.5-0.6 1.7-5.9h-0.1l0.1-0.2-0.4-0.2-2.1-1.6-2.1-0.4v-0.2l-0.9-1.6-0.4-0.9-2.8 0.2-1.6-0.9-1.1 0.8-0.6-0.8 0.3-0.6 1.5-1.9-0.4-0.6 0.2-0.3-0.4-0.4-0.2-0.1-1-2.1 0.2-0.1 3.1 2.6 2.2-1.5 2.4 1 10.7 0.5 0.2-0.2 3-2.7h0.9l1-0.8 2.7 1.8 4.2-0.5 3.7-4.5 2.7 1.2 1 3.5 2.1 0.5 1.4 1.7 1.1 3.8 4.8 0.6-1 4.1 2.2 0.9-0.8 3.8 2.2 1.6 0.6 3.1h0.3l3.7-0.3-2.1 4.8-3 1.2z"/>
		<path id="Path_11" class="s0" d="m219 344.7l-6.6 1.2v0.1l0.3 2.2-3.2 0.4-4.7-1.5-0.8 0.3-0.1-2.1-6.8 1.2v0.1l-0.1 1.3-4.9 2.2-1.9-0.7-6 0.6-0.6-1.9 2.6 0.4v-0.1 0.1l-0.2-4.3-2-2.9-4.9 0.2-0.2 0.1-1.2 1.2-2.8-0.7-3.8 2.7h-2.6l-0.2 2.9-3.6 3.4-0.1 2.6-2.2-0.2-2.5 2.6-3-0.3-0.3-3.1-1.4-3.2h-0.1l-3-0.7-14-0.3-3.5-1.7-1-2.2-4.6-2-0.9 0.5-4.4-1.3-1.1-1 0.5-3.9-2.4-3.7h-0.1v-0.1l-3.4 2.2-2.4-0.3-0.6-0.9 0.8-4.8v-0.1l-1.1-0.2 0.1-1.1v-0.2l1.8 0.7 3.1-3.1-2.7-0.7-0.1-0.3-0.7 0.1h-0.4l0.3-0.8 2.7-2.4 2.4 0.3 2.3-4.5 0.1-3.2h-0.1 0.1-2l-0.7-2.4 0.7-0.5 3 0.4 4.6-3.6-3.6-2.5 0.6-1.3 0.4-0.3 4.8-2.2 0.6-0.1 2.3-4.4-0.4-3.9 1.8-2.7-0.6-1.4-1.2-2.8 0.2-0.1v-1l-0.6-0.8-0.4-0.1-0.2-0.5-1 0.1 1.6-3.4-2.8-1.5 2.7-3.2 0.2-3.4-0.1-0.9 0.7 0.8h0.2l4.6-0.1 0.1-2.3 1.2-0.9h1.6l-0.6 2.7-1.7-1.2v0.1l-0.1-0.1-0.1 5.1 8.8 1.5h0.1l2.5-1.4 1.1 0.4 0.1 1.9 1.3 1.3-0.2 1.4-1.9-0.6h-0.1l-1.6 2.7 1.6 3.4-2.1 2.7 1.9 0.8-0.6 0.9-1.5-0.6h-0.1l-1.9 0.6-1.6-1.6v0.1-0.1l-2.1 4.5 4.9 3.5h0.1l2-1.5 5.6-1.5-0.2-2.2 3.5-1.4-0.1-2.8 0.2-0.4 0.2 1h0.1l3.2-0.7 3.7 2.2v-0.1 0.1l1.9-2 3.1 2.8 3-0.1 1.5-2.3-2.2-3.9-0.3-2.4 3.3 1.2 1.7-4.8-2.3-3.3h-0.1v-0.1l-2.3 0.1-0.2-0.3 3.3-1-2-2.5 0.1-0.8 3.5-0.4 1.8-1 2.6 0.7 2.4-1.1 0.6-3-2.5-6.3-0.1 0.1v-0.2l-2.6 3.5-2.3-0.6-2.7 0.8-0.2-0.2-0.6-0.3-2.5 0.1-2.9-1.6-1.3-2.7 0.3-5.4 2-2 3.2-0.7 2-3.4 6.2-2.9h0.1l4.5-3.5 1.9-0.1 9.4-6.1 2.2 0.8v-0.1l0.5-2.9 2.1-0.9 2.4-0.5 4 2.5h0.1l3.4-0.7 2.3 1.9 1.8 0.4-0.1 1.6 2.9 3.4 0.1 1.7-4.2 4.8 1.3 1.1-1.2 2.5-4 4.8 1.1 2.5-2.3 0.8-3.4-0.4h-0.1l-1.8 1.3-2.8 4.2 2.7 5-2.1 0.7 0.1 2.1-3.5 2.7 2.1 5.1-0.1 5.2 2 1.6 0.6 3.7 3-3.3 5.5 4.6 2.7-1.3 2.6-5h-0.1l0.1-0.1-2.6-5.8-1.7 0.8-0.2-5-2.9-2.5-1.5-7.9 2.9-1 5.3 4.1 2.6 3.3 4.3-1 0.1 1.3 1 1.8v0.1l1.5-1.7 0.9 0.4 1.3-2 5.9 1.6v-0.1l0.5-3.2 3-0.7 0.4-1.5h1.9l1.3-1.7 1.2 0.3-0.2 1.8 2 2.2-0.9 0.4-1.2 4.9 2.7-0.9-0.2 1v-0.1 0.1l1.4-0.5 2.2-1.3h-0.1l-0.6-0.2v-0.1l0.4-0.1 1.1-0.5 1.4 1.1 2.9-0.9 0.2 3.5h0.1l4.7-0.4 1.5 1.8 3.5-5 0.1-1.4 3.6 0.9 1.3-0.9 0.1 1.6h0.1l4.5 1.6 1.6 0.1 0.1 2.5 6.9 2.7-0.4 1.8v0.1l5.5 2.4v-0.2l-0.2-2 1.8 0.5 2.6-1 1.4 0.8 0.2 0.5-1.3-0.1-0.2 5.4v0.1l1 0.2-0.6 4.6v0.2l1.5 3.2-1 0.5h-0.9v0.3l-0.6 0.3-2.1 2.3-9.6-0.4-2.9-1.3-2 1.3-3.1-2.5-2.3 1.4v0.1h-0.1l0.3 0.6 1 3 0.3 0.1-0.6 1.4-1.5 1.9 2.1 3.4 1.4-1.2 2-0.1 0.7 0.5 1.5-0.4 0.7 1.5v0.4l0.2 0.2 0.1 0.1 0.7 0.6 0.3-0.3 2.9 1.4-1 3.8-3.8 0.7v2.8l-3.6 1.9 0.1 0.5v2.5l-2.4 2.8-3 2.4-0.9-0.1-0.5 0.6-1.2-1.4-0.1 0.1-0.2-0.2-0.4 0.4-1.9 0.5-1.1 0.2-1.3 1.1h-0.5v3.6l-1.8 1.4-0.4 1.8-0.1-0.3-1.9 1.8h-0.3l-0.1 0.4-0.1 0.1-1.4 6.4-1.3-0.2-0.9 2.4v0.1l-0.1 0.2 0.5 4.4-1.1 2.1-2.2-1-1.9 0.2-0.6-2.8-4.6-3-2.8 2-3.9 0.4-2.6-1.7-3.7 1.2-0.9-2.6-6.5-1.2z"/>
		<path id="Path_12" class="s0" d="m396.7 269.1l-2.2 4.1 1.4 1 0.1 2-2.2 0.6 0.5 4-0.8 1.9-2.5 1.6 0.9 2.1-2.5 1.3-1.7 2.2-5.9-1.2 0.1 0.1-0.3-0.1 2.4 2.9-0.5 1.3-2.5-0.3h-0.2l0.3 1.3-4.3-1.3h-0.1l-2 2.2-0.4 2.2-0.9-0.1h-0.1-0.1l-3.7 1.7h-1.8-0.2l-2.1 2.5v1.5l-1.6 0.4-0.9-0.5v-2.1l-4.1-0.6h-0.2l0.4 2.2-3.4 0.6-0.7 7.4 2.3 1.8h0.2l2.4-0.4 3.5 3.2 5.1-0.1-1.3 4.3 4.9 2.7 0.4 2.1 2.1-0.1 0.3 3.2 1.8 0.5 0.6 2-2.2 0.6-5.8-1.8-2.7-2.3-4-1.3-1.9-2.3-0.1 0.2-0.2-0.2-2.8 4.1 1.6 0.9 0.2 1.9-1.1 1.7 1.3 1.3-2 3.6-1.1-0.2 1.4-3.6-0.4 0.2 0.1-0.2-4 2.4-5.6-2.1h-0.1-0.2l-3.3 2-0.2 0.6-0.3-0.3-2.8-0.8 1-4-1.1-4.8-0.3 0.1v-0.1l-3.5 1.7-2.9-0.4h-0.2-0.1l-5.5 0.8-1.6 1.5-2 0.3-2.5-1.4v-1.2l-2.4-0.9 0.9-1.5 3.1-1.3 3.4-7.9h-0.3l-4.9 0.4-0.4-2.3-1.9-1.4 0.8-4.1-2.2-0.9 1.2-4.5-5.5-0.7-0.9-3.1-2-2.3-1.7-0.4-1-3.4-3.5-1.4 2.2-5.7-0.8-2.3 1-0.3 4.5 0.4 4.8-1.2 0.8-1.2 2.2 3.1 0.1 0.1 2.2-2.2 0.7-0.1 0.1 2 0.5 0.4 3.2 2.8 0.2 0.7 0.8 1 0.2-0.2 0.1 0.2 0.3-0.3h0.1v-0.1 0.1l0.1-0.2 0.9-0.9-0.6-0.5 0.3-1.1 2.8-0.4v-0.1l0.4-1.5 2-0.8 1.4 2.9 3.9-1.3 4.6-2.6 8.6-1.9v-0.1l-0.7-2.5 1.2-2.2 2.1 0.3 1.8 1.6 1.7-0.9 1.5 3.3 3.5 0.4-0.7 2.3h0.1l-0.1 0.1 5.4 2.5 1.2-4.3 1.1-0.9 1 0.6 4.8-0.4 1.3-1.6 2.2 0.3 1.3-5.4 0.9-0.2 0.3-4.6 2.2-0.7 0.5-2.7 3.1 0.5 0.1-2.7 1.2-0.8 3.4 2.1-0.1 2.7z"/>
		<path id="Path_13" class="s0" d="m407 198.5l3.6 1.4 1 2.1-0.4 4.7-1.5 2.6 1.3 4.1 1.7 1.2-1.6 1.4-0.7 1.7-3-0.8-3 2.7-2.1-0.7h-4.3l-1.1-1.1 0.7-2.4-0.5-3.4 1.7-3.8 1-5-1.5-0.5v-0.7l4.6-0.6z"/>
		<path id="Path_14" class="s0" d="m256.4 430.8l-3.5 1.5 3.5 5.7 2.5-0.1 2.8 2-1.7 0.8-0.2 1.6-3.4 1.3-2.3-0.6v0.1l-1 3.4-2.9-0.3-3.1-1.8-2.2 2.5-1.4-1.7-1.4 4-0.6-1.5-2.4-1.1-3.4 2.1-1.7 3.1v0.1l1.6 1-0.7 1.1-1.1 1.5-3.3-1.9-7.8 3.3-4.7 1.6-0.2 6.1-0.5 0.3-3.3-0.6-3.2 1.6 0.3 1.6-2.4 1.6-3.6-1.8h-0.1l-1 1-3-0.6-4 1.5h-0.1l-0.2 2.2-2.4 1.8-4.2-1.4-0.3-0.1-0.3 0.1-1.7 0.6-5.4-1.2-0.3-6.2 2.8-2.3-3.3-1.6-4.1-0.7h-0.1l1.7-0.2 2.8-2.8-1.1-1.9 1-2.4-0.2-2.9 1.1-2.2-1-2.9-1.6-0.7v-0.9l3-3.1 0.3-1.4 4.2-0.9-3.3-3.2-2.6-0.5 0.1-1.4 4.7-7.2-1.8-1 0.6-0.6-0.2-0.8-0.7-3.6v-0.1l-0.3-1.4-0.2 0.1v-0.1l1.3-3.9 3.2-0.8 2-4.8 3-1-2.7-3.6-0.1-0.1-1.2-0.4 1.8-6 1.1-0.5 1.7 1.4 4.1 1 0.1-3.9 2.7-1.4-0.4-5.3 1.8-2.2-0.2-0.5 8.6 1.7 0.2 2.2 0.1 0.1 2.4 0.2 0.9 2.2h0.1v0.1l5.2 2.1 1.7-2.7 3.2 2 5.7-2.3 3 2.1 0.9 1.4-2.4 6.7 0.1 0.1h-0.1l1.5 1.4 0.2 3.3-1.5 1-0.1 0.1 5.8 4.4 3.2-0.9 1.6 2.9 3.3-1 2.6 2.1 5.1 9v-0.1l0.1 0.1 1.7-0.7v1.7l0.8 4.8z"/>
		<path id="Path_15" class="s0" d="m519.1 202.9l2.6-1.6-0.1-0.2-0.5-0.7 3.5 0.3 5.7-3.1 2.6-2.1 8-3.8 1.5 0.5 3-1.4 1.5-1.9 5.2-0.7-2.9 4.5v0.2l1.4 3.4 1.5 0.9-0.3 3.4 0.1-0.1-0.1 0.2 2.8-0.7 0.3 0.3-2 1.4-4.9 2-1.7-1-1.4 3.9-3.5 2.5-0.3-0.1-0.4-0.9-0.6 0.8-0.9-0.2 0.3 0.8-1.4 1.8-4.1 0.9-1.6 3.3-1.9 1.6-3.2 1.1-2.2 2.3-1 2.2-0.7-1.8-0.1-0.1-2.7 4-0.1 2.5-0.9 0.3-1.7 3.7-0.8 5.4v0.1l0.4 0.6-2 1.6-1-4.5-0.1 0.1v-0.1l-2 4.8-7.5 8.2 0.1 0.1 3.2 2.4 0.5 2.2-1.2 1.1-3.3 10.3-1.9 0.1-0.2 4.3-1.1 5.1-2.4 0.3-2.2-3.7-0.1 0.1v-0.2l-1.7 5.4-1.1 0.4-2.2 3.5-0.6-1.5h-0.1l-0.1-0.1-2.7 0.3-0.6-0.8 0.5-1.4-1.3-2.8-0.4-3.6 1-2.8-0.9-1.4 0.5-0.4 1.4 0.9 3.7-0.5-2-3.9 1.2-1.9 1.8 0.3 4.2-3.1-0.4-2 0.1-0.3-3.1-2.8-0.8-0.8-0.7-0.6 1.9-3.4-2.8 0.8v-0.2l-4.5-3.5-3.7 2.1-0.4-1.9 1.4-2.7-1.1-0.9 3.8-4.1 0.1-0.2-9.7 2.8-2.7-2.4-2.5 2.2v0.1h-0.1v2l-0.9 0.2-1.5-2.8v0.2l-0.1-0.2-0.8 2.2-1.3 2.9-2.6 0.6-0.8 1.1-0.4 0.6-0.4-1.7-4.2 0.8-1-2.4-5-0.2-2.2 1-3.1-1.9-7.8 2-4.3 5.5-0.4-1.1 1.4-3.1-1.9-1.4-1.9-3.4 0.3-2.4 1-0.3h-0.1 0.1l-0.1-0.1h1.3l-0.8-1.2 0.7-0.1 0.1-6.1v-0.1l-0.4-1.3 6.3-1.7 0.6-2.1 2.9-1 5 2.4 8.7-0.8 0.6-0.8 4.9 0.5 1.2-1.2 1.2 0.7 5.4-1 3.1-2.5 3.4 1.3 1.1-1.2 1.4-0.1 5.1-2.1 3-0.2 1.3-1.8 3.8 0.2 3.2 1.9 6.7-1.8 2.5 0.4 4.5-1.3 3.5-3.3-0.1-0.1h0.1l-0.8-1.6z"/>
		<path id="Path_16" class="s0" d="m105.6 15.2l1.2 0.2 6.2-4.1 2.8-3.5 0.3-1.3 4.9-0.7 4.6 1.6 4.8-0.3-1-3.1-2.3-1.2-0.1-0.3 1.9 0.4 3.3 2.5 2.5-2.1 1.5 0.4 3.1-2.1 3.2 1.4 0.3-2.7 1.4-0.3 1.6 1 1.7 3.3 2.2-1.5 1.3 0.7 2.6-2.1 1.3-0.1v0.9l2.3 4.4 2.3 1.2 2.1 3.9 3.2 2.3 2.7 0.7 3.3 3.2 1.6-0.2 1.2 2.3 3.8 1.6 2.2 2.6-1.4 1.9 1.7 3 2.8 1.8 3.1-0.1 0.9 1.4 3.4 0.4 1 1.3 0.1 4.5 6.5-0.2 0.1-0.6 2.7 1.2 1.3-2.6 3 1.1 2.8-4.4 2.3-1 1.8 0.5 2.7-2.1 5-0.6 3.7 1.4 2-3.5h1.6l0.5 1.8 6.3 2.4 2.6 0.6 2-1 1.8 3.1 3.1 1.6 0.5 2.3-2.7 6.6-0.2 4-1.9 3.6v2l-3.5 0.5-2 1.8-0.1 2.7-5.5 0.1 1.6 2.5 0.3 3.1-1.1 0.5-1.6 4-3.4-0.7-3.9-0.1-2.8 2.3 3.2 7.2-2.9-0.4 0.2 5.6 1.3 2.8 8 1.6-2.2 5 2.8 2.5 2.6 3.6-2.7 3.4-2.3-1.2-4.2 3.1-0.3 1.8-1.7 0.6-2.2-1.7-1.1-6.9-3.6 2.8-1.6-0.3-1.4 1-0.4-4.8-4.5 2.6h-1.7l-1.8 1.1-0.7-1.3 0.3-1.8-3-2.4-1-2.9-3.1 0.8-4.2 2.3-3-1.8-0.4-1.7-2.8-0.3-3-3.3 0.3-1.1 0.6-0.2-0.4-0.5 0.4-1.3-1 0.4-2.7-3.7-7.2-4-3.2-9.3h-3.9l-7.4-6.4-4.2-14.2h-0.1l-4.5 2.9-5-3-2.4-4.2-0.3-0.6-0.5 0.2-3.5 1.1-2.7-2.7h-0.1l-0.5-0.6-0.1 0.1-3.5-2.3-3.1-0.5-0.1-2 1.9-2.1v-2.3l-3.2-1.5-4.1-0.1-4.1-3.4 0.6-3.1-5.2-0.7-1.4-1-2.6 1-1.8-1.4 1.3-2.3-1.1-1.1z"/>
		<path id="Path_17" class="s0" d="m541.4 216.9l-4.4-0.4 4.1 1.7-2.7 5 1.7 1.9 0.6 6.8 0.8 0.2-2.7 4.6 1.1 2.2-1.8 2.1-2.1 4-2 0.8-1.8-0.6 0.4-5.1-3.9 2.8h-0.1l-0.9 1.9-1.8 1-3-0.2-3-1.5-6.1 2.2 0.1 0.1h-0.1l1.3 1.6-2.9 5.4-1.9-1.4-0.6-2.9-0.1-0.1-2.2-1.7 6.4-6.9 0.3-0.5 0.4 2h0.1v0.1l5-4.1v-0.1l-0.8-1.4 0.7-4.5 1.4-2.9 1.2-0.5 0.2-3.1 0.7-1.1 1.1 2.5v0.1l2.3-5.3 1.8-2 3.2-0.9 2.4-2.2 1.3-2.8 3.9-0.9 1.3-1.4 0.3 0.9-0.9 1.6 1.6 1.8z"/>
		<path id="Path_18" class="s0" d="m579.4 181.7l2.3 0.8-0.1 1.6-2.3 0.1-4.5 4.7-2.3 3.5 0.9 4.1 5.6 6-0.8 0.3-3.4-1.1 0.2-1.4-0.1-0.1v-0.1l-1.9-1.7h-0.1l-0.4-0.3h-4.4l-1.9 2-5.6 0.9-4.2 2.8-1.2 3-2.8 1.4-0.8 2.6-1.6 0.1-1 2-1.3-0.2-2.4 3.8-1.8 0.9-0.4-0.2-0.1-2.1h-0.1v-0.1l-1.2-1.3 0.8-1.1v-0.1l-0.6-1.5 4.4-3.1 0.9-2.6 0.8 0.5 5.6-2.3 4-2.9-0.2-0.2 0.2-0.1-2.7-2.3-1.2 0.3 0.2-2v-0.1l-2.1-1.2-0.8-2 4.5-7h-0.2l0.1-0.2-9.4 1.4-1.7 2.1-2.1 1-1.4-0.5-8.7 4.1-2.8 2.1-5.1 2.9-6.6-0.7 0.1 0.2 1.6 2.3-1.3 0.8-6.7 8.6 0.1 0.2h-0.1l0.7 1.4-2.4 2.2-3.8 1-2.4-0.3-6.4 1.7-3-1.8-5.1-0.3-1.3 2-2.4 0.2-5.1 2-0.8 0.1-0.2-1.8-1.8-3.5 1.8-3.2-1.7-0.9-1.3-3.9-2.2 0.9h-5.2l-1.5-1.6 0.9-5.1v-0.1l2.7 0.7 2.2 2.2 6.3-3.9 1.2 1.7 4-1.8 1.6 0.3 3.8-4.9-1.3-2.5 2.1-1.1 3.6-3.2 3.9-0.9-0.6-2.9 1.6-1.6 0.8-2.9 4.9-0.9 4.3-1.6 2.2 1 1.3-4.8 2.9-2.9 0.8-3 3.6-3.4 2.7-0.4 0.9-2.4 2 1.2 1 2.5 2-0.9 6.8 0.7 0.1 1 5.5 0.3 1.4-4.7 3.9-3.6 3.5-1 1.7-1.7 3.6 4.4 1.9-1-0.1 0.9-4.8 2.9 2.1 2.3-0.2 3.8 4.7-4.8 1.6-0.7-0.3 0.7 3.2 4.2-0.1 1.1-2.6 1.4 0.7 1.1-3.3 3.1 1 1-2 1.8 5.3 2.1 0.6-2.1 3.2-1.3 2.4 1.8 2.5-0.6 2.3 1.3 2.5-1.2 4.5 1.9z"/>
		<path id="Path_19" class="s0" d="m432.4 234.6l-1.4 0.2 0.5 0.4-0.8 0.9 0.4 0.8-0.1 1.2-1.4-0.9-1.2 2.3v3.2l-3-1-0.9 0.7-3.4-2.2-2-6.2-6 1.8 3.5 1.8-0.3 0.2-2.8-1-1.9 0.4-0.4-2.5-5.4-2.8-1.7-2.8-1.7 5.5 3 0.5-0.2 1-2.2 3.5-3 1.6-1.6 5.6 1.4 4.4 2.9-1.1 3.5 2.8 2 3.4 3.9 0.7 1.3-0.7 0.2 1.5 1.9 2.2 1.7 0.3-0.8 1.6-4.5-0.7-2.3 1-3.4-0.9 0.4 4.9-0.7 1.5-1.9 1-2.6-1.3-1.4 4.5-2.1 3.1 4.4 4.7 3.3 2 7.6 1.4 0.5 2.9 0.1 4.5-1.8 1.3-1.4 3.7 0.7 3.6 1.6-0.3 2.2 2.8-1.4 3.6 3.4 2.1 1.5-0.3 0.2 0.8-1.1 0.9v3.8l2.2 2.3-0.8 2.3 2 6.8-0.2 2.6 1.9 2.8-0.7 2.1 1 2.1-1.6 1.9 0.9 3.6 1 1.8-1.7 0.2-4.2-6.8 0.2-1-0.8 0.2 0.7-3.3-1.9 3.6-1.6 0.5-1.5 3.2-4.9 3.7-0.2 1.7-0.4-0.2-0.1-3.9-1.3-3.4 1.3-2.7-1.1-3.1-7.1-2.8 1.9 3.8 3.1 0.5 0.5 0.7-2.3 1.9-1.7 4.3-4.8 4.1-3.4 0.8-1-3.4-3.4-0.6-1-3.4-2.5-0.7v0.1l-0.2-0.1-1.3 2.5-0.6-0.3 0.6-1.5-2.1-2.7-4.7-1.1v-0.3l3.5-1-1.4-4.4-1.5-0.5-0.3-3.6-2.3 0.1-0.3-1.4-4.4-2.4 1.6-5.3-6.7 0.2-3.7-3.3h-0.1-0.1l-2.4 0.4-1-0.8 0.5-5.3 3.7-0.7v0.2l2.5 1.3 0.1-0.1 0.1 0.1 3.5-0.9v-2.2l1.3-1.5h1.3 0.1 0.1l3.6-1.6 2.1 0.2h0.1l0.6-3.3 0.9-1 6.1 1.9-0.1-0.1 0.2 0.1-0.4-1.9 1.4 0.2h0.2l1.4-3.4 2.3 0.4h0.2l2.1-2.8 3.5-1.8-1-2.2 1.8-1.1 1.1-2.8-0.4-3 2.2-0.5-0.3-4.2-0.8-0.6 2.1-4-4.2-3.6 0.2-2 1.6-2.1-1.9-1.3v-1.6l2.5-1.6 3.9 2-0.1-0.1 0.3 0.1-2-4.3 0.3-2.8-2.9-1.5 0.1-2-1.8-0.3 0.1-2.7 2.4-0.9 0.6-1.5 6-5.4-2.6-3.2 1.7-2.4-3.2 0.5 1-3-1.5-6.3-2.9-2.5 0.1-0.4 0.8 0.8h4.5l2.9 0.9 3-2.7 3.6 0.9 1.1 0.4 0.3 3.3 4.5 1.2 1.2 2.2 4.9-1.6 1.7 0.9 3 0.4-0.9 1.2 5.8 0.2 0.4 1.4-0.1 4.6z"/>
		<path id="Path_20" class="s0" d="m384 345.4l-4.3 3.8-1.8 3.4-0.1 3.2 2.8 5.3 0.8 3.3-4.5 3.4-1.3 4.2 0.9 0.7-4.6 3.2-3.1 5-6.4 2.4-7.3 2.2-7.4 4-9.7 7.9-2 3-0.9-1.2-3.8 1.9 0.7 0.7-4 0.8 0.2 2.6-2 2.5-4.1 0.8-1.1-1.2-2.9-0.1-2.3-4.7-1.3 0.7-2.6-4.1-2 3.4-2.1-2.1-0.1 3.5-4.5-1.4v0.1l3.1 4.1-3.1 1.7-5 5.4 0.1 0.1h-0.1l1.4 0.7-1.3 1.6 0.1 0.1h-0.1l0.6 0.7-1.6 0.4-2.4-2.3-1.4 3.1-2.3 0.8 0.3-1.5v-0.1l-1.7-0.5-1.6-4.1-3.5 4-1 5.6 0.3 2.6-0.7 0.6-4.7-1.3-0.3-0.1-8.9 5.5-2.8 0.1 0.1-0.2 1.9-6.5 0.2-2 4.6-3.2 4.4-4.3v-1.9l4.2-2.4h0.1l0.2-2.1 1.6-0.4-0.1-0.1h0.1l-2.8-12.1-1.5-2.6 0.1-5.8-4.1-2.4v-2l0.8-0.9 4.8 2.4 1.4 0.2 1.9 3.5 0.1-0.1 2.5-1.9 2.1 0.6-0.5 2.8 4.3-2.1 0.1-0.1 0.4-4.6-6.8-1.4-0.3-1.4 1-2.8v-3.7l-2.1-2.6 0.8-1.5-0.3-3.7 0.3 0.4 0.1-0.1h0.1l5-5.5 0.2-1.9 2.5 0.1 3.3-0.8 3.5 1.7 0.1-0.1 2.1-1.2 1.7-3.3v-1.3l2.5 0.8v-0.1l0.1 0.1-1-4.5 0.6-2.4 3.1-4 1.5-3.1-1.3-3.1 1.7-3.2 2-0.3 2.3-2.4 2.9-0.6v-0.1l1.1-2.4h0.2v1l3.8 2.2h0.3l3.4-0.4 1.5-1.5 4.6-0.7 3.3 0.4h0.1 0.2l1.9-0.9 0.5 2.3-1.2 5.1 3.7 1.1 1.8 2.2 0.1-0.2 0.2 0.2 1.3-2.7 2.1-1.4 5.5 2.1 0.1-0.1 0.2 0.1 0.4-0.2-0.4 0.8 4.5 0.9v-0.1h0.3l3.2-5.6-1.2-1.3 0.7-1.1-0.3-3.4-0.8-0.4 0.4-0.6 0.7 0.8 4 1.3 2.8 2.4 6.1 1.9-0.1 1.5 5.5 1.3 1.2 1.4-0.8 2.1 3.4 1.7v-0.1h0.1l1.5-2.6h0.2l1.1 3.4 3.3 0.7 0.8 2.8-1.2 1.1z"/>
		<path id="Path_21" class="s0" d="m498.7 326.6l-3.1-13.8-2-4.6-1.3-0.7 0.1-2.3-0.9-3.3 1.2-0.2-2.3-5.1-1.8-6.3-0.3-1.7 1.2-1.3-0.6-8.1 0.6-0.1 1.5 3.5v-0.1l0.1 0.1 3.6-5.9 1.3-0.4 0.8-2.6 0.9 1.4h0.1l3.4-0.4 0.5 0.6-1 5.8 4.3 0.4 2.6 1.3 1.3-0.6 1.1 1.9 1.3 7.4-0.9 5.4 0.8 2.9-0.8 3.7-0.9 0.5-3.5-1.6 0.8 4.3-0.8 5.2 1.3 2.8-0.1 2.7 1.4 1 0.5 3.2-0.4 1.1-2.6-0.4-0.4 4.4-0.8-0.6-0.6 1.1-0.4-1-4.9-2.5z"/>
		<path id="Path_22" class="s0" d="m487.8 286.7l-1.3 1.4 0.4 2-0.1 0.2-0.8-1.6-2.2 2.6-2.2-2-1.4 2.9 1.1 3.9-3.7 4.2 1.1 4.5-3.1 3.1-0.9-0.6-2.6-6.6-2.2 2.3-0.3-1.9-1.8-4.2-1.9-2.4-0.2-2.2h1.3l-0.1-3.8 0.6-1.5 2.5-0.1-0.3-2.8 2.9 0.3 2.3-1.4 0.2-1.2 2.7 2.1-0.6-2.8 3.2 1.8 0.8-6.1 3.1-0.2 0.6-3h0.1l0.3 0.8 0.5 1.4-1.2 3.9 2.5-0.3 0.2 0.3z"/>
		<path id="Path_23" class="s0" d="m441.3 259.1l-5.6-2.5 0.5-1.8 0.4-1.4 3.3-1.7 0.1-0.1-3-2.8 3.5-4.5 6.5-1.7 3.3 2 2.6-1.2 3.6 0.2 1.1 2.6 4-0.7 0.9 3.6 2.9-4 2.2-0.5h0.4l0.1-0.2h0.4l0.1-0.2 4.7-2.1-1.7 0.1 1.7-0.4v-0.1h0.1v-2.6l0.8-0.7 2.3 2 5-1.4-1.1 1.1h0.1l-0.1 0.1 1.4 1.2-1.1 2.1 0.9 4.6 4.7-2.6 3.4 3.1 0.1 0.2 0.3 0.8 0.1-0.2h0.1l-0.4 0.6 0.5 0.5h0.1l0.5 2.4 1.3-0.7 2.6 2.5 0.1 0.8-2.8 2.1-2.1-0.4-1.9 2.5-3.4-0.9-3.5-1.8-7.1 0.9-1.6 0.9-0.8-1-2.9 1.2-4.5-1-7.1 1.3-8 0.5z"/>
		<path id="Path_24" class="s0" d="m513.2 282l-2.1-2.6-1.5 0.7h-0.1l-1.9 0.9-2.1-1.1-2.9-0.3 0.9-4.7-0.9-1.2 1.1-5.4 0.3-3.1h1.5l3.5-11 0.6-0.6 3.2 2.3v-0.1l4.3-8-0.6-0.7 3.3-1.2 2.6 1.3 3.8 0.3 2.8-1.5v-0.1l0.9-1.9 0.8-0.5-0.3 2.8 2.5 0.9-1.1 3.5 0.3 2.8 3 1v3.7l-1.4 2.2-0.3 2.6-1.2 0.5-4.7 13-0.2 3-1 3.5-2.5-1.3-4.1 0.4-1.3-1.6-3.6 0.3z"/>
		<path id="Path_25" class="s0" d="m181.6 186.5l2.3 1.7 0.1 3.6-2.3 1.4-0.9-1.5-4.4-0.8 1.4-1.3v-0.1l0.3-3.8 1.5-0.8 1.8 0.2z"/>
		<path id="Path_26" class="s0" d="m256.1 154.9l0.1 0.2-1.3 0.4-5 4.8-2.3 0.9-1.6 2.9-2.8 1.8 1.3 2.3-1.2 2.2-2.4 1.7 1.5 3.2-0.7 3.1-1.5 0.2-2.8 5.3 0.1 2-1 1.8-0.4-0.1-3.1-3.8-2.7 1.1-4.1-0.2-0.8-2.4-3.7-1.1-0.4-2.1-0.1-0.1-3.2-1.8-0.6 1.2-1-0.5-1-2.2-1.5-0.8 3.7-2.8-0.2-0.1 0.1-0.1-5.2-1.9-3.1-3-0.5-2v-0.1l-3.8-1.7-5.6 4.4-2.1-2.9-1.8 0.9-1.6-3.4 0.4-2.1 4.6-6.3-0.1-0.1v-0.1l-6.3-3.3 3.5-1.7 0.3-1.8-1.9-3.9 1.8-2.4v-0.1l-0.9-2.3 2.5-3.5h2.3l5.2-2.6 3.1 1.9 2.7-0.7 3.2 0.7 1.7 2.4 3.9-0.5-0.1-0.1h0.1l-2-3.8 2.3-3.6 0.5 0.3 2 2.9 1 3.4 2.5 2.9h1.6l1.8 2.4 3.2-1.5 1.6 0.4 1.1 1.8 4.2 3 0.9-0.7 0.6 0.6-0.9 1.5 0.8 2.6 5.6 2.2 2.1 0.2 4.1 3.6z"/>
		<path id="Path_27" class="s0" d="m131.3 157.1l-1.5-0.6 0.2 0.5-9.8-1.2 2.3-6.3-1.2 0.9-1.1-2.5 1.9-2.7 2.6-2 6.2-6.9 5-2.5 1.1-3.4-3.1 0.9-0.3-2.9 2.5-4.7-0.3-2.1-2.1-3.3 3.3-3.5 2.7-0.9 1.2-1.6 2.9 0.2 5-1.6 2.4-3.1-0.5-1.6 2.8 0.2 4-1.7h0.1l1.7-1.8 0.7 1.2-3 2.4-2.7 0.9 0.4 4.5v0.1l4.6 3.1 0.7 1.7h-0.8l1.8 5 2.6 5.4 0.3 2.9 0.1 0.1 3.6-0.5 0.7-1.2 0.9 1.4v0.1l2.4 1.9 0.6 2-0.4 2.8h0.1-0.1l3.3 2.5 1.4 6.2 0.8 1.8-0.6 0.1 0.3 1.2-0.5-0.3-7 4.4-0.1 0.1 1.9 1.5-1.2 1.5-2.3-0.9h-0.1l-3.2 0.5-1.2 1.6-0.3 0.1v4.2l-0.1 0.2-2.6 1.5-2.7-0.1-1-1.8h-0.1l-2.9 1.5-2.1 0.1-2.6-1.8v0.1l-0.1-0.1-3.3 3.7-0.5 2-0.2 0.1-0.4-1 1.3-2.6-1-3.4-0.1 0.1v-0.1l-1.1 1.1-0.5-2.2-2.4 0.8-1.1-1.8-2.8-1.3h-0.1l-3.2 1.8-1.9-0.9z"/>
		<path id="Path_28" class="s0" d="m176.3 209.4l0.8-2v-3.7l1.1-3.6-0.1-0.1-2.7-2.7-5.3 3.3 0.1 1.6-1 0.4-0.5-1.1h0.6l-0.9-1.8 0.4-0.9-0.8 0.1v-0.1l-1.2-0.1-1.7-1.6 0.7 1.6-2.2-0.2-0.8 1.5 0.7 0.2 0.2 1-1.8-0.4-4.3-6.7v-0.1l-0.2-0.2-0.4-0.2-2.9-2.5-2.2-2.2v-0.3l-0.6-0.5-0.7-0.1-1.1-6.4 1.1-2-2.5-1.5-0.2-0.5 0.4-3.7 0.1-0.2-2.3-1.3-4.2 1.3-2.4-1.8v-0.4l-0.2-0.1-0.2-0.7-1.2-0.6-0.1-0.1-0.3-0.2-0.2-0.4h-0.2-0.1l-1.7 1-0.2-0.1-2.6-0.8 1.1-7.9h-0.2l0.1-0.2-1.9 0.1 1.1-1.6-0.2-0.5 1 0.4h0.1l3.1-1.8 1.5 0.8 1.6 2.5h0.1l1.7-0.6h0.2l0.7 3.2 0.1-0.1v0.1l1.2-1.2v0.2l-1.3 2.7 1.3 2.9 2.5-0.6h0.1l0.7-2.7 2-2.2 1.8 1.3 3.1-0.2h0.1l1.8-0.9 0.6 1.2 4.1 0.2h0.1 0.1l2.7-1.6 0.4-0.3 0.5 0.3 0.1-0.3h0.2v-0.5l0.1-0.5-0.1-3.9 0.8-1.1 2-0.2 3.1 1.2v-0.1l0.1 0.1 3-3.8-1.4-1.1 4.2-2.7 3.1 1.5-0.3-1.2-0.3-2.5 0.1-0.2-0.1-2.5-1.5-1.8v-0.1l0.3-0.3-0.1-0.3-0.1-0.9 0.1-0.7h-0.1v-0.6-0.5l-0.2-0.4 0.3 0.1 1.9 3.3 2.2 1.1-0.5 1.5h-0.9l0.6 0.8v0.2l0.6 0.7 0.4 0.4 0.1 0.1 0.9 1v0.3l3 0.5 1.5 1.4h0.1l1.5-0.6 0.5 0.2 0.3 0.4-0.1 1.1-2.8 4-2.6 1-2.3 3.6v0.1l-2.2 7.1 0.6 2.7-0.2 8.7 0.4 0.5 0.5 3.5-1.8-0.2-2.8 1.4v0.1h-0.1l-0.3 4.1-2.2 2v0.1l-0.1 0.1 1.5 1.6 4.4 0.8 1.3 2.3 3.5-2.2 2.3 2.6-0.7 2.2h0.1l-0.1 0.1 1.4 0.4-1.2 4.1v0.1 0.1l0.9 1-0.8 1.3-3.7 1.7-0.4 0.2-0.9-1-0.8 0.9-2.1-0.4-0.5-0.3-0.1 0.2h-0.1l-1.2 3.1z"/>
		<path id="Path_29" class="s0" d="m175.4 83.2l2.2 3-2.4 1.1-1.3-1.1-3.7 0.6-3 3.2-2.6 0.5-2.8 2.2-1.1-1-2.9 1.4v0.1l2.6 3.7 0.1 1.9-1.1 1.4v0.1l-2.8 3-3.3 1.4-3.4-0.2-3.6-1.4-2.1-2.6-1.8 1.1-1-0.7-3.4-0.3-0.4-2 2.7-9.2-3.8 5.2-4-0.4-3.6-2.9-3.3-1.4-0.6-1.4-3 0.2-2-2.7-0.4-0.1 0.5-1.8-1.6-3.8 1.5-4.8-1.1-1.1 0.9-6-1.2-2.6-0.1-4.6-1.2-3.8 1-3.3 3.2 0.5 2.1-4.6 3.3-0.6 3.5-3.1v-2.4l0.6-0.5 2.8 2.8v0.1l3.7-1.2 2.2 4 6.3 3.8v-0.1l0.1 0.1 3.5-2.4 3.8 12.4v0.2l0.2 0.2 7.9 7h3.4l3 8.5 0.1 0.2 0.3 0.2z"/>
		<path id="Path_30" class="s0" d="m334 403.1l-2.5 3.1-0.6 1.9-4.1 5.1-4.6 4.6-0.3 1-8.4 4.4-5 4.4-1.3 2.4-3.7 4.3-5 3-9.1 4.9-5.8 5.4-1.4 3.8 2.7 1.2-0.2 1.1-1.6 0.1h-0.1l-0.2-0.2h-2.4l3 2.7 0.9-0.6-0.4 2.2-12 5.3-3.5-1.2-7.1 1.1-2.2 7.9-2.4 1.8-0.7 2.8-2.7 0.6 0.1-1.3-1.8-2.1-5.5 0.8-4.2 2.2-2.4 3.3-1 3.4-2.1 2.9-1.3 6.6 1.5 7.2 1.6 3.6-1.4 9.2 2.6 8.2 0.4 4.6-0.3 1.1-3.1-1.7-2.9 2.5-0.7 2.3-4.2 0.8 0.5 1.4-3.2-0.4-0.8-0.5-2.4-1.8v0.1l-1 3.9-1 0.9-2.3-0.5-2.1 3-3.3-1.4-6.6 0.4-2.5 2.2v0.1l0.3 1.5-1.2 3.8-1.2-1.1-0.1 0.1-1 3.1-1 0.1-2.6-2.5 0.3-1.3 4.9-2.6-0.1-1.7 2.7-3-1.4-2.9-3.3-2.1 0.6-5.5h-0.1l-4.6 0.5-0.4-1.7h-0.1l-1.4-0.7 0.5-0.8 0.4-0.8-2.4-3.7-1 0.9v-2l-5.4 1 0.6 1.5-5.9 3.3-0.7-0.1-0.4-2.9v-0.1l-1.4-0.5 1.9-2.1v-0.1l-2.2-1.2 0.9-2 3.1-0.1-1-3.8-2.8-1.7-0.8 1.3-1.1-1h-0.1-0.1l-3.6-0.2-1 2.5-2.4-0.3-0.8-2.4 3.2-3.1h-0.2 0.1l-4 0.3-1.7-2.2 1.5-3.7 0.9-4.9 4.9 0.2 1.6-3.9-1.3-4.2-1.4-0.6-0.1-4.9 3-0.9-2.4-2.2 0.5-3.1 3.1-0.8 5.3 0.8 6.4 1.4h0.2l1.7-0.7 4.7 1.7h0.1l3.7-2.9 0.2-1.8 2.6-0.9 3.4 0.6h0.1l0.8-0.8 2.9 1.3 0.6 0.3 4.1-2.7-0.3-1.4 1.6-0.8 3.4 0.7 1.7-1.2 0.2-5.8 3.7-1.2 7.1-3.1 3.9 2.3 1.9-2.7 1.7-2.6-1.8-1.1 0.8-1.4 2.3-1.4 1.1 0.4 1.1 3.1 3.9-3.1 2.1-2.4 2.3 1.4 4.5 0.4v-0.1h0.1l0.9-3.1 1.2 0.3 4.9-1.9 0.2-1.7 3.5-1.5v-0.1l-5.6-3.9-2.1 0.1-2-3.3 2.2-1 0.1 0.1 0.8-0.4 0.6-0.3-0.1-0.1 1.4-0.8 3.3 0.6-0.3 0.4 1.8-0.1 0.2 0.1 0.1-0.1 4.4-0.2h0.1l8.6-5.3 5.3 1.5 2-1.8v-0.1l-0.5-3.1 0.9-4.9 1.4-1.6 1 2.3 1 0.3-0.4 2.9v0.1l5.5-2.1 0.7-1.6 1.4 1.3 5.1-1.2-1.5-1.8 1.7-2.1v-0.1l-1.2-0.6 3.2-3.6 4.7-2.5-1.1-1.6 1.6 0.5v-2l0.3 0.2 0.6 0.6h0.1l1.7-2.8 1.9 3.2h0.1l1.1-0.6 2 4v0.1h3.2l1.2 1.3 5.6-1 2.8-3.5-0.2-1.8z"/>
		<path id="Path_31" class="s0" d="m176.5 514.3l1.7 1-1.6 1.1-1.5-0.5-2.5 1.2 0.1 2.5-2.4 0.1-0.2-1 0.6-2.5h0.2l-0.1-0.4-1-1.8 0.4-0.6 2.7 1.4z"/>
		<path id="Path_32" class="s0" d="m200.5 535.9l0.1 1.3-4.7 2.5-0.3 1.8-1.3-0.3-1.7-1-2.7-1.5-2.8 0.5h-0.1l-2.1 4.2-3.2 0.1h-0.1l-0.5 5.1 0.6 2.1-2.9 2-0.2 2.4 6.1 0.9 0.4 0.5-1.8 2.7-4 0.5-1.4 3.6-2.3-0.9-4.1 0.8-5-0.5h-0.1l-1.1 4-5.3-0.3-1.3-2.2v0.1-0.1l-1.4 0.7-0.3-2-2.1 0.7-3.2-3-1.1 0.2 0.1-2.9-3.4 1.4-2.1-0.4-1.7-2.7-0.2-0.3-1.9 0.2-5.7-4.8-1.4-3.4v-0.2l-0.2-0.2-2.9-2.5-1.4-2.4-3.5-1.4 0.3-1.9-3.4 0.9-0.9-2.3-2.1-10.3-0.4-5.3-1.7-7.6-1.5-1.5-3.4-14.4-0.8 1.2-1.5-4-2.9-1.3v-0.9l2.1-0.5 2.4-3 0.6-3.8-0.8-0.8 1.3-0.7-1.7-5.2v-4.3-0.1h-2.6v-0.2l1.7-0.9 2.7 0.5h0.1l3.5-7.7 0.6-3.8-3.5-1.7v-3.5l-1-0.6 3.4-1.8 1.2 1.4h0.1l0.1 0.1 3.9-1.2 0.2-2.4 4.9-1.1 0.4-3.7h2.2l3.4 2.9v-0.1l0.1 0.1 1.6-3 2.8-0.5 0.5 0.9h0.1l5.5-0.4-1-5.6 0.7-2.1-1.6-2.5 0.5-0.8 3.3 2.1 0.1 0.1 1.3-0.6 0.7 1.7 0.1-0.1v0.1l4.7-1 8.2 0.2-2.8-2.7v-2.5l1.5-0.1 1.6-2.5 1.7-0.6 2.3 2.3v-0.1l0.1 0.1 1.1-3.4 4.3-2.8 0.9-5.4 1.9 0.4 1 0.2 2.5-3.2 0.7-2.6 1.1-0.3-0.3 2.1 3.1 1.7 0.1 0.1 1.2-0.4 0.7 3.2v0.1l-1.4 1.5h0.1-0.1l2.1 1.1-4 6-0.3 3.4 3.7 0.6 0.7 0.7-2.3 0.5-0.4 2-3.1 3.2-0.1 2.6v0.1l2 0.8 0.5 1.5-1 2.1 0.3 2.9-1.2 2.7v0.1l0.9 1.5-1.5 1.5-3.9 0.4v0.1l2.1 2.9 4.4 0.6 0.9 0.5-1.5 1.2 0.4 6.6-4.9-0.7-4.4 1.2-0.8 5 0.9 0.8-1.4 0.4 0.2 7.1 1.6 0.8 0.9 3-0.9 2.3-4.1-0.1-2.4-1.9-0.2-0.1-1.3 4.8h0.2v0.1l2 0.1-0.5 2.9-1.8 4.6 2.9 3.6h0.1 0.2l-0.6 0.6 1.5 4.4h0.1l0.9 0.1-2.8 0.3 2.1 2.8-1 0.8v0.1l2.4 2.3-1.2 2-0.1 0.3 0.1 0.3 0.7 2.1 5.2-0.2-0.1-2.6 0.9-0.4 1.9 0.6 0.2 0.1 1.1 0.3 0.5 3.2v0.1l2.5 0.3 7.6-4.2-0.4-1 1.4-0.3v3.6l2.3-2 0.9 1.3-1.4 2.3h0.1l2.4 1.1 0.6 2.3 4-0.4-0.5 4.4 0.1 0.1 3.8 2.4 0.6 1.4z"/>
		<path id="Path_33" class="s0" d="m179.1 508.1l0.7 0.7 0.3 1.1-2.1 0.6-1.4 2.7-3.5 0.5-3.5-1.8 1-1.8 2.1 0.1 1.2-2.6h2l0.8 1.1 1.1-0.1 0.8 0.3z"/>
		<path id="Path_34" class="s0" d="m201 228.4l-0.5 1-2.4 1-0.4 1.9-1.1-0.4-9.3 5.9-0.4 0.4-2 0.1-4.6 3.6-2 0.2-0.4 0.9-4.3 2.1-1.9 3.2-3 0.7-2.8 2.7v0.1l-0.4 6.5 1.8 3.6 3.5 1.9 0.2 0.1h0.1l3.9 1 2.5-1.3 2.8 0.7 1.6-2 1.2 3.1-0.3 1.7-1.1 0.5-2.7-0.8-2.1 1.3-4.4 0.4-0.4 2.8 1 1.2-1.9 0.6-1 0.3 0.5 0.9 1.1 2 0.1 0.1 2.4-0.1 1.4 1.9-0.9 2.5-2.9-1-1.3-0.5 0.1 1.3 0.4 4 1.9 3.4-0.4 0.7h-1.5l-3.8-3.5v0.1-0.1l-2.1 2.3-3.1-1.9h-0.1l-2.2 0.5-0.9-3.9v0.1-0.1l-2.5 4.9 0.1 2.1-3.7 1.5 0.3 1.9-4.6 1.3-1.3 1-2.8-2 0.5-1.1 0.6 0.5 2.3-0.7 2.2 1h0.1l2.5-3.8-1.8-0.7 1.5-1.8-1.7-3.5 0.5-0.8 2.6 0.8 0.6-4.1-0.3-0.2-1.3-3.1v-0.5l-2.8-1.1-2.8 1.5-5.5-1 1.7-7.1h-0.1l-4.4 0.1-2.2 1.6-0.1 1.6h-2.3l-3.5-3.4v0.1l-0.1-0.1 0.4 4.2-1.4-2.9 0.1 0.4-0.2-0.4 0.6 7.1-2.7 4 3.1 1.6-2.2 4.4 1.4-0.1 1.4 0.2-0.2 0.2 1.9 3.8 0.2 0.6-1.7 2.4 0.4 4-1.7 3.4-1.2 0.1-3.8 2.2-1 0.5-1.3 3.1 2.9 1.9-2.3 1.8-3-0.3-0.9 0.6-1.2-2.4h-0.1l-1.9 0.1 0.2-1.5-2.2-1.3 0.1-0.6-1-0.2v-0.1h-0.1l-0.1-0.5-2.1 0.1-1.3-2.1-3.4-0.3 0.6-3.4v-0.1l0.1-0.5-0.7 0.1-0.7-0.6-0.4-0.1h-0.6l-3.4-4 1.1-1.1v-3.5l-2.4-2.4-1.4 1.6-0.1-0.6-0.2-0.2-2.3-1.7 2.3-3.7-2.1-1.2 0.4-3h-0.1l-4.1 1.4-0.2 1.8-3.6-0.3-0.6-2.1-3.9-1.5h-0.1l-0.9 1v-0.3l-2-1.7-5.3-2.6-0.5-0.7-0.5-1.1-2.8 1.7-1-0.9-4.5 0.6-3.6-1.2-3.9 1.2-3.3-1.7-2.7-5.6-0.7-4.8-4-5.8 0.4-7.5-6.1 0.3-1.9-0.8-2.9-5v-3l2-3 0.7-7.9-3.1-1.7-3.5 0.2-6.5-4.1-0.3-1 1-4.3 1.7-3.3 6-4.5 3.4-3.1 2.7-5.5 4.8-3.9 3.7 0.4 1.1 1.5v2.1l1.8 3.1 3.3 0.6 6.4-2.3 3.9-0.5 5.1 0.3 5.4-1.8 1-3.8 5.9-5.4 2.5-6.5 1.8-1.7 6.8-3.2 4.4-1.6 7.4-11.8 2.7-7.7 4.1-1.7 3.8-0.8 1.4-1.1-1.2 3.2h0.1l-0.1 0.2 12.6 1.4 0.3 0.7-2.4 3.7h0.2l-0.1 0.1 3.1-0.1-1 7 0.1 0.1v0.4l0.4 0.1 2.3 3 0.2-2 1.1 0.1 0.9 0.3 1.2-0.7 1.5 2.4 3.3 1.6h0.2l4.2-1.3 0.4 0.3-0.4 1.3v0.3l-0.4 0.4 0.7 1.3-0.2 1 0.7 0.4 0.9 2.3 1.5 7.8 0.2 0.1 3.3 2.7 0.1 0.1 0.4 0.4-0.4 1 3.5 1.4 1.6 2.6 8.1 3h0.4l-0.2 0.6 1.9 2.9 0.3 0.7 0.1-0.1 0.1 0.2 3.4-1.5-0.1-1.8 3.4-2.1 0.9 1-0.8 2.8v3.7l-1.1 2.7 0.1 0.1v0.1l3 2.7 1.5-3.8 1.2 0.7 2-0.4v0.1l0.1-0.1h0.1l0.3-0.1 0.9 2.5-0.2 2.9 2 3.3 0.1 0.1 2.8 1.7 0.1 0.1 1.2 1.9-3.3 3.3h0.2l-0.1 0.1 3.1 1.5-4.8 1.9 0.1 4.8h0.1v0.1l2.4-2.8 1.1 0.4 3.9-2.4 2.5 1.1 4.4-0.2 1-1.1z"/>
		<path id="Path_35" class="s0" d="m26.2 222.2h0.4l-0.1 0.7-0.4 0.8-0.6 1-0.8 0.6-1.4-1 0.9 0.1 1-1.5-0.1-0.2-1.1 0.7-0.2-0.1-0.2-0.8v-0.6l0.8-1.2 1-0.8 0.8-0.7-0.9 3.4 0.3-0.2z"/>
		<path id="Path_36" class="s0" d="m464.6 554.8l1.2 0.9-0.2 4.2-1.9 3 1.7-1-0.8 4.3-2.4 3 1-4-2.6-1 2.2-1.1-1.7-1.7-1.2-3.5 1-2.2 1.1 0.7 0.5-6 1.2-1.6 1.3 1.5z"/>
		<path id="Path_37" class="s0" d="m490.4 658.3l-1.2 1.6-0.2-1.3 1-0.9z"/>
		<path id="Path_38" class="s0" d="m482.3 644.9l1.1 1.4-1 0.1-0.7-0.6z"/>
		<path id="Path_39" class="s0" d="m485.9 642.4l0.1 2.2-0.7-0.6-0.6-2.3z"/>
		<path id="Path_40" class="s0" d="m460.5 580.4l1.1 1.7-0.2 4.4-1.1 1.1-1.6-0.3 0.6-1.3-0.7-3.5z"/>
		<path id="Path_41" class="s0" d="m471.2 550l0.4 1.7-1.1 1.5-0.5-2.2z"/>
		<path id="Path_42" class="s0" d="m495 666.4l-1.1 4.6-0.8 0.3-1.2-3.5-1.9-1.5 0.1-2.6v-0.4l2.9-1.3z"/>
		<path id="Path_43" class="s0" d="m468.5 538.1l0.2 3.8-0.7 5.5-2 3.3-1.8-3.4-0.4-6.3 0.6-3.4-1.1-1.5 2.1-0.9v-0.6l1.7-0.2z"/>
		<path id="Path_44" class="s0" d="m462.6 535.4l-0.3-0.4 0.3-0.5z"/>
		<path id="Path_45" class="s0" d="m468.9 519.7l0.9 5.7-0.4 4.1-4 4.5-0.1-4.2 0.4-7.3z"/>
		<path id="Path_46" class="s0" d="m71.2 575.8l2.3-1.1-0.7 2.3-2.3 2.4-1.8-3z"/>
		<path id="Path_47" class="s0" d="m80.4 579l-1.6 2.3-3 0.4v-1.4l3.7-3.3z"/>
		<path id="Path_48" class="s0" d="m70.3 568.2h-2.8l-0.5-1.9h2.8z"/>
		<path id="Path_49" class="s0" d="m71.8 561.3l-0.7-4.6h1.9l0.3 1.8z"/>
		<path id="Path_50" class="s0" d="m87.6 373.2l4.1-1.5 2.7 1.5v1.1l-1.9 0.4-1.2-0.3-0.9-0.4-1.1-0.3-1.2-0.2z"/>
	</g>
</svg>