<svg xmlns="http://www.w3.org/2000/svg" width="46.795" height="46.795" viewBox="0 0 46.795 46.795">
  <g id="noun-internet-6584461" transform="translate(-8.5 65.5)">
    <path id="Path_8798" data-name="Path 8798" d="M25.9,6.244A19.654,19.654,0,1,0,45.551,25.9,19.654,19.654,0,0,0,25.9,6.244Zm8.683,19.105a40.5,40.5,0,0,0-1.092-9.067,19.594,19.594,0,0,0,5.523-3.5,18.488,18.488,0,0,1,5.431,12.564ZM25.9,44.453c-2.573,0-4.9-3.325-6.275-8.275a18.634,18.634,0,0,1,12.549,0C30.793,41.128,28.47,44.453,25.9,44.453Zm0-10.461a19.672,19.672,0,0,0-6.551,1.119,39.61,39.61,0,0,1-1.033-8.665H33.482a39.638,39.638,0,0,1-1.033,8.665A19.661,19.661,0,0,0,25.9,33.992Zm-7.584-8.643a39.61,39.61,0,0,1,1.033-8.665A19.671,19.671,0,0,0,25.9,17.8a19.66,19.66,0,0,0,6.551-1.118,39.639,39.639,0,0,1,1.034,8.665ZM25.9,7.342c2.572,0,4.9,3.324,6.274,8.275A18.567,18.567,0,0,1,25.9,16.706a18.568,18.568,0,0,1-6.275-1.089C21,10.666,23.325,7.342,25.9,7.342ZM38.211,12.03a18.5,18.5,0,0,1-5,3.182,25.377,25.377,0,0,0-1.058-3.026,12.791,12.791,0,0,0-3-4.558,18.51,18.51,0,0,1,9.064,4.4Zm-18.567.156a25.469,25.469,0,0,0-1.058,3.026,18.5,18.5,0,0,1-5-3.182,18.51,18.51,0,0,1,9.064-4.4,12.783,12.783,0,0,0-3,4.558Zm-6.863.6a19.584,19.584,0,0,0,5.525,3.5,40.468,40.468,0,0,0-1.092,9.067H7.351a18.5,18.5,0,0,1,5.431-12.564ZM7.351,26.446h9.864a40.459,40.459,0,0,0,1.092,9.067,19.6,19.6,0,0,0-5.523,3.5A18.5,18.5,0,0,1,7.351,26.446Zm6.233,13.319a18.51,18.51,0,0,1,5-3.181,25.511,25.511,0,0,0,1.058,3.026,12.791,12.791,0,0,0,3,4.557,18.506,18.506,0,0,1-9.064-4.4Zm18.566-.156a25.418,25.418,0,0,0,1.058-3.026,18.522,18.522,0,0,1,5,3.181,18.507,18.507,0,0,1-9.064,4.4A12.8,12.8,0,0,0,32.15,39.609Zm6.863-.6a19.607,19.607,0,0,0-5.524-3.5,40.489,40.489,0,0,0,1.092-9.067h9.863a18.488,18.488,0,0,1-5.43,12.564ZM25.9,2.5A23.4,23.4,0,1,1,2.5,25.9,23.4,23.4,0,0,1,25.9,2.5Z" transform="translate(6 -68)" fill="#e6e6e6" fill-rule="evenodd"/>
  </g>
</svg>
