<svg xmlns="http://www.w3.org/2000/svg" width="640" height="304.654" viewBox="0 0 640 304.654">
  <g id="Group_14775" data-name="Group 14775" transform="translate(-633.7 -279.538)">
    <g id="Character_2" transform="translate(947.533 298.087)">
      <g id="Group_14664" data-name="Group 14664" transform="translate(122.266 136.926)">
        <g id="Group_14663" data-name="Group 14663">
          <rect id="Rectangle_1433" data-name="Rectangle 1433" width="74.811" height="8.57" fill="#407bff"/>
          <rect id="Rectangle_1434" data-name="Rectangle 1434" width="34.626" height="4.98" transform="translate(40.301 1.853)" fill="#fff" opacity="0.8"/>
        </g>
        <rect id="Rectangle_1435" data-name="Rectangle 1435" width="37.405" height="8.57" opacity="0.3"/>
      </g>
      <g id="Group_14726" data-name="Group 14726" transform="translate(0)">
        <g id="Group_14671" data-name="Group 14671" transform="translate(12.698 98.108)">
          <g id="Group_14665" data-name="Group 14665" transform="translate(0 21.142)">
            <path id="Path_8445" data-name="Path 8445" d="M330.459,379.245a380.6,380.6,0,0,0-6.717-53.734c-.811-4.285-5.443-7.18-10.423-6.6l-28.72,3.127c-4.748.347-9.612,1.853-12.623,5.211-4.632,4.98-3.706,12.16-2.548,18.413,2.2,12.391,4.4,24.667,6.6,37.058.695,3.937,1.737,8.222,5.559,10.423,3.011,1.737,7.064,1.505,10.654,1.274q13.549-1.216,27.1-2.779c3.011-.347,6.369-.811,8.57-2.779C330.69,386.425,330.69,382.6,330.459,379.245Z" transform="translate(-268.487 -318.836)" fill="#407bff"/>
          </g>
          <path id="Path_8446" data-name="Path 8446" d="M322.18,330.406a6.5,6.5,0,0,0-6.369-5.79l-24.667-.116a3.205,3.205,0,0,0-1.042.116l-1.158.232a6.507,6.507,0,0,0-5.327,7.643l11.117,56.745c4.4,3.822,29.994,1.042,31.731-3.474C327.738,382.172,323.8,344.882,322.18,330.406Z" transform="translate(-266.114 -296.799)" opacity="0.2"/>
          <g id="Group_14670" data-name="Group 14670" transform="translate(22.211 0.486)">
            <path id="Path_8447" data-name="Path 8447" d="M334.3,308.458l7.875-1.158,11.465,88.592-7.991,1.042Z" transform="translate(-280.294 -300.004)" fill="#263238"/>
            <path id="Path_8448" data-name="Path 8448" d="M291.7,308.458l7.875-1.158,11.349,88.592-7.875,1.042Z" transform="translate(-287.028 -300.004)" fill="#263238"/>
            <g id="Group_14666" data-name="Group 14666" transform="translate(54.006 7.296)" opacity="0.3">
              <path id="Path_8449" data-name="Path 8449" d="M334.3,308.458l7.875-1.158,11.465,88.592-7.991,1.042Z" transform="translate(-334.3 -307.3)" fill="#fff"/>
            </g>
            <g id="Group_14667" data-name="Group 14667" transform="translate(4.672 7.296)" opacity="0.4">
              <path id="Path_8450" data-name="Path 8450" d="M291.7,308.458l7.875-1.158,11.349,88.592-7.875,1.042Z" transform="translate(-291.7 -307.3)" fill="#fff"/>
            </g>
            <path id="Path_8451" data-name="Path 8451" d="M357.768,345.238H298.244a6.4,6.4,0,0,1-6.369-5.675l-4.169-33A4.969,4.969,0,0,1,291.99,301h60.1a6.4,6.4,0,0,1,6.369,5.675l4.169,33a4.888,4.888,0,0,1-4.285,5.559Z" transform="translate(-287.666 -301)" fill="#263238"/>
            <path id="Path_8452" data-name="Path 8452" d="M357.768,345.238H298.244a6.4,6.4,0,0,1-6.369-5.675l-4.169-33A4.969,4.969,0,0,1,291.99,301h60.1a6.4,6.4,0,0,1,6.369,5.675l4.169,33a4.888,4.888,0,0,1-4.285,5.559Z" transform="translate(-287.666 -301)" fill="#fff" opacity="0.6"/>
            <g id="Group_14668" data-name="Group 14668" transform="translate(61.649 96.467)">
              <path id="Path_8453" data-name="Path 8453" d="M342.869,467.8h11.117l1.274-58.714.579-24.783H340.9l.579,24.783Z" transform="translate(-340.9 -384.3)" fill="#263238"/>
              <path id="Path_8454" data-name="Path 8454" d="M342.869,467.8h11.117l1.274-58.714.579-24.783H340.9l.579,24.783Z" transform="translate(-340.9 -384.3)" fill="#fff" opacity="0.4"/>
              <path id="Path_8455" data-name="Path 8455" d="M355.839,384.3l-.579,25.477H341.479L340.9,384.3Z" transform="translate(-340.9 -384.3)" opacity="0.2"/>
            </g>
            <g id="Group_14669" data-name="Group 14669" transform="translate(102.413 97.972)">
              <path id="Path_8456" data-name="Path 8456" d="M393.934,467.559,389.186,385.8H376.1l6.833,81.759Z" transform="translate(-376.1 -385.568)" fill="#263238"/>
              <path id="Path_8457" data-name="Path 8457" d="M382.933,467.591h11l-4.053-69.715-.695-12.275H376.1l1.042,12.275Z" transform="translate(-376.1 -385.6)" fill="#fff" opacity="0.5"/>
            </g>
            <path id="Path_8458" data-name="Path 8458" d="M314.317,467.559l6.717-81.759h-12.97L303.2,467.559Z" transform="translate(-285.21 -287.596)" fill="#263238"/>
            <path id="Path_8459" data-name="Path 8459" d="M314.317,467.591l5.675-69.715,1.042-12.275h-12.97l-.695,12.275L303.2,467.591Z" transform="translate(-285.21 -287.628)" fill="#fff" opacity="0.5"/>
            <path id="Path_8460" data-name="Path 8460" d="M320.465,385.6l-1.042,12.739H306.8l.695-12.739Z" transform="translate(-284.641 -287.628)" opacity="0.2"/>
            <path id="Path_8461" data-name="Path 8461" d="M301.633,381.8H409.1a4.646,4.646,0,0,1,4.632,4.632h0a4.646,4.646,0,0,1-4.632,4.632H301.633A4.646,4.646,0,0,1,297,386.432h0A4.5,4.5,0,0,1,301.633,381.8Z" transform="translate(-286.191 -288.229)" fill="#263238"/>
            <path id="Path_8462" data-name="Path 8462" d="M301.633,381.8H409.1a4.646,4.646,0,0,1,4.632,4.632h0a4.646,4.646,0,0,1-4.632,4.632H301.633A4.646,4.646,0,0,1,297,386.432h0A4.5,4.5,0,0,1,301.633,381.8Z" transform="translate(-286.191 -288.229)" fill="#fff" opacity="0.6"/>
          </g>
          <path id="Path_8463" data-name="Path 8463" d="M297.612,301.066,285.8,373.445l5.675,12.16s11.581-55.819,13.549-66.7,1.274-17.834,1.274-17.834A19.93,19.93,0,0,0,297.612,301.066Z" transform="translate(-265.75 -300.58)" fill="#407bff"/>
          <path id="Path_8464" data-name="Path 8464" d="M288.77,307.5l-8.57,16.676v1.042l10.886-2.2Z" transform="translate(-266.635 -299.486)" fill="#407bff"/>
          <path id="Path_8465" data-name="Path 8465" d="M284.8,364.639c1.158-4.98,1.969-7.759,3.127-12.739" transform="translate(-265.908 -292.468)" fill="none" stroke="#263238" stroke-linecap="round" stroke-linejoin="round" stroke-width="0.5" opacity="0.3"/>
          <path id="Path_8466" data-name="Path 8466" d="M278.2,327.78a96.956,96.956,0,0,0,4.516-9.38" transform="translate(-266.951 -297.763)" fill="none" stroke="#263238" stroke-linecap="round" stroke-linejoin="round" stroke-width="0.5" opacity="0.3"/>
          <path id="Path_8467" data-name="Path 8467" d="M278.491,369.143s-3.822-20.382-5.79-37.521c0,0-.232-6.254,2.9-8.222" transform="translate(-267.821 -296.973)" fill="none" stroke="#263238" stroke-linecap="round" stroke-linejoin="round" stroke-width="0.5" opacity="0.3"/>
        </g>
        <g id="Group_14721" data-name="Group 14721">
          <g id="Group_14689" data-name="Group 14689" transform="translate(0 18.209)">
            <path id="Path_8468" data-name="Path 8468" d="M324.856,300.613l-30.689-20.034L276.1,248.5l-8.8,6.254s10.654,33.352,17.95,40.069c7.3,6.833,33.121,23.393,33.121,23.393Z" transform="translate(-255.977 -228.912)" fill="#ffbe9d"/>
            <g id="Group_14688" data-name="Group 14688">
              <g id="Group_14687" data-name="Group 14687">
                <g id="Group_14686" data-name="Group 14686">
                  <g id="Group_14675" data-name="Group 14675">
                    <g id="Group_14674" data-name="Group 14674">
                      <g id="Group_14673" data-name="Group 14673">
                        <g id="Group_14672" data-name="Group 14672">
                          <path id="Path_8469" data-name="Path 8469" d="M277.763,254.3s2.664-3.127,2.316-6.485.347-6.138-.116-8.685-2.664-1.274-3.243.463-.926,5.327-2.2,4.632-7.527-11.117-9.264-11.812c-1.853-.811-1.274,1.274-1.274,1.274s-1.39-2.316-2.779-2.085c-1.274.232-.811,1.969-.811,1.969s-1.042-1.505-1.969-.695c-1.042.811,3.822,10.654,3.706,11.233,0,0-2.085-6.254-3.706-6.369-1.621,0-.695,3.474,0,6.369a20.3,20.3,0,0,0,4.632,8.106c2.548,2.779,5.443,7.18,8.686,6.254C275.1,257.543,277.763,254.3,277.763,254.3Z" transform="translate(-257.522 -231.586)" fill="#ffbe9d"/>
                        </g>
                      </g>
                    </g>
                  </g>
                  <g id="Group_14680" data-name="Group 14680" transform="translate(2.735 1.869)" opacity="0.2">
                    <g id="Group_14679" data-name="Group 14679">
                      <g id="Group_14678" data-name="Group 14678">
                        <g id="Group_14677" data-name="Group 14677">
                          <g id="Group_14676" data-name="Group 14676">
                            <path id="Path_8470" data-name="Path 8470" d="M259.9,233.779c1.621,2.664,3.127,5.327,4.516,8.106a20.138,20.138,0,0,0-2.085,1.274c-.347.232.232.579.463.347a17.572,17.572,0,0,1,6.833-3.127c.463-.116.232-.579-.232-.579-.695.116-1.274.347-1.853.463v-.116a31.838,31.838,0,0,0-3.59-6.369c-.232-.347-.811,0-.579.347a36.85,36.85,0,0,1,3.59,6.138c0,.116-.463.926-.347.926-.811.232-1.042-.232-1.737.116-1.39-2.779-2.9-5.443-4.516-8.106C260.25,233.2,259.787,233.432,259.9,233.779Z" transform="translate(-259.884 -233.2)"/>
                          </g>
                        </g>
                      </g>
                    </g>
                  </g>
                  <g id="Group_14685" data-name="Group 14685" transform="translate(12.765 13.432)" opacity="0.2">
                    <g id="Group_14684" data-name="Group 14684">
                      <g id="Group_14683" data-name="Group 14683">
                        <g id="Group_14682" data-name="Group 14682">
                          <g id="Group_14681" data-name="Group 14681">
                            <path id="Path_8471" data-name="Path 8471" d="M269.419,252.235c-.926-3.59.347-6.833,3.243-8.454.347-.232,0-.695-.347-.579-3.127,1.737-4.4,5.327-3.474,9.149A.3.3,0,0,0,269.419,252.235Z" transform="translate(-268.544 -243.184)"/>
                          </g>
                        </g>
                      </g>
                    </g>
                  </g>
                </g>
              </g>
              <path id="Path_8472" data-name="Path 8472" d="M259.2,237.7a33.713,33.713,0,0,1,2.432,5.559" transform="translate(-257.257 -230.62)" fill="none" stroke="#000" stroke-linecap="round" stroke-linejoin="round" stroke-width="0.5" opacity="0.2"/>
            </g>
          </g>
          <g id="Group_14706" data-name="Group 14706" transform="translate(106.285)">
            <path id="Path_8473" data-name="Path 8473" d="M349.3,296.74l24.088-26.172L383.579,237.1l11.465,1.969s-4.748,35.205-10.075,43.659-23.277,31.963-23.277,31.963Z" transform="translate(-349.3 -212.506)" fill="#ffbe9d"/>
            <g id="Group_14705" data-name="Group 14705" transform="translate(26.48)">
              <g id="Group_14704" data-name="Group 14704">
                <g id="Group_14693" data-name="Group 14693">
                  <g id="Group_14692" data-name="Group 14692">
                    <g id="Group_14691" data-name="Group 14691">
                      <g id="Group_14690" data-name="Group 14690">
                        <path id="Path_8474" data-name="Path 8474" d="M381.354,244.047s-3.822-1.505-5.1-4.748c-1.274-3.127-3.127-5.327-3.937-7.759s1.737-2.316,3.127-1.042,3.358,4.285,4.053,3.127c.811-1.158,1.505-13.318,2.779-14.823s1.737.463,1.737.463.232-2.664,1.505-3.127,1.621,1.274,1.621,1.274.232-1.853,1.505-1.505c1.274.232,1.621,11.233,1.853,11.7,0,0-1.042-6.485.347-7.412,1.505-.811,2.2,2.779,2.9,5.675a21.41,21.41,0,0,1-.347,9.38c-1.042,3.59-1.505,8.8-4.864,9.5A13.843,13.843,0,0,1,381.354,244.047Z" transform="translate(-372.165 -215.863)" fill="#ffbe9d"/>
                      </g>
                    </g>
                  </g>
                </g>
                <g id="Group_14698" data-name="Group 14698" transform="translate(9.52 1.88)" opacity="0.2">
                  <g id="Group_14697" data-name="Group 14697">
                    <g id="Group_14696" data-name="Group 14696">
                      <g id="Group_14695" data-name="Group 14695">
                        <g id="Group_14694" data-name="Group 14694">
                          <path id="Path_8475" data-name="Path 8475" d="M386.192,217.734a83.186,83.186,0,0,0-.232,9.264,17.278,17.278,0,0,1,2.432.232c.347.116.116.695-.232.579a16.12,16.12,0,0,0-7.412.463c-.463.116-.463-.463-.116-.579a10.43,10.43,0,0,1,1.853-.347l-.116-.116a25.751,25.751,0,0,1,.347-7.3c.116-.347.695-.347.579,0a29.836,29.836,0,0,0-.232,7.18c0,.116.811.695.695.695.811-.116.811-.695,1.621-.695,0-3.127.116-6.138.232-9.265C385.613,217.386,386.308,217.386,386.192,217.734Z" transform="translate(-380.386 -217.486)"/>
                        </g>
                      </g>
                    </g>
                  </g>
                </g>
                <g id="Group_14703" data-name="Group 14703" transform="translate(8.002 18.109)" opacity="0.2">
                  <g id="Group_14702" data-name="Group 14702">
                    <g id="Group_14701" data-name="Group 14701">
                      <g id="Group_14700" data-name="Group 14700">
                        <g id="Group_14699" data-name="Group 14699">
                          <path id="Path_8476" data-name="Path 8476" d="M386.052,238.217c-.926-3.59-3.474-5.906-6.717-6.022-.347,0-.347-.695,0-.695,3.59.116,6.369,2.664,7.3,6.485A.312.312,0,1,1,386.052,238.217Z" transform="translate(-379.075 -231.5)"/>
                        </g>
                      </g>
                    </g>
                  </g>
                </g>
              </g>
            </g>
            <path id="Path_8477" data-name="Path 8477" d="M387.9,220.8a37.068,37.068,0,0,0,.347,6.138" transform="translate(-343.203 -215.082)" fill="none" stroke="#000" stroke-linecap="round" stroke-linejoin="round" stroke-width="0.5" opacity="0.2"/>
          </g>
          <g id="Group_14709" data-name="Group 14709" transform="translate(39.464 66.169)">
            <path id="Path_8478" data-name="Path 8478" d="M346.9,290.371,365.429,273l17.718,13.318s-19.687,24.667-23.509,28.488C355.7,318.743,346.9,290.371,346.9,290.371Z" transform="translate(-282.859 -273)" fill="#407bff"/>
            <path id="Path_8479" data-name="Path 8479" d="M346.9,290.371,365.429,273l17.718,13.318s-19.687,24.667-23.509,28.488C355.7,318.743,346.9,290.371,346.9,290.371Z" transform="translate(-282.859 -273)" fill="#fff" opacity="0.4"/>
            <path id="Path_8480" data-name="Path 8480" d="M305.9,367.789c1.274-5.906,1.042-15.518,1.042-15.518,0-21.424.811-48.06,1.621-55.471.347-2.9-1.042-6.948,6.6-9.149,7.527-2.085,20.845-2.085,40.648-1.505,0,0,4.632,8.338,10.307,24.088,0,0,1.737,16.444,3.011,27.1l3.243,24.2C367.972,368.252,344.7,373.347,305.9,367.789Z" transform="translate(-289.34 -270.975)" fill="#407bff"/>
            <path id="Path_8481" data-name="Path 8481" d="M305.9,367.789c1.274-5.906,1.042-15.518,1.042-15.518,0-21.424.811-48.06,1.621-55.471.347-2.9-1.042-6.948,6.6-9.149,7.527-2.085,20.845-2.085,40.648-1.505,0,0,4.632,8.338,10.307,24.088,0,0,1.737,16.444,3.011,27.1l3.243,24.2C367.972,368.252,344.7,373.347,305.9,367.789Z" transform="translate(-289.34 -270.975)" fill="#fff" opacity="0.4"/>
            <path id="Path_8482" data-name="Path 8482" d="M323.331,292.044,301.1,280l-9.5,20.729s19.34,15.286,23.972,18.066C320.088,321.343,323.331,292.044,323.331,292.044Z" transform="translate(-291.6 -271.894)" fill="#407bff"/>
            <path id="Path_8483" data-name="Path 8483" d="M323.331,292.044,301.1,280l-9.5,20.729s19.34,15.286,23.972,18.066C320.088,321.343,323.331,292.044,323.331,292.044Z" transform="translate(-291.6 -271.894)" fill="#fff" opacity="0.4"/>
            <path id="Path_8484" data-name="Path 8484" d="M314.7,287.7a14.45,14.45,0,0,1,5.443,8.222" transform="translate(-287.949 -270.676)" fill="none" stroke="#000" stroke-linecap="round" stroke-linejoin="round" stroke-width="0.5" opacity="0.2"/>
            <path id="Path_8485" data-name="Path 8485" d="M359.016,311.24c-1.505-6.485-3.011-12.854-4.516-19.34" transform="translate(-281.658 -270.013)" fill="none" stroke="#000" stroke-linecap="round" stroke-linejoin="round" stroke-width="0.5" opacity="0.2"/>
            <g id="Group_14708" data-name="Group 14708" transform="translate(40.622 37.99)">
              <g id="Group_14707" data-name="Group 14707" opacity="0.4">
                <path id="Path_8486" data-name="Path 8486" d="M351.718,320.97a8.778,8.778,0,0,0,4.632-9.38,7.548,7.548,0,0,0-8.454-5.675c-3.243.695-5.559,5.327-5.674,9.265-.811-3.59-5.443-7.643-8.8-7.527A7.233,7.233,0,0,0,326.7,315.3a7.523,7.523,0,0,0,7.991,6.485,6.786,6.786,0,1,0,3.127,13.2,6.946,6.946,0,0,0,4.632-8.454c1.158,3.011,3.358,5.906,6.485,6.833s7.064-.926,7.643-4.053C357.161,325.834,354.265,323.054,351.718,320.97Z" transform="translate(-326.678 -305.805)" fill="#fff"/>
              </g>
              <ellipse id="Ellipse_37" data-name="Ellipse 37" cx="3.358" cy="3.358" rx="3.358" ry="3.358" transform="translate(12.996 11.344)" fill="#fff"/>
            </g>
          </g>
          <g id="Group_14715" data-name="Group 14715" transform="translate(52.254 13.495)">
            <path id="Path_8487" data-name="Path 8487" d="M353.2,253.1a27.431,27.431,0,0,0,14.244,14.592" transform="translate(-294.653 -223.471)" fill="none" stroke="#263238" stroke-linecap="round" stroke-linejoin="round" stroke-width="0.75"/>
            <g id="Group_14714" data-name="Group 14714">
              <g id="Group_14713" data-name="Group 14713">
                <g id="Group_14710" data-name="Group 14710" transform="translate(45.345 28.007)">
                  <path id="Path_8488" data-name="Path 8488" d="M355,251.7l-13.2,31.731a26.226,26.226,0,0,0,22.814-10.538A42.752,42.752,0,0,1,355,251.7Z" transform="translate(-341.8 -251.7)" fill="#263238"/>
                </g>
                <g id="Group_14711" data-name="Group 14711">
                  <path id="Path_8489" data-name="Path 8489" d="M316.837,228.192a9.514,9.514,0,0,0-9.264,1.274,12.547,12.547,0,0,0-4.748,8.338c-.463,2.664-.116,5.906,1.969,7.643a6.62,6.62,0,0,0,6.833.811,13.13,13.13,0,0,0,5.327-4.748l4.169-5.327A7.317,7.317,0,0,0,316.837,228.192Z" transform="translate(-302.644 -227.515)" fill="#263238"/>
                </g>
                <g id="Group_14712" data-name="Group 14712" transform="translate(10.311 8.039)">
                  <path id="Path_8490" data-name="Path 8490" d="M320.757,236.244a4.1,4.1,0,0,0-4.169-1.737,5.849,5.849,0,0,0-3.822,2.548,6.581,6.581,0,0,0-.811,6.022,2.037,2.037,0,0,0,2.2,1.39,6.25,6.25,0,0,0,5.674-2.432,7.029,7.029,0,0,0,.811-1.158A4.447,4.447,0,0,0,320.757,236.244Z" transform="translate(-311.548 -234.457)" fill="#407bff"/>
                </g>
                <path id="Path_8491" data-name="Path 8491" d="M325.2,269.8c1.39,4.053.926,3.59.695,7.875-.232,4.632-.695,10.886-.695,10.886.579,1.042,5.559,4.516,9.959,6.022,7.3,2.548,9.959.695,9.149-5.443-.579-4.516,1.042-7.875,4.516-10.075C356.815,273.737,325.2,269.8,325.2,269.8Z" transform="translate(-299.078 -220.832)" fill="#ffbe9d"/>
                <path id="Path_8492" data-name="Path 8492" d="M325.2,269.8c1.39,4.053,1.853,4.748,2.432,9.033,3.706,6.6,10.307,8.454,16.676,9.38-.116-2.548.695-7.18,4.632-9.149C356.815,273.737,325.2,269.8,325.2,269.8Z" transform="translate(-299.078 -220.832)" opacity="0.2"/>
                <path id="Path_8493" data-name="Path 8493" d="M348.781,237s8.685,5.906,6.254,16.1C352.6,263.4,337.2,244.3,337.2,244.3Z" transform="translate(-297.182 -226.016)" fill="#263238"/>
                <path id="Path_8494" data-name="Path 8494" d="M315.385,261.832c5.327,12.97,7.759,20.729,17.487,25.014,14.707,6.369,31.036-5.79,30.11-20.15-.695-12.97-9.38-31.847-25.709-32.194C321.06,234.038,310.058,248.977,315.385,261.832Z" transform="translate(-300.844 -226.413)" fill="#ffbe9d"/>
                <path id="Path_8495" data-name="Path 8495" d="M338.121,249.546a.7.7,0,0,0,.116-.463.829.829,0,0,0-1.042-.579,8.276,8.276,0,0,0-5.79,4.748.87.87,0,0,0,.463,1.042h0a.87.87,0,0,0,1.042-.463h0a6.076,6.076,0,0,1,4.632-3.706A1.366,1.366,0,0,0,338.121,249.546Z" transform="translate(-298.103 -224.203)" fill="#263238"/>
                <path id="Path_8496" data-name="Path 8496" d="M352.591,245.384l.347-.347c.116-.463,0-.926-.463-1.042a8.244,8.244,0,0,0-7.527.463.87.87,0,0,0-.232,1.158h0a.9.9,0,0,0,1.158.232h0a6.509,6.509,0,0,1,6.022-.232A1.646,1.646,0,0,0,352.591,245.384Z" transform="translate(-296.013 -225.02)" fill="#263238"/>
                <path id="Path_8497" data-name="Path 8497" d="M346.2,257.3l4.748,2.084s-.579,1.853-4.285,3.243Z" transform="translate(-295.759 -222.808)" fill="#cc987e"/>
                <path id="Path_8498" data-name="Path 8498" d="M342.658,239.148s-8.222-7.412-11.349-6.833-12.739,3.822-17.834,13.2-5.443,27.562-5.443,30.457c.116,6.833-.232,15.981-.232,15.981l21.54-.116c2.9-6.138-1.969-22.466.347-24.783,6.138-6.138,8.57-12.739,10.423-16.213,1.969-3.822,2.548-10.886,2.548-10.886l10.423,1.621,5.1,4.169a74.668,74.668,0,0,0-4.516-7.991c-2.779-4.4-14.128-6.948-18.529-6.138s-3.706,2.316-3.706,2.316Z" transform="translate(-301.829 -226.89)" fill="#263238"/>
                <path id="Path_8499" data-name="Path 8499" d="M328.612,263.4s-4.98-6.833-8.338-3.474c-3.358,3.243.347,15.75,6.138,14.36S332.086,266.875,328.612,263.4Z" transform="translate(-300.059 -222.539)" fill="#ffbe9d"/>
                <path id="Path_8500" data-name="Path 8500" d="M350.082,265.753c.232,1.621-.695,4.632-1.158,5.674h-1.042c-4.632.116-6.833-1.39-7.875-3.127a7.265,7.265,0,0,1-.695-4.4c2.548,1.39,6.833,1.737,9.264,1.737A13.448,13.448,0,0,0,350.082,265.753Z" transform="translate(-296.862 -221.764)" fill="#263238"/>
                <path id="Path_8501" data-name="Path 8501" d="M348.465,265.737l-.347,1.737c-4.4,0-7.527-.463-8.917-1.853a7.121,7.121,0,0,1,.116-1.621C341.748,265.39,346.148,265.737,348.465,265.737Z" transform="translate(-296.866 -221.749)" fill="#fff"/>
                <path id="Path_8502" data-name="Path 8502" d="M347.775,270.927c-4.632.116-6.833-1.39-7.875-3.127a15.93,15.93,0,0,1,5.211.926A6.082,6.082,0,0,1,347.775,270.927Z" transform="translate(-296.755 -221.148)" fill="#c05854"/>
                <path id="Path_8503" data-name="Path 8503" d="M322.772,263c-1.274,2.2-.116,5.327,2.085,6.948" transform="translate(-299.546 -221.907)" fill="none" stroke="#000" stroke-linecap="round" stroke-linejoin="round" stroke-width="0.5" opacity="0.2"/>
              </g>
              <path id="Path_8504" data-name="Path 8504" d="M334.5,258.981c.232,1.39,1.158,2.316,2.085,2.2.926-.232,1.39-1.39,1.158-2.779s-1.158-2.316-2.084-2.2S334.387,257.591,334.5,258.981Z" transform="translate(-297.611 -222.983)" fill="#263238"/>
              <path id="Path_8505" data-name="Path 8505" d="M346.808,255.181c.232,1.39,1.158,2.316,2.084,2.2.926-.232,1.39-1.39,1.158-2.779s-1.158-2.316-2.085-2.2S346.576,253.791,346.808,255.181Z" transform="translate(-295.672 -223.583)" fill="#263238"/>
            </g>
            <path id="Path_8506" data-name="Path 8506" d="M306.21,288.775c-.695-14.36,3.59-35.321,7.18-43.775" transform="translate(-302.092 -224.752)" fill="none" stroke="#263238" stroke-linecap="round" stroke-linejoin="round" stroke-width="0.75"/>
          </g>
          <g id="Group_14720" data-name="Group 14720" transform="translate(56.341 158.371)">
            <g id="freepik--Character--inject-6_00000002356471387956020020000012130784991900346768_">
              <path id="Path_8507" data-name="Path 8507" d="M363.7,378.008l19.8,10.538s-5.327,14.592-6.369,21.424c-2.2,14.244-1.274,51.534-1.274,51.534l10.075.463s18.066-60.682,20.5-69.6c2.316-8.57,4.053-14.939,0-20.266s-29.067-13.2-29.067-13.2Z" transform="translate(-299.08 -346.624)" fill="#ffbe9d"/>
              <path id="Path_8508" data-name="Path 8508" d="M384.041,389.237c-8.222-1.158-25.13-3.937-38.1-4.632l-15.055-.695c-33.468-1.737,33-32.31,33-32.31s22.235,6.254,39.722,13.318C394.463,373.719,390.873,382.173,384.041,389.237Z" transform="translate(-305.756 -347.778)" fill="#d94148"/>
              <path id="Path_8509" data-name="Path 8509" d="M307.9,352.7s.579,8.222.463,17.255c-.232,12.507,2.548,19.571,24.783,19.571,40.648,0,36.826-21.887,33.468-41.227Z" transform="translate(-307.9 -348.3)" fill="#d94148"/>
              <path id="Path_8510" data-name="Path 8510" d="M350,356.753l8.685-4.053.347,5.211s16.445,10.307,22.351,15.981c5.79,5.559.463,12.739.463,12.739l-5.327,6.948-22.814-7.527Z" transform="translate(-301.246 -347.604)" opacity="0.2"/>
              <path id="Path_8511" data-name="Path 8511" d="M337.8,385.519l20.729,9.149s-5.443,16.213-6.138,23.045c-1.158,10.538-2.779,48.175-2.779,48.175l10.654-2.664s18.992-55.7,21.308-64.62c2.316-8.57,4.053-14.939,0-20.266S355.287,361.2,355.287,361.2Z" transform="translate(-303.174 -346.261)" fill="#ffbe9d"/>
              <path id="Path_8512" data-name="Path 8512" d="M356.547,393.916c-12.507-1.969-24.2-2.316-36.363-6.254-3.243-1.042-10.886-17.024-10.075-22.582,2.779-19.108,42.038-11.581,42.038-11.581s17.95,13.434,26.4,18.529Z" transform="translate(-307.56 -347.709)" fill="#d94148"/>
            </g>
            <g id="Group_14717" data-name="Group 14717" transform="translate(73.014 109.305)">
              <g id="Group_14716" data-name="Group 14716">
                <path id="Path_8513" data-name="Path 8513" d="M386.295,444.4h-3.358a2.267,2.267,0,0,0-1.969,1.274c-1.969,3.358-3.474,2.085-5.559-1.042-1.39-.232-1.737,1.737-1.853,2.316l-2.548,11.581a1.823,1.823,0,0,0,1.042,2.2c.116,0,.232.116.463.116h26.867c4.285,0,5.559-5.211,2.664-6.138-7.875-2.2-12.739-4.98-15.171-7.875C386.295,446.369,386.758,446.021,386.295,444.4Z" transform="translate(-370.948 -442.415)" fill="#263238"/>
                <path id="Path_8514" data-name="Path 8514" d="M391.259,447.529a1.918,1.918,0,0,0,.579-1.39,1.674,1.674,0,0,0-.232-.811c-1.042-.926-5.327,1.506-5.79,1.853l-.116.116a.425.425,0,0,0,.116.347,9.754,9.754,0,0,0,3.127.463A2.484,2.484,0,0,0,391.259,447.529Zm.116-1.737a.425.425,0,0,1,.116.347,1.257,1.257,0,0,1-.463,1.042c-.926.926-3.243.463-4.516.232C388.248,446.371,390.8,445.328,391.375,445.792Z" transform="translate(-368.617 -442.301)" fill="#263238"/>
                <path id="Path_8515" data-name="Path 8515" d="M385.947,448.145c1.274-.695,3.937-3.358,3.822-4.748,0-.347-.232-.695-.811-.695-2.316-.347-3.358,4.864-3.358,5.1v.232c.232.116.232.116.347.116Zm3.011-4.98c.463,0,.463.232.463.347.116.811-1.853,3.011-3.243,3.937.232-1.274,1.158-4.285,2.664-4.285Z" transform="translate(-368.633 -442.686)" fill="#263238"/>
                <path id="Path_8516" data-name="Path 8516" d="M386.6,447.2a4.347,4.347,0,0,0-2.9,2.316" transform="translate(-368.933 -441.972)" fill="none" stroke="#263238" stroke-linecap="round" stroke-linejoin="round" stroke-width="0.5"/>
                <path id="Path_8517" data-name="Path 8517" d="M388.4,449a4.347,4.347,0,0,0-2.9,2.316" transform="translate(-368.648 -441.688)" fill="none" stroke="#263238" stroke-linecap="round" stroke-linejoin="round" stroke-width="0.5"/>
                <path id="Path_8518" data-name="Path 8518" d="M390.7,450.4a4.347,4.347,0,0,0-2.9,2.316" transform="translate(-368.285 -441.466)" fill="none" stroke="#263238" stroke-linecap="round" stroke-linejoin="round" stroke-width="0.5"/>
              </g>
            </g>
            <g id="Group_14719" data-name="Group 14719" transform="translate(43.484 109.305)">
              <g id="Group_14718" data-name="Group 14718">
                <path id="Path_8519" data-name="Path 8519" d="M360.795,444.4h-3.358a2.267,2.267,0,0,0-1.969,1.274c-1.969,3.358-3.474,2.085-5.559-1.042-1.39-.232-1.737,1.737-1.853,2.316l-2.548,11.581a1.823,1.823,0,0,0,1.042,2.2c.116,0,.232.116.463.116h26.867c4.285,0,5.559-5.211,2.664-6.138-7.875-2.2-12.739-4.98-15.171-7.875C360.91,446.369,361.374,446.021,360.795,444.4Z" transform="translate(-345.448 -442.415)" fill="#263238"/>
                <path id="Path_8520" data-name="Path 8520" d="M365.859,447.529a1.918,1.918,0,0,0,.579-1.39,1.674,1.674,0,0,0-.232-.811c-1.042-.926-5.327,1.506-5.79,1.853l-.116.116a.425.425,0,0,0,.116.347,9.754,9.754,0,0,0,3.127.463A2.484,2.484,0,0,0,365.859,447.529Zm0-1.737a.425.425,0,0,1,.116.347,1.257,1.257,0,0,1-.463,1.042c-.926.926-3.243.463-4.516.232C362.732,446.371,365.28,445.328,365.859,445.792Z" transform="translate(-343.101 -442.301)" fill="#263238"/>
                <path id="Path_8521" data-name="Path 8521" d="M360.547,448.145c1.274-.695,3.937-3.358,3.822-4.748,0-.347-.232-.695-.811-.695-2.316-.347-3.358,4.864-3.358,5.1v.232c.116.116.116.116.347.116Zm2.9-4.98c.463,0,.463.232.463.347.116.811-1.853,3.011-3.243,3.937.232-1.274,1.158-4.285,2.664-4.285Z" transform="translate(-343.117 -442.686)" fill="#263238"/>
                <path id="Path_8522" data-name="Path 8522" d="M361.2,447.2a4.347,4.347,0,0,0-2.9,2.316" transform="translate(-343.417 -441.972)" fill="none" stroke="#263238" stroke-linecap="round" stroke-linejoin="round" stroke-width="0.5"/>
                <path id="Path_8523" data-name="Path 8523" d="M363,449a4.347,4.347,0,0,0-2.9,2.316" transform="translate(-343.133 -441.688)" fill="none" stroke="#263238" stroke-linecap="round" stroke-linejoin="round" stroke-width="0.5"/>
                <path id="Path_8524" data-name="Path 8524" d="M365.2,450.4a4.347,4.347,0,0,0-2.9,2.316" transform="translate(-342.785 -441.466)" fill="none" stroke="#263238" stroke-linecap="round" stroke-linejoin="round" stroke-width="0.5"/>
              </g>
            </g>
          </g>
        </g>
        <g id="Group_14723" data-name="Group 14723" transform="translate(72.238 145.612)">
          <g id="Group_14722" data-name="Group 14722">
            <path id="Path_8525" data-name="Path 8525" d="M328.88,476.613H323.9L321.7,348.3h9.264Z" transform="translate(-319.615 -340.541)" fill="#263238"/>
            <path id="Path_8526" data-name="Path 8526" d="M461.08,475.123H456.1L453.9,350.4h9.38Z" transform="translate(-298.72 -340.209)" fill="#263238"/>
            <path id="Path_8527" data-name="Path 8527" d="M413.78,475.123H408.8L406.6,350.4h9.38Z" transform="translate(-306.196 -340.209)" fill="#263238"/>
            <rect id="Rectangle_1436" data-name="Rectangle 1436" width="168.73" height="10.307" fill="#263238"/>
            <path id="Path_8528" data-name="Path 8528" d="M461.08,475.123H456.1L453.9,350.4h9.38Z" transform="translate(-298.72 -340.209)" fill="#fff" opacity="0.3"/>
            <path id="Path_8529" data-name="Path 8529" d="M413.78,475.123H408.8L406.6,350.4h9.38Z" transform="translate(-306.196 -340.209)" fill="#fff" opacity="0.3"/>
            <rect id="Rectangle_1437" data-name="Rectangle 1437" width="157.612" height="22.582" transform="translate(6.717 7.759)" fill="#263238"/>
            <rect id="Rectangle_1438" data-name="Rectangle 1438" width="63.346" height="20.15" transform="translate(100.983 10.191)" fill="#fff" opacity="0.3"/>
          </g>
          <path id="Path_8530" data-name="Path 8530" d="M321.7,350.4l.116,6.369H483.945V350.4Z" transform="translate(-319.615 -340.209)" opacity="0.2"/>
        </g>
        <g id="Group_14725" data-name="Group 14725" transform="translate(127.477 128.241)">
          <g id="Group_14724" data-name="Group 14724">
            <rect id="Rectangle_1439" data-name="Rectangle 1439" width="74.811" height="8.57" fill="#263238"/>
            <path id="Path_8531" data-name="Path 8531" d="M436.926,333.164H404.732a2.446,2.446,0,0,1-2.432-2.432h0a2.446,2.446,0,0,1,2.432-2.432h32.194Z" transform="translate(-362.115 -326.331)" fill="#fff" opacity="0.8"/>
          </g>
          <rect id="Rectangle_1440" data-name="Rectangle 1440" width="37.405" height="8.57" opacity="0.3"/>
        </g>
      </g>
    </g>
    <g id="Character_1" transform="translate(717.5 279.538)">
      <g id="Group_14774" data-name="Group 14774" transform="translate(0 0)">
        <g id="Group_14745" data-name="Group 14745" transform="translate(100.072)">
          <path id="Path_8532" data-name="Path 8532" d="M145.3,296.74l24.088-26.172L179.579,237.1l11.465,1.969s-4.748,35.205-10.075,43.659-23.277,31.963-23.277,31.963Z" transform="translate(-145.3 -193.957)" fill="#ffbe9d"/>
          <g id="Group_14742" data-name="Group 14742" transform="translate(29.361 18.665)">
            <g id="Group_14741" data-name="Group 14741">
              <g id="Group_14730" data-name="Group 14730">
                <g id="Group_14729" data-name="Group 14729">
                  <g id="Group_14728" data-name="Group 14728">
                    <g id="Group_14727" data-name="Group 14727">
                      <path id="Path_8533" data-name="Path 8533" d="M177.077,244.031s-3.822-1.505-5.1-4.748a18.461,18.461,0,0,1-1.274-5.327c-.347-3.358,1.042-4.98,2.432-3.706s1.505,4.632,2.2,3.474c.811-1.158,1.505-13.318,2.779-14.823s1.737.463,1.737.463.232-2.664,1.505-3.127,1.621,1.274,1.621,1.274.232-1.853,1.505-1.505c1.274.232,1.621,11.233,1.853,11.7,0,0-1.042-6.485.347-7.412,1.505-.811,2.2,2.779,2.9,5.674a21.409,21.409,0,0,1-.347,9.38c-1.042,3.59-1.505,8.8-4.864,9.5A14.986,14.986,0,0,1,177.077,244.031Z" transform="translate(-170.653 -215.962)" fill="#ffbe9d"/>
                    </g>
                  </g>
                </g>
              </g>
              <g id="Group_14735" data-name="Group 14735" transform="translate(6.755 1.764)" opacity="0.2">
                <g id="Group_14734" data-name="Group 14734">
                  <g id="Group_14733" data-name="Group 14733">
                    <g id="Group_14732" data-name="Group 14732">
                      <g id="Group_14731" data-name="Group 14731">
                        <path id="Path_8534" data-name="Path 8534" d="M182.292,217.734a83.179,83.179,0,0,0-.232,9.264,17.279,17.279,0,0,1,2.432.232c.347.116.116.695-.232.579a16.12,16.12,0,0,0-7.412.463c-.463.116-.463-.463-.116-.579a10.43,10.43,0,0,1,1.853-.347l-.116-.116a25.753,25.753,0,0,1,.347-7.3c.116-.347.695-.347.579,0a29.83,29.83,0,0,0-.232,7.18c0,.116.811.695.695.695.811-.116.811-.695,1.621-.695,0-3.127.116-6.138.232-9.265C181.713,217.386,182.292,217.386,182.292,217.734Z" transform="translate(-176.486 -217.486)"/>
                      </g>
                    </g>
                  </g>
                </g>
              </g>
              <g id="Group_14740" data-name="Group 14740" transform="translate(5.236 17.993)" opacity="0.2">
                <g id="Group_14739" data-name="Group 14739">
                  <g id="Group_14738" data-name="Group 14738">
                    <g id="Group_14737" data-name="Group 14737">
                      <g id="Group_14736" data-name="Group 14736">
                        <path id="Path_8535" data-name="Path 8535" d="M182.152,238.217c-.926-3.59-3.474-5.906-6.717-6.022-.347,0-.347-.695,0-.695,3.59.116,6.369,2.664,7.3,6.485A.312.312,0,1,1,182.152,238.217Z" transform="translate(-175.175 -231.5)"/>
                      </g>
                    </g>
                  </g>
                </g>
              </g>
            </g>
          </g>
          <path id="Path_8536" data-name="Path 8536" d="M184,220.8a37.068,37.068,0,0,0,.347,6.138" transform="translate(-139.187 -196.533)" fill="none" stroke="#000" stroke-linecap="round" stroke-linejoin="round" stroke-width="0.5" opacity="0.2"/>
          <g id="Group_14743" data-name="Group 14743" transform="translate(18.876 5.854)">
            <path id="Path_8537" data-name="Path 8537" d="M220.43,224.355l7.643,7.3s-18.182-2.316-25.593,19.8L161.6,224.819l8.338-15.055,20.5-4.864Z" transform="translate(-161.6 -204.9)" fill="#263238"/>
            <path id="Path_8538" data-name="Path 8538" d="M220.43,224.355l7.643,7.3s-18.182-2.316-25.593,19.8L161.6,224.819l8.338-15.055,20.5-4.864Z" transform="translate(-161.6 -204.9)" fill="#fff" opacity="0.7"/>
          </g>
          <g id="Group_14744" data-name="Group 14744" transform="translate(16.56)">
            <path id="Path_8539" data-name="Path 8539" d="M159.6,224.112l37.637,23.509s7.875-15.055,19.687-20.382a39.74,39.74,0,0,1,8.454-3.011l-38.216-24.319C187.278,199.793,168.98,198.056,159.6,224.112Z" transform="translate(-159.6 -199.845)" fill="#263238"/>
            <path id="Path_8540" data-name="Path 8540" d="M159.6,224.112l37.637,23.509s7.875-15.055,19.687-20.382a39.74,39.74,0,0,1,8.454-3.011l-38.216-24.319C187.278,199.793,168.98,198.056,159.6,224.112Z" transform="translate(-159.6 -199.845)" fill="#fff" opacity="0.9"/>
            <path id="Path_8541" data-name="Path 8541" d="M169.5,220.455A23.839,23.839,0,0,1,186.871,205.4" transform="translate(-158.035 -198.967)" fill="none" stroke="#263238" stroke-linecap="round" stroke-linejoin="round" stroke-width="0.5"/>
            <path id="Path_8542" data-name="Path 8542" d="M173.8,224.055A23.839,23.839,0,0,1,191.171,209" transform="translate(-157.355 -198.398)" fill="none" stroke="#263238" stroke-linecap="round" stroke-linejoin="round" stroke-width="0.5"/>
            <path id="Path_8543" data-name="Path 8543" d="M178.1,227.765c2.664-7.527,10.538-14.244,18.413-15.865" transform="translate(-156.676 -197.94)" fill="none" stroke="#263238" stroke-linecap="round" stroke-linejoin="round" stroke-width="0.5"/>
            <path id="Path_8544" data-name="Path 8544" d="M183.1,230.586c2.548-7.18,10.423-13.781,17.834-15.286" transform="translate(-155.886 -197.403)" fill="none" stroke="#263238" stroke-linecap="round" stroke-linejoin="round" stroke-width="0.5"/>
            <path id="Path_8545" data-name="Path 8545" d="M188,234.086c2.548-7.18,10.423-13.781,17.834-15.286" transform="translate(-155.111 -196.849)" fill="none" stroke="#263238" stroke-linecap="round" stroke-linejoin="round" stroke-width="0.5"/>
          </g>
          <path id="Path_8546" data-name="Path 8546" d="M171.57,235.753c0-.463-1.853-5.675-1.042-6.948s7.527-3.243,7.18-1.621a10.733,10.733,0,0,1-2.085,3.474s4.169,1.737,4.053,5.559-5.211,4.516-5.211,4.516Z" transform="translate(-141.345 -195.621)" fill="#ffbe9d"/>
        </g>
        <g id="Group_14752" data-name="Group 14752" transform="translate(0 117.863)">
          <g id="Group_14746" data-name="Group 14746" transform="translate(0 21.21)">
            <path id="Path_8547" data-name="Path 8547" d="M120.858,380.345a380.6,380.6,0,0,0-6.717-53.734c-.811-4.285-5.443-7.18-10.423-6.6L75,323.137c-4.748.347-9.612,1.853-12.623,5.211-4.632,4.98-3.706,12.16-2.548,18.413,2.2,12.391,4.4,24.667,6.6,37.058.695,3.937,1.737,8.222,5.559,10.423,3.011,1.737,7.064,1.505,10.654,1.274q13.549-1.216,27.1-2.779c3.011-.347,6.369-.811,8.57-2.779C120.974,387.525,120.974,383.7,120.858,380.345Z" transform="translate(-58.886 -319.936)" fill="#407bff"/>
          </g>
          <path id="Path_8548" data-name="Path 8548" d="M112.48,331.406a6.5,6.5,0,0,0-6.369-5.79L81.444,325.5a3.207,3.207,0,0,0-1.042.116l-1.158.232a6.507,6.507,0,0,0-5.327,7.643l11.117,56.745c4.4,3.822,29.994,1.042,31.731-3.474C118.038,383.172,114.1,346,112.48,331.406Z" transform="translate(-56.53 -297.847)" opacity="0.2"/>
          <g id="Group_14751" data-name="Group 14751" transform="translate(22.095 0.439)">
            <path id="Path_8549" data-name="Path 8549" d="M124.6,309.442l7.875-1.042,11.465,88.476-7.875,1.042Z" transform="translate(-70.594 -300.988)" fill="#263238"/>
            <path id="Path_8550" data-name="Path 8550" d="M82,309.442l7.875-1.042,11.349,88.476-7.875,1.158Z" transform="translate(-77.328 -300.988)" fill="#263238"/>
            <g id="Group_14747" data-name="Group 14747" transform="translate(54.006 7.412)" opacity="0.3">
              <path id="Path_8551" data-name="Path 8551" d="M124.6,309.442l7.875-1.042,11.465,88.476-7.875,1.042Z" transform="translate(-124.6 -308.4)" fill="#fff"/>
            </g>
            <g id="Group_14748" data-name="Group 14748" transform="translate(4.672 7.412)" opacity="0.4">
              <path id="Path_8552" data-name="Path 8552" d="M82,309.442l7.875-1.042,11.349,88.476-7.875,1.158Z" transform="translate(-82 -308.4)" fill="#fff"/>
            </g>
            <path id="Path_8553" data-name="Path 8553" d="M148.068,346.238H88.544a6.4,6.4,0,0,1-6.369-5.674l-4.169-33A4.969,4.969,0,0,1,82.29,302h60.1a6.4,6.4,0,0,1,6.369,5.674l4.285,33a4.888,4.888,0,0,1-4.285,5.559Z" transform="translate(-77.966 -302)" fill="#263238"/>
            <path id="Path_8554" data-name="Path 8554" d="M148.068,346.238H88.544a6.4,6.4,0,0,1-6.369-5.674l-4.169-33A4.969,4.969,0,0,1,82.29,302h60.1a6.4,6.4,0,0,1,6.369,5.674l4.285,33a4.888,4.888,0,0,1-4.285,5.559Z" transform="translate(-77.966 -302)" fill="#fff" opacity="0.6"/>
            <g id="Group_14749" data-name="Group 14749" transform="translate(61.649 96.467)">
              <path id="Path_8555" data-name="Path 8555" d="M133.169,468.8h11.117l1.39-58.714.579-24.783H131.2l.579,24.783Z" transform="translate(-131.2 -385.3)" fill="#263238"/>
              <path id="Path_8556" data-name="Path 8556" d="M133.169,468.8h11.117l1.39-58.714.579-24.783H131.2l.579,24.783Z" transform="translate(-131.2 -385.3)" fill="#fff" opacity="0.4"/>
              <path id="Path_8557" data-name="Path 8557" d="M146.255,385.3l-.579,25.477h-13.9L131.2,385.3Z" transform="translate(-131.2 -385.3)" opacity="0.2"/>
            </g>
            <g id="Group_14750" data-name="Group 14750" transform="translate(102.528 98.088)">
              <path id="Path_8558" data-name="Path 8558" d="M184.334,468.559,179.47,386.8H166.5l6.717,81.759Z" transform="translate(-166.5 -386.684)" fill="#263238"/>
              <path id="Path_8559" data-name="Path 8559" d="M173.217,468.575h11l-4.053-69.6L179.47,386.7H166.5l.926,12.275Z" transform="translate(-166.5 -386.7)" fill="#fff" opacity="0.5"/>
            </g>
            <path id="Path_8560" data-name="Path 8560" d="M104.617,468.559l6.717-81.759H98.364L93.5,468.559Z" transform="translate(-75.51 -288.596)" fill="#263238"/>
            <path id="Path_8561" data-name="Path 8561" d="M104.617,468.575l5.79-69.6.926-12.275H98.364l-.695,12.275-4.169,69.6Z" transform="translate(-75.51 -288.612)" fill="#fff" opacity="0.5"/>
            <path id="Path_8562" data-name="Path 8562" d="M110.765,386.7l-.926,12.739H97.1l.695-12.739Z" transform="translate(-74.941 -288.612)" opacity="0.2"/>
            <path id="Path_8563" data-name="Path 8563" d="M91.932,382.8H199.4a4.646,4.646,0,0,1,4.632,4.632h0a4.646,4.646,0,0,1-4.632,4.632H91.932a4.646,4.646,0,0,1-4.632-4.632h0A4.646,4.646,0,0,1,91.932,382.8Z" transform="translate(-76.49 -289.228)" fill="#263238"/>
            <path id="Path_8564" data-name="Path 8564" d="M91.932,382.8H199.4a4.646,4.646,0,0,1,4.632,4.632h0a4.646,4.646,0,0,1-4.632,4.632H91.932a4.646,4.646,0,0,1-4.632-4.632h0A4.646,4.646,0,0,1,91.932,382.8Z" transform="translate(-76.49 -289.228)" fill="#fff" opacity="0.6"/>
          </g>
          <path id="Path_8565" data-name="Path 8565" d="M88.012,302.06,76.2,374.439l5.675,12.16s11.581-55.819,13.549-66.7S96.7,302.06,96.7,302.06A21.912,21.912,0,0,0,88.012,302.06Z" transform="translate(-56.15 -301.621)" fill="#407bff"/>
          <path id="Path_8566" data-name="Path 8566" d="M79.07,308.6,70.5,325.16V326.2L81.386,324Z" transform="translate(-57.051 -300.518)" fill="#407bff"/>
          <path id="Path_8567" data-name="Path 8567" d="M75.2,365.739c1.158-4.98,1.969-7.759,3.127-12.739" transform="translate(-56.308 -293.5)" fill="none" stroke="#263238" stroke-linecap="round" stroke-linejoin="round" stroke-width="0.5" opacity="0.3"/>
          <path id="Path_8568" data-name="Path 8568" d="M68.5,328.78a96.954,96.954,0,0,0,4.516-9.38" transform="translate(-57.367 -298.811)" fill="none" stroke="#263238" stroke-linecap="round" stroke-linejoin="round" stroke-width="0.5" opacity="0.3"/>
          <path id="Path_8569" data-name="Path 8569" d="M68.791,370.243S64.969,349.862,63,332.722c0,0-.232-6.254,2.9-8.222" transform="translate(-58.237 -298.005)" fill="none" stroke="#263238" stroke-linecap="round" stroke-linejoin="round" stroke-width="0.5" opacity="0.3"/>
        </g>
        <g id="Group_14759" data-name="Group 14759" transform="translate(50.037 171.688)">
          <path id="Path_8570" data-name="Path 8570" d="M156.2,388l.926,12.739h12.739L169.17,388Z" transform="translate(-93.542 -341.793)" opacity="0.2"/>
          <path id="Path_8571" data-name="Path 8571" d="M159.8,377.908l19.8,10.538s-5.327,14.592-6.369,21.424c-2.2,14.244-1.274,51.534-1.274,51.534l10.075.463s18.066-60.682,20.5-69.6c2.316-8.57,4.053-14.939,0-20.266s-29.067-13.2-29.067-13.2Z" transform="translate(-92.973 -346.409)" fill="#ffbe9d"/>
          <path id="Path_8572" data-name="Path 8572" d="M180.041,389.237c-8.222-1.158-25.13-3.937-38.1-4.632l-15.055-.695c-33.468-1.737,33-32.31,33-32.31s22.235,6.254,39.722,13.318C190.463,373.6,186.873,382.057,180.041,389.237Z" transform="translate(-99.664 -347.547)" fill="#d94148"/>
          <path id="Path_8573" data-name="Path 8573" d="M104.3,352.616s-2.085,4.632-2.2,13.665c-.232,12.507,5.211,23.045,27.446,23.045,40.648,0,36.826-21.887,33.468-41.227Z" transform="translate(-102.094 -348.1)" fill="#d94148"/>
          <path id="Path_8574" data-name="Path 8574" d="M146,356.653l8.685-4.053.347,5.211s16.445,10.307,22.351,15.981c5.79,5.559.463,12.739.463,12.739l-5.327,6.948-22.814-7.527Z" transform="translate(-95.154 -347.389)" opacity="0.2"/>
          <path id="Path_8575" data-name="Path 8575" d="M133.9,385.519l20.729,9.149s-5.443,16.213-6.138,23.045c-1.158,10.538-2.779,48.175-2.779,48.175l10.654-2.664s18.992-55.7,21.308-64.62c2.316-8.57,4.053-14.939,0-20.266S151.387,361.2,151.387,361.2Z" transform="translate(-97.067 -346.029)" fill="#ffbe9d"/>
          <path id="Path_8576" data-name="Path 8576" d="M152.646,393.816c-12.507-1.969-24.2-2.316-36.363-6.254-3.243-1.042-10.886-17.024-10.075-22.582,2.779-19.108,42.038-11.581,42.038-11.581s17.95,13.434,26.4,18.529Z" transform="translate(-101.453 -347.493)" fill="#d94148"/>
          <path id="Path_8577" data-name="Path 8577" d="M170.216,447.718,170.1,432.2h15.634l-4.98,17.371-5.675,3.706Z" transform="translate(-91.345 -334.807)" fill="#407bff"/>
          <path id="Path_8578" data-name="Path 8578" d="M170.216,447.718,170.1,432.2h15.634l-4.98,17.371-5.675,3.706Z" transform="translate(-91.345 -334.807)" fill="#fff" opacity="0.7"/>
          <g id="Group_14755" data-name="Group 14755" transform="translate(74.527 109.536)">
            <path id="Path_8579" data-name="Path 8579" d="M181.795,444.4h-3.358a2.267,2.267,0,0,0-1.969,1.274c-1.969,3.358-3.474,2.085-5.559-1.042-1.39-.232-1.737,1.737-1.853,2.316l-2.548,11.581a1.823,1.823,0,0,0,1.042,2.2c.116,0,.232.116.463.116h26.867c4.285,0,5.559-5.211,2.664-6.138-7.875-2.2-12.739-4.98-15.171-7.875C181.795,446.369,182.258,446.021,181.795,444.4Z" transform="translate(-166.449 -442.415)" fill="#263238"/>
            <path id="Path_8580" data-name="Path 8580" d="M198.581,456.6H166.5a2.022,2.022,0,0,0,1.042,2.2c.116,0,.232.116.463.116h26.867A3.941,3.941,0,0,0,198.581,456.6Z" transform="translate(-166.443 -440.486)" fill="#fff" opacity="0.7"/>
            <g id="Group_14754" data-name="Group 14754" transform="translate(14.767)">
              <g id="Group_14753" data-name="Group 14753">
                <path id="Path_8581" data-name="Path 8581" d="M186.759,447.529a1.918,1.918,0,0,0,.579-1.39,1.674,1.674,0,0,0-.232-.811c-1.042-.926-5.327,1.506-5.79,1.853l-.116.116a.425.425,0,0,0,.116.347,9.754,9.754,0,0,0,3.127.463A2.484,2.484,0,0,0,186.759,447.529Zm.116-1.737a.425.425,0,0,1,.116.347,1.257,1.257,0,0,1-.463,1.042c-.926.926-3.243.463-4.516.232C183.748,446.371,186.3,445.328,186.874,445.792Z" transform="translate(-178.884 -442.301)" fill="#263238"/>
                <path id="Path_8582" data-name="Path 8582" d="M181.447,448.145c1.274-.695,3.937-3.358,3.822-4.748,0-.347-.232-.695-.811-.695-2.316-.347-3.358,4.864-3.358,5.1v.232c.232.116.232.116.347.116Zm3.011-4.98c.463,0,.463.232.463.347.116.811-1.853,3.011-3.243,3.937.232-1.274,1.158-4.285,2.664-4.285Z" transform="translate(-178.9 -442.686)" fill="#263238"/>
                <path id="Path_8583" data-name="Path 8583" d="M182.1,447.2a4.347,4.347,0,0,0-2.9,2.316" transform="translate(-179.2 -441.972)" fill="none" stroke="#263238" stroke-linecap="round" stroke-linejoin="round" stroke-width="0.5"/>
                <path id="Path_8584" data-name="Path 8584" d="M183.9,449a4.347,4.347,0,0,0-2.9,2.316" transform="translate(-178.915 -441.688)" fill="none" stroke="#263238" stroke-linecap="round" stroke-linejoin="round" stroke-width="0.5"/>
                <path id="Path_8585" data-name="Path 8585" d="M186.2,450.4a4.347,4.347,0,0,0-2.9,2.316" transform="translate(-178.552 -441.466)" fill="none" stroke="#263238" stroke-linecap="round" stroke-linejoin="round" stroke-width="0.5"/>
              </g>
            </g>
          </g>
          <path id="Path_8586" data-name="Path 8586" d="M167.562,452.5s-1.39,3.937-1.158,4.98a5.211,5.211,0,0,0,1.042,1.969,3.158,3.158,0,0,0,1.969-.463,8.7,8.7,0,0,0,.811-.926,3.26,3.26,0,0,0-1.39-5.1Z" transform="translate(-91.933 -331.598)" opacity="0.2"/>
          <g id="Group_14758" data-name="Group 14758" transform="translate(45.691 95.54)">
            <g id="Group_14757" data-name="Group 14757">
              <g id="Group_14756" data-name="Group 14756">
                <path id="Path_8587" data-name="Path 8587" d="M144.2,447.739l.926-17.139,16.329,1.158L155.9,449.013l-7.412,4.516Z" transform="translate(-141.129 -430.6)" fill="#407bff"/>
                <path id="Path_8588" data-name="Path 8588" d="M144.2,447.739l.926-17.139,16.329,1.158L155.9,449.013l-7.412,4.516Z" transform="translate(-141.129 -430.6)" fill="#fff" opacity="0.7"/>
                <path id="Path_8589" data-name="Path 8589" d="M156.895,444.4h-3.358a2.267,2.267,0,0,0-1.969,1.274c-1.969,3.358-3.474,2.085-5.559-1.042-1.39-.232-1.737,1.737-1.853,2.316l-2.548,11.581a1.823,1.823,0,0,0,1.042,2.2c.116,0,.232.116.463.116h26.751c4.285,0,5.559-5.211,2.664-6.138-7.875-2.2-12.739-4.98-15.171-7.875C156.895,446.369,157.358,446.021,156.895,444.4Z" transform="translate(-141.549 -428.419)" fill="#263238"/>
                <path id="Path_8590" data-name="Path 8590" d="M161.859,447.529a1.918,1.918,0,0,0,.579-1.39,1.674,1.674,0,0,0-.232-.811c-1.042-.926-5.327,1.506-5.79,1.853l-.116.116a.425.425,0,0,0,.116.347,9.754,9.754,0,0,0,3.127.463A2.484,2.484,0,0,0,161.859,447.529Zm.116-1.737a.425.425,0,0,1,.116.347,1.257,1.257,0,0,1-.463,1.042c-.926.926-3.243.463-4.516.232C158.848,446.371,161.4,445.328,161.974,445.792Z" transform="translate(-139.217 -428.305)" fill="#263238"/>
                <path id="Path_8591" data-name="Path 8591" d="M156.547,448.145c1.274-.695,3.937-3.358,3.822-4.748,0-.347-.232-.695-.811-.695-2.316-.347-3.358,4.864-3.358,5.1v.232c.232.116.232.116.347.116Zm3.011-4.98c.463,0,.463.232.463.347.116.811-1.853,3.011-3.243,3.937.232-1.274,1.158-4.285,2.664-4.285Z" transform="translate(-139.233 -428.69)" fill="#263238"/>
                <path id="Path_8592" data-name="Path 8592" d="M157.2,447.2a4.347,4.347,0,0,0-2.9,2.316" transform="translate(-139.533 -427.976)" fill="none" stroke="#263238" stroke-linecap="round" stroke-linejoin="round" stroke-width="0.5"/>
                <path id="Path_8593" data-name="Path 8593" d="M159,449a4.347,4.347,0,0,0-2.9,2.316" transform="translate(-139.248 -427.692)" fill="none" stroke="#263238" stroke-linecap="round" stroke-linejoin="round" stroke-width="0.5"/>
                <path id="Path_8594" data-name="Path 8594" d="M161.3,450.4a4.347,4.347,0,0,0-2.9,2.316" transform="translate(-138.885 -427.47)" fill="none" stroke="#263238" stroke-linecap="round" stroke-linejoin="round" stroke-width="0.5"/>
              </g>
            </g>
            <path id="Path_8595" data-name="Path 8595" d="M173.681,456.6H141.6a2.022,2.022,0,0,0,1.042,2.2c.116,0,.232.116.463.116H169.86A3.994,3.994,0,0,0,173.681,456.6Z" transform="translate(-141.543 -426.49)" fill="#fff" opacity="0.7"/>
          </g>
        </g>
        <g id="Group_14761" data-name="Group 14761" transform="translate(42.047 84.718)">
          <path id="Path_8596" data-name="Path 8596" d="M142.9,290.371,161.429,273l17.718,13.318s-19.687,24.667-23.509,28.488C151.817,318.743,142.9,290.371,142.9,290.371Z" transform="translate(-87.654 -273)" fill="#407bff"/>
          <path id="Path_8597" data-name="Path 8597" d="M142.9,290.371,161.429,273l17.718,13.318s-19.687,24.667-23.509,28.488C151.817,318.743,142.9,290.371,142.9,290.371Z" transform="translate(-87.654 -273)" opacity="0.4"/>
          <path id="Path_8598" data-name="Path 8598" d="M155.016,311.24c-1.505-6.485-3.011-12.854-4.516-19.34l7.991,15.286Z" transform="translate(-86.453 -270.013)" opacity="0.4"/>
          <path id="Path_8599" data-name="Path 8599" d="M102,367.769c1.274-5.906,1.042-15.518,1.042-15.518,0-21.424.811-48.06,1.621-55.471.347-2.9-3.822-6.485,3.706-8.57a64.274,64.274,0,0,1,13.549-1.969c8.106-.463,18.413-.347,29.878,0,0,0,4.632,8.338,10.307,24.088,0,0,1.737,16.445,3.011,27.1l3.243,24.2C163.956,368.233,140.679,373.328,102,367.769Z" transform="translate(-94.119 -270.955)" fill="#407bff"/>
          <path id="Path_8600" data-name="Path 8600" d="M102,368.126c1.274-5.906,1.042-15.518,1.042-15.518,0-21.424.811-48.06,1.621-55.471.347-2.9-3.127-6.948,4.516-9.149a58.925,58.925,0,0,1,12.739-1.853c7.875-.347,18.066-.347,29.878,0,0,0,4.632,8.338,10.307,24.088,0,0,1.853,16.792,3.011,27.446l3.243,24.2C164.072,368.59,140.8,373.685,102,368.126Z" transform="translate(-94.119 -270.965)" opacity="0.4"/>
          <g id="Group_14760" data-name="Group 14760" transform="translate(0 16.978)">
            <path id="Path_8601" data-name="Path 8601" d="M95.2,305.888l.347,23.624L117.9,325s.695-17.6.347-29.994c-.116-6.485-3.937-7.875-8.338-7.18A17.861,17.861,0,0,0,95.2,305.888Z" transform="translate(-95.195 -287.66)" fill="#407bff"/>
            <path id="Path_8602" data-name="Path 8602" d="M95.2,305.888l.347,23.624L117.9,325s.695-17.6.347-29.994c-.116-6.485-3.937-7.875-8.338-7.18A17.861,17.861,0,0,0,95.2,305.888Z" transform="translate(-95.195 -287.66)" opacity="0.4"/>
          </g>
          <path id="Path_8603" data-name="Path 8603" d="M114.758,325.4l5.1-1.39s-3.127-21.772-3.243-21.308c-.116.347.695,19.108.695,19.108l-3.706,1.042Z" transform="translate(-92.285 -268.306)" opacity="0.4"/>
        </g>
        <g id="Group_14763" data-name="Group 14763" transform="translate(58.035 164.161)">
          <g id="Group_14762" data-name="Group 14762">
            <path id="Path_8604" data-name="Path 8604" d="M117.864,476.613H113L110.8,348.3h9.264Z" transform="translate(-108.715 -340.541)" fill="#263238"/>
            <path id="Path_8605" data-name="Path 8605" d="M250.18,475.123H245.2L243,350.4h9.38Z" transform="translate(-87.82 -340.209)" fill="#263238"/>
            <path id="Path_8606" data-name="Path 8606" d="M202.88,475.123H197.9L195.7,350.4h9.265Z" transform="translate(-95.296 -340.209)" fill="#263238"/>
            <rect id="Rectangle_1441" data-name="Rectangle 1441" width="168.73" height="10.307" fill="#263238"/>
            <path id="Path_8607" data-name="Path 8607" d="M250.18,475.123H245.2L243,350.4h9.38Z" transform="translate(-87.82 -340.209)" fill="#fff" opacity="0.3"/>
            <path id="Path_8608" data-name="Path 8608" d="M202.88,475.123H197.9L195.7,350.4h9.265Z" transform="translate(-95.296 -340.209)" fill="#fff" opacity="0.3"/>
            <rect id="Rectangle_1442" data-name="Rectangle 1442" width="157.612" height="22.582" transform="translate(6.717 7.759)" fill="#263238"/>
            <rect id="Rectangle_1443" data-name="Rectangle 1443" width="63.346" height="20.15" transform="translate(100.983 10.191)" fill="#fff" opacity="0.3"/>
          </g>
          <path id="Path_8609" data-name="Path 8609" d="M110.8,350.4l.116,6.369H273.045V350.4Z" transform="translate(-108.715 -340.209)" opacity="0.2"/>
        </g>
        <g id="Group_14765" data-name="Group 14765" transform="translate(100.072 155.591)">
          <g id="Group_14764" data-name="Group 14764">
            <rect id="Rectangle_1444" data-name="Rectangle 1444" width="74.811" height="8.57" fill="#407bff"/>
            <rect id="Rectangle_1445" data-name="Rectangle 1445" width="34.626" height="4.98" transform="translate(40.185 1.853)" fill="#fff" opacity="0.8"/>
          </g>
          <rect id="Rectangle_1446" data-name="Rectangle 1446" width="37.405" height="8.57" opacity="0.2"/>
        </g>
        <g id="Group_14767" data-name="Group 14767" transform="translate(105.284 147.021)">
          <g id="Group_14766" data-name="Group 14766">
            <rect id="Rectangle_1447" data-name="Rectangle 1447" width="74.811" height="8.57" fill="#263238"/>
            <path id="Path_8610" data-name="Path 8610" d="M219.126,333.364H186.932a2.446,2.446,0,0,1-2.432-2.432h0a2.446,2.446,0,0,1,2.432-2.432h32.194Z" transform="translate(-144.315 -326.531)" fill="#fff" opacity="0.8"/>
          </g>
          <rect id="Rectangle_1448" data-name="Rectangle 1448" width="37.405" height="8.57" opacity="0.3"/>
        </g>
        <g id="Group_14772" data-name="Group 14772" transform="translate(46.338 139.147)">
          <path id="Path_8611" data-name="Path 8611" d="M98.9,323.59s2.2,16.792,4.169,20.613a10.868,10.868,0,0,0,9.149,4.864c12.854-.347,39.49-8.106,39.143-9.264L148.349,329.5l-29.183,3.358L116.618,320Z" transform="translate(-98.9 -320)" fill="#ffbe9d"/>
          <g id="Group_14771" data-name="Group 14771" transform="translate(46.676 0.063)">
            <g id="Group_14770" data-name="Group 14770">
              <g id="Group_14769" data-name="Group 14769">
                <g id="Group_14768" data-name="Group 14768">
                  <path id="Path_8612" data-name="Path 8612" d="M139.315,332.151s.579-4.053,3.358-6.022,4.4-4.285,6.485-5.674,2.664,1.158,1.737,2.779-3.358,4.285-2.085,4.748,13.2-1.737,15.055-.926c1.737.811,0,1.853,0,1.853s2.664-.463,3.358.579c.695,1.158-.811,1.969-.811,1.969s1.853-.232,1.853,1.042-10.538,4.285-10.886,4.632c0,0,6.022-2.664,7.18-1.39,1.158,1.158-2.2,2.9-4.748,4.285a20.319,20.319,0,0,1-9.149,1.969c-3.706-.116-8.917.695-10.423-2.432A15.366,15.366,0,0,1,139.315,332.151Z" transform="translate(-139.205 -320.054)" fill="#ffbe9d"/>
                </g>
              </g>
            </g>
          </g>
        </g>
        <g id="Group_14773" data-name="Group 14773" transform="translate(53.547 28.682)">
          <path id="Path_8613" data-name="Path 8613" d="M122,266.9c.579,4.285.232,8.222,0,12.507-.116,2.9-1.737,7.18-2.9,9.844l17.718,11.117c-.463-10.654.116-17.255,6.6-19.919C152.336,276.743,122,266.9,122,266.9Z" transform="translate(-102.916 -217.928)" fill="#ffbe9d"/>
          <path id="Path_8614" data-name="Path 8614" d="M121.6,266.9a59.742,59.742,0,0,1,.463,12.854c3.706,5.443,8.338,10.654,14.476,12.739-.116-2.316,0-9.38,6.485-12.044C151.941,276.743,121.6,266.9,121.6,266.9Z" transform="translate(-102.521 -217.928)" opacity="0.2"/>
          <path id="Path_8615" data-name="Path 8615" d="M142.6,237.8s9.149,5.211,7.527,15.634c-1.505,10.423-18.529-7.3-18.529-7.3Z" transform="translate(-100.94 -222.528)" fill="#263238"/>
          <path id="Path_8616" data-name="Path 8616" d="M111.269,265.373c6.369,12.391,9.38,20.034,19.455,23.509,15.171,5.211,30.457-8.338,28.373-22.582-1.737-12.854-11.928-31.036-28.257-29.994C114.628,237.117,104.9,252.982,111.269,265.373Z" transform="translate(-104.466 -222.771)" fill="#ffbe9d"/>
          <path id="Path_8617" data-name="Path 8617" d="M132.425,260.405c.463,1.274,1.505,2.2,2.432,1.853s1.158-1.621.695-2.9-1.505-2.2-2.432-1.853S132.077,259.016,132.425,260.405Z" transform="translate(-100.839 -219.424)" fill="#263238"/>
          <path id="Path_8618" data-name="Path 8618" d="M143.425,254.505c.463,1.274,1.505,2.2,2.432,1.853.811-.347,1.158-1.621.695-2.9s-1.506-2.2-2.432-1.853S143.077,253.115,143.425,254.505Z" transform="translate(-99.1 -220.357)" fill="#263238"/>
          <path id="Path_8619" data-name="Path 8619" d="M132.958,251.039a.7.7,0,0,0,.116-.463.7.7,0,0,0-1.042-.463,8,8,0,0,0-5.327,5.211.829.829,0,0,0,.579,1.042h0a.829.829,0,0,0,1.042-.579h0a6.444,6.444,0,0,1,4.4-4.053A1.646,1.646,0,0,0,132.958,251.039Z" transform="translate(-101.719 -220.596)" fill="#263238"/>
          <path id="Path_8620" data-name="Path 8620" d="M147.188,245.755l.347-.347a.829.829,0,0,0-.579-1.042,8.062,8.062,0,0,0-7.412,1.042.774.774,0,0,0-.116,1.158h0a.891.891,0,0,0,1.158.116h0a6.318,6.318,0,0,1,5.906-.695A1.646,1.646,0,0,0,147.188,245.755Z" transform="translate(-99.736 -221.565)" fill="#263238"/>
          <path id="Path_8621" data-name="Path 8621" d="M141.8,258.1l4.864,1.621s-.463,1.853-3.937,3.59Z" transform="translate(-99.328 -219.319)" fill="#cc987e"/>
          <path id="Path_8622" data-name="Path 8622" d="M107.528,258.413s-6.485-7.759,1.853-14.476c2.548-2.085,7.3-9.149,10.075-13.549a3,3,0,0,1,5.443.811h0a56.235,56.235,0,0,0,4.748-4.4,7.588,7.588,0,0,1,10.538-.116c2.2,1.969,4.169,4.285,4.4,6.254l1.737-1.505a2.392,2.392,0,0,1,3.937,2.2c-1.042,5.1-3.243,11.581-8.222,13.2-8.454,2.664-17.139,1.737-14.244,13.086s-3.127,15.4-3.127,15.4L124.2,286.67s-10.423-1.042-15.634-12.507S107.528,258.413,107.528,258.413Z" transform="translate(-105.125 -224.612)" fill="#263238"/>
          <path id="Path_8623" data-name="Path 8623" d="M124.705,265.637s-5.559-6.369-8.57-2.9c-3.127,3.59,1.621,15.634,7.3,13.9C128.99,274.785,128.527,268.763,124.705,265.637Z" transform="translate(-103.542 -218.749)" fill="#ffbe9d"/>
          <path id="Path_8624" data-name="Path 8624" d="M146.389,266.226c.347,1.621-.347,4.748-.695,5.79l-1.042.116c-4.632.463-6.948-.926-8.106-2.548A6.967,6.967,0,0,1,135.5,265.3c2.664,1.274,6.948,1.158,9.38,1.042A10.263,10.263,0,0,0,146.389,266.226Z" transform="translate(-100.327 -218.181)" fill="#263238"/>
          <path id="Path_8625" data-name="Path 8625" d="M144.776,266.326l-.232,1.737c-4.4.463-7.527.116-9.033-1.042a3.826,3.826,0,0,1,0-1.621C138.06,266.558,142.344,266.442,144.776,266.326Z" transform="translate(-100.336 -218.165)" fill="#fff"/>
          <path id="Path_8626" data-name="Path 8626" d="M144.406,271.553c-4.632.463-6.948-.926-8.106-2.548a13.983,13.983,0,0,1,5.327.579A5.362,5.362,0,0,1,144.406,271.553Z" transform="translate(-100.198 -217.602)" fill="#c05854"/>
          <path id="Path_8627" data-name="Path 8627" d="M118.854,265.7c-1.158,2.316.347,5.327,2.664,6.717" transform="translate(-103.018 -218.118)" fill="none" stroke="#000" stroke-linecap="round" stroke-linejoin="round" stroke-width="0.5" opacity="0.3"/>
        </g>
      </g>
    </g>
    <g id="Book" transform="translate(945.2 205.15)">
      <g id="Group_14662" data-name="Group 14662">
        <path id="Path_8441" data-name="Path 8441" d="M177.7,123.7c-.4-.1-2.6,3.3-2.6,3.3l13,9.4,19.4-4.1,20.6-18.5-.5-3.8-4-2.3-1.8.8-.5-1.7s-1.8,2-3.4,3.4-14,5.2-15,13.3c0,0-3.8-2.9-8-1.9S182.1,124.9,177.7,123.7Z" fill="#263238"/>
        <path id="Path_8442" data-name="Path 8442" d="M177.7,123.7c-.4-.1-2.6,3.3-2.6,3.3l13,9.4,19.4-4.1,20.6-18.5-.5-3.8-4-2.3-1.8.8-.5-1.7s-1.8,2-3.4,3.4-14,5.2-15,13.3c0,0-3.8-2.9-8-1.9S182.1,124.9,177.7,123.7Z" fill="#fff" opacity="0.8"/>
        <g id="Group_14661" data-name="Group 14661">
          <path id="Path_8443" data-name="Path 8443" d="M172.4,126.7,187.5,158l22.9-1.1s1.9,1.7,5.4-1.3L235,142.3l-5.9-33.5-22.3,15.3a8.072,8.072,0,0,1-6.7,2Z" fill="#407bff"/>
          <path id="Path_8444" data-name="Path 8444" d="M210.4,157l-10.3-30.8a7.6,7.6,0,0,0,3.6-.2,9.543,9.543,0,0,0,3.1-1.8l9,31.5S212.8,158.5,210.4,157Z" opacity="0.3"/>
        </g>
      </g>
    </g>
    <g id="Group_14651" data-name="Group 14651" transform="translate(593.2 170.279)">
      <g id="Group_14650" data-name="Group 14650">
        <path id="Path_8426" data-name="Path 8426" d="M46.3,217.2s7.5,26.2-5.8,39.4l21.3,15.1S72.1,248,65.2,233Z" fill="#263238"/>
        <path id="Path_8427" data-name="Path 8427" d="M46.3,217.2s7.5,26.2-5.8,39.4l21.3,15.1S72.1,248,65.2,233Z" fill="#fff" opacity="0.9"/>
      </g>
      <line id="Line_229" data-name="Line 229" x2="11.5" y2="8.1" transform="translate(52.3 231.3)" fill="#ebebeb" stroke="#263238" stroke-linecap="round" stroke-linejoin="round" stroke-width="0.5"/>
      <line id="Line_230" data-name="Line 230" x2="11.4" y2="8.1" transform="translate(52.6 236.9)" fill="#ebebeb" stroke="#263238" stroke-linecap="round" stroke-linejoin="round" stroke-width="0.5"/>
      <line id="Line_231" data-name="Line 231" x2="11.4" y2="8.1" transform="translate(52.8 242.5)" fill="#ebebeb" stroke="#263238" stroke-linecap="round" stroke-linejoin="round" stroke-width="0.5"/>
      <line id="Line_232" data-name="Line 232" x2="11.4" y2="8.1" transform="translate(51.3 247.3)" fill="#ebebeb" stroke="#263238" stroke-linecap="round" stroke-linejoin="round" stroke-width="0.5"/>
      <line id="Line_233" data-name="Line 233" x2="11.5" y2="8.1" transform="translate(49.7 252.6)" fill="#ebebeb" stroke="#263238" stroke-linecap="round" stroke-linejoin="round" stroke-width="0.5"/>
    </g>
    <g id="Group_14657" data-name="Group 14657" transform="translate(593.2 170.279)">
      <g id="Group_14656" data-name="Group 14656">
        <path id="Path_8432" data-name="Path 8432" d="M135.7,173.7s-26.9-4.7-32.8-22.5L80,163.7s16.8,19.7,33.3,20Z" fill="#263238"/>
        <path id="Path_8433" data-name="Path 8433" d="M135.7,173.7s-26.9-4.7-32.8-22.5L80,163.7s16.8,19.7,33.3,20Z" fill="#fff" opacity="0.8"/>
      </g>
      <line id="Line_244" data-name="Line 244" x1="12.3" y2="6.8" transform="translate(102.9 170.6)" fill="#ebebeb" stroke="#263238" stroke-linecap="round" stroke-linejoin="round" stroke-width="0.5"/>
      <line id="Line_245" data-name="Line 245" x1="12.3" y2="6.7" transform="translate(97.8 168.4)" fill="#ebebeb" stroke="#263238" stroke-linecap="round" stroke-linejoin="round" stroke-width="0.5"/>
      <line id="Line_246" data-name="Line 246" x1="12.3" y2="6.7" transform="translate(94.1 164.9)" fill="#ebebeb" stroke="#263238" stroke-linecap="round" stroke-linejoin="round" stroke-width="0.5"/>
      <line id="Line_247" data-name="Line 247" x1="12.2" y2="6.8" transform="translate(90.1 161.2)" fill="#ebebeb" stroke="#263238" stroke-linecap="round" stroke-linejoin="round" stroke-width="0.5"/>
    </g>
    <g id="Group_14649" data-name="Group 14649" transform="translate(887.2 213.15)">
      <g id="Group_14648" data-name="Group 14648">
        <path id="Path_8424" data-name="Path 8424" d="M242.2,180s27.1,3,34.2,20.4l22.1-13.9s-18-18.6-34.4-17.9Z" fill="#263238"/>
        <path id="Path_8425" data-name="Path 8425" d="M242.2,180s27.1,3,34.2,20.4l22.1-13.9s-18-18.6-34.4-17.9Z" fill="#fff" opacity="0.9"/>
      </g>
      <line id="Line_224" data-name="Line 224" y1="7.5" x2="11.8" transform="translate(257.6 172.3)" fill="#ebebeb" stroke="#263238" stroke-linecap="round" stroke-linejoin="round" stroke-width="0.5"/>
      <line id="Line_225" data-name="Line 225" y1="7.4" x2="11.9" transform="translate(262.8 174.3)" fill="#ebebeb" stroke="#263238" stroke-linecap="round" stroke-linejoin="round" stroke-width="0.5"/>
      <line id="Line_226" data-name="Line 226" y1="7.5" x2="11.9" transform="translate(268.1 176.2)" fill="#ebebeb" stroke="#263238" stroke-linecap="round" stroke-linejoin="round" stroke-width="0.5"/>
      <line id="Line_227" data-name="Line 227" y1="7.5" x2="11.8" transform="translate(272 179.4)" fill="#ebebeb" stroke="#263238" stroke-linecap="round" stroke-linejoin="round" stroke-width="0.5"/>
      <line id="Line_228" data-name="Line 228" y1="7.4" x2="11.8" transform="translate(276.3 182.9)" fill="#ebebeb" stroke="#263238" stroke-linecap="round" stroke-linejoin="round" stroke-width="0.5"/>
    </g>
    <g id="Group_14655" data-name="Group 14655" transform="translate(887.2 213.15)">
      <g id="Group_14654" data-name="Group 14654">
        <path id="Path_8430" data-name="Path 8430" d="M386.5,133.4s-27.2,2.3-37.5-13.3l-18.9,18s21.3,14.7,37.3,10.8Z" fill="#263238"/>
        <path id="Path_8431" data-name="Path 8431" d="M386.5,133.4s-27.2,2.3-37.5-13.3l-18.9,18s21.3,14.7,37.3,10.8Z" fill="#fff" opacity="0.8"/>
      </g>
      <line id="Line_239" data-name="Line 239" x1="10.2" y2="9.6" transform="translate(361.3 136.6)" fill="#ebebeb" stroke="#263238" stroke-linecap="round" stroke-linejoin="round" stroke-width="0.5"/>
      <line id="Line_240" data-name="Line 240" x1="10.1" y2="9.6" transform="translate(355.8 135.7)" fill="#ebebeb" stroke="#263238" stroke-linecap="round" stroke-linejoin="round" stroke-width="0.5"/>
      <line id="Line_241" data-name="Line 241" x1="10.2" y2="9.7" transform="translate(350.2 134.8)" fill="#ebebeb" stroke="#263238" stroke-linecap="round" stroke-linejoin="round" stroke-width="0.5"/>
      <line id="Line_242" data-name="Line 242" x1="10.1" y2="9.7" transform="translate(345.8 132.4)" fill="#ebebeb" stroke="#263238" stroke-linecap="round" stroke-linejoin="round" stroke-width="0.5"/>
      <line id="Line_243" data-name="Line 243" x1="10.2" y2="9.6" transform="translate(340.9 129.9)" fill="#ebebeb" stroke="#263238" stroke-linecap="round" stroke-linejoin="round" stroke-width="0.5"/>
    </g>
    <g id="Group_14659" data-name="Group 14659" transform="translate(813.25 200.869)">
      <path id="Path_8434" data-name="Path 8434" d="M421.4,210.8l-6.7,37.7s14.6,1.5,22.7,9.2a41.783,41.783,0,0,1,5.2,5.8l7.2-38.4S445.2,209.9,421.4,210.8Z" fill="#263238"/>
      <path id="Path_8435" data-name="Path 8435" d="M421.4,210.8l-6.7,37.7s14.6,1.5,22.7,9.2a41.783,41.783,0,0,1,5.2,5.8l7.2-38.4S445.2,209.9,421.4,210.8Z" fill="#fff" opacity="0.8"/>
      <g id="Group_14658" data-name="Group 14658">
        <path id="Path_8436" data-name="Path 8436" d="M427.3,219.1a20.642,20.642,0,0,1,17.6,9.1" fill="none" stroke="#263238" stroke-linecap="round" stroke-linejoin="round" stroke-width="0.5"/>
        <path id="Path_8437" data-name="Path 8437" d="M425.6,224.4a20.642,20.642,0,0,1,17.6,9.1" fill="none" stroke="#263238" stroke-linecap="round" stroke-linejoin="round" stroke-width="0.5"/>
        <path id="Path_8438" data-name="Path 8438" d="M423.8,229.7c6.9-.2,14.8,3.8,18.6,9.6" fill="none" stroke="#263238" stroke-linecap="round" stroke-linejoin="round" stroke-width="0.5"/>
        <path id="Path_8439" data-name="Path 8439" d="M423,235.4c6.6-.2,14.4,3.9,18,9.4" fill="none" stroke="#263238" stroke-linecap="round" stroke-linejoin="round" stroke-width="0.5"/>
        <path id="Path_8440" data-name="Path 8440" d="M421.6,241.3c6.6-.2,14.4,3.9,18,9.4" fill="none" stroke="#263238" stroke-linecap="round" stroke-linejoin="round" stroke-width="0.5"/>
      </g>
    </g>
  </g>
</svg>
