<svg xmlns="http://www.w3.org/2000/svg" width="273.704" height="80.335" viewBox="0 0 273.704 80.335">
  <g id="Group_491" data-name="Group 491" transform="translate(-245 -80.165)">
    <g id="Group_4" data-name="Group 4" transform="translate(245 80.165)">
      <path id="Path_1" data-name="Path 1" d="M7.29,1.82H65.88V56.61L36.59,74.73,7.29,56.85Z" transform="translate(0.009 -1.82)" fill="#383876"/>
      <path id="Path_2" data-name="Path 2" d="M10.55,73.07a.48.48,0,0,1-.75.44L7.62,72.38c-.41-.21-.82-.58-1.22-.58s-.8.37-1.2.58L3.11,73.47a.57.57,0,0,1-.66,0,.57.57,0,0,1-.15-.62c.2-1.15.4-2.3.59-3.45a.46.46,0,0,0-.12-.35L.25,66.62A.54.54,0,0,1,0,66.06a.48.48,0,0,1,.44-.36c1.17-.17,2.34-.35,3.51-.51a.5.5,0,0,0,.43-.32l1.51-3.06c.1-.21.22-.39.49-.4s.41.17.52.4c.5,1,1,2,1.51,3.07a.49.49,0,0,0,.43.31c1.14.15,2.28.33,3.42.49a.512.512,0,0,1,.53.38.56.56,0,0,1-.24.56c-.83.81-1.66,1.62-2.5,2.42a.43.43,0,0,0-.14.44c.21,1.14.4,2.28.6,3.42A.793.793,0,0,1,10.55,73.07Z" transform="translate(0.009 -1.82)" fill="#d94148"/>
      <path id="Path_3" data-name="Path 3" d="M23.78,81.63a.48.48,0,0,1-.75.44l-2.18-1.13c-.4-.21-.81-.58-1.22-.58s-.79.37-1.19.58L16.34,82a.56.56,0,0,1-.65,0c-.22-.16-.19-.39-.15-.62.2-1.15.4-2.3.59-3.45a.51.51,0,0,0-.13-.35c-.83-.82-1.67-1.64-2.52-2.45a.56.56,0,0,1-.23-.56.49.49,0,0,1,.45-.36c1.17-.17,2.33-.35,3.5-.51a.48.48,0,0,0,.43-.32l1.51-3.06c.11-.22.23-.39.49-.4s.41.17.52.4l1.51,3.06a.5.5,0,0,0,.44.32c1.14.15,2.27.33,3.41.49a.5.5,0,0,1,.53.38.54.54,0,0,1-.23.56L23.3,77.6a.42.42,0,0,0-.13.44c.21,1.14.4,2.28.59,3.42A.62.62,0,0,1,23.78,81.63Z" transform="translate(0.009 -1.82)" fill="#d94148"/>
      <path id="Path_4" data-name="Path 4" d="M42.9,65.47a.62.62,0,0,1-1,.56c-.93-.47-1.86-1-2.79-1.45-.52-.27-1-.74-1.57-.74s-1,.47-1.53.74L33.34,66a.71.71,0,0,1-.84,0c-.27-.2-.24-.49-.19-.79.25-1.47.52-2.95.76-4.43a.62.62,0,0,0-.16-.45c-1.07-1.06-2.16-2.1-3.24-3.15a.69.69,0,0,1-.29-.72A.62.62,0,0,1,30,56c1.5-.22,3-.45,4.5-.65a.63.63,0,0,0,.55-.41c.64-1.31,1.3-2.62,1.94-3.93.14-.28.29-.51.63-.51a.725.725,0,0,1,.66.51c.65,1.31,1.31,2.62,2,3.93a.63.63,0,0,0,.55.41c1.47.19,2.93.42,4.39.63a.638.638,0,0,1,.68.49c.09.35-.1.52-.3.72L42.29,60.3a.52.52,0,0,0-.18.55c.27,1.47.51,2.94.77,4.4C42.89,65.34,42.9,65.43,42.9,65.47Z" transform="translate(0.009 -1.82)" fill="#f4feeb"/>
      <path id="Path_5" data-name="Path 5" d="M71.23,71.69a.48.48,0,0,1-.76.43L68.29,71c-.4-.21-.81-.57-1.22-.58s-.79.37-1.19.58l-2.1,1.1a.56.56,0,0,1-.65,0c-.22-.16-.19-.39-.15-.62.2-1.15.4-2.3.59-3.45a.47.47,0,0,0-.13-.35l-2.51-2.45c-.16-.15-.31-.31-.24-.56a.49.49,0,0,1,.45-.36c1.17-.17,2.33-.35,3.5-.51a.48.48,0,0,0,.43-.31c.5-1,1-2.05,1.52-3.07.1-.21.22-.39.48-.4s.41.18.52.4c.5,1,1,2,1.51,3.07a.49.49,0,0,0,.44.31l3.41.49a.508.508,0,0,1,.53.38.53.53,0,0,1-.23.56l-2.5,2.43a.39.39,0,0,0-.14.43c.21,1.14.4,2.28.6,3.42C71.22,71.58,71.22,71.65,71.23,71.69Z" transform="translate(0.009 -1.82)" fill="#d94148"/>
      <path id="Path_6" data-name="Path 6" d="M57.93,79.16a.48.48,0,0,1-.75.44L55,78.47c-.41-.21-.81-.58-1.22-.58s-.8.37-1.19.58l-2.1,1.09a.52.52,0,0,1-.81-.6c.2-1.15.41-2.3.59-3.45a.46.46,0,0,0-.12-.35c-.83-.82-1.68-1.64-2.52-2.45-.16-.16-.3-.32-.23-.56a.5.5,0,0,1,.45-.37l3.5-.5a.49.49,0,0,0,.43-.32l1.51-3.06c.11-.22.22-.39.49-.4s.41.17.52.4L55.81,71a.49.49,0,0,0,.43.32c1.14.15,2.28.33,3.42.49a.5.5,0,0,1,.53.38.56.56,0,0,1-.23.56l-2.51,2.42a.45.45,0,0,0-.14.44c.21,1.14.4,2.28.6,3.42A.586.586,0,0,1,57.93,79.16Z" transform="translate(0.009 -1.82)" fill="#d94148"/>
      <path id="Path_7" data-name="Path 7" d="M19.72,19.69c0-.67.08-1.28.12-1.89l.09-1.68c0-.77.37-1.13,1.15-1.14s1.6,0,2.4.06a25,25,0,0,1,8.12,2A20.71,20.71,0,0,1,37,20.71l.54.49,1.8-1.53A21.12,21.12,0,0,1,50.2,15.22,34.45,34.45,0,0,1,54,15c.87,0,1.19.35,1.24,1.21,0,1.15.12,2.29.18,3.5l1.61-.41.81-.21c.5-.12.75.06.78.56.11,2,.21,3.93.31,5.89L59.74,40v.88c0,.56-.19.82-.74.89l-4.57.58-11.61,1.5-2.23.28a.61.61,0,0,0-.54.31,1.8,1.8,0,0,1-.66.56,3.59,3.59,0,0,1-3.56,0,1.31,1.31,0,0,1-.58-.47c-.19-.4-.5-.41-.85-.45L16.25,41.79c-.67-.08-.88-.34-.84-1l.6-11.2.51-9.72c0-.81.22-.93,1-.73Zm1.12,16.65c5.81.11,11.23,1.28,15.76,5.37V23.52a1,1,0,0,0-.34-.8c-3.89-3.88-8.7-5.51-14.07-5.76-.25,0-.32.08-.33.32l-.33,6.16c-.21,3.76-.41,7.52-.62,11.28C20.89,35.25,20.87,35.78,20.84,36.34Zm33.51,0C54,29.86,53.65,23.43,53.3,17a4.64,4.64,0,0,0-.53,0c-1.24.15-2.48.25-3.7.46A18.75,18.75,0,0,0,38.9,22.75a1,1,0,0,0-.32.73V41.65A20.16,20.16,0,0,1,46,37.54a30.61,30.61,0,0,1,8.35-1.19ZM19.7,20.13l-1,.19c-.25,0-.32.16-.34.4q-.2,3.72-.41,7.44c-.2,3.56-.41,7.12-.61,10.68,0,.63-.07,1.27-.1,1.92,4.83-.94,9.61-1.58,14.4-.08A10.57,10.57,0,0,0,30.13,40a26.13,26.13,0,0,0-10.06-1.6c-1,0-1.32-.33-1.28-1.28.09-1.75.18-3.5.28-5.24.17-3.16.35-6.32.52-9.48C19.63,21.64,19.66,20.91,19.7,20.13ZM57.94,40.62v-.54Q57.49,32,57,23.91q-.09-1.68-.21-3.36c0-.1-.08-.28-.15-.3-.38-.1-.77-.15-1.2-.22.08,1.53.16,3,.23,4.43.23,4.22.47,8.43.69,12.65,0,.93-.32,1.29-1.26,1.26A27.11,27.11,0,0,0,46,39.64c-.58.19-1.14.42-1.71.64v.1C48.86,39.1,53.39,39.74,57.94,40.62Z" transform="translate(0.009 -1.82)" fill="#f4feeb"/>
      <path id="Path_8" data-name="Path 8" d="M37.59,44.4a2.72,2.72,0,0,1-1.26-.33l-.17-.1A1.87,1.87,0,0,0,34.6,43l-14-1.77a33.32,33.32,0,0,1,4.81-.39,19.37,19.37,0,0,1,5.87.84l.8-1.84a17.48,17.48,0,0,1,3.78,2.64l1.8,1.62v-.29l1.64-1.37a22.21,22.21,0,0,1,3.75-2.59l.41,1.74,1.11-.2a19.23,19.23,0,0,1,5.26-.68,33.63,33.63,0,0,1,5.21.46L42.68,42.78l-2.22.28a1.72,1.72,0,0,0-1.33.81.69.69,0,0,1-.24.18,2.7,2.7,0,0,1-1.3.35Zm0-21.53a1.88,1.88,0,0,0-.12-.3l.07.07.24-.21A1.89,1.89,0,0,0,37.59,22.87ZM21,16.06h.42a1.21,1.21,0,0,0-.44.43S21,16.09,21,16.06Z" transform="translate(0.009 -1.82)" fill="#f4feeb"/>
      <path id="Path_9" data-name="Path 9" d="M24.28,19.61c4,.41,7.61,1.61,10.54,4.48a3.08,3.08,0,0,1,.24.27.52.52,0,0,1-.05.72.51.51,0,0,1-.73,0c-.18-.14-.34-.33-.52-.49A15,15,0,0,0,26,21c-.61-.11-1.22-.17-1.83-.24a.568.568,0,0,1-.63-.59A.635.635,0,0,1,24.28,19.61Z" transform="translate(0.009 -1.82)" fill="#f4feeb"/>
      <path id="Path_10" data-name="Path 10" d="M24.28,19.61c4,.41,7.61,1.61,10.54,4.48a3.08,3.08,0,0,1,.24.27.52.52,0,0,1-.05.72.51.51,0,0,1-.73,0c-.18-.14-.34-.33-.52-.49A15,15,0,0,0,26,21c-.61-.11-1.22-.17-1.83-.24a.568.568,0,0,1-.63-.59A.635.635,0,0,1,24.28,19.61Z" transform="translate(0.009 -1.82)" fill="#f4feeb"/>
      <path id="Path_11" data-name="Path 11" d="M24.35,27.52a18,18,0,0,1,10.23,4.2,1.53,1.53,0,0,1,.28.29.47.47,0,0,1-.06.68,1.39,1.39,0,0,1-.66.1s-.1-.07-.15-.11a16.77,16.77,0,0,0-10-4.09h-.16a.5.5,0,0,1-.5-.52.52.52,0,0,1,.51-.56,3.54,3.54,0,0,1,.51.01Z" transform="translate(0.009 -1.82)" fill="#f4feeb"/>
      <path id="Path_12" data-name="Path 12" d="M24.35,27.52a18,18,0,0,1,10.23,4.2,1.53,1.53,0,0,1,.28.29.47.47,0,0,1-.06.68,1.39,1.39,0,0,1-.66.1s-.1-.07-.15-.11a16.77,16.77,0,0,0-10-4.09h-.16a.5.5,0,0,1-.5-.52.52.52,0,0,1,.51-.56,3.54,3.54,0,0,1,.51.01Z" transform="translate(0.009 -1.82)" fill="#f4feeb"/>
      <path id="Path_13" data-name="Path 13" d="M24.16,23.55a18.19,18.19,0,0,1,10.33,4.16,3.42,3.42,0,0,1,.43.42.5.5,0,0,1,0,.72.52.52,0,0,1-.76.07l-.09-.08a16.72,16.72,0,0,0-10-4.18c-.44,0-.66-.24-.64-.6S23.71,23.53,24.16,23.55Z" transform="translate(0.009 -1.82)" fill="#f4feeb"/>
      <path id="Path_14" data-name="Path 14" d="M24.16,23.55a18.19,18.19,0,0,1,10.33,4.16,3.42,3.42,0,0,1,.43.42.5.5,0,0,1,0,.72.52.52,0,0,1-.76.07l-.09-.08a16.72,16.72,0,0,0-10-4.18c-.44,0-.66-.24-.64-.6S23.71,23.53,24.16,23.55Z" transform="translate(0.009 -1.82)" fill="#f4feeb"/>
      <path id="Path_15" data-name="Path 15" d="M23.93,31.88a18.09,18.09,0,0,1,10.48,3.76,1.88,1.88,0,0,1,.36.33.51.51,0,0,1,0,.72.52.52,0,0,1-.69.09.85.85,0,0,1-.19-.14,16.45,16.45,0,0,0-8.93-3.57L23.74,33c-.44,0-.68-.23-.67-.57s.26-.54.7-.53Z" transform="translate(0.009 -1.82)" fill="#f4feeb"/>
      <path id="Path_16" data-name="Path 16" d="M23.93,31.88a18.09,18.09,0,0,1,10.48,3.76,1.88,1.88,0,0,1,.36.33.51.51,0,0,1,0,.72.52.52,0,0,1-.69.09.85.85,0,0,1-.19-.14,16.45,16.45,0,0,0-8.93-3.57L23.74,33c-.44,0-.68-.23-.67-.57s.26-.54.7-.53Z" transform="translate(0.009 -1.82)" fill="#f4feeb"/>
      <path id="Path_17" data-name="Path 17" d="M51.56,20.37c0,.32-.24.47-.58.53-1.34.22-2.7.37-4,.72a13.17,13.17,0,0,0-6.07,3.43.56.56,0,0,1-.84.08.57.57,0,0,1,.07-.87,14.28,14.28,0,0,1,6.66-3.74,40.4,40.4,0,0,1,4.1-.72.55.55,0,0,1,.66.57Z" transform="translate(0.009 -1.82)" fill="#f4feeb"/>
      <path id="Path_18" data-name="Path 18" d="M51.56,20.37c0,.32-.24.47-.58.53-1.34.22-2.7.37-4,.72a13.17,13.17,0,0,0-6.07,3.43.56.56,0,0,1-.84.08.57.57,0,0,1,.07-.87,14.28,14.28,0,0,1,6.66-3.74,40.4,40.4,0,0,1,4.1-.72.55.55,0,0,1,.66.57Z" transform="translate(0.009 -1.82)" fill="#f4feeb"/>
      <path id="Path_19" data-name="Path 19" d="M51.75,24.3c0,.35-.23.53-.67.59a30.849,30.849,0,0,0-3.59.58A15.28,15.28,0,0,0,41,28.83c-.31.28-.63.29-.85.05a.58.58,0,0,1,.11-.88,17.16,17.16,0,0,1,6.51-3.5,16.47,16.47,0,0,1,4.29-.72C51.49,23.77,51.73,24,51.75,24.3Z" transform="translate(0.009 -1.82)" fill="#f4feeb"/>
      <path id="Path_20" data-name="Path 20" d="M51.75,24.3c0,.35-.23.53-.67.59a30.849,30.849,0,0,0-3.59.58A15.28,15.28,0,0,0,41,28.83c-.31.28-.63.29-.85.05a.58.58,0,0,1,.11-.88,17.16,17.16,0,0,1,6.51-3.5,16.47,16.47,0,0,1,4.29-.72C51.49,23.77,51.73,24,51.75,24.3Z" transform="translate(0.009 -1.82)" fill="#f4feeb"/>
      <path id="Path_21" data-name="Path 21" d="M50.68,27.85h.72a.55.55,0,0,1,.58.54.58.58,0,0,1-.61.56,11.171,11.171,0,0,0-1.83.1,16.75,16.75,0,0,0-8.41,3.46c-.43.35-.87.28-1-.16a.63.63,0,0,1,.29-.69,15.09,15.09,0,0,1,4.2-2.44,17.36,17.36,0,0,1,6.06-1.37Z" transform="translate(0.009 -1.82)" fill="#f4feeb"/>
      <path id="Path_22" data-name="Path 22" d="M50.68,27.85h.72a.55.55,0,0,1,.58.54.58.58,0,0,1-.61.56,11.171,11.171,0,0,0-1.83.1,16.75,16.75,0,0,0-8.41,3.46c-.43.35-.87.28-1-.16a.63.63,0,0,1,.29-.69,15.09,15.09,0,0,1,4.2-2.44,17.36,17.36,0,0,1,6.06-1.37Z" transform="translate(0.009 -1.82)" fill="#f4feeb"/>
      <path id="Path_23" data-name="Path 23" d="M52.17,32.66c0,.35-.24.52-.69.56-1.09.1-2.19.13-3.26.33a15.49,15.49,0,0,0-7,3.11.58.58,0,0,1-.85,0c-.23-.27-.19-.59.15-.87A16.65,16.65,0,0,1,47,32.69a19.1,19.1,0,0,1,4.51-.58C51.92,32.1,52.17,32.3,52.17,32.66Z" transform="translate(0.009 -1.82)" fill="#f4feeb"/>
      <path id="Path_24" data-name="Path 24" d="M52.17,32.66c0,.35-.24.52-.69.56-1.09.1-2.19.13-3.26.33a15.49,15.49,0,0,0-7,3.11.58.58,0,0,1-.85,0c-.23-.27-.19-.59.15-.87A16.65,16.65,0,0,1,47,32.69a19.1,19.1,0,0,1,4.51-.58C51.92,32.1,52.17,32.3,52.17,32.66Z" transform="translate(0.009 -1.82)" fill="#f4feeb"/>
    </g>
    <path id="Overview" d="M5.016-9.144v-4.872H7.68c1.9,0,2.736.912,2.736,2.448,0,1.488-.84,2.424-2.736,2.424Zm8.856-2.424c0-2.9-2.016-5.184-6.048-5.184H1.656V0h3.36V-6.432H7.824C12.144-6.432,13.872-9.024,13.872-11.568Zm12.2-5.208h-9.72V0h9.72V-2.736h-6.36v-4.44h5.64V-9.84h-5.64v-4.2h6.36ZM38.1-11.544c0,1.512-.84,2.5-2.712,2.5H32.576v-4.92h2.808C37.256-13.968,38.1-13.032,38.1-11.544Zm-8.88-5.208V0h3.36V-6.528H34.16L37.856,0h3.888L37.736-6.792a4.837,4.837,0,0,0,3.816-4.824c0-2.808-2.016-5.136-6.048-5.136ZM44.7,0h3.36V-7.08h5.352V-9.744H48.06v-4.3h6.984v-2.712H44.7ZM73.864-8.424A8.366,8.366,0,0,0,65.3-16.992,8.414,8.414,0,0,0,56.7-8.424,8.42,8.42,0,0,0,65.3.168,8.386,8.386,0,0,0,73.864-8.424Zm-13.7,0c0-3.408,2.088-5.544,5.136-5.544,3.024,0,5.112,2.136,5.112,5.544S68.32-2.832,65.3-2.832C62.248-2.832,60.16-5.016,60.16-8.424Zm25.18-3.12c0,1.512-.84,2.5-2.712,2.5H79.82v-4.92h2.808C84.5-13.968,85.34-13.032,85.34-11.544Zm-8.88-5.208V0h3.36V-6.528H81.4L85.1,0h3.888L84.98-6.792A4.837,4.837,0,0,0,88.8-11.616c0-2.808-2.016-5.136-6.048-5.136ZM91.944,0H95.3V-10.9L99.816,0h2.544l4.488-10.9V0h3.36V-16.752h-3.792L101.088-4.3,95.76-16.752H91.944ZM125,0h3.552l-6.024-16.776h-3.912L112.588,0h3.528l1.1-3.192h6.672ZM122.98-5.88h-4.848l2.424-7.008Zm18.892-10.9v11.52l-7.608-11.52H130.9V0h3.36V-11.5L141.872,0h3.36V-16.776ZM147.828-8.4a8.26,8.26,0,0,0,8.5,8.544A7.866,7.866,0,0,0,164.2-5.28h-3.864A4.206,4.206,0,0,1,156.3-2.856c-2.928,0-5.016-2.16-5.016-5.544,0-3.408,2.088-5.544,5.016-5.544a4.224,4.224,0,0,1,4.032,2.4H164.2a7.894,7.894,0,0,0-7.872-5.424A8.28,8.28,0,0,0,147.828-8.4ZM176.9-16.776h-9.72V0h9.72V-2.736h-6.36v-4.44h5.64V-9.84h-5.64v-4.2h6.36ZM9.384,13.032A8.3,8.3,0,0,0,.84,21.6a8.291,8.291,0,0,0,8.568,8.544,8.187,8.187,0,0,0,8.184-6.528V20.688H8.52v2.568h5.76A4.548,4.548,0,0,1,9.528,27.12c-3.12,0-5.232-2.112-5.232-5.52,0-3.336,2.088-5.472,5.088-5.472a4.212,4.212,0,0,1,3.936,2.16h3.864C16.1,14.928,13.128,13.032,9.384,13.032Zm19.684,5.424c0,1.512-.84,2.5-2.712,2.5H23.548v-4.92h2.808C28.228,16.032,29.068,16.968,29.068,18.456Zm-8.88-5.208V30h3.36V23.472h1.584L28.828,30h3.888l-4.008-6.792a4.837,4.837,0,0,0,3.816-4.824c0-2.808-2.016-5.136-6.048-5.136ZM47.048,30H50.6L44.576,13.224H40.664L34.64,30h3.528l1.1-3.192h6.672Zm-2.016-5.88H40.184l2.424-7.008Zm13.78-10.872H52.956V30h5.856c5.352,0,8.832-3.288,8.832-8.352C67.644,16.56,64.164,13.248,58.812,13.248Zm-2.5,13.9V16.08h2.376c3.528,0,5.52,2.088,5.52,5.568s-1.992,5.5-5.52,5.5ZM70.264,30h3.36V13.248h-3.36ZM88,13.224v11.52L80.4,13.224h-3.36V30H80.4V18.5L88,30h3.36V13.224Zm14.5-.192A8.3,8.3,0,0,0,93.96,21.6a8.291,8.291,0,0,0,8.568,8.544,8.187,8.187,0,0,0,8.184-6.528V20.688H101.64v2.568h5.76a4.548,4.548,0,0,1-4.752,3.864c-3.12,0-5.232-2.112-5.232-5.52,0-3.336,2.088-5.472,5.088-5.472a4.212,4.212,0,0,1,3.936,2.16H110.3C109.224,14.928,106.248,13.032,102.5,13.032ZM119.12,30h3.36V13.248h-3.36Zm17.74-16.776v11.52l-7.608-11.52h-3.36V30h3.36V18.5L136.86,30h3.36V13.224Zm12.628.024h-5.856V30h5.856c5.352,0,8.832-3.288,8.832-8.352C158.32,16.56,154.84,13.248,149.488,13.248Zm-2.5,13.9V16.08h2.376c3.528,0,5.52,2.088,5.52,5.568s-1.992,5.5-5.52,5.5Zm23.668-13.92h-9.72V30h9.72V27.264H164.3v-4.44h5.64V20.16H164.3v-4.2h6.36ZM183.84,30H187.7l-5.352-8.328,5.256-8.424h-3.792l-3.264,5.616-3.624-5.616h-3.864l5.352,8.3L173.136,30h3.792l3.288-5.64Z" transform="translate(331 101.165)" fill="#131523"/>
  </g>
</svg>
