<svg id="noun-playground-4416709" xmlns="http://www.w3.org/2000/svg" width="49.764" height="45.111" viewBox="0 0 49.764 45.111">
  <g id="Group_26557" data-name="Group 26557" transform="translate(0 0)">
    <path id="Path_8796" data-name="Path 8796" d="M27.341,48.862a3.513,3.513,0,1,1-3.513-3.47A3.492,3.492,0,0,1,27.341,48.862Zm26.4,16.043c-4.519,0-5.442-2.633-6.831-6.622C45.707,54.849,43.967,49,34.9,47.856v1.6c6.094.792,8.52,3.674,10.491,9.349,1.389,3.949,2.689,7.684,8.356,7.684a.408.408,0,1,1,0,.817c-6.253,0-7.786-4.377-9.143-8.271-1.261-3.6-2.761-7.984-9.7-8.747,0,22.117.088,20.846-.136,21.419h1.3a.8.8,0,0,0,.8-.793V64.85c0-2.95,4.535-2.958,4.535,0v6.066a.8.8,0,0,0,.8.793H53.745a.8.8,0,0,0,.8-.793V68.728A1.99,1.99,0,0,0,53.745,64.905ZM12.751,59.243H11.539a.8.8,0,0,0-.568.231.785.785,0,0,0-.234.562v2.831H9.171a.8.8,0,0,0-.8.793v2.831H6.8a.8.8,0,0,0-.8.793v3.632a.8.8,0,0,0,.8.793H12.9c-.236-.6-.144-.315-.144-12.466ZM33.3,70.913a.8.8,0,0,1-.8.793H27.711a.8.8,0,0,1-.8-.793V65.488c0-4.022-6.161-4.021-6.161,0v5.425a.8.8,0,0,1-.8.793H15.16a.8.8,0,0,1-.8-.793c0-19.221,0-8.613,0-34.114H10.78a.8.8,0,0,1-.76-.544.788.788,0,0,1,.28-.885l10.623-7.827a4.938,4.938,0,0,1,5.809,0L37.356,35.37a.788.788,0,0,1,.28.885.8.8,0,0,1-.76.544H33.3ZM31.693,36.8H29.752v3.965h1.941Zm-12.181,0v3.965h8.634V36.8Zm-3.547,0v3.965h1.941V36.8ZM28.946,48.862a5.119,5.119,0,1,0-5.118,5.057A5.088,5.088,0,0,0,28.946,48.862Z" transform="translate(-6 -26.598)" fill="#e6e6e6"/>
  </g>
</svg>
