<svg id="noun-toilet-11481" xmlns="http://www.w3.org/2000/svg" width="48.507" height="60.754" viewBox="0 0 48.507 60.754">
  <g id="Group_26550" data-name="Group 26550" transform="translate(0 0)">
    <path id="Path_8777" data-name="Path 8777" d="M45.615,3.623H38.24A2.18,2.18,0,0,0,36.059,5.8V27.576a2.18,2.18,0,0,0,2.181,2.181h7.375A2.181,2.181,0,0,0,47.8,27.576V5.8A2.181,2.181,0,0,0,45.615,3.623Zm-2.475,9a1.2,1.2,0,0,1-2.406,0V8.685a1.2,1.2,0,0,1,2.406,0Z" transform="translate(0.711 0.735)" fill="#e6e6e6"/>
    <g id="Group_26549" data-name="Group 26549">
      <path id="Path_8778" data-name="Path 8778" d="M34.417,30.483V2.272A2.419,2.419,0,0,0,31.98.008,2.488,2.488,0,0,0,29.8,2.272V30.483Z" transform="translate(-0.576 -0.008)" fill="#e6e6e6"/>
      <path id="Path_8779" data-name="Path 8779" d="M9.569,27.344v.011a4.881,4.881,0,0,0-2.409.822,4.523,4.523,0,0,0-1.268,2.381A13.643,13.643,0,0,0,5.56,33.55c0,9.964,6.422,17.6,12.732,21.591H49.409l0-27.787Z" transform="translate(-5.56 5.613)" fill="#e6e6e6"/>
    </g>
  </g>
</svg>
