<svg id="noun-water-6572204" xmlns="http://www.w3.org/2000/svg" width="42.709" height="51.015" viewBox="0 0 42.709 51.015">
  <path id="Path_8789" data-name="Path 8789" d="M17.34,49.45a10.076,10.076,0,0,0,10.239,9.893A10.076,10.076,0,0,0,37.792,49.45c0-3.8-5.231-12.567-8.912-18.111a1.569,1.569,0,0,0-2.615,0C22.59,36.883,17.34,45.651,17.34,49.45Z" transform="translate(-17.34 -18.403)" fill="#e6e6e6"/>
  <path id="Path_8790" data-name="Path 8790" d="M51.38,64.9a10.233,10.233,0,0,0,20.452,0c0-3.792-5.231-12.56-8.912-18.1a1.569,1.569,0,0,0-2.615,0C56.63,52.343,51.38,61.111,51.38,64.9Z" transform="translate(-29.123 -23.755)" fill="#e6e6e6"/>
  <path id="Path_8791" data-name="Path 8791" d="M44.72,24.175a6.891,6.891,0,0,0,13.77,0c0-2.393-3.125-7.794-5.571-11.547a1.569,1.569,0,0,0-2.615,0C47.858,16.381,44.72,21.782,44.72,24.175Z" transform="translate(-26.818 -11.927)" fill="#e6e6e6"/>
</svg>
